<svg width="317" height="181" viewBox="0 0 317 181" fill="none" xmlns="http://www.w3.org/2000/svg">
<g clip-path="url(#clip0)">
<path opacity="0.1" d="M190.566 130.457C196.69 130.108 204.288 125.95 210.195 124.111C217.187 121.94 224.207 119.851 231.255 117.845C255.789 110.856 280.587 104.902 305.647 99.981C307.986 99.5205 310.328 99.0711 312.674 98.6329C309.02 90.7279 303.358 83.9208 296.254 78.8913C296.436 77.1608 296.528 75.422 296.531 73.682C296.531 46.1819 274.576 23.8884 247.484 23.8884C239.144 23.8795 230.943 26.0346 223.682 30.1435C204.507 17.5168 179.479 9.87485 152.096 9.87485C113.186 9.87485 79.0283 25.3058 59.673 48.5425L150.639 63.9263L206.43 73.3574C142.827 75.2575 79.0283 77.1465 15.6089 72.6862C7.23721 80.7949 1.93852 91.5624 0.618378 103.148C-0.701767 114.735 2.03858 126.42 8.37109 136.208C8.37109 137.203 8.41265 138.191 8.48747 139.17C10.103 139.633 11.663 140.083 13.0624 140.377C35.5276 145.127 58.137 149.103 80.8904 152.304C64.1232 162.654 43.7038 164.118 24.3624 168.501C33.7283 176.24 46.4471 180.983 60.4627 180.983H269.151C291.748 180.983 310.064 165.236 310.064 145.808C313.455 140.21 315.715 134 316.715 127.531C274.9 131.572 232.565 128.064 190.566 130.457Z" fill="#1D9B75"/>
<path opacity="0.1" d="M317 119.257C317.023 111.25 315.121 103.355 311.456 96.2377C307.791 89.1208 302.469 82.9906 295.941 78.3644C296.121 76.6347 296.214 74.8969 296.218 73.1578C296.218 45.6578 274.252 23.3726 247.171 23.3726C238.83 23.3636 230.629 25.5177 223.366 29.6249C204.191 16.9927 179.16 9.34793 151.778 9.34793C107.237 9.34793 68.8977 29.5833 51.8949 58.6006C50.95 58.5451 49.9996 58.5146 49.0408 58.5146C21.9573 58.5146 -0.00551947 80.8082 -0.00551947 108.308C-0.0245028 118.022 2.77905 127.531 8.06357 135.678C8.06357 160.421 31.3925 180.479 60.158 180.479H268.852C291.446 180.479 309.762 164.729 309.762 145.3C314.514 137.448 317.018 128.438 317 119.257Z" fill="#1D9B75"/>
<path d="M258.887 88.7497C258.491 88.4452 258.027 88.2415 257.535 88.1561C257.017 88.0368 256.487 87.9619 255.961 87.8787L249.139 86.8939C248.45 86.766 247.748 86.7287 247.049 86.783C246.699 86.8118 246.358 86.9099 246.046 87.0718C245.734 87.2338 245.457 87.4562 245.232 87.7261C245.028 87.9773 244.917 88.2905 244.916 88.6137C244.954 88.9391 245.059 89.2528 245.226 89.5347C245.292 89.6664 245.349 89.8026 245.395 89.9424C245.46 90.2562 245.542 90.5663 245.639 90.8717C245.669 90.9378 245.708 90.9994 245.755 91.0547C245.757 91.0704 245.757 91.0862 245.755 91.1019C245.681 91.4847 245.922 91.8841 245.814 92.253C245.719 92.5693 245.412 92.7607 245.218 93.0242C245.088 93.2111 245.017 93.432 245.012 93.6594C245.007 93.8867 245.069 94.1105 245.19 94.3029C245.398 94.6247 245.775 94.8438 245.883 95.2128C246.024 95.6982 245.642 96.167 245.301 96.5414C244.674 97.2308 244.094 97.962 243.566 98.73C243.418 98.9189 243.322 99.1438 243.289 99.3819C243.259 99.8645 243.722 100.289 243.641 100.769C243.577 101.146 243.209 101.376 242.89 101.601C241.713 102.378 240.768 103.626 240.673 105.038C240.371 102.791 239.441 100.676 237.991 98.9353C237.595 98.4582 237.16 97.9783 236.996 97.3736C236.935 97.1323 236.924 96.8743 236.841 96.6413C236.564 95.9062 235.683 95.59 235.298 94.9132C235.021 94.4361 235.021 93.8231 234.677 93.4042C234.333 92.9853 233.793 92.891 233.497 92.4861C233.349 92.2117 233.223 91.926 233.12 91.6317C232.995 91.3917 232.821 91.1816 232.607 91.0159C232.566 90.9832 232.524 90.9526 232.48 90.9244C232.526 90.8832 232.563 90.8327 232.588 90.7763C232.613 90.7199 232.626 90.6589 232.627 90.5971C232.627 90.2725 232.305 90.0589 232.025 89.898C231.665 89.6928 231.313 89.4709 230.969 89.2406C231.344 89.0659 231.669 88.7998 231.914 88.4667C232.222 87.9699 232.349 87.3821 232.275 86.8024C232.256 86.3345 232.081 85.8864 231.779 85.5292C231.604 85.3434 231.385 85.2102 231.202 85.0355C230.728 84.5722 230.568 83.8871 230.371 83.2546C230.11 82.4225 229.703 81.5487 228.944 81.1077C228.578 80.8941 228.151 80.7942 227.794 80.5695C227.436 80.3449 227.137 79.9205 227.262 79.5127C227.345 79.2353 227.603 79.0439 227.777 78.8081C227.986 78.5033 228.066 78.1284 228 77.7649C227.934 77.4014 227.727 77.0786 227.425 76.8664C227.22 76.7361 226.968 76.6223 226.927 76.3838C226.766 76.3421 226.621 76.2559 226.507 76.1352C226.393 76.0145 226.316 75.8642 226.284 75.7014C226.221 75.3752 226.221 75.0401 226.284 74.7139C226.356 74.198 226.427 73.6839 226.497 73.1717C226.619 73.2225 226.75 73.2486 226.882 73.2486C227.014 73.2486 227.145 73.2225 227.267 73.1717C227.507 73.5612 227.786 73.9255 228.099 74.259C228.943 75.2565 229.6 76.3982 230.038 77.6293C230.196 78.0731 230.357 78.5696 230.767 78.8054C230.908 78.8858 231.069 78.9274 231.208 79.0134C231.379 79.1326 231.525 79.2832 231.64 79.4572C231.973 79.8983 232.305 80.3365 232.635 80.7776L232.651 80.8442C232.66 80.8832 232.675 80.9206 232.696 80.9551C232.757 81.0243 232.842 81.0678 232.934 81.0772C233.954 81.3129 235.098 81.5293 235.982 80.9718C236.78 80.4725 237.129 79.485 237.805 78.8248C238.285 78.356 238.964 77.9926 239.1 77.3324C238.938 77.2825 238.779 77.2241 238.623 77.1577C238.761 77.019 238.9 76.8581 239.088 76.675C239.362 76.4067 239.609 76.1122 239.826 75.7957C240.059 75.4053 240.246 74.9881 240.38 74.553C240.914 73.0293 241.449 71.5046 241.987 69.9789C242.242 69.2577 242.497 68.531 242.818 67.8292C243.151 67.0692 243.544 66.3396 243.907 65.5935C244.844 63.6529 245.567 61.616 246.063 59.5187C246.151 59.2326 246.18 58.9316 246.149 58.6339C246.071 58.154 245.708 57.7767 245.362 57.4355C245.014 57.0581 244.617 56.7288 244.182 56.4564C243.963 56.3203 243.72 56.2292 243.466 56.1882C243.212 56.1473 242.952 56.1573 242.702 56.2178C241.992 56.4259 241.546 57.1526 241.383 57.8821C241.219 58.6117 241.28 59.3634 241.211 60.1012C241.111 61.1692 240.745 62.201 240.657 63.2717C240.61 63.8903 240.657 64.5172 240.582 65.1358C240.446 65.9453 240.164 66.7234 239.751 67.4325C238.852 69.1237 237.635 70.625 236.168 71.8541C235.999 71.9955 235.824 72.1315 235.658 72.284C235.658 72.1647 235.677 72.0427 235.694 71.9234C235.573 71.9548 235.456 71.9966 235.342 72.0482C235.356 71.9082 235.342 71.7667 235.3 71.6322C235.079 70.9692 234.092 70.8 233.915 70.126C233.885 69.9593 233.87 69.7904 233.868 69.6211C233.81 69.0303 233.408 68.531 233.269 67.9568C233.142 67.427 233.239 66.8472 232.992 66.3563C232.782 66.0493 232.535 65.7697 232.255 65.5241C231.922 65.1434 231.682 64.6905 231.554 64.201C231.518 64.0651 231.485 63.9236 231.446 63.7877C231.488 63.4799 231.454 63.1665 231.346 62.8751C231.094 62.2482 230.443 61.846 230.207 61.2108C230.025 60.717 230.105 60.1012 229.759 59.7184C229.574 59.5355 229.349 59.3995 229.102 59.3218C227.834 58.8274 226.503 58.5127 225.148 58.387C224.388 58.3176 223.552 58.2788 223.008 57.7434C222.374 57.1221 222.343 56.0042 221.601 55.5244C220.947 55.1 220.021 55.4134 219.514 56.0098C219.438 56.0975 219.368 56.1902 219.304 56.2872C219.211 55.9154 219.191 55.5292 219.245 55.1499C219.245 55.0556 219.265 54.9585 219.273 54.8725C220.524 54.4632 221.589 53.6215 222.277 52.4981C222.277 52.4981 222.277 52.4981 222.277 52.5147L222.31 52.6007C222.391 52.8032 222.518 52.9974 222.706 53.0196C222.832 53.018 222.953 52.974 223.05 52.8947C223.217 52.7784 223.371 52.6445 223.51 52.4953C223.58 52.4176 223.647 52.3372 223.709 52.254C223.837 52.0807 223.947 51.8948 224.036 51.6992C224.174 51.4048 224.267 51.0917 224.314 50.77C224.363 50.4482 224.369 50.1181 224.424 49.7963C224.476 49.5473 224.544 49.3017 224.627 49.0613C224.654 48.9808 224.682 48.9004 224.707 48.8199C224.732 48.7395 224.768 48.6313 224.796 48.5425C224.969 47.972 225.062 47.3802 225.073 46.7839C225.073 46.6841 225.073 46.5842 225.073 46.4843C225.063 46.0952 224.975 45.712 224.815 45.3572C224.655 45.0023 224.426 44.683 224.142 44.4178C223.665 44.0267 223.033 43.863 222.684 43.3332C222.457 42.9782 222.407 42.5205 222.274 42.1044C222.13 41.6065 221.85 41.1588 221.465 40.8122C221.08 40.4656 220.606 40.2338 220.096 40.1433C219.482 40.0759 218.866 40.2456 218.373 40.6176L218.334 40.6481C218.059 40.8582 217.826 41.1178 217.647 41.4137C217.28 41.3128 216.945 41.1221 216.671 40.8589C216.394 40.601 216.181 40.2764 215.901 40.0268C215.639 39.787 215.318 39.6219 214.971 39.5487C214.624 39.4755 214.264 39.4969 213.928 39.6107C213.582 39.7495 213.274 39.9684 213.028 40.2495C212.783 40.5306 212.608 40.8659 212.517 41.2279C212.365 41.7993 212.393 42.4567 212.074 42.9338C211.828 43.3055 211.423 43.4886 211.14 43.827C210.965 44.0413 210.845 44.2957 210.791 44.5676C210.758 44.7197 210.742 44.8751 210.744 45.0308C210.744 45.1002 210.744 45.1695 210.761 45.2361C210.761 45.2361 210.761 45.2583 210.761 45.2694C210.771 45.3454 210.786 45.4205 210.808 45.4941C210.887 45.7753 211.028 46.0351 211.221 46.2541C211.404 46.4639 211.632 46.629 211.888 46.7368C211.993 46.7776 212.101 46.8119 212.21 46.8394L212.54 46.9143L212.656 46.942C212.258 47.6899 212.037 48.5194 212.01 49.3663C211.983 50.2133 212.151 51.0551 212.501 51.8268C212.501 51.9045 212.481 51.9821 212.473 52.0598C212.428 53.1521 212.476 54.2462 212.617 55.3302C212.656 55.7601 212.678 56.2345 212.415 56.5756C212.295 56.7099 212.16 56.8299 212.013 56.9335C212.163 56.7393 212.315 56.5479 212.47 56.3565C212.08 55.9626 211.462 55.9127 210.908 55.9515C209.835 56.0317 208.794 56.3501 207.859 56.8835C207.239 57.2414 206.601 57.7157 205.892 57.6325C205.474 57.5853 205.061 57.3551 204.653 57.4661C204.425 57.5598 204.211 57.6869 204.019 57.8433C203.867 57.9521 203.684 58.0086 203.498 58.0042C203.063 57.4688 202.39 57.1055 201.869 56.67C201.276 56.1416 200.733 55.5594 200.248 54.9307C199.35 53.8462 198.455 52.7588 197.574 51.6631C196.831 50.7422 196.069 49.7464 195.939 48.5675C195.925 48.4506 195.919 48.3329 195.919 48.2152C195.937 47.6551 196.008 47.0979 196.13 46.5509C196.163 46.4189 196.163 46.2808 196.13 46.1487C196.047 45.8713 195.728 45.7687 195.454 45.7077C195.49 45.4941 195.515 45.2749 195.529 45.0669C195.684 42.6814 195.515 40.257 196.019 37.9214C196.21 37.0227 196.523 36.1129 197.169 35.461C198.18 34.4375 199.874 34.1906 200.649 32.9784C201.298 31.9687 201.04 30.5402 200.225 29.6498C199.411 28.7594 198.155 28.396 196.961 28.4404C196.626 28.4289 196.295 28.5177 196.011 28.6956C195.745 28.9319 195.546 29.2342 195.434 29.5721L194.246 32.4652C193.901 33.2185 193.61 33.9953 193.376 34.7897C193.043 36.0047 192.968 37.2862 192.705 38.5123C192.705 39.4554 192.098 40.6315 191.766 41.4997C191.394 42.4761 190.993 43.4414 190.657 44.4372C190.574 44.6869 190.283 45.4275 190.103 46.1015C190.035 46.1412 189.972 46.1887 189.915 46.243C189.77 46.4286 189.638 46.6242 189.521 46.8283C189.269 47.1612 188.859 47.3387 188.582 47.6605C188.305 47.9822 188.246 48.5731 188.632 48.7339C188.71 48.7603 188.791 48.7779 188.873 48.7866C188.923 48.7909 188.973 48.7992 189.022 48.8116C189.438 48.9281 189.601 49.4524 189.541 49.8851C189.48 50.3178 189.263 50.7173 189.227 51.15C189.153 51.9156 189.601 52.6284 190.034 53.272C190.481 53.9696 190.976 54.6359 191.513 55.2664C191.904 55.7047 192.345 56.0985 192.738 56.5202C194.237 58.0624 195.429 59.8654 196.776 61.5409C197.26 62.1732 197.811 62.7516 198.419 63.2662C198.816 63.577 199.231 63.8632 199.663 64.1233L201.979 65.5935C202.242 65.7862 202.539 65.9265 202.855 66.0068C202.958 66.0206 203.062 66.0206 203.165 66.0068C203.179 66.0761 203.19 66.1427 203.207 66.212C203.387 66.9388 203.783 67.599 203.828 68.3396C203.872 69.0802 203.806 69.8375 203.858 70.5864C203.908 71.2771 204.06 71.9733 204.099 72.6529C204.177 73.9622 203.855 75.2548 203.545 76.5364C203.077 78.4115 202.794 80.3254 201.882 82.0258C201.628 82.4946 201.328 82.9717 201.328 83.5071C201.328 83.5709 201.328 83.6374 201.345 83.7012L200.929 83.937C200.807 84.0064 200.685 84.0757 200.575 84.1478C200.048 84.4918 199.486 84.8718 199.269 85.4654C199.095 85.9453 199.175 86.4945 198.965 86.9605C198.955 86.9814 198.944 87.0018 198.931 87.0215C198.71 87.4543 198.269 87.776 198.169 88.2504C198.095 88.6137 198.239 88.9993 198.169 89.3599C198.169 89.3599 198.169 89.3599 198.169 89.3738C198.106 89.5549 198.056 89.7403 198.02 89.9286C198.017 89.9901 198.022 90.0517 198.036 90.1116C198.089 90.3218 198.205 90.5106 198.369 90.6525C198.469 90.7485 198.577 90.8348 198.693 90.9105C198.811 90.9882 198.933 91.0603 199.059 91.1269L199.131 91.1657C199.236 91.2212 199.341 91.2739 199.45 91.3238L199.522 91.3543C199.646 91.4098 199.774 91.4597 199.901 91.5041L199.99 91.5318C200.09 91.5651 200.192 91.5956 200.295 91.6206L200.364 91.6428L200.428 91.6567L200.705 91.7149L200.807 91.7343C200.929 91.7547 201.054 91.7713 201.181 91.7843H201.292C201.386 91.7843 201.478 91.7981 201.569 91.8009H201.7C201.797 91.8009 201.891 91.8009 201.977 91.8009H202.076C202.207 91.8009 202.337 91.7815 202.467 91.7648H202.509C202.625 91.7482 202.741 91.7288 202.858 91.7038L202.947 91.6844C203.055 91.6594 203.163 91.6345 203.271 91.6012L203.329 91.5845C203.459 91.5457 203.589 91.5041 203.717 91.4542C204.158 91.2727 204.586 91.0605 204.997 90.819C205.274 90.6664 205.551 90.5111 205.828 90.3696C206.034 90.2659 206.245 90.1733 206.46 90.0922C206.984 89.8681 207.554 89.773 208.123 89.8148C208.403 89.8531 208.681 89.9096 208.954 89.984C208.954 90.0145 208.954 90.0451 208.954 90.0756C209.179 91.407 209.402 92.7385 209.622 94.0699C209.985 93.8085 210.368 93.5775 210.769 93.3792C210.694 93.5803 210.645 93.79 210.622 94.0034C210.606 94.1684 210.606 94.3348 210.622 94.4999C210.647 94.7634 210.703 95.0546 210.545 95.2627C210.448 95.3903 210.267 95.4624 210.215 95.6066C210.176 95.7541 210.167 95.9077 210.187 96.0588C210.176 96.2312 210.103 96.3938 209.982 96.517C209.861 96.6402 209.7 96.7158 209.528 96.7301C209.607 96.9533 209.609 97.1969 209.533 97.4213C209.457 97.6458 209.308 97.8381 209.109 97.9672C208.993 98.023 208.885 98.0939 208.788 98.178C208.693 98.3006 208.629 98.4443 208.602 98.5969C208.236 99.9705 207.483 101.21 206.432 102.167C206.038 102.477 205.679 102.828 205.36 103.215C205.163 103.515 205 103.836 204.875 104.172C204.136 105.981 203.386 107.79 202.625 109.601C202.204 110.613 201.794 111.642 201.661 112.732C201.328 115.723 198.668 118.258 199.167 121.226C199.268 121.967 199.566 122.668 200.031 123.254C200.586 123.922 201.417 124.305 202.248 124.616C204.385 125.448 206.637 125.903 208.882 126.36L212.407 127.084C213.098 127.244 213.8 127.355 214.507 127.417C215.358 127.476 216.231 127.395 217.059 127.611C217.572 127.745 218.062 127.991 218.591 128.019C219.046 128.044 219.606 127.947 219.874 128.319C220.143 128.69 219.935 129.181 220.19 129.512C220.6 130.036 221.601 129.512 222.047 130.005C222.169 130.195 222.262 130.401 222.324 130.618C222.392 130.752 222.486 130.871 222.601 130.968C222.628 131.124 222.639 131.283 222.634 131.442C222.577 132.086 222.443 132.721 222.235 133.334C221.903 134.46 221.571 135.587 221.241 136.715C221.114 137.114 221.022 137.522 220.963 137.936C220.943 138.137 220.943 138.339 220.963 138.54C221.022 139.153 221.374 139.786 221.958 139.986C222.412 140.106 222.894 140.046 223.305 139.819C223.701 139.612 224.073 139.361 224.413 139.07C225.027 138.606 225.566 138.05 226.012 137.423C227.398 135.348 226.949 132.541 227.921 130.247C228.567 128.715 229.825 127.473 230.243 125.858C230.341 125.551 230.353 125.223 230.277 124.91C230.102 124.355 229.512 124.039 228.961 123.839H228.936C228.483 123.678 228.02 123.545 227.55 123.442C227.434 123.417 227.315 123.398 227.195 123.379C226.932 123.164 226.722 122.89 226.583 122.58C226.561 122.415 226.517 122.253 226.453 122.1C226.409 122.034 226.349 121.979 226.28 121.94C226.211 121.902 226.133 121.88 226.054 121.878C225.777 121.85 225.405 121.95 225.103 121.928C224.485 121.883 224.075 121.276 223.521 120.996C222.967 120.716 222.366 120.785 221.775 120.827C221.564 120.855 221.35 120.842 221.144 120.788C220.897 120.674 220.672 120.519 220.479 120.33C220.137 120.064 219.739 119.882 219.316 119.797C218.892 119.711 218.454 119.726 218.037 119.839C217.772 119.946 217.491 120.01 217.206 120.028C216.666 119.997 216.283 119.515 215.884 119.148C214.792 118.147 213.238 117.884 211.913 117.226C211.711 117.151 211.542 117.005 211.437 116.816C211.284 116.438 211.628 116.061 211.938 115.803L214.216 113.909C216.71 111.834 219.827 110.272 220.986 107.229C221.106 106.821 221.294 106.436 221.54 106.089C221.629 105.983 221.733 105.89 221.847 105.812C222.351 105.485 222.962 105.366 223.552 105.479C224.27 105.64 224.951 105.937 225.558 106.355C226.55 106.956 227.515 107.604 228.453 108.297C229.383 108.962 230.267 109.689 231.1 110.472C232.554 111.859 233.765 113.504 235.12 114.999C236.475 116.494 238.024 117.889 239.906 118.605C241.787 119.32 244.062 119.29 245.678 118.089C247.543 116.702 248.141 114.222 248.612 111.947C249.651 110.943 249.965 109.415 250.472 108.064C250.79 107.207 251.198 106.4 251.541 105.545C251.951 104.541 252.273 103.504 252.594 102.469C252.958 101.43 253.206 100.354 253.331 99.2598C253.464 97.5317 253.002 95.6926 253.486 94.0699C254.127 93.9285 254.708 93.5679 255.337 93.357C256.274 93.0491 257.277 93.0991 258.269 93.1046H258.333C258.675 93.141 259.019 93.0598 259.308 92.8744C259.641 92.597 259.693 92.1227 259.71 91.6927C259.749 90.6303 259.682 89.4376 258.887 88.7497ZM218.738 41.4331C218.509 41.4899 218.272 41.5068 218.037 41.4831L218.738 41.4331Z" fill="url(#paint0_linear)"/>
<path d="M219.83 58.9805C219.495 59.2658 219.101 59.4749 218.677 59.5936L216.713 60.2981C215.646 60.6809 214.532 61.0665 213.407 60.9278C212.778 60.8501 210.082 60.4535 209.674 59.9625C209.054 59.2024 211.229 58.0846 211.972 57.4438C212.14 57.3227 212.296 57.1852 212.437 57.0333C212.714 56.6949 212.678 56.2205 212.639 55.7934C212.498 54.7112 212.45 53.6189 212.495 52.5285C212.517 52.2686 212.554 52.0102 212.606 51.7546C212.883 50.4787 214.069 50.9447 215.006 51.2831C216.133 51.6497 217.223 52.1224 218.262 52.695C218.578 52.8582 218.853 53.0916 219.065 53.3773C219.475 53.9987 219.312 54.8142 219.245 55.5964C219.187 56.2039 219.19 56.7864 219.57 57.2274C219.761 57.3961 219.936 57.5818 220.093 57.7822C220.182 57.9841 220.204 58.209 220.157 58.4244C220.11 58.6398 219.995 58.8345 219.83 58.9805Z" fill="#BE6F72"/>
<path d="M192.691 38.9894C192.968 37.7606 193.029 36.4929 193.362 35.2752C193.596 34.4834 193.887 33.7094 194.232 32.959L195.454 30.1047C195.566 29.7677 195.764 29.4662 196.03 29.231C196.315 29.0543 196.646 28.9656 196.981 28.9758C198.175 28.9314 199.43 29.3031 200.245 30.1824C201.059 31.0617 201.317 32.4847 200.669 33.4916C199.893 34.7038 198.2 34.9479 197.188 35.9687C196.543 36.6205 196.23 37.5276 196.038 38.4235C195.534 40.7536 195.703 43.1696 195.548 45.5496C195.498 46.2902 195.354 47.1362 194.717 47.519C194.332 47.708 193.903 47.7913 193.475 47.7604L191.658 47.7909C191.353 47.7909 190.247 47.9823 190.045 47.752C189.69 47.3498 190.499 45.3471 190.646 44.9005C190.973 43.9102 191.375 42.9449 191.755 41.9713C192.084 41.1031 192.691 39.9297 192.691 38.9894Z" fill="#BE6F72"/>
<path d="M230.224 126.133C229.806 127.736 228.548 128.985 227.902 130.513C226.929 132.801 227.367 135.6 225.993 137.67C225.547 138.298 225.008 138.855 224.394 139.32C224.054 139.61 223.682 139.86 223.285 140.066C222.875 140.293 222.392 140.353 221.939 140.233C221.354 140.033 221.002 139.401 220.944 138.79C220.923 138.59 220.923 138.388 220.944 138.188C221.002 137.775 221.095 137.368 221.221 136.971C221.554 135.848 221.885 134.724 222.216 133.598C222.423 132.987 222.557 132.354 222.615 131.711C222.651 131.012 222.208 130.103 222.396 129.451C222.482 129.157 222.803 128.896 222.95 128.649C223.159 128.294 223.319 127.912 223.427 127.515C223.654 126.741 223.809 125.914 224.286 125.262C224.597 124.876 224.961 124.535 225.366 124.25C225.666 123.987 226.017 123.789 226.397 123.67C226.766 123.605 227.145 123.623 227.506 123.723C227.976 123.823 228.439 123.955 228.891 124.117H228.916C229.47 124.316 230.058 124.624 230.232 125.184C230.317 125.495 230.314 125.824 230.224 126.133Z" fill="#3F3D56"/>
<path d="M259.707 92.0312C259.691 92.4612 259.638 92.941 259.305 93.2101C259.016 93.3955 258.672 93.4768 258.33 93.4404H258.255C257.266 93.4404 256.26 93.3849 255.324 93.6928C254.611 93.9286 253.957 94.3613 253.215 94.4473C252.192 94.5638 251.231 94.0034 250.325 93.5152C249.472 93.0552 248.596 92.6385 247.701 92.267C247.113 92.0257 245.913 91.8703 245.631 91.2268C245.534 90.9223 245.452 90.6131 245.387 90.3003C245.34 90.1605 245.284 90.0243 245.218 89.8926C245.052 89.6115 244.946 89.2988 244.907 88.9744C244.909 88.6511 245.02 88.3379 245.223 88.0868C245.449 87.8189 245.726 87.5984 246.038 87.438C246.349 87.2776 246.689 87.1804 247.038 87.152C247.737 87.0977 248.439 87.135 249.128 87.2629L255.95 88.2449C256.476 88.3198 257.006 88.3947 257.524 88.5223C258.016 88.6077 258.48 88.8114 258.876 89.1159C259.682 89.7927 259.749 90.9827 259.707 92.0312Z" fill="#3F3D56"/>
<path d="M253.711 93.8065C252.88 95.5623 253.478 97.64 253.329 99.5817C253.203 100.673 252.956 101.747 252.591 102.783C252.27 103.815 251.949 104.849 251.538 105.851C251.195 106.683 250.788 107.515 250.469 108.364C249.962 109.717 249.638 111.24 248.61 112.247C248.138 114.516 247.54 116.996 245.675 118.372C244.054 119.57 241.796 119.612 239.903 118.888C238.011 118.164 236.473 116.777 235.118 115.282C233.763 113.787 232.552 112.158 231.097 110.766C230.263 109.983 229.377 109.257 228.445 108.594C227.507 107.912 226.541 107.27 225.549 106.669C224.942 106.253 224.261 105.956 223.543 105.795C222.954 105.682 222.343 105.801 221.839 106.128C221.725 106.206 221.621 106.3 221.531 106.405C221.285 106.751 221.098 107.135 220.977 107.543C219.813 110.577 216.691 112.136 214.197 114.205L211.919 116.094C211.609 116.352 211.265 116.73 211.417 117.104C211.522 117.294 211.691 117.439 211.894 117.515C213.219 118.169 214.773 118.433 215.865 119.431C216.264 119.798 216.646 120.28 217.187 120.308C217.472 120.291 217.753 120.228 218.018 120.122C218.435 120.009 218.872 119.995 219.296 120.079C219.719 120.164 220.118 120.346 220.459 120.61C220.653 120.8 220.878 120.955 221.124 121.068C221.33 121.123 221.545 121.136 221.756 121.107C222.346 121.065 222.972 121.013 223.502 121.276C224.031 121.54 224.466 122.161 225.084 122.205C225.386 122.227 225.746 122.128 226.034 122.155C226.114 122.158 226.191 122.179 226.261 122.218C226.33 122.257 226.389 122.311 226.433 122.377C226.498 122.53 226.542 122.69 226.564 122.854C226.677 123.245 227.06 123.484 227.309 123.806C227.691 124.3 227.747 124.971 227.708 125.595C227.583 127.546 226.714 129.375 225.281 130.704C224.874 131.121 224.355 131.41 223.787 131.537C223.503 131.596 223.207 131.565 222.941 131.447C222.676 131.329 222.454 131.13 222.307 130.879C222.246 130.663 222.152 130.458 222.03 130.269C221.584 129.778 220.584 130.299 220.174 129.775C219.919 129.448 220.102 128.924 219.858 128.585C219.614 128.247 219.027 128.308 218.575 128.288C218.046 128.261 217.555 128.011 217.043 127.881C216.211 127.664 215.341 127.745 214.49 127.686C213.783 127.624 213.082 127.513 212.39 127.354L208.865 126.632C206.621 126.175 204.368 125.711 202.232 124.893C201.414 124.582 200.591 124.2 200.015 123.534C199.55 122.949 199.252 122.249 199.15 121.509C198.649 118.549 201.309 116.02 201.644 113.038C201.763 111.95 202.198 110.924 202.608 109.914C203.36 108.109 204.11 106.304 204.858 104.497C204.98 104.161 205.138 103.839 205.33 103.537C205.648 103.151 206.008 102.8 206.402 102.491C207.452 101.538 208.205 100.301 208.572 98.9298C208.599 98.7772 208.662 98.6335 208.757 98.511C208.855 98.4286 208.963 98.3588 209.079 98.3029C209.277 98.1739 209.425 97.9821 209.501 97.7582C209.577 97.5344 209.576 97.2915 209.497 97.0685C209.669 97.0543 209.83 96.9787 209.951 96.8555C210.072 96.7323 210.145 96.5697 210.157 96.3973C210.136 96.2471 210.146 96.0944 210.184 95.9479C210.251 95.8037 210.417 95.7315 210.514 95.6039C210.672 95.3959 210.617 95.1047 210.592 94.8439C210.575 94.6788 210.575 94.5125 210.592 94.3474C210.652 93.76 210.915 93.212 211.334 92.7968C211.997 92.1449 212.939 92.3142 213.853 92.1588C214.765 91.9617 215.656 91.6765 216.513 91.3072C218.918 90.3589 221.449 89.7728 224.025 89.568C226.614 89.3642 229.215 89.7787 231.612 90.7774C231.961 90.9189 232.29 91.1054 232.59 91.3322C232.804 91.4968 232.979 91.706 233.103 91.9452C233.205 92.2389 233.331 92.5237 233.48 92.7968C233.776 93.2018 234.336 93.3322 234.66 93.7149C234.985 94.0977 235.012 94.7441 235.281 95.2184C235.666 95.8952 236.559 96.2087 236.825 96.9437C236.908 97.1767 236.919 97.4319 236.98 97.6732C237.129 98.2779 237.578 98.7551 237.975 99.2322C239.427 100.971 240.357 103.087 240.657 105.335C240.745 103.928 241.69 102.683 242.874 101.906C243.192 101.698 243.561 101.468 243.625 101.091C243.705 100.614 243.242 100.189 243.273 99.7037C243.306 99.4667 243.402 99.2428 243.55 99.0546C244.078 98.2884 244.657 97.5591 245.284 96.8716C245.625 96.4971 246.008 96.0394 245.866 95.5457C245.758 95.1768 245.381 94.9604 245.174 94.6386C245.052 94.4468 244.99 94.2234 244.995 93.9965C245 93.7695 245.072 93.549 245.201 93.3627C245.395 93.0992 245.703 92.9078 245.797 92.5943C245.905 92.2254 245.664 91.826 245.739 91.4459C245.84 91.1416 246.041 90.8806 246.31 90.7053C246.677 90.3702 247.095 90.095 247.548 89.8898C248.28 89.6124 249.094 89.715 249.87 89.8232C251.167 90.0035 252.622 90.2809 253.353 91.3683C253.822 92.0479 254.06 93.0797 253.711 93.8065Z" fill="#65617D"/>
<path opacity="0.1" d="M259.707 92.0312C259.691 92.4611 259.638 92.941 259.305 93.2101C259.016 93.3955 258.672 93.4767 258.33 93.4403H258.255C258.369 92.8634 259.07 92.5333 259.192 91.948C259.213 91.7682 259.196 91.586 259.144 91.4128C259.092 91.2396 259.004 91.079 258.887 90.9411C258.294 90.1394 257.341 89.6956 256.393 89.3711C253.716 88.4522 250.848 88.2373 248.064 88.747C247.307 88.8704 246.57 89.0972 245.875 89.421C245.644 89.5654 245.422 89.7228 245.209 89.8926C245.043 89.6115 244.938 89.2988 244.899 88.9744C244.9 88.6511 245.012 88.3379 245.215 88.0868C245.441 87.8189 245.718 87.5984 246.029 87.438C246.341 87.2776 246.681 87.1804 247.03 87.152C247.728 87.0977 248.431 87.135 249.119 87.2629L255.941 88.2449C256.468 88.3198 256.997 88.3947 257.515 88.5223C258.007 88.6077 258.471 88.8114 258.868 89.1159C259.682 89.7927 259.749 90.9827 259.707 92.0312Z" fill="black"/>
<path opacity="0.1" d="M230.224 126.133C229.806 127.736 228.548 128.985 227.902 130.513C226.929 132.801 227.367 135.6 225.993 137.669C225.547 138.298 225.008 138.855 224.394 139.32C224.054 139.61 223.682 139.86 223.285 140.066C222.875 140.293 222.392 140.353 221.939 140.233C221.354 140.033 221.002 139.4 220.944 138.79C220.923 138.59 220.923 138.388 220.944 138.188L220.961 138.233C221.202 138.815 221.595 139.425 222.216 139.528C222.449 139.545 222.683 139.513 222.903 139.436C223.123 139.358 223.325 139.235 223.496 139.076C224.41 138.341 224.943 137.245 225.45 136.188C225.846 135.426 226.16 134.624 226.386 133.794C226.497 133.323 226.55 132.84 226.663 132.369C227.19 130.077 228.983 128.208 229.379 125.886C229.411 125.726 229.419 125.563 229.401 125.401C229.349 125.189 229.269 124.986 229.163 124.796C229.066 124.581 228.996 124.356 228.952 124.125C229.506 124.324 230.094 124.632 230.268 125.193C230.34 125.504 230.325 125.83 230.224 126.133Z" fill="black"/>
<path opacity="0.1" d="M226.04 122.155C225.783 122.827 225.352 123.417 224.79 123.864C224.001 124.466 223.078 124.866 222.1 125.029C221.644 125.145 221.166 125.14 220.714 125.012C220.099 124.799 219.656 124.222 219.027 124.055C218.578 123.933 218.095 124.042 217.641 123.975C216.824 123.861 216.189 123.237 215.53 122.738C213.509 121.218 210.858 120.727 208.838 119.207C208.748 119.151 208.673 119.074 208.621 118.982C208.583 118.882 208.569 118.775 208.58 118.669C208.587 117.747 208.794 116.837 209.187 116.003C209.508 115.421 209.891 114.875 210.328 114.375C212.138 112.156 213.956 109.92 216.123 108.047C217.031 107.262 218.023 106.53 219.171 106.175C219.808 105.978 221.066 105.792 221.842 106.125C221.727 106.203 221.624 106.297 221.534 106.403C221.288 106.748 221.1 107.133 220.98 107.54C219.813 110.577 216.691 112.136 214.197 114.205L211.919 116.094C211.609 116.352 211.265 116.73 211.417 117.104C211.522 117.294 211.691 117.439 211.894 117.515C213.219 118.169 214.773 118.433 215.865 119.431C216.264 119.798 216.646 120.28 217.187 120.308C217.472 120.291 217.753 120.228 218.018 120.122C218.435 120.009 218.872 119.995 219.296 120.079C219.719 120.164 220.118 120.346 220.459 120.61C220.653 120.8 220.878 120.955 221.124 121.068C221.33 121.123 221.545 121.136 221.756 121.107C222.346 121.065 222.972 121.013 223.502 121.276C224.031 121.54 224.466 122.161 225.084 122.205C225.391 122.227 225.752 122.122 226.04 122.155Z" fill="black"/>
<path d="M200.555 84.5085C200.029 84.8469 199.469 85.2297 199.253 85.8178C199.075 86.2976 199.159 86.8469 198.945 87.3129C198.732 87.7789 198.253 88.1034 198.147 88.6027C198.072 88.9661 198.219 89.3489 198.147 89.7123C198.084 89.9012 198.034 90.0939 197.995 90.2892C197.967 90.7025 198.322 91.0382 198.668 91.2684C199.406 91.7485 200.245 92.0488 201.12 92.1452C201.994 92.2415 202.879 92.1312 203.703 91.8232C204.443 91.5458 205.111 91.0936 205.82 90.7386C206.512 90.3398 207.303 90.1473 208.101 90.1838C208.558 90.2337 208.996 90.4002 209.453 90.4612C209.679 90.5059 209.912 90.4949 210.132 90.4291C210.353 90.3634 210.554 90.2449 210.719 90.0839C210.86 89.8888 210.955 89.664 210.996 89.4265C211.381 87.9037 211.207 86.2893 210.841 84.7581C210.475 83.227 209.921 81.754 209.53 80.2312C209.253 79.1022 209.04 77.9455 208.577 76.8776C208.114 75.8097 207.336 74.8166 206.247 74.4089C206.161 74.3667 206.063 74.354 205.97 74.3728C205.9 74.402 205.838 74.4477 205.79 74.5059C204.928 75.4198 204.279 76.5128 203.889 77.707C203.454 79.0357 203.334 80.4448 202.935 81.779C202.764 82.3338 202.542 83.0772 202.104 83.5016C201.666 83.926 201.051 84.1895 200.555 84.5085Z" fill="#3F3D56"/>
<path opacity="0.1" d="M211.004 89.4182C210.958 89.6565 210.859 89.8811 210.714 90.0756C210.549 90.2372 210.348 90.3558 210.127 90.4211C209.906 90.4864 209.673 90.4964 209.447 90.4501C208.993 90.3946 208.555 90.2254 208.098 90.1727C207.3 90.1358 206.509 90.3283 205.817 90.7275C205.108 91.0826 204.432 91.5236 203.697 91.8093C202.623 92.2171 201.45 92.2839 200.336 92.0007C199.745 91.8519 199.183 91.6043 198.674 91.2684C198.325 91.0409 197.973 90.7136 198 90.2892C198.039 90.0948 198.09 89.9031 198.153 89.715C198.225 89.3517 198.081 88.9689 198.153 88.6055C198.258 88.1062 198.74 87.7733 198.951 87.3129C199.161 86.8524 199.081 86.3004 199.256 85.8205C199.472 85.2297 200.034 84.8497 200.561 84.5085C201.087 84.1673 201.713 83.9066 202.135 83.4933C202.189 83.4289 202.238 83.3603 202.281 83.288C202.585 82.8191 202.808 82.3024 202.941 81.7596C203.348 80.4226 203.459 79.0163 203.891 77.6848C204.283 76.4916 204.933 75.3996 205.795 74.4865C205.841 74.427 205.902 74.381 205.972 74.3534C206.066 74.3343 206.163 74.346 206.249 74.3867C207.336 74.7972 208.114 75.7903 208.58 76.8582C209.045 77.9261 209.242 79.0773 209.533 80.209C209.921 81.7319 210.478 83.2103 210.844 84.7387C211.21 86.2671 211.39 87.8926 211.004 89.4182Z" fill="black"/>
<path opacity="0.1" d="M219.245 55.5883C217.942 56.0027 216.532 55.9204 215.286 55.3572C214.04 54.7939 213.046 53.7895 212.495 52.537C212.517 52.2771 212.554 52.0187 212.606 51.7631C212.883 50.4871 214.069 50.9531 215.006 51.2916C216.133 51.6582 217.223 52.1309 218.262 52.7035C218.578 52.8667 218.853 53.1001 219.065 53.3858C219.475 53.9989 219.312 54.8144 219.245 55.5883Z" fill="black"/>
<path d="M217.572 55.5714C220.632 55.5714 223.114 53.0877 223.114 50.0237C223.114 46.9598 220.632 44.476 217.572 44.476C214.511 44.476 212.03 46.9598 212.03 50.0237C212.03 53.0877 214.511 55.5714 217.572 55.5714Z" fill="#BE6F72"/>
<path opacity="0.1" d="M232.61 91.482C232.61 91.9424 231.986 92.0894 231.524 92.0645C229.861 91.9674 228.234 91.5097 226.588 91.6484C224.507 91.837 222.596 92.9882 220.509 93.0936C219.705 93.1352 218.888 93.0159 218.095 93.1629C217.07 93.3543 216.156 93.9784 215.111 94.0672C214.205 94.1449 213.31 93.8037 212.404 93.8398C211.77 93.8776 211.153 94.0537 210.594 94.3557C210.655 93.7683 210.918 93.2203 211.337 92.8051C211.999 92.1532 212.941 92.3225 213.856 92.1671C214.768 91.97 215.659 91.6848 216.516 91.3155C218.92 90.3672 221.452 89.781 224.028 89.5763C226.615 89.3703 229.215 89.7819 231.612 90.7774C231.961 90.9188 232.29 91.1053 232.59 91.3322C232.606 91.3806 232.612 91.4313 232.61 91.482Z" fill="black"/>
<path d="M215.009 60.154L212.764 59.3218L211.816 58.9723C211.43 58.8103 211.024 58.7021 210.608 58.6505C209.522 58.5673 208.5 59.2913 207.92 60.215C207.341 61.1387 207.122 62.2399 206.937 63.3134C206.682 64.7817 206.466 66.2555 206.288 67.7349C206.097 69.0709 206 70.4186 205.997 71.7681C206.061 75.2022 206.787 78.589 207.585 81.9315C207.976 83.4135 208.271 84.9191 208.469 86.4391C208.536 87.066 208.566 87.6956 208.633 88.3253C208.705 89.0326 208.821 89.7317 208.937 90.4334L209.605 94.4195C210.436 93.8286 211.381 93.3099 212.404 93.2794C213.31 93.2461 214.208 93.5845 215.111 93.5069C216.15 93.4209 217.07 92.7968 218.095 92.6054C218.888 92.4584 219.705 92.5749 220.512 92.536C222.595 92.4306 224.51 91.2767 226.588 91.0908C228.237 90.9411 229.875 91.4071 231.526 91.5041C231.986 91.5319 232.61 91.3849 232.61 90.9216C232.61 90.5999 232.288 90.3863 232.009 90.2254C230.689 89.4303 229.434 88.5334 228.254 87.5431C227.162 86.6776 226.054 85.79 225.303 84.6194C223.493 81.804 224.114 77.9954 222.571 75.0246C221.315 72.6114 222.571 69.4492 222.571 66.728C222.571 65.3716 222.571 63.9985 222.252 62.681C222.053 61.944 221.805 61.2212 221.509 60.5173L220.431 57.7851C220.409 57.7052 220.365 57.6332 220.304 57.5771C220.231 57.5271 220.145 57.5009 220.057 57.5022C219.41 57.4633 218.771 57.6681 218.267 58.0763C217.76 58.4897 217.436 59.0833 216.937 59.5132C216.391 59.9875 215.687 60.4036 215.009 60.154Z" fill="#E3E8F4"/>
<path d="M218.63 58.5783C218.808 57.8183 218.999 57.0277 219.506 56.4341C220.013 55.8405 220.938 55.5271 221.592 55.9515C222.335 56.4341 222.366 57.5492 223 58.1706C223.554 58.7031 224.386 58.7447 225.139 58.8141C226.494 58.9376 227.826 59.2513 229.093 59.7461C229.341 59.8228 229.566 59.9579 229.75 60.14C230.097 60.5339 230.027 61.1386 230.199 61.6296C230.435 62.262 231.086 62.6642 231.338 63.2939C231.615 63.9929 231.338 64.7751 231.105 65.4935C230.687 66.7834 230.424 68.1232 230.016 69.4186C229.609 70.7139 229.03 71.9899 228.077 72.9663C227.655 73.399 227.029 73.7985 226.475 73.5405L226.262 75.08C226.199 75.4053 226.199 75.7394 226.262 76.0647C226.294 76.2275 226.371 76.3778 226.485 76.4985C226.599 76.6192 226.744 76.7054 226.904 76.7471C226.946 76.9856 227.198 77.0994 227.403 77.2297C227.555 77.3334 227.684 77.466 227.784 77.62C227.883 77.7741 227.952 77.9464 227.984 78.127C228.017 78.3076 228.014 78.4929 227.974 78.6722C227.935 78.8515 227.86 79.0212 227.755 79.1714C227.581 79.4072 227.323 79.5931 227.24 79.8732C227.115 80.2782 227.411 80.7054 227.772 80.9273C228.132 81.1492 228.556 81.2518 228.922 81.4654C229.681 81.9037 230.088 82.7664 230.349 83.6041C230.543 84.2365 230.703 84.9217 231.18 85.3821C231.363 85.5569 231.582 85.69 231.756 85.8731C232.059 86.2305 232.233 86.6785 232.252 87.1463C232.328 87.7261 232.201 88.3143 231.892 88.8106C231.338 89.6039 230.304 89.8397 229.398 90.1975C227.927 90.8022 226.716 91.8841 225.419 92.805C224.891 93.2308 224.269 93.5238 223.604 93.6593C222.706 93.7786 221.822 93.3819 220.919 93.3459C220.379 93.3509 219.841 93.4217 219.317 93.5567L217.655 93.9173C217.744 92.6274 217.034 91.3348 216.638 90.106C215.89 87.7926 215.751 85.3183 215.929 82.894C216.106 80.4696 216.599 78.0786 217.087 75.6986C217.428 74.0343 217.394 72.2951 217.918 70.6779C218.409 69.1218 219.11 67.6266 219.367 66.0067C219.789 63.3854 218.037 61.1635 218.63 58.5783Z" fill="#3F3D56"/>
<path d="M231.235 63.7071C231.388 63.989 231.496 64.2933 231.554 64.6087C231.682 65.0973 231.922 65.5493 232.255 65.929C232.534 66.1752 232.781 66.4546 232.992 66.7612C233.247 67.2438 233.15 67.8319 233.269 68.3589C233.408 68.9331 233.81 69.4324 233.868 70.0232C233.87 70.1925 233.885 70.3614 233.915 70.5281C234.095 71.1994 235.082 71.3602 235.3 72.0315C235.447 72.467 235.195 72.9413 235.242 73.399C235.277 73.5406 235.285 73.6872 235.267 73.8318C235.205 73.9952 235.095 74.1362 234.951 74.2367C234.034 75.1137 233.399 76.2447 233.128 77.4849C232.861 78.7184 232.721 79.9759 232.71 81.238L231.626 79.8039C231.511 79.6299 231.365 79.4793 231.194 79.3601C231.055 79.2768 230.895 79.2352 230.753 79.152C230.343 78.919 230.182 78.4253 230.025 77.9815C229.586 76.7529 228.929 75.6139 228.085 74.6195C227.644 74.1008 227.132 73.5793 227.035 72.9053C227.006 72.5957 227.022 72.2835 227.085 71.9788C227.362 70.1619 227.658 68.3007 228.542 66.6891C228.955 65.9346 229.49 65.2522 229.886 64.4866C230.152 63.979 230.526 62.6586 231.235 63.7071Z" fill="#3F3D56"/>
<path d="M203.9 65.4521C203.905 65.6856 203.845 65.916 203.728 66.1178C203.622 66.2407 203.484 66.3317 203.329 66.3807C203.175 66.4297 203.01 66.4347 202.852 66.3952C202.537 66.3159 202.239 66.1766 201.977 65.9847C201.204 65.4965 200.432 65.0074 199.66 64.5173C199.229 64.2572 198.814 63.972 198.416 63.663C197.808 63.1494 197.257 62.5719 196.773 61.9404C195.426 60.2761 194.234 58.4703 192.735 56.9475C192.328 56.5314 191.904 56.1319 191.511 55.6965C190.973 55.0669 190.478 54.4015 190.031 53.7048C189.599 53.0641 189.15 52.354 189.225 51.5884C189.269 51.1556 189.477 50.7562 189.538 50.3263C189.599 49.8963 189.435 49.3721 189.019 49.2556C188.97 49.2432 188.92 49.2348 188.87 49.2306C188.788 49.2219 188.707 49.2042 188.629 49.1779C188.244 49.017 188.302 48.4206 188.579 48.1072C188.856 47.7937 189.266 47.619 189.518 47.275C189.636 47.0709 189.767 46.8753 189.912 46.6897C190.097 46.5305 190.319 46.4191 190.557 46.3652C192.156 45.8937 193.847 45.8298 195.476 46.1793C195.753 46.2404 196.069 46.3513 196.152 46.6204C196.185 46.7515 196.185 46.8887 196.152 47.0198C196.03 47.5668 195.959 48.124 195.941 48.6841C195.941 48.8009 195.947 48.9176 195.961 49.0336C196.091 50.2098 196.853 51.2056 197.596 52.1237C198.477 53.2166 199.372 54.3012 200.27 55.383C200.755 56.0099 201.298 56.5903 201.891 57.1167C202.445 57.5771 203.163 57.9488 203.595 58.5397C203.947 59.0168 203.833 59.6686 203.872 60.2428C204.001 61.9765 204.01 63.7171 203.9 65.4521Z" fill="#3F3D56"/>
<path d="M239.091 77.0246C239.365 76.7582 239.612 76.4655 239.828 76.1508C240.061 75.7608 240.247 75.3446 240.382 74.9109L241.99 70.3479C242.245 69.6267 242.499 68.9027 242.821 68.2009C243.153 67.4436 243.547 66.7141 243.91 65.9818C244.844 64.0547 245.565 62.0318 246.063 59.9486C246.15 59.6624 246.18 59.3615 246.149 59.0638C246.071 58.5839 245.708 58.2094 245.362 57.8682C245.014 57.4916 244.617 57.1633 244.181 56.8918C243.963 56.7558 243.72 56.6647 243.466 56.6237C243.212 56.5828 242.952 56.5928 242.702 56.6533C241.992 56.8613 241.546 57.5881 241.383 58.3176C241.219 59.0471 241.28 59.7933 241.211 60.5367C241.111 61.6019 240.745 62.631 240.657 63.6989C240.61 64.3175 240.657 64.9416 240.582 65.5574C240.446 66.366 240.164 67.1433 239.751 67.8514C238.85 69.5382 237.634 71.0356 236.168 72.2618C235.766 72.5586 235.405 72.9064 235.093 73.2965C234.832 73.6866 234.656 74.1269 234.575 74.5891C234.39 75.293 234.47 76.04 234.799 76.6889C235.251 77.46 236.118 77.7985 236.946 77.9704C238.066 78.2034 238.324 77.8207 239.091 77.0246Z" fill="#BE6F72"/>
<path d="M217.605 41.9852C217.844 41.5365 218.209 41.168 218.655 40.9258C219.102 40.6836 219.61 40.5784 220.115 40.6232C220.625 40.7136 221.099 40.9449 221.484 41.291C221.869 41.6371 222.149 42.0842 222.293 42.5816C222.424 42.9949 222.476 43.4526 222.704 43.8076C223.047 44.343 223.684 44.4983 224.161 44.8867C224.446 45.1513 224.675 45.4702 224.835 45.8246C224.994 46.1789 225.082 46.5617 225.092 46.9504C225.119 47.7444 224.994 48.5362 224.724 49.2832C224.609 49.602 224.516 49.9282 224.446 50.2596C224.391 50.5814 224.386 50.9087 224.336 51.2305C224.274 51.6477 224.13 52.0484 223.912 52.409C223.693 52.7697 223.405 53.0829 223.064 53.3303C222.967 53.4096 222.846 53.4536 222.72 53.4551C222.504 53.4302 222.371 53.1777 222.291 52.9503C221.85 51.6771 221.955 50.1209 221.143 49.1057C220.774 48.6962 220.328 48.3635 219.83 48.1265C219.627 47.9955 219.398 47.9094 219.159 47.8741C218.808 47.893 218.47 48.0167 218.19 48.2292C217.605 48.6219 216.956 48.9092 216.272 49.078C215.931 49.1589 215.576 49.1625 215.233 49.0886C214.89 49.0147 214.569 48.8651 214.291 48.6508C213.908 48.3346 213.629 47.8603 213.205 47.6134C212.781 47.3665 212.337 47.3804 211.919 47.2112C211.652 47.0976 211.415 46.9247 211.225 46.7054C211.036 46.4862 210.898 46.2265 210.824 45.9461C210.75 45.6658 210.74 45.3721 210.797 45.0876C210.853 44.803 210.973 44.5351 211.149 44.3042C211.426 43.9713 211.836 43.7827 212.082 43.4138C212.401 42.9366 212.373 42.282 212.526 41.7106C212.616 41.3491 212.791 41.0143 213.036 40.734C213.282 40.4537 213.59 40.236 213.936 40.099C214.272 39.9849 214.632 39.963 214.979 40.0357C215.326 40.1084 215.647 40.273 215.909 40.5123C216.186 40.7619 216.408 41.0837 216.679 41.3445C216.948 41.6014 217.276 41.7868 217.634 41.8837C217.992 41.9806 218.369 41.986 218.73 41.8992" fill="#3F3D56"/>
<path opacity="0.1" d="M222.16 82.8136C221.999 82.9574 221.885 83.1465 221.832 83.3563C221.78 83.5661 221.792 83.7868 221.867 83.9897C221.928 84.1201 224.787 83.5681 225.089 83.5265C225.843 83.4183 227.165 83.471 227.672 82.7803C228.575 81.5571 225.777 81.8289 225.264 81.8733C224.289 81.9565 222.903 82.0896 222.16 82.8136Z" fill="black"/>
<path d="M196.147 47.0309C196.024 47.5779 195.954 48.1351 195.936 48.6952C195.105 48.8645 194.24 48.5871 193.442 48.3097L191.15 47.5274C191.011 47.4383 190.843 47.4056 190.68 47.436C190.518 47.4664 190.373 47.5576 190.275 47.6911C189.906 48.0739 189.399 48.8007 188.889 49.2306C188.807 49.2219 188.726 49.2042 188.648 49.1779C188.263 49.017 188.321 48.4206 188.598 48.1072C188.875 47.7937 189.286 47.619 189.538 47.275C189.655 47.0709 189.786 46.8753 189.931 46.6897C190.117 46.5305 190.338 46.4191 190.577 46.3652C192.175 45.8937 193.866 45.8298 195.495 46.1793C195.772 46.2404 196.088 46.3513 196.171 46.6204C196.198 46.7571 196.19 46.8985 196.147 47.0309Z" fill="#3F3D56"/>
<path opacity="0.1" d="M196.147 47.0309C196.024 47.5779 195.954 48.1351 195.936 48.6952C195.105 48.8645 194.24 48.5871 193.442 48.3097L191.15 47.5274C191.011 47.4383 190.843 47.4056 190.68 47.436C190.518 47.4664 190.373 47.5576 190.275 47.6911C189.906 48.0739 189.399 48.8007 188.889 49.2306C188.807 49.2219 188.726 49.2042 188.648 49.1779C188.263 49.017 188.321 48.4206 188.598 48.1072C188.875 47.7937 189.286 47.619 189.538 47.275C189.655 47.0709 189.786 46.8753 189.931 46.6897C190.117 46.5305 190.338 46.4191 190.577 46.3652C192.175 45.8937 193.866 45.8298 195.495 46.1793C195.772 46.2404 196.088 46.3513 196.171 46.6204C196.198 46.7571 196.19 46.8985 196.147 47.0309Z" fill="black"/>
<path opacity="0.1" d="M217.109 99.6926C217.508 99.8257 217.94 100.02 218.076 100.419L214.867 99.6038L213.205 99.1794C212.911 99.1045 211.858 99.0185 211.664 98.7883C211.387 98.4499 212.371 98.6829 212.548 98.7078C213.086 98.7883 213.623 98.8715 214.158 98.9686C215.167 99.1489 216.136 99.4457 217.109 99.6926Z" fill="black"/>
<path opacity="0.1" d="M218.353 102.536C218.076 102.35 217.281 102.372 216.94 102.292C216.441 102.172 215.951 102.014 215.46 101.862C214.465 101.537 213.479 101.168 212.457 100.93C212.268 100.888 211.625 100.877 211.656 100.638C211.686 100.4 212.299 100.317 212.451 100.306C213.357 100.239 214.488 100.663 215.33 100.966C216.404 101.351 217.42 101.879 218.353 102.536Z" fill="black"/>
<path opacity="0.1" d="M216.319 97.1571C215.302 96.8798 214.38 96.2473 213.332 96.1253C213.059 96.1357 212.791 96.0536 212.57 95.8923C212.447 95.7711 212.361 95.617 212.323 95.4485C213.025 95.4124 213.839 95.7092 214.477 95.9894C214.827 96.14 215.165 96.32 215.485 96.5275C215.718 96.6689 216.067 97.0767 216.319 97.1571Z" fill="black"/>
<path d="M235.705 72.3202C235.533 73.4734 235.782 74.65 236.406 75.6347C237.03 76.6193 237.987 77.3461 239.102 77.682C238.966 78.3394 238.288 78.7028 237.808 79.1716C237.132 79.829 236.783 80.8137 235.985 81.313C235.095 81.8678 233.951 81.6514 232.937 81.4184C232.845 81.4081 232.76 81.3636 232.699 81.2936C232.678 81.2604 232.663 81.2238 232.654 81.1854C232.319 79.9566 232.1 78.6446 232.444 77.413C232.721 76.3645 233.386 75.4713 233.918 74.5448C234.45 73.6183 234.5 72.6253 235.705 72.3202Z" fill="#3F3D56"/>
<path d="M210.93 56.4148C209.857 56.4929 208.816 56.8105 207.882 57.3441C207.261 57.6991 206.624 58.1762 205.914 58.0902C205.496 58.0431 205.083 57.8128 204.676 57.9238C204.446 58.0165 204.232 58.1437 204.041 58.301C203.944 58.3783 203.829 58.4291 203.706 58.4486C203.584 58.468 203.459 58.4554 203.343 58.412L203.066 62.251C202.96 63.7101 202.858 65.1996 203.207 66.6226C203.387 67.3494 203.783 68.0095 203.828 68.7474C203.872 69.4852 203.805 70.2425 203.858 70.9887C203.908 71.6794 204.06 72.359 204.099 73.0496C204.177 74.3534 203.855 75.646 203.545 76.9136C203.077 78.7832 202.794 80.6944 201.882 82.3865C201.627 82.8552 201.328 83.3323 201.328 83.8649C201.328 83.9315 201.328 83.9953 201.345 84.0591C201.068 84.2117 200.81 84.3559 200.575 84.5057C200.048 84.8469 199.486 85.2269 199.269 85.8177C199.095 86.2976 199.175 86.8468 198.965 87.3101C198.754 87.7733 198.272 88.1034 198.167 88.6027C198.092 88.966 198.236 89.3488 198.167 89.7122C198.104 89.9002 198.053 90.092 198.014 90.2864C197.986 90.7025 198.338 91.0381 198.687 91.2656C199.197 91.6015 199.759 91.8491 200.35 91.9979L202.004 85.4238C203.513 82.6323 204.767 79.7108 205.753 76.6945C206.036 75.7086 206.398 74.7474 206.837 73.8208C207.151 73.2966 207.428 72.7516 207.668 72.1897C207.92 71.4907 207.945 70.7335 208.067 69.9956C208.212 69.1344 208.43 68.2872 208.718 67.4631C209.018 66.5727 209.364 65.6851 209.425 64.7503C209.516 63.4133 209.032 62.0014 209.547 60.7642C209.766 60.3012 210.05 59.8723 210.392 59.491C211.107 58.6145 211.758 57.6963 212.473 56.8198C212.102 56.4231 211.484 56.3815 210.93 56.4148Z" fill="#3F3D56"/>
<g opacity="0.1">
<path opacity="0.1" d="M218.738 41.0725L218.392 41.0975L218.353 41.1252C218.483 41.1199 218.612 41.1023 218.738 41.0725Z" fill="black"/>
<path opacity="0.1" d="M225.078 46.831C225.021 47.3825 224.902 47.9258 224.724 48.4509C224.609 48.7697 224.517 49.0959 224.447 49.4273C224.391 49.7491 224.386 50.0764 224.336 50.3982C224.274 50.8154 224.13 51.2161 223.912 51.5767C223.693 51.9373 223.405 52.2506 223.064 52.498C222.967 52.5773 222.846 52.6213 222.72 52.6228C222.504 52.5979 222.371 52.3454 222.291 52.118C221.85 50.8448 221.955 49.2886 221.144 48.2734C220.774 47.8639 220.328 47.5311 219.83 47.2942C219.627 47.1632 219.398 47.0771 219.16 47.0418C218.808 47.0607 218.47 47.1844 218.19 47.3969C217.605 47.7896 216.956 48.0768 216.272 48.2457C215.931 48.3266 215.576 48.3302 215.233 48.2563C214.891 48.1824 214.569 48.0328 214.291 47.8185C213.909 47.5023 213.629 47.0279 213.205 46.7811C212.781 46.5342 212.337 46.5481 211.919 46.3789C211.658 46.2671 211.425 46.0979 211.238 45.8837C211.051 45.6695 210.914 45.4159 210.838 45.1417C210.828 45.1071 210.821 45.0719 210.816 45.0363C210.747 45.346 210.754 45.6679 210.838 45.9739C210.914 46.2481 211.051 46.5017 211.238 46.7159C211.425 46.93 211.658 47.0993 211.919 47.211C212.337 47.3802 212.808 47.383 213.205 47.6132C213.601 47.8435 213.909 48.3344 214.291 48.6507C214.569 48.865 214.891 49.0146 215.233 49.0885C215.576 49.1624 215.931 49.1587 216.272 49.0778C216.956 48.909 217.605 48.6217 218.19 48.229C218.47 48.0165 218.808 47.8929 219.16 47.874C219.398 47.9093 219.627 47.9953 219.83 48.1264C220.322 48.3679 220.761 48.7034 221.124 49.1139C221.936 50.1291 221.831 51.6853 222.271 52.9585C222.352 53.1887 222.485 53.4383 222.701 53.4633C222.834 53.464 222.963 53.4167 223.064 53.3302C223.406 53.0821 223.696 52.7676 223.915 52.4055C224.134 52.0434 224.278 51.6409 224.338 51.222C224.388 50.9003 224.394 50.5729 224.449 50.2512C224.519 49.9198 224.612 49.5935 224.726 49.2748C224.996 48.5277 225.121 47.736 225.095 46.942C225.089 46.9087 225.084 46.8698 225.078 46.831Z" fill="black"/>
</g>
<path d="M207.546 69.0885L207.358 71.621C207.33 71.965 206.673 80.1534 201.83 89.7233C197.673 97.9311 189.585 108.622 174.314 114.63C173.122 115.101 171.886 115.541 170.604 115.95L169.174 111.456C172.763 110.326 176.221 108.812 179.487 106.941C187.271 102.441 193.323 96.0199 197.543 87.7566C199.782 83.357 201.378 78.6581 202.281 73.8041H184.907V69.0885H207.546Z" fill="#1D9B75"/>
<path opacity="0.1" d="M172.444 114.632C187.712 108.624 195.803 97.9366 199.957 89.7288C204.8 80.1589 205.46 71.976 205.485 71.6265L205.673 69.094H207.613L207.424 71.6265C207.399 71.9705 206.74 80.1589 201.896 89.7288C197.74 97.9366 189.651 108.624 174.383 114.632C173.192 115.104 171.954 115.545 170.67 115.956L170.482 115.365C171.15 115.126 171.804 114.882 172.444 114.632Z" fill="white"/>
<path d="M141.874 111.456L140.444 115.95C139.16 115.54 137.923 115.099 136.731 114.627C121.463 108.619 113.372 97.9311 109.218 89.7233C104.374 80.1534 103.715 71.9705 103.69 71.621L103.502 69.0885H126.129V73.8041H108.753C109.661 78.6588 111.261 83.3576 113.505 87.7566C117.725 96.0199 123.774 102.441 131.558 106.938C134.824 108.811 138.283 110.326 141.874 111.456Z" fill="#1D9B75"/>
<path opacity="0.1" d="M138.599 114.632C123.331 108.624 115.239 97.9366 111.086 89.7288C106.242 80.1589 105.583 71.976 105.558 71.6265L105.369 69.094H103.43L103.618 71.6265C103.643 71.9705 104.302 80.1589 109.146 89.7288C113.303 97.9366 121.391 108.624 136.659 114.632C137.851 115.104 139.088 115.545 140.372 115.956L140.561 115.365C139.894 115.126 139.24 114.882 138.599 114.632Z" fill="white"/>
<path d="M181.663 154.895V180.323H129.383V154.895L131.045 152.676C147.987 146.657 151.42 130.959 152.105 124.749C152.206 123.891 152.265 123.028 152.279 122.164H158.744C158.758 123.028 158.817 123.891 158.918 124.749C159.614 130.959 163.047 146.662 179.978 152.676L181.663 154.895Z" fill="#1D9B75"/>
<path opacity="0.1" d="M181.663 154.895H129.383V158.085H181.663V154.895Z" fill="black"/>
<path opacity="0.1" d="M133.816 152.676C150.758 146.657 154.191 130.959 154.876 124.749C154.977 123.891 155.036 123.028 155.05 122.164H152.279C152.265 123.028 152.206 123.891 152.105 124.749C151.409 130.959 147.976 146.662 131.045 152.676L129.383 154.895V180.323H132.154V154.895L133.816 152.676Z" fill="white"/>
<path opacity="0.1" d="M121.441 69.0885H126.129V73.8041H121.857C121.689 72.2507 121.55 70.6788 121.441 69.0885Z" fill="black"/>
<path opacity="0.1" d="M141.874 111.457L140.444 115.95C139.16 115.54 137.923 115.099 136.731 114.627C134.771 112.231 133.039 109.657 131.558 106.938C134.824 108.811 138.283 110.326 141.874 111.457Z" fill="black"/>
<path opacity="0.1" d="M169.171 111.456C172.761 110.326 176.218 108.812 179.485 106.941C178.002 109.66 176.27 112.235 174.311 114.633C173.12 115.104 171.883 115.544 170.601 115.953L169.171 111.456Z" fill="black"/>
<path opacity="0.1" d="M189.601 69.0885C189.492 70.6788 189.354 72.2507 189.186 73.8041H184.916V69.0885H189.601Z" fill="black"/>
<path opacity="0.1" d="M158.93 124.749C156.679 125.185 154.366 125.185 152.116 124.749C152.218 123.891 152.276 123.028 152.29 122.164H158.755C158.769 123.028 158.828 123.891 158.93 124.749Z" fill="black"/>
<path d="M121.995 61.2774C122.114 96.2447 137.078 124.521 155.524 124.521C173.97 124.521 188.931 96.2447 189.053 61.2774H121.995Z" fill="#1D9B75"/>
<path opacity="0.1" d="M127.953 61.2774H121.995C122.114 96.2447 137.078 124.521 155.524 124.521C156.522 124.52 157.518 124.435 158.503 124.269C141.45 121.418 128.066 94.3419 127.953 61.2774Z" fill="white"/>
<path d="M173.303 164.629H137.743V173.782H173.303V164.629Z" fill="#3F3D56"/>
<path opacity="0.1" d="M139.405 165.877H173.303V164.629H137.743V173.782H139.405V165.877Z" fill="white"/>
<path d="M103.031 95.0381C102.391 94.8245 98.622 91.8399 98.3366 90.489C98.0511 89.1381 100.329 76.5531 100.329 76.5531C100.329 76.5531 100.118 76.5531 99.7747 76.5115V76.309L100.243 59.7768C100.243 59.7768 102.163 48.6813 98.5361 49.3277C94.9089 49.974 97.1838 59.7768 97.1838 59.7768C97.1838 59.7768 96.771 64.7531 96.48 66.2454C96.2029 67.6851 94.9338 73.549 95.7983 75.3714C95.83 75.4362 95.8651 75.4992 95.9036 75.5601C95.9036 75.5601 96.0477 81.8151 94.4821 82.6695C92.9886 83.4822 92.3679 87.5737 92.3152 87.9398L92.2349 87.9065C91.7889 87.6272 91.3974 87.2691 91.0794 86.8497C91.0461 86.8081 91.0212 86.7637 90.9907 86.7193C92.0102 85.5712 92.5596 84.0804 92.5293 82.5445C92.499 81.0086 91.8912 79.5407 90.8272 78.4338C90.3325 77.9194 89.7521 77.4951 89.112 77.18C89.0933 76.65 88.968 76.1292 88.7434 75.6488C88.023 74.1066 84.0328 72.09 81.198 72.0428C79.8901 72.004 78.8178 72.3757 78.4271 73.3992C78.2276 73.9179 78.2885 74.5088 78.2054 75.0469C78.0391 76.1564 77.327 77.0247 76.4126 77.7154C76.0433 77.3027 75.6441 76.918 75.2183 76.5642C74.2928 75.8541 72.4473 73.513 72.4473 73.513C72.4473 73.513 66.6864 67.5408 66.2597 65.9042C65.833 64.2677 60.0776 54.4399 58.7974 56.1514C57.5172 57.8628 63.2061 65.3217 63.2061 65.3217C63.2061 65.3217 64.2868 68.0318 65.118 68.9472C65.9493 69.8625 72.3226 79.1272 72.3226 79.1272L72.6274 79.7597C71.2807 80.4698 70.0504 81.3741 69.6153 82.7832C68.978 84.858 70.3718 86.944 71.3361 88.8857C73.2148 92.6748 73.4836 97.5069 71.059 100.969C68.8866 104.025 65.118 105.479 61.5906 106.749C63.2942 108.088 65.4105 108.792 67.5759 108.738C66.7612 111.102 63.8739 111.884 61.4132 112.322C62.7045 113.565 64.5528 114.017 66.3262 114.292C67.1948 114.439 68.0748 114.509 68.9559 114.5H69.172L69.3881 114.483C69.6885 114.463 69.9874 114.425 70.2832 114.369C71.5633 114.108 72.8075 113.409 73.4615 112.278C74.0157 111.31 74.2096 109.989 75.2155 109.504C75.4774 109.385 75.7596 109.319 76.0468 109.307H76.0163C76.2047 109.307 76.3987 109.307 76.5871 109.307L80.7796 109.348C80.9542 109.348 81.1343 109.348 81.3144 109.348C82.4976 109.321 83.7612 109.115 84.3625 108.136C84.6099 107.661 84.74 107.133 84.7421 106.597C84.8308 105.268 84.7421 103.901 84.7782 102.561C85.1356 104.999 85.5097 108.799 84.6202 110.203C83.8976 111.266 83.0217 112.217 82.021 113.024C81.7693 113.235 81.5391 113.471 81.3338 113.728C81.198 113.825 81.1177 113.878 81.1177 113.878L81.0318 114.136C80.716 114.616 80.4871 115.147 80.3557 115.706C80.3073 115.85 80.2894 116.002 80.303 116.153C80.4 116.35 79.6103 117.162 79.8403 117.504C77.8673 119.82 77.4932 123.329 77.4932 123.329L73.891 128.804C72.04 133.672 69.269 134.172 69.269 134.172C69.269 134.172 62.7599 129.8 62.5826 129.587C62.4053 129.373 59.9169 128.305 59.9169 128.305C59.6235 127.79 59.1756 127.38 58.6367 127.134C57.7833 126.779 57.7112 125.47 57.7112 125.47C57.6059 122.377 55.7909 122.142 55.7909 122.142C54.3278 122.017 53.2111 122.277 52.3521 122.755L52.0917 122.774C50.8336 122.877 49.3207 122.99 47.6581 123.101C43.0333 123.406 41.9333 126.405 41.9333 126.405C41.9333 126.405 41.3652 127.046 42.1106 127.739C42.856 128.433 47.6276 127.739 47.8299 127.723C47.4662 127.762 47.0985 127.737 46.7437 127.648C47.4946 127.62 48.5282 127.592 49.4094 127.592H49.6227C49.5673 128.06 49.5404 128.53 49.5424 129.001C49.5424 129.889 51.9947 130.458 51.9947 130.458L59.4625 137.115C59.4625 137.115 64.1565 139.215 67.1436 142.235C70.1307 145.256 72.7715 142.649 72.7715 142.649C75.9332 141.866 85.0303 130.857 85.0386 130.846C85.0386 131.168 85.2298 141.875 85.5928 144.025C85.6072 144.134 85.6342 144.241 85.6732 144.344C86.0999 145.267 85.5291 147.791 85.2825 148.857C85.1252 149.748 85.0648 150.654 85.1024 151.558C85.1024 151.558 81.6913 164.595 81.9739 165.741C82.2566 166.887 80.1257 172.21 80.1257 172.21V176.648L80.497 176.629C80.4487 176.7 80.4043 176.774 80.364 176.85L80.339 176.898C80.339 176.898 82.614 177.394 84.1436 177.253C85.6732 177.111 88.3001 178.432 88.3001 178.432C88.3001 178.432 89.1895 178.853 91.9273 179.031C94.665 179.208 94.665 177.821 94.665 177.821C94.3519 175.932 90.0264 175.3 89.8934 175.28C89.5442 175.061 89.2173 174.823 88.9485 174.617L88.8931 174.573C88.9112 174.531 88.9269 174.489 88.9402 174.445C89.4029 172.559 86.8425 171.741 86.8425 171.741V171.28C88.5051 170.426 88.8349 164.562 88.8349 164.562C88.8349 164.562 91.3287 157.311 91.6779 156.102C92.027 154.893 91.6779 153.081 91.6779 153.081L91.9273 151.517C91.9273 151.517 92.4621 150.452 92.4621 150.238C92.5313 149.697 92.7394 149.183 93.0661 148.746C93.4569 148.282 92.6394 147.181 92.6394 147.181L93.3516 145.334V143.306L95.0142 135.95C95.0142 135.95 96.7571 127.381 96.153 124.577C95.549 121.773 96.8652 120.347 96.8652 120.347C96.7465 120.409 96.6244 120.465 96.4994 120.513C96.6658 120.128 96.8092 119.734 96.9289 119.332L100.67 119.795V119.85H102.019C102.019 119.85 101.592 114.58 101.592 112.455C101.592 110.33 103.031 102.705 103.031 102.705C103.031 102.705 103.671 95.2517 103.031 95.0381ZM86.4241 88.8857C86.4241 89.0937 86.4047 89.3101 86.3909 89.532L86.316 89.6457L86.1775 89.5292L86.0085 89.7928L85.9586 89.8177C85.5928 89.6291 85.4044 88.5501 85.1412 88.7831L85.1051 88.8136C85.0469 88.747 84.9887 88.7276 84.9278 88.7831L84.8724 88.8302C84.8724 88.7498 84.8724 88.6666 84.8724 88.5833C85.3793 88.7139 85.9007 88.7801 86.4241 88.7803C86.4269 88.8163 86.4241 88.8524 86.4241 88.8857ZM98.8658 113.429H98.9462L98.8132 113.778C98.8298 113.662 98.8464 113.548 98.8658 113.429ZM85.2077 176.332L84.6978 176.204L84.9749 176.157L85.2326 176.326L85.2631 176.348L85.2077 176.332ZM90.4171 175.586C90.2481 175.497 90.0763 175.394 89.91 175.289C89.9654 175.319 90.1843 175.433 90.4171 175.586Z" fill="url(#paint1_linear)"/>
<path d="M100.706 108.189L97.35 116.943H98.1647L95.0085 119.462L100.706 120.172V108.189Z" fill="#F86D70"/>
<path opacity="0.1" d="M100.706 108.189L97.35 116.943L96.5049 116.716L95.0085 119.462L100.706 120.172V108.189Z" fill="black"/>
<path d="M95.4437 113.789H100.706L102.637 97.8812H95.4437V113.789Z" fill="#F86D70"/>
<path opacity="0.1" d="M95.4437 113.789H100.706L102.637 97.8812H95.4437V113.789Z" fill="black"/>
<path d="M85.166 101.648L86.3021 101.457L88.9123 101.013C88.9123 101.013 96.7514 99.2433 98.3697 99.099C99.35 98.9695 100.306 98.6966 101.207 98.2891C101.631 98.106 101.9 97.9673 101.9 97.9673L99.0763 92.8051L94.6954 89.5542C94.6954 89.5542 91.9244 88.9633 90.7523 87.349C90.4907 87.0016 90.3204 86.594 90.2569 86.1637C90.1935 85.7333 90.239 85.2939 90.3893 84.8858C91.1042 82.6667 86.1192 87.0078 86.1192 87.0078C86.1192 87.0078 86.1663 88.048 86.1192 89.3739C86.1192 89.6346 86.0942 89.9064 86.0749 90.1838C86.0749 90.3669 86.0499 90.55 86.0305 90.7386C85.9086 92.0562 85.6592 93.4126 85.166 94.2226C83.9606 96.2031 85.166 101.648 85.166 101.648Z" fill="#FBBEBE"/>
<path opacity="0.1" d="M86.1193 89.4848H86.2301C86.4296 89.4848 86.5903 89.0604 86.7843 89.041C88.3444 88.8912 89.7686 88.5639 90.7579 87.4571C90.497 87.11 90.3271 86.7029 90.2637 86.2731C90.2003 85.8434 90.2454 85.4046 90.3949 84.9967C91.1098 82.7776 86.1248 87.1159 86.1248 87.1159C86.1248 87.1159 86.1775 88.1589 86.1193 89.4848Z" fill="black"/>
<path d="M80.0508 83.1937C80.0504 83.9923 80.2073 84.7831 80.5124 85.521C80.8175 86.2588 81.2649 86.9292 81.829 87.4939C82.3931 88.0586 83.0628 88.5065 83.7999 88.8119C84.537 89.1173 85.327 89.2744 86.1248 89.274C86.3243 89.274 86.521 89.274 86.7178 89.2463C87.8881 89.1313 89 88.6788 89.9184 87.9435C90.8368 87.2083 91.5223 86.2219 91.8915 85.1043C92.2608 83.9866 92.298 82.7857 91.9987 81.6472C91.6993 80.5088 91.0763 79.4818 90.2052 78.691C89.3341 77.9002 88.2524 77.3795 87.0914 77.1922C85.9304 77.0048 84.74 77.1589 83.6648 77.6357C82.5896 78.1125 81.6757 78.8914 81.0342 79.878C80.3927 80.8647 80.051 82.0165 80.0508 83.1937Z" fill="#FBBEBE"/>
<path d="M78.186 73.9651C77.9865 74.481 78.0475 75.058 77.9671 75.6044C77.6706 77.5766 75.6672 78.7583 73.855 79.5849C72.0427 80.4115 69.9978 81.3907 69.4214 83.2963C68.7896 85.3573 70.1696 87.4238 71.1283 89.3572C72.996 93.1241 73.262 97.9285 70.8512 101.374C68.7093 104.425 64.9767 105.873 61.4631 107.143C63.1542 108.475 65.2559 109.175 67.4069 109.124C66.6005 111.473 63.7326 112.253 61.2886 112.685C62.5715 113.923 64.4087 114.372 66.1683 114.644C67.4512 114.843 68.7675 114.974 70.0476 114.716C71.3278 114.458 72.5415 113.762 73.201 112.635C73.7552 111.673 73.9436 110.361 74.944 109.875C75.3955 109.698 75.882 109.626 76.3655 109.667L80.5219 109.712C81.816 109.712 83.3483 109.612 84.0161 108.505C84.2625 108.032 84.3917 107.507 84.393 106.974C84.5731 104.245 84.0494 101.36 85.1716 98.8688C85.5097 98.1171 83.34 96.9271 83.5672 96.131C84.3487 93.3932 84.5454 91.2379 84.5371 88.3891C84.5371 86.1839 85.9697 84.2838 87.1529 82.4226C88.3361 80.5613 89.3253 78.2118 88.3915 76.2147C87.3385 73.9873 79.4302 70.7502 78.186 73.9651Z" fill="#3F3D56"/>
<path d="M83.7196 175.533L84.7781 176.234L84.9416 176.343L84.9721 176.362L86.2273 177.194L89.159 177.688L91.736 177.51C91.736 177.51 92.4787 175.957 91.3121 175.993C90.9384 175.974 90.5743 175.869 90.248 175.685L90.0873 175.605C89.9183 175.516 89.7493 175.416 89.583 175.311C89.2366 175.092 88.9096 174.853 88.6464 174.651C88.2585 174.351 88.0008 174.124 88.0008 174.124L83.7196 175.533Z" fill="#FBBEBE"/>
<path opacity="0.1" d="M84.792 176.235L84.9555 176.343L84.986 176.362L86.2412 177.194L89.1729 177.688L91.7499 177.511C91.7499 177.511 92.4925 175.957 91.3259 175.993C90.9523 175.974 90.5881 175.869 90.2619 175.685C90.4669 175.846 90.6388 176.021 90.6554 176.168C90.7025 176.565 88.7489 177.278 88.7489 177.278L85.9946 176.548C85.9946 176.548 85.5263 176.415 84.8862 176.248L84.8252 176.232L84.792 176.235Z" fill="black"/>
<path d="M80.0813 176.911C80.0813 176.911 82.3397 177.405 83.8581 177.264C85.3766 177.122 87.9924 178.431 87.9924 178.431C87.9924 178.431 88.8764 178.848 91.5947 179.025C94.3131 179.203 94.3131 177.821 94.3131 177.821C94.0027 175.943 89.7077 175.325 89.5747 175.297C89.6273 175.325 89.8518 175.439 90.079 175.591C90.3838 175.791 90.7136 176.052 90.7385 176.262C90.7856 176.656 88.8321 177.372 88.8321 177.372L86.0777 176.645C86.0777 176.645 85.6094 176.509 84.9693 176.343H84.9084C83.9592 176.084 82.9949 175.885 82.021 175.746C80.835 175.619 80.2282 176.628 80.1035 176.856C80.0944 176.874 80.087 176.892 80.0813 176.911Z" fill="#3F3D56"/>
<path d="M44.4852 127.029L45.6851 127.95C45.6851 127.95 46.0342 127.933 46.5552 127.917H46.7214C47.4668 127.889 48.4948 127.861 49.3677 127.861C49.9319 127.836 50.4973 127.867 51.0552 127.955C51.6538 128.166 52.7178 124.527 52.7178 124.527L51.5152 124.25L51.1162 124.155L50.8391 124.089L49.8609 123.858L46.896 124.197L44.8122 125.539L44.4852 127.029Z" fill="#FBBEBE"/>
<path opacity="0.1" d="M44.4852 127.029L45.6851 127.95C45.6851 127.95 46.0342 127.933 46.5552 127.917C46.3161 127.824 46.119 127.648 46.001 127.42C45.2251 125.265 49.074 124.344 49.074 124.344L50.8668 124.266L51.2159 124.25H51.493L51.094 124.155L50.8169 124.089L49.8388 123.858L46.8738 124.197L44.79 125.539L44.4852 127.029Z" fill="black"/>
<path d="M42.1189 128.003C42.8449 128.674 47.5999 128.003 47.7994 127.986C47.4385 128.027 47.0732 128.001 46.7215 127.911C46.5473 127.88 46.3823 127.81 46.2385 127.707C46.0946 127.604 45.9757 127.47 45.8902 127.315C45.1143 125.157 48.9632 124.238 48.9632 124.238L50.756 124.161L51.1024 124.144L55.4611 123.956L55.6717 122.754C55.6717 122.754 54.2558 122.888 52.0334 123.065C50.7837 123.168 49.2625 123.282 47.6193 123.39C43.0277 123.695 41.936 126.677 41.936 126.677C41.936 126.677 41.379 127.315 42.1189 128.003Z" fill="#3F3D56"/>
<path d="M95.4464 75.9373C95.4759 76.0032 95.5111 76.0663 95.5517 76.1259L96.6102 77.6793L99.3646 77.9567L99.395 76.8638L99.8578 60.4203C99.8578 60.4203 101.764 49.3915 98.162 50.0267C94.5597 50.6619 96.8208 60.4203 96.8208 60.4203C96.8208 60.4203 96.4107 65.3689 96.1225 66.8557C95.8426 68.2925 94.5874 74.1343 95.4464 75.9373Z" fill="#FBBEBE"/>
<path d="M89.2643 116.78L90.0485 118.122L91.8026 121.126C91.8026 121.126 94.9836 122.294 95.7983 121.404C96.2444 120.918 96.7266 119.223 97.0646 117.798C97.3417 116.644 97.5274 115.67 97.5274 115.67L89.2643 116.78Z" fill="#FBBEBE"/>
<path opacity="0.1" d="M89.2643 116.78L90.0485 118.122C90.0977 118.08 90.1423 118.032 90.1815 117.981C91.0682 116.849 94.9726 117.739 97.0646 117.811C97.3417 116.657 97.5274 115.684 97.5274 115.684L89.2643 116.78Z" fill="black"/>
<path opacity="0.1" d="M49.3677 127.856C49.932 127.83 50.4973 127.862 51.0553 127.95C51.6538 128.161 52.7178 124.521 52.7178 124.521L51.1162 124.144L55.475 123.956L55.6856 122.754C55.6856 122.754 54.2696 122.888 52.0473 123.065C51.5881 123.33 51.1783 123.672 50.8364 124.078L50.7699 124.161C49.8416 125.301 49.498 126.771 49.3677 127.856Z" fill="black"/>
<path opacity="0.1" d="M83.7196 175.533L84.9416 176.343C86.7649 176.013 88.4303 175.494 88.627 174.678C88.6279 174.665 88.6279 174.652 88.627 174.64C88.2391 174.34 87.9814 174.112 87.9814 174.112L83.7196 175.533Z" fill="black"/>
<path opacity="0.1" d="M80.1063 176.864C81.7164 176.784 83.3206 176.612 84.9111 176.348C83.9612 176.087 82.996 175.886 82.021 175.746C80.8378 175.619 80.231 176.628 80.1063 176.864Z" fill="black"/>
<path d="M49.5007 129.256C49.5007 130.141 51.9364 130.707 51.9364 130.707L59.3543 137.317C59.3543 137.317 64.0151 139.403 66.9801 142.407C69.945 145.411 72.5608 142.832 72.5608 142.832C75.7031 142.055 84.7531 131.095 84.7531 131.095C84.7531 131.095 84.9637 143.611 85.3877 144.529C85.8116 145.447 85.2464 147.958 84.9998 149.02C84.8442 149.906 84.7847 150.806 84.8224 151.705C84.8224 151.705 81.4335 164.679 81.7161 165.81C81.9988 166.942 79.879 172.246 79.879 172.246V176.664C79.879 176.664 88.1781 176.345 88.6353 174.473C89.0925 172.601 86.5543 171.785 86.5543 171.785V171.325C88.2169 170.476 88.53 164.645 88.53 164.645C88.53 164.645 91.0045 157.433 91.3564 156.232C91.7083 155.031 91.3564 153.225 91.3564 153.225L91.603 151.672C91.603 151.672 92.1322 150.61 92.1322 150.399C92.2014 149.86 92.4086 149.349 92.7336 148.915C93.1215 148.454 92.3096 147.359 92.3096 147.359L93.0162 145.519V143.506L94.6788 136.188C94.6788 136.188 96.4106 127.667 95.8093 124.874C95.208 122.08 96.5159 120.668 96.5159 120.668C93.6812 122.155 92.2514 118.846 91.7831 117.423C91.664 117.057 91.6058 116.813 91.6058 116.813C91.6058 116.813 87.7125 115.376 84.0881 115.72C83.352 115.78 82.6266 115.933 81.9295 116.178C77.9033 117.628 77.2687 123.636 77.2687 123.636L73.7025 129.082C71.8653 133.925 69.111 134.418 69.111 134.418C69.111 134.418 62.649 130.072 62.4606 129.858C62.2722 129.645 59.8116 128.585 59.8116 128.585C59.5206 128.072 59.0755 127.665 58.5397 127.42C57.6917 127.065 57.6225 125.756 57.6225 125.756C57.5172 122.679 55.716 122.427 55.716 122.427C49.4647 121.906 49.5007 128.374 49.5007 129.256Z" fill="#3F3D56"/>
<path d="M85.4514 111.973H89.2643V100.131H85.4514V111.973Z" fill="#F86D70"/>
<path opacity="0.1" d="M85.4514 111.973H89.2643V100.131H85.4514V111.973Z" fill="black"/>
<path opacity="0.1" d="M95.4436 75.9124C95.443 75.9207 95.443 75.929 95.4436 75.9373C95.4731 76.0032 95.5083 76.0663 95.5489 76.1259L96.6074 77.6793L99.3618 77.9567L99.3923 76.8638C98.5332 76.7972 96.5769 76.5614 95.4436 75.9124Z" fill="black"/>
<path d="M95.5518 76.1259C95.5518 76.1259 95.6931 82.3449 94.1386 83.1937C92.5841 84.0425 91.98 88.4641 91.98 88.4641C91.98 88.4641 96.6906 91.5652 97.7408 92.93C98.791 94.2947 101.202 97.5457 100.706 98.3224C100.21 99.0991 101.908 102.636 101.908 102.636C101.908 102.636 98.7993 108.999 99.5059 111.404C100.213 113.809 100.282 120.169 100.282 120.169H101.626C101.626 120.169 101.202 114.938 101.202 112.816C101.202 110.694 102.612 103.129 102.612 103.129C102.612 103.129 103.25 95.7066 102.612 95.4958C101.975 95.285 98.2341 92.3142 97.9514 90.9689C97.6688 89.6235 99.9299 77.0995 99.9299 77.0995C99.9299 77.0995 97.0342 76.9747 95.5518 76.1259Z" fill="#F86D70"/>
<path opacity="0.1" d="M85.3794 99.0324C85.5083 99.8978 85.8231 100.725 86.3021 101.457L88.9124 101.013C88.9124 101.013 96.7515 99.2432 98.3697 99.099C99.3501 98.9694 100.306 98.6965 101.207 98.289C100.586 96.0859 99.3738 94.0952 97.7019 92.5333L96.7072 91.6096C95.2413 90.2472 93.5423 89.1601 91.6917 88.4002C91.8081 88.4973 100.032 95.5263 98.2312 96.9049C96.4301 98.2835 91.5808 94.9271 91.5808 94.9271L86.0666 90.1838L85.8671 90.0118L85.5484 90.5084C85.7106 90.5751 85.8688 90.6511 86.0223 90.7358C87.9016 91.7684 89.2963 93.5036 89.9016 95.5623C91.035 99.3764 85.3794 99.0324 85.3794 99.0324Z" fill="black"/>
<path d="M83.6836 116.707C83.6836 116.707 88.9097 119.606 90.1788 117.981C90.4559 117.623 91.0405 117.467 91.7693 117.426C91.6502 117.06 91.592 116.816 91.592 116.816C91.592 116.816 87.6987 115.379 84.0743 115.723C83.836 116.322 83.6836 116.707 83.6836 116.707Z" fill="#444053"/>
<path d="M86.0888 90.0174L91.8026 94.9382C91.8026 94.9382 96.6324 98.3057 98.4529 96.9159C100.273 95.5262 91.9106 88.4085 91.9106 88.4085C93.7574 89.1706 95.4545 90.2544 96.9233 91.6095L97.9181 92.5332C100.534 94.9604 101.124 94.9604 101.213 98.5276C101.235 99.4069 100.936 100.669 100.706 100.896C99.8578 101.729 99.2648 107.773 99.3951 108.48C99.5253 109.188 97.8156 115.293 98.3698 116.99C98.924 118.688 91.4423 116.142 90.176 117.77C88.9097 119.398 83.6836 116.497 83.6836 116.497C83.6836 116.497 86.5793 109.071 87.2859 108.577C87.9925 108.084 88.8404 104.264 87.2859 102.497C85.7313 100.73 85.5928 99.0324 85.5928 99.0324C85.5928 99.0324 91.2456 99.3819 90.1123 95.5678C89.7934 94.4623 89.2403 93.4386 88.4905 92.5665C87.7407 91.6943 86.8119 90.9942 85.7674 90.5139L86.0888 90.0174Z" fill="#E8E8F0"/>
<path opacity="0.1" d="M93.7145 102.533C93.7145 102.533 91.5227 106.669 88.688 107.742C88.5965 107.775 88.5079 107.806 88.4109 107.834C85.4515 108.735 93.9362 103.814 93.7145 102.533Z" fill="black"/>
<path d="M63.0619 65.943C63.0619 65.943 64.1204 68.6309 64.9683 69.549C65.8163 70.4672 72.1009 79.6597 72.1009 79.6597L72.6329 80.7693L73.0901 81.7152L77.1163 81.2908L77.3934 79.6653L77.2383 79.4767C76.8337 78.9912 75.7308 77.6875 74.991 77.1189C74.0738 76.4143 72.2366 74.0815 72.2366 74.0815C72.2366 74.0815 66.5173 68.1399 66.0934 66.5144C65.6694 64.8889 59.9473 55.1416 58.6782 56.8281C57.4091 58.5146 63.0619 65.943 63.0619 65.943Z" fill="#FBBEBE"/>
<g opacity="0.1">
<path opacity="0.1" d="M74.7444 109.667C74.2611 109.625 73.7747 109.696 73.3229 109.873C72.3254 110.358 72.1369 111.67 71.5827 112.633C70.9343 113.759 69.6985 114.455 68.4266 114.713C68.1738 114.762 67.9185 114.797 67.6618 114.818C68.4719 114.897 69.289 114.862 70.0892 114.713C71.3611 114.455 72.5969 113.759 73.2453 112.633C73.7995 111.67 73.9879 110.358 74.9855 109.873C75.2474 109.755 75.5297 109.689 75.8168 109.678L74.7444 109.667Z" fill="black"/>
<path opacity="0.1" d="M84.587 88.3891C84.587 86.1839 86.0196 84.2838 87.2 82.4225C88.3804 80.5613 89.3724 78.2118 88.4386 76.2146C87.6406 74.5087 82.8302 72.2203 80.0536 72.6724C82.772 73.0247 86.1221 74.8166 86.776 76.2146C87.7099 78.2118 86.7178 80.5613 85.5374 82.4225C84.357 84.2838 82.9188 86.1839 82.9244 88.3891C82.9244 91.2351 82.7332 93.382 81.9518 96.1309C81.7273 96.9215 83.8914 98.117 83.5589 98.866C82.4339 101.362 82.9604 104.242 82.7803 106.971C82.7765 107.504 82.6464 108.029 82.4007 108.502C81.8465 109.415 80.7104 109.651 79.6047 109.701H80.5718C81.8631 109.701 83.3954 109.601 84.0632 108.494C84.309 108.021 84.4391 107.496 84.4429 106.963C84.623 104.233 84.0965 101.351 85.2215 98.8576C85.5596 98.1087 83.3899 96.9159 83.6143 96.1226C84.3958 93.3931 84.5925 91.2351 84.587 88.3891Z" fill="black"/>
</g>
<path opacity="0.1" d="M72.6329 80.7637L73.0901 81.7096L77.1164 81.2852L77.3935 79.6598L77.2383 79.4711C76.8088 79.6819 73.5917 81.2325 72.6329 80.7637Z" fill="black"/>
<path opacity="0.1" d="M87.4992 91.396C87.4992 91.396 86.51 89.8426 85.9447 90.2643C85.3794 90.6859 85.1605 88.9911 84.8363 89.274C84.5121 89.5569 83.5672 90.3447 83.1737 89.2435C82.8662 88.3669 79.5188 82.822 78.161 80.5918C77.8119 80.0148 77.593 79.6598 77.593 79.6598C77.593 79.6598 73.7801 81.5682 72.8629 80.933V82.2755L73.6388 82.3477L77.7953 90.1145C77.7953 90.1145 79.1032 92.1976 79.0145 92.9244C78.9258 93.6511 80.6909 96.8328 80.9736 97.0436C81.2562 97.2544 84.2988 100.791 84.2988 100.791C84.2988 100.791 85.8533 108.428 84.5094 110.55C83.1654 112.672 80.8378 114.225 80.8378 114.225C80.8378 114.225 80.1367 116.275 80.2393 116.488C80.3418 116.702 79.4246 117.62 79.8486 117.903C80.2725 118.186 80.8378 120.164 80.8378 120.164C80.8378 120.164 82.8163 116.982 83.8859 116.488C84.9555 115.995 86.3243 109.487 86.3243 109.487C86.3243 109.487 86.715 105.654 86.7455 103.179C86.776 100.705 86.6513 91.396 87.4992 91.396Z" fill="black"/>
<path d="M87.2859 91.396C87.2859 91.396 86.2994 89.8426 85.7341 90.2642C85.1689 90.6859 84.9472 88.991 84.6258 89.274C84.3043 89.5569 83.3594 90.3447 82.9632 89.2435C82.6528 88.3669 79.3055 82.822 77.9505 80.5918L77.3824 79.6598C77.3824 79.6598 73.5696 81.5682 72.6496 80.933V82.2755L73.4282 82.3477L77.5847 90.1145C77.5847 90.1145 78.8954 92.1976 78.8039 92.9244C78.7125 93.6511 80.4665 96.8327 80.763 97.0436C81.0595 97.2544 84.0882 100.791 84.0882 100.791C84.0882 100.791 85.6427 108.427 84.3016 110.549C83.5931 111.615 82.7312 112.571 81.7439 113.384C80.9146 114.069 80.3309 115.006 80.0814 116.053C80.0333 116.195 80.0162 116.347 80.0315 116.497C80.134 116.707 79.2168 117.628 79.6408 117.911C80.0647 118.194 80.6356 120.18 80.6356 120.18C80.6356 120.18 82.614 116.999 83.6836 116.505C84.7532 116.011 86.1249 109.504 86.1249 109.504C86.1249 109.504 86.5128 105.67 86.546 103.196C86.5793 100.722 86.4546 91.396 87.2859 91.396Z" fill="#F86D70"/>
<path opacity="0.1" d="M77.6096 123.567C77.6096 123.567 80.5773 124.122 81.7661 124.979C82.9548 125.836 77.2466 123.637 77.2466 123.637L77.6096 123.567Z" fill="black"/>
<path opacity="0.1" d="M84.7449 131.096C84.7449 131.096 87.8401 133.678 87.2859 136.011C86.7317 138.344 85.3018 144.213 85.3018 144.213L84.7449 131.096Z" fill="black"/>
<path opacity="0.1" d="M57.6752 126.13C57.6752 126.13 53.3137 126.607 53.5963 127.173C53.8789 127.739 57.6752 126.652 57.6752 126.652V126.13Z" fill="black"/>
<path opacity="0.1" d="M91.1651 147.606C91.1651 147.606 91.4422 147.958 89.824 147.606C88.2058 147.253 89.4001 146.166 89.4001 146.166L91.1651 147.606Z" fill="black"/>
<path opacity="0.1" d="M90.611 152.485C90.611 152.485 88.3942 152.837 87.2055 152.485C86.0167 152.132 90.611 152.485 90.611 152.485Z" fill="black"/>
<path opacity="0.1" d="M86.05 171.574C86.05 171.574 85.6621 171.15 83.7196 171.927C81.7772 172.703 81.0013 172.739 80.436 172.481C79.8707 172.223 86.05 171.574 86.05 171.574Z" fill="black"/>
<path opacity="0.1" d="M88.2058 125.528L85.4514 129.365C85.4514 129.365 86.9339 126.005 88.2058 125.528Z" fill="black"/>
<path opacity="0.1" d="M82.8523 90.2643C82.8523 90.2643 82.7331 91.5375 80.9569 92.034C79.1807 92.5305 78.8427 92.9327 78.8427 92.9327" fill="black"/>
<path opacity="0.1" d="M78.2358 81.0355C78.2358 81.0355 75.8915 82.6998 73.4448 82.3475L78.2358 81.0355Z" fill="black"/>
<path opacity="0.1" d="M80.0203 116.671C80.0203 116.671 80.7047 117.101 82.3479 115.221L80.0203 116.671Z" fill="black"/>
<path opacity="0.1" d="M97.0868 96.73C97.1533 96.3861 96.915 96.0671 96.6906 95.798L96.2306 95.2433C96.1407 95.1297 96.0395 95.0256 95.9285 94.9326C95.6514 94.719 95.2967 94.6552 95.0085 94.4638" fill="black"/>
<path opacity="0.1" d="M245.866 0.0306242C245.866 0.0306242 222.537 -1.3785 225.281 14.9873C225.281 14.9873 224.726 17.8804 227.353 19.1925C227.353 19.1925 227.395 17.9803 229.747 18.3936C230.585 18.5326 231.436 18.5735 232.283 18.5156C233.427 18.4365 234.515 17.9867 235.381 17.2341C235.381 17.2341 241.94 14.5213 244.489 3.79198C244.489 3.79198 246.376 1.45084 246.301 0.848915L242.364 2.53265C242.364 2.53265 243.71 5.37585 242.641 7.73918C242.641 7.73918 242.513 2.63528 241.757 2.74623C241.604 2.7712 239.712 3.73096 239.712 3.73096C239.712 3.73096 242.026 8.6823 240.28 12.2828C240.28 12.2828 240.942 6.18027 238.989 4.08878L236.218 5.70872C236.218 5.70872 238.922 10.8237 237.088 14.9984C237.088 14.9984 237.559 8.59631 235.633 6.10261L233.122 8.06373C233.122 8.06373 235.663 13.1066 234.114 16.5684C234.114 16.5684 233.912 9.11502 232.579 8.55193C232.579 8.55193 230.382 10.4936 230.047 11.287C230.047 11.287 231.787 14.9485 230.706 16.8791C230.706 16.8791 230.044 11.9138 229.501 11.8861C229.501 11.8861 227.312 15.1759 227.084 17.4338C227.084 17.4338 227.179 14.0802 228.972 11.5754C228.972 11.5754 226.854 11.9388 225.619 13.3119C225.619 13.3119 225.959 10.9874 229.512 10.7849C229.512 10.7849 231.321 8.28841 231.803 8.13585C231.803 8.13585 228.273 7.84182 226.131 8.79048C226.131 8.79048 228.016 6.59635 232.452 7.59494L234.932 5.56725C234.932 5.56725 230.282 4.93204 228.309 5.63383C228.309 5.63383 230.579 3.69212 235.6 5.10679L238.299 3.4924C238.299 3.4924 234.333 2.63805 231.972 2.93763C231.972 2.93763 234.466 1.59231 239.091 3.05136L241.031 2.18314C241.031 2.18314 238.127 1.61173 237.276 1.52019C236.425 1.42865 236.381 1.19565 236.381 1.19565C238.221 0.88854 240.11 1.09884 241.837 1.80312C241.837 1.80312 245.938 0.288593 245.866 0.0306242Z" fill="#1D9B75"/>
<path opacity="0.1" d="M217.092 4.19396C217.092 4.19396 206.563 3.55597 207.796 10.9511C207.796 10.9511 207.549 12.2603 208.73 12.854C208.73 12.854 208.749 12.2992 209.813 12.4906C210.191 12.5543 210.575 12.5729 210.957 12.5461C211.475 12.5109 211.966 12.3073 212.357 11.9663C212.357 11.9663 215.322 10.743 216.474 5.89434C216.474 5.89434 217.325 4.83472 217.292 4.56288L215.513 5.32292C215.513 5.32292 216.123 6.60999 215.643 7.67793C215.643 7.67793 215.585 5.37008 215.244 5.42556C215.175 5.42556 214.319 5.86937 214.319 5.86937C214.319 5.86937 215.366 8.10788 214.576 9.73613C214.576 9.73613 214.876 6.97892 213.992 6.03303L212.739 6.76533C212.739 6.76533 213.964 9.07595 213.133 10.9622C213.133 10.9622 213.346 8.06905 212.476 6.94286L211.343 7.83881C211.343 7.83881 212.49 10.1189 211.792 11.6806C211.792 11.6806 211.7 8.31314 211.096 8.06072C211.096 8.06072 210.104 8.93726 209.952 9.29786C209.952 9.29786 210.739 10.9622 210.251 11.8221C210.251 11.8221 209.952 9.57803 209.697 9.56971C209.697 9.56971 208.71 11.0565 208.605 12.0662C208.654 11.1239 208.948 10.2108 209.458 9.41714C208.887 9.52538 208.361 9.79823 207.943 10.2021C207.943 10.2021 208.098 9.15362 209.702 9.05931C209.702 9.05931 210.533 7.93312 210.739 7.86378C210.739 7.86378 209.142 7.73063 208.175 8.16058C208.175 8.16058 209.026 7.16754 211.032 7.60581L212.141 6.69044C212.141 6.69044 210.04 6.41305 209.148 6.72095C209.148 6.72095 210.173 5.84441 212.443 6.4824L213.662 5.75287C213.662 5.75287 211.872 5.36453 210.802 5.506C210.802 5.506 211.93 4.89575 214.019 5.55593L214.892 5.16481C214.892 5.16481 213.579 4.90407 213.194 4.86523C212.808 4.8264 212.789 4.71822 212.789 4.71822C213.621 4.5797 214.475 4.67574 215.255 4.99561C215.255 4.99561 217.126 4.31046 217.092 4.19396Z" fill="#1D9B75"/>
<path d="M253.874 180.512C260.028 180.512 265.016 179.667 265.016 178.626C265.016 177.584 260.028 176.739 253.874 176.739C247.721 176.739 242.732 177.584 242.732 178.626C242.732 179.667 247.721 180.512 253.874 180.512Z" fill="#1D9B75"/>
<path d="M258.482 175.541C258.991 175.126 259.361 174.566 259.544 173.935C259.682 173.3 259.411 172.548 258.801 172.301C258.119 172.04 257.391 172.515 256.839 172.992C256.288 173.469 255.653 174.015 254.933 173.913C255.304 173.575 255.582 173.147 255.739 172.67C255.897 172.194 255.928 171.684 255.831 171.192C255.799 170.988 255.713 170.796 255.581 170.637C255.202 170.232 254.517 170.404 254.063 170.723C252.622 171.738 252.22 173.699 252.212 175.461C252.068 174.825 252.19 174.162 252.187 173.519C252.184 172.875 252.004 172.132 251.452 171.791C251.112 171.608 250.73 171.518 250.344 171.53C249.698 171.505 248.975 171.572 248.535 172.046C247.98 172.634 248.127 173.622 248.604 174.265C249.081 174.909 249.809 175.322 250.48 175.768C251.016 176.089 251.474 176.526 251.818 177.047C251.86 177.12 251.893 177.197 251.918 177.277H255.98C256.889 176.814 257.731 176.23 258.482 175.541Z" fill="#1D9B75"/>
</g>
<defs>
<linearGradient id="paint0_linear" x1="224.036" y1="140.061" x2="224.036" y2="28.4681" gradientUnits="userSpaceOnUse">
<stop stop-color="#808080" stop-opacity="0.25"/>
<stop offset="0.54" stop-color="#808080" stop-opacity="0.12"/>
<stop offset="1" stop-color="#808080" stop-opacity="0.1"/>
</linearGradient>
<linearGradient id="paint1_linear" x1="11042.7" y1="69508.8" x2="24729" y2="69508.8" gradientUnits="userSpaceOnUse">
<stop stop-color="#808080" stop-opacity="0.25"/>
<stop offset="0.54" stop-color="#808080" stop-opacity="0.12"/>
<stop offset="1" stop-color="#808080" stop-opacity="0.1"/>
</linearGradient>
<clipPath id="clip0">
<rect width="317" height="181" fill="white"/>
</clipPath>
</defs>
</svg>
