<svg width="297" height="218" viewBox="0 0 297 218" fill="none" xmlns="http://www.w3.org/2000/svg">
<g clip-path="url(#clip0)">
<path opacity="0.1" d="M295.18 99.759L261.721 177.257L250.274 203.77C246.555 212.377 237.767 217.994 228.011 217.994H68.9863C59.23 217.994 50.4471 212.377 46.7238 203.77L45.1274 200.07L1.81781 99.759C-2.78866 89.0868 1.61439 76.8163 12.1173 71.0677L22.6229 65.3243L28.6327 62.0375L58.764 45.56L67.5392 40.7601L78.8532 34.5733L91.7457 27.5229L100.948 22.4935L123.35 10.2385L128.489 7.43379L136.312 3.15458L136.531 3.03857C140.206 1.04094 144.322 -0.00543213 148.504 -0.00543213C152.686 -0.00543213 156.802 1.04094 160.477 3.03857L200.254 24.7981L213.02 31.7815L226.121 38.9453L235.208 43.9128L256.237 55.4073L273.077 64.618L284.87 71.0625C295.383 76.8085 299.786 89.0868 295.18 99.759Z" fill="#1D9B75"/>
<path opacity="0.1" d="M82.5559 35.4325C81.5903 35.2005 80.3029 34.9169 78.8532 34.5767L91.7457 27.5263C98.9065 29.3514 105.794 30.6919 109.896 30.447C109.896 30.447 111.127 32.6948 107.646 32.6948C104.164 32.6948 107.54 35.8243 105.39 36.0202C103.24 36.2162 101.499 37.4845 99.7587 36.0202C98.0181 34.556 96.8929 33.7724 94.7429 34.0637C92.5928 34.355 89.6214 35.9197 88.5966 34.0637C87.5718 32.2076 88.2902 36.7988 82.5559 35.4325Z" fill="#1D9B75"/>
<path opacity="0.1" d="M186.813 26.5904C190.001 26.7786 194.883 26.0104 200.264 24.7859L213.03 31.7693C208.512 32.3132 209.063 28.4697 208.112 30.1943C207.082 32.0503 204.116 30.4855 201.966 30.1943C199.816 29.903 198.691 30.6815 196.95 32.1508C195.21 33.6202 193.469 32.3442 191.319 32.1508C189.169 31.9575 192.545 28.8254 189.063 28.8254C185.582 28.8254 186.813 26.5904 186.813 26.5904Z" fill="#1D9B75"/>
<path opacity="0.1" d="M276.509 94.9572C279.99 94.9572 278.762 92.7068 278.762 92.7068C269.261 93.2765 244.75 85.311 236.655 82.5733L235.787 59.1949C240.188 62.1027 246.821 63.3194 249.977 64.0928C255.712 65.459 254.996 60.8653 256.018 62.7239C257.04 64.5826 260.012 63.0152 262.164 62.7239C264.317 62.4327 265.44 63.2112 267.18 64.6779C268.921 66.1447 270.662 64.8713 272.812 64.6779C272.907 64.6716 273.001 64.6552 273.092 64.629L256.252 55.4184C247.884 53.1653 239.611 50.4586 235.414 49.0382L235.223 43.9238L226.137 38.9563L226.34 49.8348C216.509 53.0854 195.462 59.6305 186.816 59.115C186.816 59.115 185.585 61.3629 189.066 61.3629C192.547 61.3629 189.172 64.4923 191.322 64.6883C193.472 64.8842 195.212 66.155 196.953 64.6883C198.694 63.2215 199.819 62.4404 201.969 62.7343C204.119 63.0281 207.09 64.5903 208.115 62.7343C209.14 60.8782 208.421 65.4693 214.156 64.1031C216.906 63.4457 222.285 62.4301 226.538 60.2595L226.958 82.7666C218.384 85.6538 194.684 93.2816 185.371 92.7248C185.371 92.7248 184.143 94.9753 187.624 94.9753C191.105 94.9753 187.727 98.1048 189.877 98.2981C192.027 98.4915 193.768 99.7649 195.508 98.2981C197.249 96.8313 198.377 96.0502 200.527 96.3441C202.677 96.638 205.646 98.2001 206.671 96.3441C207.695 94.4881 206.977 99.0792 212.714 97.7129C215.93 96.9396 222.756 95.6842 227.133 92.6604L227.584 116.634C218.415 119.697 195.841 126.863 186.803 126.324C186.803 126.324 185.572 128.572 189.053 128.572C192.534 128.572 189.182 131.686 191.319 131.892C193.456 132.099 195.21 133.357 196.95 131.892C198.691 130.428 199.816 129.642 201.966 129.936C204.116 130.23 207.088 131.792 208.112 129.936C209.137 128.08 208.419 132.671 214.153 131.305C217.179 130.583 223.397 129.423 227.785 126.768L228.781 179.67C218.422 183.05 208.457 187.832 197.625 189.293C179.534 191.734 161.062 184.653 143.05 184.834L141.629 146.555C145.749 148.481 150.682 149.419 153.273 150.038C159.009 151.404 158.294 146.813 159.316 148.669C160.338 150.525 163.309 148.96 165.459 148.669C167.61 148.378 168.737 149.156 170.478 150.626C172.219 152.095 173.959 150.819 176.109 150.626C178.259 150.432 174.884 147.3 178.365 147.3C181.846 147.3 180.615 145.052 180.615 145.052C172.01 145.568 151.123 139.09 141.22 135.826L140.313 111.404C144.714 114.41 151.501 115.662 154.707 116.428C160.441 117.794 159.725 113.203 160.747 115.059C161.77 116.915 164.744 115.351 166.894 115.059C169.044 114.768 170.169 115.546 171.91 117.016C173.65 118.485 175.391 117.207 177.543 117.016C179.696 116.825 176.315 113.69 179.796 113.69C183.278 113.69 182.047 111.443 182.047 111.443C172.54 112.01 148.038 104.044 139.942 101.306L139.072 77.928C143.475 80.8358 150.108 82.0526 153.262 82.8259C158.999 84.1922 158.283 79.5985 159.306 81.4571C160.328 83.3157 163.299 81.7484 165.449 81.4571C167.599 81.1658 168.727 81.9443 170.468 83.4111C172.208 84.8779 173.949 83.6044 176.099 83.4111C178.249 83.2178 174.873 80.0883 178.355 80.0883C181.836 80.0883 180.605 77.8404 180.605 77.8404C171.183 78.3972 146.998 70.5606 138.714 67.7559L137.849 44.4961C142.139 48.0741 149.809 49.4764 153.278 50.3039C159.015 51.6702 158.299 47.0791 159.321 48.9351C160.343 50.7911 163.315 49.2264 165.465 48.9351C167.615 48.6438 168.742 49.4223 170.483 50.8917C172.224 52.361 173.964 51.085 176.114 50.8917C178.264 50.6983 174.889 47.5663 178.37 47.5663C181.851 47.5663 180.62 45.3184 180.62 45.3184C170.668 45.9139 144.286 37.157 137.491 34.8343L136.95 20.2051C141.135 22.2467 146.282 23.2212 148.949 23.8579C154.684 25.2241 153.968 20.6304 154.99 22.4891C156.012 24.3477 158.986 22.7804 161.136 22.4891C163.286 22.1978 164.412 22.9763 166.152 24.4431C167.893 25.9098 169.633 24.6364 171.783 24.4431C173.933 24.2497 170.558 21.1176 174.039 21.1176C177.52 21.1176 176.289 18.8698 176.289 18.8698C167.579 19.3853 146.289 12.7526 136.551 9.52769L136.314 3.15269L128.489 7.43448L128.51 8.52749C127.258 8.95283 125.49 9.55862 123.36 10.2392L100.959 22.4942C103.109 22.7881 106.07 24.3451 107.092 22.4942C108.114 20.6433 107.398 25.2293 113.135 23.863C116.637 23.0252 124.431 21.6023 128.695 17.934L129.04 36.2367C118.962 39.5595 98.5846 45.8443 90.1106 45.3287C90.1106 45.3287 88.8824 47.5766 92.3637 47.5766C95.8449 47.5766 92.4667 50.7061 94.6167 50.902C96.7667 51.0979 98.5099 52.3662 100.251 50.902C101.991 49.4378 103.116 48.6541 105.266 48.9454C107.416 49.2367 110.388 50.8014 111.413 48.9454C112.437 47.0894 111.719 51.6805 117.453 50.3142C120.072 49.6904 125.083 48.7366 129.228 46.7723L129.638 68.5628C119.807 71.8134 98.7597 78.3585 90.1106 77.843C90.1106 77.843 88.8824 80.0908 92.3637 80.0908C95.8449 80.0908 92.4667 83.2203 94.6167 83.4137C96.7667 83.607 98.5099 84.8805 100.251 83.4137C101.991 81.9469 103.116 81.1658 105.266 81.4597C107.416 81.7535 110.388 83.3157 111.413 81.4597C112.437 79.6036 111.719 84.1948 117.453 82.8285C120.201 82.1737 125.582 81.1555 129.833 78.9849L130.256 101.492C121.679 104.361 97.9795 111.997 88.6687 111.443C88.6687 111.443 87.4379 113.69 90.9192 113.69C94.4004 113.69 91.0247 116.82 93.1748 117.016C95.3248 117.212 97.0654 118.48 98.806 117.016C100.547 115.552 101.672 114.768 103.822 115.059C105.972 115.351 108.943 116.915 109.968 115.059C110.993 113.203 110.275 117.794 116.011 116.428C119.225 115.655 126.053 114.399 130.444 111.375L130.894 135.362C121.72 138.427 99.1511 145.591 90.1106 145.052C90.1106 145.052 88.8824 147.3 92.3637 147.3C95.8449 147.3 92.4667 150.43 94.6167 150.626C96.7667 150.822 98.5099 152.09 100.251 150.626C101.991 149.161 103.116 148.378 105.266 148.669C107.416 148.96 110.388 150.525 111.413 148.669C112.437 146.813 111.719 151.404 117.453 150.038C120.479 149.316 126.697 148.156 131.085 145.501L131.857 186.048L131.53 186.12C124.23 187.788 117.471 191.234 110.133 192.665C98.1597 195.008 85.3162 191.948 73.1319 191.464L70.9097 131.686C75.0296 133.612 79.963 134.55 82.5559 135.169C88.2902 136.535 87.5744 131.944 88.5966 133.8C89.6188 135.656 92.5903 134.091 94.7429 133.8C96.8955 133.509 98.0181 134.287 99.7587 135.757C101.499 137.226 103.24 135.95 105.39 135.757C107.54 135.563 104.164 132.431 107.646 132.431C111.127 132.431 109.896 130.183 109.896 130.183C101.291 130.699 80.4033 124.221 70.5132 120.957L69.6068 96.5349C74.0047 99.5406 80.7947 100.793 83.9979 101.559C89.7347 102.925 89.0189 98.3342 90.0386 100.19C91.0582 102.046 94.0348 100.482 96.1848 100.19C98.3348 99.8989 99.4626 100.677 101.203 102.147C102.944 103.616 104.684 102.338 106.835 102.147C108.985 101.956 105.606 98.8214 109.088 98.8214C112.569 98.8214 111.341 96.5735 111.341 96.5735C101.832 97.1407 77.3289 89.1751 69.2335 86.4375L68.3632 63.0591C72.7662 65.9694 79.3991 67.1836 82.5559 67.957C88.2902 69.3232 87.5744 64.7295 88.5966 66.5881C89.6188 68.4467 92.5903 66.8794 94.7429 66.5881C96.8955 66.2968 98.031 67.0599 99.7587 68.5292C101.486 69.9986 103.24 68.72 105.39 68.5292C107.54 68.3385 104.164 65.2038 107.646 65.2038C111.127 65.2038 109.896 62.956 109.896 62.956C100.464 63.5205 76.2758 55.6839 67.9898 52.8843L67.5392 40.7685L58.764 45.5607L58.9159 53.6809C51.7346 56.0577 38.5743 60.1874 28.625 62.0382L22.6152 65.325C24.397 65.9076 22.0024 68.3539 23.9027 68.5292C26.0527 68.72 27.7933 69.9934 29.5339 68.5292C31.2745 67.065 32.3998 66.2788 34.5498 66.5727C36.6998 66.8665 39.6712 68.4287 40.696 66.5727C41.7209 64.7166 41.0025 69.3077 46.7367 67.9415C49.4867 67.2867 54.8656 66.2685 59.1193 64.0979L59.539 86.605C50.9647 89.4922 27.2654 97.1226 17.9521 96.5658C17.9521 96.5658 16.7239 98.8137 20.2051 98.8137C23.6864 98.8137 20.3081 101.943 22.4581 102.139C24.6082 102.335 26.3488 103.603 28.0894 102.139C29.83 100.675 30.9578 99.8912 33.1079 100.183C35.2579 100.474 38.2267 102.039 39.2515 100.183C40.2763 98.3265 39.5579 102.918 45.2948 101.551C48.5108 100.778 55.3368 99.5226 59.727 96.4988L60.1802 120.486C51.011 123.551 28.437 130.714 19.3992 130.176C19.3992 130.176 18.1684 132.424 21.6496 132.424C25.1309 132.424 21.7526 135.553 23.9052 135.749C26.0578 135.945 27.7959 137.213 29.5365 135.749C31.2771 134.285 32.4023 133.501 34.5524 133.792C36.7024 134.084 39.6738 135.648 40.6986 133.792C41.7234 131.936 41.005 136.527 46.7393 135.161C49.7648 134.439 55.9831 133.279 60.3707 130.624L61.5269 192.08C58.4321 192.597 55.4265 193.552 52.5997 194.915C49.8763 196.266 47.3615 198.003 45.1326 200.071L46.729 203.77C50.4471 212.378 59.2352 217.995 68.9915 217.995H228.011C237.767 217.995 246.55 212.378 250.274 203.77L261.722 177.257C254.616 175.804 247.307 175.648 240.147 176.798L238.344 127.82C242.464 129.745 247.397 130.681 249.99 131.302C255.725 132.668 255.009 128.075 256.031 129.933C257.053 131.792 260.025 130.225 262.177 129.933C264.33 129.642 265.453 130.421 267.193 131.89C268.934 133.359 270.674 132.081 272.824 131.89C274.974 131.699 271.599 128.564 275.08 128.564C278.561 128.564 277.33 126.317 277.33 126.317C268.725 126.832 247.838 120.354 237.948 117.091L237.041 92.6681C241.439 95.6713 248.229 96.9267 251.432 97.6923C257.169 99.0586 256.453 94.4649 257.473 96.3235C258.493 98.1821 261.469 96.6148 263.619 96.3235C265.769 96.0322 266.897 96.8107 268.638 98.2775C270.378 99.7443 272.119 98.4708 274.269 98.2775C276.419 98.0842 273.028 94.9572 276.509 94.9572Z" fill="#1D9B75"/>
<path d="M230.99 47.4244C232.731 58.9112 227.9 69.1736 227.9 69.1736C227.9 69.1736 220.235 60.8111 218.494 49.3242C216.754 37.8374 221.597 27.575 221.597 27.575C221.597 27.575 229.25 35.9375 230.99 47.4244Z" fill="#1D9B75"/>
<path d="M263.357 65.7323C269.673 65.6627 274.83 69.0526 274.83 69.0526C274.83 69.0526 269.747 72.5559 263.431 72.6255C257.115 72.6951 251.958 69.3026 251.958 69.3026C251.958 69.3026 257.04 65.7993 263.357 65.7323Z" fill="#1D9B75"/>
<path d="M245.595 48.27C239.717 54.7378 238.473 63.1906 238.473 63.1906C238.473 63.1906 246.759 61.1541 252.635 54.6837C258.511 48.2133 259.757 39.7632 259.757 39.7632C259.757 39.7632 251.473 41.7996 245.595 48.27Z" fill="#1D9B75"/>
<path d="M253.984 56.6274H82.4298C80.1018 56.6274 78.2147 58.5167 78.2147 60.8473V213.78C78.2147 216.111 80.1018 218 82.4298 218H253.984C256.312 218 258.199 216.111 258.199 213.78V60.8473C258.199 58.5167 256.312 56.6274 253.984 56.6274Z" fill="#464353"/>
<g opacity="0.1">
<path opacity="0.1" d="M237.554 140.332L233.027 142.513L196.464 160.161L193.237 161.708C193.016 161.813 192.776 161.871 192.532 161.88C192.287 161.889 192.043 161.848 191.815 161.759C191.587 161.671 191.379 161.537 191.205 161.365C191.03 161.194 190.892 160.988 190.799 160.762C190.713 160.55 190.67 160.323 190.67 160.094V149.669C190.67 149.193 190.482 148.736 190.147 148.398C189.812 148.06 189.356 147.868 188.881 147.865H99.6352C99.1593 147.865 98.7028 147.677 98.3652 147.341C98.0275 147.005 97.8361 146.55 97.8327 146.073V131.354C97.8327 130.875 98.0226 130.416 98.3606 130.078C98.6987 129.739 99.1571 129.549 99.6352 129.549H188.881C189.354 129.546 189.807 129.356 190.142 129.021C190.477 128.686 190.667 128.232 190.67 127.758V117.101C190.67 116.872 190.713 116.645 190.799 116.433C190.892 116.206 191.031 116.001 191.206 115.83C191.381 115.658 191.59 115.524 191.818 115.436C192.047 115.348 192.291 115.308 192.536 115.318C192.781 115.327 193.021 115.387 193.243 115.492L196.464 117.062L233.027 134.896L237.561 137.1C237.862 137.25 238.114 137.481 238.29 137.767C238.466 138.053 238.559 138.383 238.559 138.719C238.558 139.055 238.463 139.384 238.286 139.669C238.108 139.954 237.855 140.184 237.554 140.332Z" fill="black"/>
</g>
<path d="M237.554 139.043L233.027 141.224L196.464 158.872L193.237 160.419C193.016 160.524 192.776 160.582 192.532 160.591C192.287 160.6 192.043 160.559 191.815 160.47C191.587 160.382 191.379 160.248 191.205 160.076C191.03 159.905 190.892 159.699 190.799 159.473C190.713 159.261 190.67 159.034 190.67 158.805V148.38C190.67 147.904 190.482 147.447 190.147 147.109C189.812 146.771 189.356 146.579 188.881 146.576H99.6352C99.1593 146.576 98.7028 146.388 98.3652 146.052C98.0275 145.716 97.8361 145.261 97.8327 144.784V130.065C97.8327 129.586 98.0226 129.127 98.3606 128.789C98.6987 128.451 99.1571 128.26 99.6352 128.26H188.881C189.354 128.257 189.807 128.067 190.142 127.732C190.477 127.397 190.667 126.943 190.67 126.469V115.812C190.67 115.583 190.713 115.356 190.799 115.144C190.892 114.918 191.031 114.712 191.206 114.541C191.381 114.369 191.59 114.235 191.818 114.147C192.047 114.059 192.291 114.019 192.536 114.029C192.781 114.038 193.021 114.098 193.243 114.203L196.464 115.773L233.027 133.607L237.561 135.811C237.862 135.961 238.114 136.192 238.29 136.478C238.466 136.764 238.559 137.094 238.559 137.43C238.558 137.766 238.463 138.095 238.286 138.38C238.108 138.665 237.855 138.895 237.554 139.043Z" fill="#1D9B75"/>
<path d="M45.0167 174.254C45.1042 176.409 43.7293 178.319 42.4418 180.036C41.8566 180.841 41.3275 181.685 40.8583 182.562C39.4421 185.089 36.3986 186.29 34.7506 188.672C34.3515 189.249 34.0425 189.883 33.6949 190.494C32.5011 192.595 31.0016 194.507 29.2455 196.166L26.2664 198.96C25.4193 199.754 24.5541 200.571 24.052 201.62C23.4778 202.829 23.4469 204.198 23.4804 205.552C23.4804 205.701 23.4804 205.848 23.4804 205.995C23.4804 206.098 23.4804 206.199 23.4804 206.302C23.5319 207.939 23.6065 209.583 23.9953 211.169C24.1241 211.684 24.2837 212.226 24.0829 212.715C23.8692 213.231 23.3104 213.517 22.7671 213.698C22.1852 213.891 21.5466 214.022 20.9647 213.819C20.3828 213.615 19.9811 213.112 19.6232 212.617C17.8851 210.22 17.1796 207.261 16.1445 204.484C15.9282 203.907 16.16 203.247 16.5411 202.765C16.9546 202.309 17.4098 201.893 17.9006 201.522C19.9605 199.718 20.9106 197.011 21.6985 194.397C22.4865 191.783 23.2435 189.048 25.033 186.996C26.1969 185.664 27.7238 184.71 29.0215 183.509C32.253 180.513 33.8675 176.141 34.712 171.81C35.7066 171.625 36.7256 171.612 37.7246 171.772L43.0366 172.478C43.6108 172.555 44.2391 172.661 44.6124 173.102C44.8692 173.431 45.0112 173.836 45.0167 174.254Z" fill="#EFB7B9"/>
<path d="M67.6912 178.647C67.579 179.451 67.2954 180.221 66.8595 180.905C66.215 181.89 65.4861 182.817 64.6811 183.676C62.6521 185.996 62.3096 189.327 61.017 192.134C60.5973 193.047 60.0772 193.908 59.6524 194.815C58.5374 197.202 58.128 199.829 57.886 202.469C57.8551 202.809 57.8268 203.149 57.801 203.487C57.765 203.907 57.7366 204.327 57.7057 204.745C57.6259 205.851 57.5564 207.013 58.0225 208.019C58.2619 208.534 58.6533 208.962 58.6688 209.532C57.8705 210.305 56.5007 210.218 55.5789 209.589C54.6571 208.96 54.0829 207.939 53.6168 206.92C52.7609 205.054 52.1424 203.087 51.7758 201.066C51.6342 200.293 51.5698 199.398 52.1182 198.842C52.3938 198.563 52.7774 198.424 53.0864 198.182C53.7636 197.651 53.9593 196.723 54.1164 195.862C54.6313 192.94 55.1523 190.018 55.6793 187.097C55.7951 186.382 55.9472 185.674 56.1351 184.975C56.5754 183.431 57.2448 181.696 58.5117 180.665C58.6749 180.514 58.797 180.324 58.8668 180.112C58.9366 179.901 58.9518 179.675 58.9108 179.456C58.8217 179.021 58.6541 178.605 58.4164 178.229C57.4714 176.538 56.3436 174.842 54.6442 173.914C56.4079 172.436 58.419 171.282 60.5845 170.506C60.9662 170.328 61.3885 170.256 61.8075 170.297C62.0315 170.348 62.2455 170.435 62.441 170.555C63.6074 171.21 64.5009 172.241 65.3557 173.272C66.6303 174.824 67.9049 176.649 67.6912 178.647Z" fill="#EFB7B9"/>
<path d="M26.3565 213.169C25.8286 212.669 25.2189 212.264 24.5541 211.97C24.4041 211.883 24.2375 211.827 24.0649 211.808C23.6503 211.787 23.3388 212.161 22.9834 212.378C22.6929 212.534 22.3682 212.615 22.0385 212.615C21.7087 212.615 21.384 212.534 21.0935 212.378C20.5163 212.055 20.0313 211.59 19.685 211.027C18.928 209.908 18.7786 208.792 18.4645 207.565L21.7655 206.941C22.3668 206.802 22.947 206.584 23.4907 206.291C23.4907 206.188 23.4907 206.088 23.4907 205.985C23.4907 205.838 23.4907 205.691 23.4907 205.541C22.8804 205.724 21.5853 206.315 21.2789 206.394C20.2847 206.621 19.2765 206.781 18.2611 206.874C18.104 206.562 17.8774 206.291 17.6946 205.985C17.3251 205.368 17.0907 204.68 17.0071 203.966C16.999 203.684 16.9442 203.405 16.8449 203.141C16.7915 203.005 16.694 202.89 16.568 202.816C16.4419 202.742 16.2947 202.712 16.1497 202.731C16.0427 202.761 15.9422 202.811 15.8536 202.878C14.93 203.517 14.2138 204.414 13.7937 205.456C13.1731 207.003 13.2632 208.74 13.0212 210.393C12.8358 211.63 12.4547 212.857 12.5217 214.107C12.5169 214.144 12.52 214.181 12.5308 214.216C12.5415 214.252 12.5598 214.284 12.5842 214.312C12.6086 214.339 12.6386 214.361 12.6722 214.376C12.7059 214.391 12.7423 214.399 12.7792 214.399C13.4667 214.551 14.2572 214.682 14.8159 214.254C15.3747 213.826 15.4545 213.017 15.5626 212.313C15.7078 211.374 15.9925 210.462 16.4072 209.606C17.2604 210.652 17.7075 211.971 17.6663 213.321C17.6663 214.066 17.5736 214.912 18.0834 215.456C18.3336 215.697 18.6384 215.874 18.9718 215.971C19.6493 216.208 20.3531 216.363 21.0677 216.43C22.3552 216.554 23.6658 216.391 24.9558 216.229C25.3626 216.177 25.772 216.126 26.1763 216.036C26.3824 216.004 26.5776 215.922 26.7453 215.798C26.9316 215.628 27.0505 215.397 27.0801 215.146C27.1193 214.783 27.0744 214.416 26.9489 214.073C26.8235 213.73 26.6208 213.421 26.3565 213.169Z" fill="#464353"/>
<path d="M60.4171 209.021C60.1023 208.736 59.7464 208.5 59.3614 208.32C59.0492 208.127 58.6968 208.008 58.3314 207.972C57.9117 207.972 57.5281 208.178 57.1393 208.338C56.7504 208.498 56.2947 208.596 55.9291 208.39C55.6417 208.178 55.4311 207.879 55.3291 207.537C54.8656 206.428 54.5154 205.273 54.1112 204.144C54.2063 203.994 54.3459 203.878 54.5103 203.812C54.6375 203.776 54.7696 203.76 54.9017 203.765C55.4167 203.765 56.9822 203.765 57.8139 203.476C57.8396 203.139 57.8679 202.798 57.8988 202.458C57.2551 202.324 56.1505 202.556 55.8595 202.636C55.3832 202.757 54.8965 202.935 54.415 202.832C54.0803 202.762 53.7636 202.559 53.4366 202.515C53.2821 202.229 53.1147 201.953 52.9551 201.672C52.5482 200.95 52.4221 200.11 52.0255 199.411C51.966 199.29 51.8757 199.186 51.7636 199.111C51.6516 199.035 51.5217 198.99 51.387 198.981C51.0982 199.022 50.8375 199.176 50.6608 199.409C50.0043 200.076 49.3296 200.767 48.9537 201.626C48.793 202.014 48.6689 202.416 48.5829 202.827C48.0419 205.134 47.7825 207.499 47.8105 209.869C48.4087 210.06 49.041 210.12 49.6644 210.045C49.9837 208.45 50.3742 206.871 50.8359 205.309C50.8465 205.251 50.8787 205.198 50.9261 205.162C51.0265 205.108 51.1321 205.219 51.1835 205.317C51.7459 206.155 52.2009 207.06 52.5379 208.011C52.7465 208.689 52.8418 209.423 53.2357 210.014C53.6572 210.594 54.2686 211.008 54.9635 211.184C55.6535 211.357 56.3612 211.448 57.0723 211.457L58.128 211.509C58.6995 211.576 59.2786 211.531 59.8326 211.375C60.3733 211.187 60.8625 210.725 60.9037 210.153C60.9073 209.941 60.8657 209.73 60.7818 209.535C60.6979 209.34 60.5736 209.165 60.4171 209.021Z" fill="#464353"/>
<path d="M65.3686 172.437C64.936 172.88 64.3 173.048 63.6975 173.195L61.8667 173.641C61.7657 173.652 61.6679 173.683 61.5793 173.733C61.4908 173.783 61.4134 173.851 61.3518 173.932C61.2462 174.123 61.3209 174.362 61.2694 174.574C61.2492 174.657 61.2095 174.735 61.1535 174.801C60.8951 175.031 60.5571 175.152 60.2111 175.138C59.9094 175.126 59.6081 175.171 59.3228 175.27C59.2031 175.322 59.0998 175.406 59.0241 175.512C58.9314 175.646 58.8928 175.811 58.7949 175.94C58.6282 176.12 58.4044 176.237 58.1615 176.27C57.9071 176.328 57.649 176.367 57.389 176.389C56.3696 176.473 55.3464 176.28 54.4279 175.829C54.2114 175.68 53.947 175.616 53.6863 175.651C53.5336 175.706 53.4038 175.81 53.3181 175.948C53.224 176.094 53.1217 176.235 53.0117 176.371C52.5379 176.886 51.7243 176.747 51.0419 176.603C50.6222 176.512 50.2 176.435 49.7777 176.365C47.2543 175.953 44.682 175.87 42.1122 175.796C38.7906 175.695 35.469 175.605 32.253 174.819C31.5526 174.649 30.7081 174.246 30.7416 173.53C30.7647 173.12 31.0892 172.756 31.0866 172.354C31.0866 171.653 30.2292 171.277 29.5417 171.161C29.7991 167.33 32.0882 163.976 33.2855 160.334C33.5842 159.429 33.8005 158.501 34.1378 157.606C35.5952 153.575 38.7958 150.481 41.4582 147.125C41.8656 146.654 42.2006 146.125 42.4521 145.555C42.6807 144.871 42.7997 144.155 42.8049 143.433L42.9517 140.91C46.899 140.724 50.733 140.799 54.5953 141.634C54.6995 141.631 54.8033 141.649 54.9008 141.686C54.9982 141.723 55.0873 141.779 55.1629 141.851C55.2385 141.923 55.2992 142.009 55.3414 142.105C55.3837 142.2 55.4066 142.303 55.4089 142.407C55.5583 143.33 55.663 144.258 55.7231 145.189C55.7249 145.395 55.7543 145.599 55.8106 145.797C55.912 146.048 56.0528 146.28 56.2278 146.486C58.4628 149.419 59.8326 152.93 60.914 156.446C61.9955 159.963 62.8555 163.577 64.215 167.016C64.6837 168.201 65.2965 169.534 65.4201 170.805C65.9093 171.168 65.8012 171.991 65.3686 172.437Z" fill="#464353"/>
<path opacity="0.1" d="M49.7802 176.365C47.2569 175.953 44.6845 175.87 42.1148 175.796C42.1852 173.424 42.2564 171.052 42.3285 168.681C42.3774 167.103 42.4238 165.523 42.6118 163.958C42.8693 161.731 43.4203 159.548 43.6932 157.323C43.8481 156.049 43.9195 154.766 43.9069 153.482C43.8941 152.175 43.8014 150.86 44.0151 149.571C44.1902 148.512 44.6536 147.012 45.6321 146.432C46.2861 147.329 45.2819 149.834 45.1635 150.907C44.9214 153.139 45.524 155.364 46.0415 157.547C46.6646 160.169 47.1745 162.816 47.6817 165.464C48.3821 169.097 49.0816 172.731 49.7802 176.365Z" fill="black"/>
<path opacity="0.1" d="M57.3916 176.389C56.3722 176.473 55.349 176.28 54.4305 175.829C54.214 175.68 53.9496 175.616 53.6889 175.651C53.5362 175.706 53.4064 175.81 53.3207 175.948C52.4504 171.81 52.4968 167.505 51.8093 163.316C51.5518 161.826 51.2222 160.306 51.5106 158.823C51.8196 157.24 52.8161 155.866 53.2049 154.302C53.4623 153.271 53.4417 152.206 53.4237 151.152C53.4057 150.097 53.0967 149.388 52.7517 148.447C53.6683 148.6 54.4151 149.499 54.7833 150.311C55.2339 151.301 55.3188 152.412 55.3781 153.5C55.5223 156.127 55.5454 158.756 55.5068 161.386C55.457 162.612 55.4845 163.841 55.5892 165.064C55.7231 166.268 56.0192 167.451 56.1171 168.658C56.2304 170.106 56.0604 171.589 56.4132 172.999C56.6964 174.136 57.3118 175.27 57.3916 176.389Z" fill="black"/>
<path opacity="0.1" d="M61.1483 174.801C60.8899 175.031 60.552 175.152 60.2059 175.138C59.9042 175.126 59.6029 175.171 59.3176 175.27C58.8026 172.125 58.2937 168.981 57.7907 165.84C57.579 164.683 57.4311 163.515 57.3478 162.342C57.2809 160.983 57.3864 159.622 57.2912 158.266C57.1753 156.598 56.7582 154.974 56.3591 153.368C56.1222 152.407 55.0356 149.54 55.6432 148.728C56.5908 149.342 57.1676 150.654 57.4894 151.7C57.8216 152.91 58.0329 154.15 58.1203 155.402L58.8464 162.677C59.2481 166.701 59.6626 170.777 61.0659 174.571C61.0943 174.648 61.1226 174.736 61.1483 174.801Z" fill="black"/>
<path d="M69.1202 130.165C69.8 129.591 70.4797 129.013 71.1029 128.379C71.9821 127.446 72.7944 126.452 73.5335 125.404C74.3215 124.329 75.1042 123.229 75.5935 121.986C76.1471 120.563 76.317 118.944 77.28 117.763C77.3889 117.61 77.5401 117.492 77.7152 117.423C78.2636 117.251 78.673 117.939 78.7786 118.508C79.2936 121.298 78.0653 124.082 76.8706 126.654C76.4766 127.503 76.0647 128.374 75.3823 129.016C75.0218 129.353 74.6098 129.614 74.2107 129.915C73.6075 130.406 73.0523 130.954 72.5525 131.55C71.6942 132.526 70.878 133.537 70.1038 134.584C69.1434 135.873 68.2422 137.224 67.1041 138.36C65.966 139.497 64.542 140.423 62.9482 140.647C63.4039 140.585 63.2546 137.907 63.2057 137.569C63.1362 137.079 62.8014 136.502 62.7911 136.022C62.7783 135.435 63.0177 135.349 63.5018 134.937L69.1202 130.165Z" fill="#EFB7B9"/>
<path opacity="0.1" d="M69.1202 130.165C69.8 129.591 70.4797 129.013 71.1029 128.379C71.9821 127.446 72.7944 126.452 73.5335 125.404C74.3215 124.329 75.1042 123.229 75.5935 121.986C76.1471 120.563 76.317 118.944 77.28 117.763C77.3889 117.61 77.5401 117.492 77.7152 117.423C78.2636 117.251 78.673 117.939 78.7786 118.508C79.2936 121.298 78.0653 124.082 76.8706 126.654C76.4766 127.503 76.0647 128.374 75.3823 129.016C75.0218 129.353 74.6098 129.614 74.2107 129.915C73.6075 130.406 73.0523 130.954 72.5525 131.55C71.6942 132.526 70.878 133.537 70.1038 134.584C69.1434 135.873 68.2422 137.224 67.1041 138.36C65.966 139.497 64.542 140.423 62.9482 140.647C63.4039 140.585 63.2546 137.907 63.2057 137.569C63.1362 137.079 62.8014 136.502 62.7911 136.022C62.7783 135.435 63.0177 135.349 63.5018 134.937L69.1202 130.165Z" fill="black"/>
<path d="M50.0094 113.296C50.0094 113.296 48.4645 121.029 46.6621 122.318C44.8596 123.607 56.4466 125.154 56.4466 125.154C56.4466 125.154 56.7041 118.967 59.794 116.132C62.8838 113.296 50.0094 113.296 50.0094 113.296Z" fill="#EFB7B9"/>
<path d="M46.935 121.558C46.1709 121.662 45.4694 122.037 44.9575 122.615C43.7421 123.924 43.5001 125.917 43.9275 127.654C44.355 129.392 45.336 130.931 46.3556 132.398C47.6843 134.31 49.1133 136.195 50.9595 137.615C51.9583 138.339 52.9948 139.01 54.0648 139.623C55.8428 140.72 57.5515 141.925 59.1811 143.232C59.5384 143.556 59.9475 143.818 60.3913 144.006C60.7733 144.125 61.1733 144.178 61.5732 144.16C62.9251 144.146 64.2574 143.835 65.4767 143.25C65.591 143.206 65.692 143.133 65.7703 143.039C65.8157 142.94 65.8404 142.833 65.8426 142.725C65.8448 142.616 65.8246 142.508 65.7831 142.407C65.057 139.469 66.4577 136.136 65.0673 133.449C63.5559 133.942 61.8976 134.481 60.3862 134.96C60.1544 135.054 59.9048 135.097 59.6549 135.084C59.3555 135.022 59.0813 134.872 58.867 134.653C57.2294 133.235 56.1968 131.261 55.2622 129.309C54.3275 127.358 53.4108 125.345 51.938 123.757C50.4652 122.169 49.0876 121.328 46.935 121.558Z" fill="#1D9B75"/>
<path opacity="0.1" d="M46.935 121.558C46.1709 121.662 45.4694 122.037 44.9575 122.615C43.7421 123.924 43.5001 125.917 43.9275 127.654C44.355 129.392 45.336 130.931 46.3556 132.398C47.6843 134.31 49.1133 136.195 50.9595 137.615C51.9583 138.339 52.9948 139.01 54.0648 139.623C55.8428 140.72 57.5515 141.925 59.1811 143.232C59.5384 143.556 59.9475 143.818 60.3913 144.006C60.7733 144.125 61.1733 144.178 61.5732 144.16C62.9251 144.146 64.2574 143.835 65.4767 143.25C65.591 143.206 65.692 143.133 65.7703 143.039C65.8157 142.94 65.8404 142.833 65.8426 142.725C65.8448 142.616 65.8246 142.508 65.7831 142.407C65.057 139.469 66.4577 136.136 65.0673 133.449C63.5559 133.942 61.8976 134.481 60.3862 134.96C60.1544 135.054 59.9048 135.097 59.6549 135.084C59.3555 135.022 59.0813 134.872 58.867 134.653C57.2294 133.235 56.1968 131.261 55.2622 129.309C54.3275 127.358 53.4108 125.345 51.938 123.757C50.4652 122.169 49.0876 121.328 46.935 121.558Z" fill="black"/>
<path d="M56.0604 119.096C60.3266 119.096 63.7851 115.634 63.7851 111.363C63.7851 107.091 60.3266 103.629 56.0604 103.629C51.7942 103.629 48.3357 107.091 48.3357 111.363C48.3357 115.634 51.7942 119.096 56.0604 119.096Z" fill="#EFB7B9"/>
<path d="M59.1502 133.62L59.1322 133.653C58.6868 134.481 58.0199 135.177 57.5615 136.001C57.0466 136.935 56.8071 137.999 56.6011 139.048C56.4586 139.753 56.3273 140.459 56.2072 141.165C56.0836 141.882 55.9677 142.598 55.8621 143.32C53.5293 142.529 50.9441 143.856 48.5288 143.372C47.8053 143.227 47.1127 142.923 46.3762 142.889C45.8381 142.864 45.2974 142.985 44.7592 142.933C43.8657 142.848 42.98 142.286 42.1277 142.572C41.7466 142.701 41.2754 142.975 41.0025 142.678C40.941 142.601 40.8939 142.514 40.8634 142.42C40.642 141.809 40.4154 141.152 40.575 140.523C40.7115 139.987 41.1055 139.561 41.3784 139.079C41.8496 138.242 41.9449 137.249 42.0067 136.288C42.1637 133.803 42.1586 131.299 42.5654 128.843C42.9722 126.386 43.8297 123.945 45.4879 122.079C46.3016 121.166 47.365 120.39 48.5778 120.29C53.04 119.929 56.65 122.393 58.5992 126.306C59.7322 128.575 60.3347 131.374 59.1502 133.62Z" fill="#1D9B75"/>
<path d="M72.2101 131.197C72.8898 130.622 73.5696 130.044 74.1927 129.41C75.072 128.477 75.8842 127.483 76.6234 126.435C77.4113 125.36 78.1941 124.26 78.6833 123.017C79.2369 121.594 79.4069 119.975 80.3699 118.795C80.4787 118.641 80.63 118.523 80.805 118.454C81.3535 118.282 81.7629 118.97 81.8685 119.54C82.3834 122.329 81.1552 125.113 79.9605 127.686C79.5665 128.534 79.1545 129.405 78.4722 130.047C78.1117 130.385 77.6997 130.645 77.3006 130.947C76.6974 131.437 76.1421 131.985 75.6424 132.581C74.7841 133.557 73.9679 134.568 73.1937 135.615C72.2332 136.904 71.332 138.255 70.1939 139.392C69.0558 140.528 67.6319 141.454 66.0381 141.678C66.4938 141.616 66.3445 138.938 66.2956 138.6C66.226 138.11 65.8913 137.533 65.881 137.053C65.8681 136.466 66.1076 136.381 66.5917 135.968L72.2101 131.197Z" fill="#EFB7B9"/>
<path opacity="0.1" d="M58.3778 133.878L58.3598 133.911C57.9143 134.739 57.2474 135.435 56.7891 136.259C56.2741 137.193 56.0347 138.257 55.8287 139.306C55.6862 140.011 55.5549 140.717 55.4347 141.423C54.5101 140.892 53.616 140.309 52.7568 139.678C50.9106 138.257 49.4816 136.373 48.1529 134.458C47.123 132.991 46.1445 131.452 45.7248 129.717C45.3051 127.982 45.5497 125.987 46.7548 124.677C47.2666 124.099 47.968 123.723 48.7323 123.618C50.8849 123.388 52.2444 124.221 53.7173 125.806C55.1901 127.392 56.1016 129.415 57.0414 131.359C57.4586 132.202 57.886 133.066 58.3778 133.878Z" fill="black"/>
<path d="M50.0249 122.589C49.2608 122.694 48.5593 123.069 48.0474 123.646C46.832 124.956 46.59 126.948 47.0174 128.686C47.4448 130.423 48.4259 131.962 49.4455 133.429C50.7742 135.342 52.2032 137.226 54.0494 138.646C55.0481 139.371 56.0847 140.041 57.1547 140.655C58.9327 141.751 60.6414 142.956 62.271 144.263C62.6283 144.587 63.0374 144.849 63.4812 145.037C63.8632 145.157 64.2632 145.209 64.6631 145.192C66.015 145.177 67.3473 144.866 68.5666 144.282C68.6809 144.237 68.7819 144.165 68.8601 144.07C68.9056 143.971 68.9303 143.864 68.9325 143.756C68.9347 143.647 68.9145 143.539 68.873 143.439C68.1469 140.5 69.5476 137.167 68.1572 134.481C66.6458 134.973 64.9875 135.512 63.4761 135.991C63.2443 136.085 62.9947 136.128 62.7448 136.115C62.4454 136.053 62.1712 135.903 61.9569 135.684C60.3193 134.267 59.2867 132.292 58.352 130.341C57.4174 128.389 56.5007 126.376 55.0279 124.788C53.555 123.2 52.1775 122.36 50.0249 122.589Z" fill="#1D9B75"/>
<path d="M61.0557 105.962C61.805 105.109 61.6453 103.732 60.9913 102.804C60.3373 101.876 59.3073 101.293 58.3057 100.762C56.7118 99.9143 54.8785 99.0946 53.1559 99.654C52.4839 99.8731 51.8968 100.288 51.2788 100.634C50.1407 101.268 48.8868 101.665 47.7281 102.258C46.5694 102.85 45.4622 103.696 44.9626 104.9C44.4631 106.104 44.6279 107.4 44.7566 108.666C44.9523 110.625 45.0656 112.613 44.7927 114.564C44.5198 116.516 43.8426 118.446 42.5989 119.978C41.7286 121.05 40.575 121.942 40.0523 123.221C39.7951 123.957 39.651 124.728 39.6249 125.507L39.3442 128.83C39.2335 130.155 39.0662 131.604 38.1109 132.527C39.3365 132.243 40.5956 131.944 41.6307 131.238C42.246 130.777 42.8067 130.248 43.3018 129.66C44.2803 128.58 45.2974 127.428 45.5909 125.999C45.8098 124.932 45.627 123.721 46.2758 122.847C47.0483 121.816 48.6627 121.816 49.7468 122.488C50.8308 123.161 51.4925 124.342 52.0642 125.481C52.6358 126.621 53.228 127.819 54.2271 128.619C55.0472 129.241 56.0106 129.647 57.0285 129.799C57.7135 129.926 58.4911 129.962 59.0318 129.523C59.7708 128.925 59.6961 127.786 59.4567 126.866C59.14 125.646 58.6482 124.375 58.9906 123.161C59.1039 122.757 59.3073 122.388 59.4335 121.981C59.5842 121.398 59.6544 120.798 59.6421 120.197C59.7142 117.173 59.8506 113.917 58.8696 111.009C58.5555 110.079 57.7135 109.192 58.146 108.174C58.6842 106.939 60.2369 106.895 61.0557 105.962Z" fill="#464353"/>
<g opacity="0.1">
<path opacity="0.1" d="M44.9395 111.133C44.9807 109.707 44.9213 108.28 44.7618 106.862C44.7335 106.583 44.7026 106.302 44.6794 106.019C44.608 106.901 44.6357 107.79 44.7618 108.666C44.8442 109.486 44.9086 110.311 44.9395 111.133Z" fill="black"/>
<path opacity="0.1" d="M59.0318 127.719C58.4911 128.157 57.7135 128.121 57.0285 127.995C56.0106 127.843 55.0472 127.437 54.2271 126.814C53.2357 126.005 52.6615 124.809 52.0796 123.667C51.4977 122.525 50.8359 121.347 49.7622 120.674C48.6885 120.001 47.0483 120.003 46.2758 121.032C45.627 121.906 45.8098 123.117 45.5909 124.185C45.2974 125.613 44.2803 126.763 43.3018 127.845C42.8067 128.433 42.246 128.962 41.6307 129.423C40.8634 129.915 40.0166 130.27 39.128 130.472C39.0049 131.247 38.6503 131.966 38.1109 132.534C39.3365 132.251 40.5956 131.952 41.6307 131.245C42.246 130.785 42.8067 130.256 43.3018 129.668C44.2803 128.588 45.2974 127.435 45.5909 126.007C45.8098 124.94 45.627 123.728 46.2758 122.855C47.0483 121.823 48.6627 121.823 49.7468 122.496C50.8308 123.169 51.4925 124.35 52.0642 125.489C52.6358 126.629 53.228 127.819 54.2271 128.619C55.0472 129.241 56.0106 129.647 57.0285 129.799C57.7135 129.926 58.4911 129.962 59.0318 129.523C59.7244 128.964 59.7013 127.925 59.4979 127.041C59.4107 127.307 59.2489 127.542 59.0318 127.719Z" fill="black"/>
<path opacity="0.1" d="M61.0556 104.157C60.2368 105.091 58.6842 105.137 58.1512 106.38C57.9168 106.923 58.0559 107.434 58.2825 107.926C58.9056 106.923 60.296 106.82 61.0556 105.954C61.6092 105.323 61.6659 104.408 61.3929 103.595C61.314 103.801 61.1998 103.991 61.0556 104.157Z" fill="black"/>
<path opacity="0.1" d="M59.642 118.392C59.6543 118.994 59.5842 119.594 59.4335 120.176C59.3073 120.578 59.1039 120.949 58.9906 121.357C58.8438 121.968 58.8438 122.605 58.9906 123.215C58.9906 123.197 58.9906 123.179 58.9906 123.161C59.1039 122.757 59.3073 122.388 59.4335 121.981C59.5842 121.398 59.6543 120.798 59.642 120.197C59.6704 118.993 59.709 117.756 59.6832 116.516C59.6652 117.147 59.6652 117.766 59.642 118.392Z" fill="black"/>
</g>
</g>
<defs>
<clipPath id="clip0">
<rect width="297" height="218" fill="white"/>
</clipPath>
</defs>
</svg>
