<svg width="404" height="270" viewBox="0 0 404 270" fill="none" xmlns="http://www.w3.org/2000/svg">
<g clip-path="url(#clip0)">
<path d="M321.84 119.487L323.039 109.897C323.465 106.489 325.231 103.39 327.948 101.281C330.665 99.1716 334.111 98.2255 337.527 98.6507C340.943 99.0759 344.05 100.837 346.164 103.548C348.278 106.258 349.227 109.696 348.801 113.104L347.601 122.693C347.544 123.151 347.306 123.567 346.941 123.85C346.577 124.133 346.114 124.261 345.655 124.204L323.354 121.428C322.895 121.371 322.478 121.134 322.194 120.77C321.91 120.406 321.783 119.945 321.84 119.487Z" fill="#2F2E41"/>
<path d="M332.522 122.348C337.778 122.348 342.039 118.097 342.039 112.854C342.039 107.61 337.778 103.36 332.522 103.36C327.266 103.36 323.005 107.61 323.005 112.854C323.005 118.097 327.266 122.348 332.522 122.348Z" fill="#FFB8B8"/>
<path d="M319.896 110.285C320.236 107.591 321.633 105.141 323.782 103.473C325.93 101.805 328.654 101.055 331.356 101.389L333.279 101.628C335.98 101.967 338.436 103.361 340.108 105.505C341.779 107.648 342.531 110.366 342.197 113.061L342.173 113.253L338.11 112.747L337.208 108.704L336.447 112.54L334.347 112.279L333.892 110.239L333.508 112.174L319.872 110.477L319.896 110.285Z" fill="#2F2E41"/>
<path d="M285.975 146.721C286.266 147.291 286.678 147.79 287.183 148.183C287.689 148.577 288.274 148.855 288.899 148.998C289.523 149.142 290.172 149.146 290.799 149.013C291.425 148.879 292.015 148.61 292.526 148.224L301.17 153.275L305.528 148.784L293.221 141.821C292.514 141.007 291.533 140.481 290.464 140.34C289.394 140.2 288.309 140.456 287.416 141.06C286.523 141.664 285.883 142.574 285.617 143.617C285.352 144.661 285.479 145.765 285.975 146.721Z" fill="#FFB8B8"/>
<path d="M314.305 155.798C307.929 155.798 296.709 152.951 296.088 152.791L295.892 152.741L297.658 143.822L314.795 147.199L324.105 134.12L334.794 133.036L334.495 133.428C334.357 133.61 320.578 151.705 318.434 154.74C317.893 155.506 316.347 155.798 314.305 155.798Z" fill="#3F3D56"/>
<path d="M316.015 189.274L315.759 189.152C315.705 189.126 310.288 186.498 307.482 181.366C304.69 176.259 317.762 154.593 318.676 153.09L318.69 146.21L323.392 133.544L329.389 130.162L324.24 142.148L316.015 189.274Z" fill="#3F3D56"/>
<path d="M310.007 263.223L304.275 263.223L301.548 241.168L310.007 241.169L310.007 263.223Z" fill="#FFB8B8"/>
<path d="M311.468 268.766L292.987 268.765V268.532C292.987 266.629 293.745 264.804 295.094 263.458C296.443 262.112 298.273 261.356 300.18 261.356H300.181L311.469 261.356L311.468 268.766Z" fill="#2F2E41"/>
<path d="M371.572 258.212L366.125 259.993L356.649 239.881L364.688 237.254L371.572 258.212Z" fill="#FFB8B8"/>
<path d="M374.691 263.025L357.128 268.766L357.056 268.544C356.462 266.736 356.612 264.766 357.474 263.068C358.336 261.37 359.839 260.083 361.651 259.49L361.652 259.49L372.379 255.984L374.691 263.025Z" fill="#2F2E41"/>
<path d="M360.474 254.607L344.135 227.394L330.342 198.321L317.929 224.002L312.999 257.264L295.707 257.504L295.775 257.234L322.237 152.34L342.962 155.429L342.018 169.076L342.58 169.873C347.262 176.508 352.103 183.368 349.326 190.763L357.197 214.077L374.619 252.896L360.474 254.607Z" fill="#2F2E41"/>
<path d="M323.184 175.074C320.181 175.074 316.754 171.653 318.532 165.813L318.417 165.73L322.686 146.912C318.96 141.597 323.873 137.21 324.333 136.818L326.678 132.607L337.024 126.062L342.259 169.451L342.181 169.525C338.401 173.134 325.703 175.074 323.184 175.074Z" fill="#198262"/>
<path d="M344.372 184.865C343.961 184.871 343.55 184.828 343.15 184.736C342.747 184.635 342.096 184.124 341.089 180.854C337.088 167.857 332.363 128.748 335.796 124.921L335.874 124.833L341.51 125.77C341.979 125.425 344.437 123.713 346.706 124.011C347.173 124.069 347.623 124.223 348.028 124.462C348.433 124.701 348.785 125.02 349.062 125.4L349.1 125.451L350.896 150.933L357.474 180.92L357.316 180.992C356.933 181.166 348.72 184.865 344.372 184.865Z" fill="#3F3D56"/>
<path d="M340.582 174.905C341.222 174.884 341.85 174.723 342.422 174.433C342.993 174.143 343.494 173.732 343.889 173.229C344.283 172.725 344.563 172.141 344.707 171.518C344.851 170.895 344.857 170.248 344.723 169.623L352.974 163.954L350.743 158.112L339.205 166.281C338.167 166.574 337.272 167.238 336.692 168.145C336.111 169.052 335.884 170.14 336.053 171.203C336.223 172.266 336.778 173.23 337.612 173.912C338.447 174.595 339.504 174.948 340.582 174.905Z" fill="#FFB8B8"/>
<path d="M350.251 168.496L342.902 163.12L353.233 149.068L345.305 135.112L348.852 124.994L349.081 125.43C349.188 125.633 359.774 145.752 361.621 148.976C363.543 152.33 350.918 167.688 350.38 168.34L350.251 168.496Z" fill="#3F3D56"/>
<path d="M184.943 231.745L178.689 229.118L174.398 197.839H117.26L112.61 228.99L107.014 231.781C106.746 231.915 106.531 232.135 106.405 232.405C106.278 232.676 106.246 232.981 106.315 233.272C106.384 233.562 106.549 233.821 106.784 234.007C107.018 234.192 107.309 234.293 107.608 234.293H184.428C184.735 234.293 185.032 234.187 185.269 233.993C185.507 233.799 185.67 233.529 185.731 233.229C185.791 232.93 185.746 232.618 185.603 232.347C185.459 232.077 185.226 231.864 184.943 231.745Z" fill="#E6E6E6"/>
<path d="M286.481 202.001H5.80437C4.33174 201.997 2.92055 201.411 1.88041 200.371C0.840267 199.331 0.256113 197.922 0.256104 196.453V156.969H292.029V196.453C292.029 197.922 291.445 199.331 290.405 200.371C289.365 201.411 287.954 201.997 286.481 202.001Z" fill="#CCCCCC"/>
<path d="M292.323 175.63H0V6.68719C0.0020534 4.91423 0.708983 3.21447 1.9657 1.96081C3.22242 0.707157 4.9263 0.00198838 6.70354 0H285.619C287.396 0.00198382 289.1 0.707152 290.357 1.96081C291.614 3.21446 292.321 4.91422 292.323 6.68719V175.63Z" fill="#3F3D56"/>
<path d="M274.863 163.368H17.4592C16.0891 163.367 14.7755 162.823 13.8066 161.857C12.8378 160.89 12.2928 159.58 12.2913 158.213V17.4173C12.2928 16.0504 12.8377 14.7399 13.8066 13.7734C14.7754 12.8069 16.089 12.2632 17.4592 12.2616H274.863C276.234 12.2632 277.547 12.8069 278.516 13.7734C279.485 14.7399 280.03 16.0504 280.031 17.4173V158.213C280.03 159.58 279.485 160.89 278.516 161.857C277.547 162.823 276.234 163.367 274.863 163.368Z" fill="white"/>
<path d="M218.351 234.619H73.7116C73.5635 234.622 73.4184 234.576 73.2991 234.489C73.1798 234.401 73.0929 234.277 73.0519 234.134C73.0264 234.038 73.0234 233.936 73.0432 233.838C73.0631 233.74 73.1052 233.648 73.1663 233.569C73.2275 233.49 73.3061 233.425 73.396 233.381C73.486 233.337 73.5849 233.314 73.6851 233.314H218.297C218.453 233.308 218.607 233.356 218.733 233.449C218.858 233.541 218.949 233.674 218.99 233.824C219.011 233.92 219.01 234.019 218.988 234.114C218.966 234.209 218.923 234.298 218.861 234.375C218.8 234.451 218.722 234.512 218.634 234.555C218.545 234.597 218.449 234.619 218.351 234.619Z" fill="#CCCCCC"/>
<path d="M272.115 35.024H209.966V82.3901H272.115V35.024Z" fill="#F2F2F2"/>
<path d="M269.027 37.3776H213.055V80.0365H269.027V37.3776Z" fill="white"/>
<path d="M242.024 69.0199C242.031 69.02 242.039 69.0198 242.046 69.0195C245.835 68.8217 249.406 67.1918 252.033 64.4611C254.66 61.7303 256.146 58.1039 256.189 54.3192C256.232 50.5345 254.827 46.8757 252.262 44.0869C249.697 41.2982 246.164 39.5887 242.38 39.3063C242.333 39.3027 242.286 39.3087 242.242 39.324C242.198 39.3394 242.157 39.3637 242.122 39.3954C242.088 39.4267 242.06 39.4646 242.042 39.507C242.023 39.5494 242.013 39.5952 242.012 39.6415L241.686 68.6761C241.685 68.7663 241.72 68.8532 241.784 68.9177C241.847 68.9822 241.933 69.0189 242.024 69.0199Z" fill="#3F3D56"/>
<path d="M230.32 44.1075C230.436 44.1089 230.547 44.1561 230.629 44.2389L240.648 54.4609C240.688 54.5018 240.72 54.5502 240.742 54.6035C240.763 54.6567 240.774 54.7136 240.773 54.771L240.617 68.6641C240.616 68.7237 240.603 68.7826 240.579 68.8371C240.555 68.8915 240.519 68.9403 240.475 68.9805C240.431 69.0211 240.379 69.0523 240.322 69.072C240.265 69.0917 240.205 69.0995 240.145 69.095C237.359 68.887 234.686 67.9081 232.427 66.2683C230.169 64.6286 228.413 62.3929 227.358 59.8124C226.302 57.232 225.989 54.4092 226.454 51.661C226.918 48.9129 228.141 46.3484 229.986 44.2557C230.026 44.2106 230.075 44.1742 230.13 44.1487C230.184 44.1232 230.244 44.1092 230.304 44.1076C230.309 44.1074 230.315 44.1074 230.32 44.1075Z" fill="#E6E6E6"/>
<path d="M240.509 39.1876C240.62 39.189 240.728 39.2327 240.808 39.3099C240.852 39.351 240.886 39.4007 240.909 39.4557C240.932 39.5107 240.944 39.57 240.943 39.6297L240.802 52.1649C240.801 52.2512 240.775 52.3353 240.726 52.4065C240.677 52.4778 240.608 52.5329 240.528 52.5651C240.447 52.5972 240.359 52.6049 240.275 52.5871C240.19 52.5693 240.112 52.5269 240.052 52.4652L231.309 43.5452C231.267 43.5028 231.235 43.4524 231.213 43.3971C231.192 43.3417 231.182 43.2827 231.184 43.2234C231.186 43.1641 231.201 43.106 231.226 43.0524C231.251 42.9988 231.288 42.9509 231.332 42.9117C233.875 40.6788 237.099 39.3669 240.481 39.1882C240.49 39.1877 240.5 39.1876 240.509 39.1876Z" fill="#198262"/>
<path d="M236.004 75.0407C235.998 75.5695 235.835 76.0847 235.536 76.5211C235.237 76.9575 234.814 77.2955 234.322 77.4924C233.83 77.6893 233.291 77.7362 232.772 77.6273C232.253 77.5183 231.778 77.2583 231.408 76.8802C231.037 76.502 230.787 76.0228 230.69 75.5029C230.592 74.9831 230.651 74.4461 230.859 73.9598C231.068 73.4735 231.416 73.0598 231.86 72.7709C232.304 72.482 232.824 72.331 233.354 72.337C234.065 72.3457 234.743 72.6353 235.24 73.1422C235.737 73.649 236.012 74.3318 236.004 75.0407Z" fill="#198262"/>
<path d="M243.662 75.1263C243.656 75.6552 243.493 76.1704 243.194 76.6068C242.894 77.0432 242.472 77.3812 241.98 77.5781C241.488 77.775 240.948 77.8219 240.43 77.7129C239.911 77.6039 239.436 77.344 239.065 76.9658C238.695 76.5877 238.445 76.1084 238.347 75.5886C238.25 75.0688 238.309 74.5318 238.517 74.0455C238.726 73.5592 239.074 73.1454 239.518 72.8566C239.962 72.5677 240.482 72.4167 241.012 72.4226C241.723 72.4313 242.401 72.7209 242.897 73.2278C243.394 73.7347 243.669 74.4175 243.662 75.1263Z" fill="#3F3D56"/>
<path d="M251.32 75.212C251.314 75.7408 251.151 76.256 250.851 76.6924C250.552 77.1288 250.13 77.4668 249.638 77.6637C249.145 77.8606 248.606 77.9075 248.087 77.7985C247.568 77.6895 247.094 77.4296 246.723 77.0514C246.353 76.6733 246.103 76.194 246.005 75.6742C245.907 75.1544 245.967 74.6174 246.175 74.1311C246.383 73.6448 246.731 73.231 247.176 72.9422C247.62 72.6533 248.14 72.5023 248.67 72.5082C249.38 72.517 250.058 72.8065 250.555 73.3134C251.052 73.8203 251.327 74.5031 251.32 75.212Z" fill="#E6E6E6"/>
<path d="M271.461 89.8447H209.312V137.211H271.461V89.8447Z" fill="#F2F2F2"/>
<path d="M268.373 92.1982H212.4V134.857H268.373V92.1982Z" fill="white"/>
<path d="M221.897 106.219C223.181 106.219 224.221 105.181 224.221 103.9C224.221 102.62 223.181 101.582 221.897 101.582C220.614 101.582 219.573 102.62 219.573 103.9C219.573 105.181 220.614 106.219 221.897 106.219Z" fill="#3F3D56"/>
<path d="M259.238 102.096C259.445 102.096 259.651 102.136 259.842 102.215C260.034 102.294 260.208 102.41 260.354 102.556C260.501 102.702 260.617 102.875 260.697 103.066C260.776 103.257 260.817 103.462 260.817 103.669C260.817 103.875 260.776 104.08 260.697 104.271C260.617 104.462 260.501 104.635 260.354 104.781C260.208 104.927 260.034 105.043 259.842 105.122C259.651 105.201 259.445 105.241 259.238 105.241H234.796C234.378 105.241 233.977 105.075 233.681 104.78C233.386 104.486 233.22 104.086 233.22 103.669C233.22 103.252 233.386 102.852 233.681 102.557C233.977 102.262 234.378 102.096 234.796 102.096H259.238ZM259.238 101.711H234.796C234.538 101.711 234.282 101.761 234.044 101.859C233.805 101.958 233.589 102.102 233.406 102.283C233.224 102.465 233.079 102.681 232.98 102.919C232.881 103.157 232.831 103.411 232.831 103.669C232.831 103.926 232.881 104.181 232.98 104.418C233.079 104.656 233.224 104.872 233.406 105.054C233.589 105.236 233.805 105.38 234.044 105.478C234.282 105.576 234.538 105.626 234.796 105.626H259.238C259.496 105.626 259.752 105.576 259.99 105.478C260.228 105.38 260.445 105.236 260.628 105.054C260.81 104.872 260.955 104.656 261.054 104.418C261.152 104.181 261.203 103.926 261.203 103.669C261.203 103.411 261.152 103.157 261.054 102.919C260.955 102.681 260.81 102.465 260.628 102.283C260.445 102.102 260.228 101.958 259.99 101.859C259.752 101.761 259.496 101.711 259.238 101.711Z" fill="#3F3D56"/>
<path d="M249.594 105.626H231.193C230.673 105.626 230.174 105.42 229.806 105.053C229.438 104.686 229.231 104.188 229.231 103.669C229.231 103.149 229.438 102.652 229.806 102.284C230.174 101.917 230.673 101.711 231.193 101.711H249.594C250.114 101.711 250.613 101.917 250.981 102.284C251.349 102.652 251.556 103.149 251.556 103.669C251.556 104.188 251.349 104.686 250.981 105.053C250.613 105.42 250.114 105.626 249.594 105.626Z" fill="#198262"/>
<path d="M221.897 115.846C223.181 115.846 224.221 114.808 224.221 113.528C224.221 112.247 223.181 111.209 221.897 111.209C220.614 111.209 219.573 112.247 219.573 113.528C219.573 114.808 220.614 115.846 221.897 115.846Z" fill="#3F3D56"/>
<path d="M259.238 111.724C259.445 111.723 259.651 111.764 259.842 111.842C260.034 111.921 260.208 112.037 260.354 112.183C260.501 112.329 260.617 112.503 260.697 112.694C260.776 112.884 260.817 113.089 260.817 113.296C260.817 113.503 260.776 113.707 260.697 113.898C260.617 114.089 260.501 114.263 260.354 114.409C260.208 114.555 260.034 114.67 259.842 114.749C259.651 114.828 259.445 114.869 259.238 114.868H234.796C234.378 114.868 233.977 114.703 233.681 114.408C233.386 114.113 233.22 113.713 233.22 113.296C233.22 112.879 233.386 112.479 233.681 112.184C233.977 111.889 234.378 111.724 234.796 111.724H259.238ZM259.238 111.338H234.796C234.275 111.338 233.776 111.545 233.408 111.912C233.04 112.279 232.833 112.777 232.833 113.296C232.833 113.815 233.04 114.313 233.408 114.68C233.776 115.047 234.275 115.253 234.796 115.253H259.238C259.759 115.253 260.258 115.047 260.626 114.68C260.994 114.313 261.2 113.815 261.2 113.296C261.2 112.777 260.994 112.279 260.626 111.912C260.258 111.545 259.759 111.338 259.238 111.338Z" fill="#3F3D56"/>
<path d="M256.542 115.253H231.193C230.673 115.253 230.174 115.047 229.806 114.68C229.438 114.313 229.231 113.815 229.231 113.296C229.231 112.777 229.438 112.279 229.806 111.912C230.174 111.545 230.673 111.338 231.193 111.338H256.542C257.062 111.338 257.561 111.545 257.929 111.912C258.297 112.279 258.504 112.777 258.504 113.296C258.504 113.815 258.297 114.313 257.929 114.68C257.561 115.047 257.062 115.253 256.542 115.253Z" fill="#198262"/>
<path d="M221.897 125.473C223.181 125.473 224.221 124.435 224.221 123.155C224.221 121.874 223.181 120.836 221.897 120.836C220.614 120.836 219.573 121.874 219.573 123.155C219.573 124.435 220.614 125.473 221.897 125.473Z" fill="#3F3D56"/>
<path d="M259.238 121.351C259.445 121.35 259.651 121.391 259.842 121.47C260.034 121.549 260.208 121.664 260.354 121.81C260.501 121.956 260.617 122.13 260.697 122.321C260.776 122.512 260.817 122.716 260.817 122.923C260.817 123.13 260.776 123.334 260.697 123.525C260.617 123.716 260.501 123.89 260.354 124.036C260.208 124.182 260.034 124.298 259.842 124.376C259.651 124.455 259.445 124.496 259.238 124.495H234.796C234.378 124.495 233.977 124.33 233.681 124.035C233.386 123.74 233.22 123.34 233.22 122.923C233.22 122.506 233.386 122.106 233.681 121.811C233.977 121.516 234.378 121.351 234.796 121.351H259.238ZM259.238 120.966H234.796C234.275 120.966 233.776 121.172 233.408 121.539C233.04 121.906 232.833 122.404 232.833 122.923C232.833 123.442 233.04 123.94 233.408 124.307C233.776 124.674 234.275 124.881 234.796 124.881H259.238C259.759 124.881 260.258 124.674 260.626 124.307C260.994 123.94 261.2 123.442 261.2 122.923C261.2 122.404 260.994 121.906 260.626 121.539C260.258 121.172 259.759 120.966 259.238 120.966Z" fill="#3F3D56"/>
<path d="M241.487 124.881H231.193C230.935 124.881 230.68 124.831 230.442 124.732C230.203 124.634 229.986 124.49 229.804 124.308C229.621 124.126 229.477 123.911 229.378 123.673C229.279 123.435 229.228 123.18 229.228 122.923C229.228 122.666 229.279 122.411 229.378 122.173C229.477 121.936 229.621 121.72 229.804 121.538C229.986 121.356 230.203 121.212 230.442 121.114C230.68 121.016 230.935 120.965 231.193 120.966H241.487C242.007 120.966 242.505 121.173 242.873 121.54C243.24 121.907 243.446 122.404 243.446 122.923C243.446 123.442 243.24 123.939 242.873 124.306C242.505 124.673 242.007 124.88 241.487 124.881Z" fill="#198262"/>
<path d="M195.574 43.4042H21.9407V132.177H195.574V43.4042Z" fill="#F2F2F2"/>
<path d="M189.786 47.8153H27.7285V127.766H189.786V47.8153Z" fill="white"/>
<path d="M169.688 115.569H51.5506C51.4526 115.569 51.3585 115.53 51.2892 115.461C51.2199 115.392 51.1809 115.298 51.1809 115.2V58.7132C51.1809 58.6154 51.2199 58.5215 51.2892 58.4524C51.3585 58.3832 51.4526 58.3444 51.5506 58.3444C51.6487 58.3444 51.7427 58.3832 51.8121 58.4524C51.8814 58.5215 51.9203 58.6154 51.9203 58.7132V114.831H169.688C169.786 114.831 169.88 114.87 169.949 114.939C170.018 115.008 170.057 115.102 170.057 115.2C170.057 115.298 170.018 115.392 169.949 115.461C169.88 115.53 169.786 115.569 169.688 115.569Z" fill="#3F3D56"/>
<path d="M76.7913 111.512H66.0462C65.7553 111.512 65.4763 111.396 65.2706 111.191C65.0648 110.986 64.9491 110.707 64.9487 110.417V95.6407C64.9491 95.3504 65.0648 95.0721 65.2706 94.8669C65.4763 94.6617 65.7553 94.5462 66.0462 94.5459H76.7913C77.0822 94.5462 77.3612 94.6617 77.5669 94.8669C77.7727 95.0721 77.8884 95.3504 77.8888 95.6407V110.417C77.8884 110.707 77.7727 110.986 77.5669 111.191C77.3612 111.396 77.0822 111.512 76.7913 111.512Z" fill="#198262"/>
<path d="M96.3862 111.512H85.6412C85.3502 111.512 85.0713 111.396 84.8655 111.191C84.6598 110.986 84.544 110.707 84.5437 110.417V81.6252C84.544 81.335 84.6598 81.0567 84.8655 80.8515C85.0713 80.6462 85.3502 80.5308 85.6412 80.5305H96.3862C96.6772 80.5308 96.9561 80.6462 97.1619 80.8515C97.3676 81.0567 97.4834 81.335 97.4837 81.6252V110.417C97.4834 110.707 97.3676 110.986 97.1619 111.191C96.9561 111.396 96.6772 111.512 96.3862 111.512Z" fill="#198262"/>
<path d="M115.981 111.512H105.236C104.945 111.512 104.666 111.396 104.461 111.191C104.255 110.986 104.139 110.707 104.139 110.417V95.6407C104.139 95.3504 104.255 95.0721 104.461 94.8669C104.666 94.6617 104.945 94.5462 105.236 94.5459H115.981C116.272 94.5462 116.551 94.6617 116.757 94.8669C116.963 95.0721 117.078 95.3504 117.079 95.6407V110.417C117.078 110.707 116.963 110.986 116.757 111.191C116.551 111.396 116.272 111.512 115.981 111.512Z" fill="#198262"/>
<path d="M135.576 111.512H124.831C124.547 111.518 124.272 111.411 124.066 111.215C123.86 111.02 123.741 110.75 123.734 110.467V76.0432C123.741 75.7596 123.86 75.4903 124.066 75.2944C124.272 75.0985 124.547 74.9919 124.831 74.9981H135.576C135.86 74.9919 136.136 75.0985 136.341 75.2944C136.547 75.4903 136.667 75.7596 136.674 76.0432V110.467C136.667 110.75 136.547 111.02 136.341 111.215C136.136 111.411 135.86 111.518 135.576 111.512Z" fill="#198262"/>
<path d="M155.171 111.512H144.426C144.135 111.512 143.856 111.396 143.65 111.191C143.445 110.986 143.329 110.707 143.329 110.417V66.1346C143.329 65.8443 143.445 65.566 143.65 65.3608C143.856 65.1556 144.135 65.0401 144.426 65.0398H155.171C155.462 65.0401 155.741 65.1556 155.947 65.3608C156.153 65.566 156.268 65.8443 156.269 66.1346V110.417C156.268 110.707 156.153 110.986 155.947 111.191C155.741 111.396 155.462 111.512 155.171 111.512Z" fill="#198262"/>
<path d="M71.419 90.1199C72.6441 90.1199 73.6373 89.1292 73.6373 87.907C73.6373 86.6848 72.6441 85.694 71.419 85.694C70.1939 85.694 69.2007 86.6848 69.2007 87.907C69.2007 89.1292 70.1939 90.1199 71.419 90.1199Z" fill="#3F3D56"/>
<path d="M91.0137 75.7357C92.2388 75.7357 93.232 74.745 93.232 73.5228C93.232 72.3006 92.2388 71.3098 91.0137 71.3098C89.7886 71.3098 88.7954 72.3006 88.7954 73.5228C88.7954 74.745 89.7886 75.7357 91.0137 75.7357Z" fill="#3F3D56"/>
<path d="M110.609 90.1199C111.834 90.1199 112.827 89.1292 112.827 87.907C112.827 86.6848 111.834 85.694 110.609 85.694C109.384 85.694 108.39 86.6848 108.39 87.907C108.39 89.1292 109.384 90.1199 110.609 90.1199Z" fill="#3F3D56"/>
<path d="M130.204 68.728C131.429 68.728 132.422 67.7373 132.422 66.5151C132.422 65.2929 131.429 64.3021 130.204 64.3021C128.979 64.3021 127.985 65.2929 127.985 66.5151C127.985 67.7373 128.979 68.728 130.204 68.728Z" fill="#3F3D56"/>
<path d="M149.799 60.6138C151.024 60.6138 152.017 59.6231 152.017 58.4009C152.017 57.1787 151.024 56.1879 149.799 56.1879C148.573 56.1879 147.58 57.1787 147.58 58.4009C147.58 59.6231 148.573 60.6138 149.799 60.6138Z" fill="#3F3D56"/>
<path d="M110.655 88.4027L91.0139 73.7263L71.6405 88.2021L71.1973 87.612L91.0139 72.8044L110.562 87.4111L129.988 66.2045L130.065 66.1729L149.66 58.297L149.937 58.9811L130.42 66.8258L110.655 88.4027Z" fill="#3F3D56"/>
<path d="M403.571 270H240.265C240.151 270 240.042 269.955 239.962 269.875C239.882 269.795 239.836 269.686 239.836 269.572C239.836 269.459 239.882 269.35 239.962 269.27C240.042 269.19 240.151 269.145 240.265 269.145H403.571C403.685 269.145 403.794 269.19 403.874 269.27C403.955 269.35 404 269.459 404 269.572C404 269.686 403.955 269.795 403.874 269.875C403.794 269.955 403.685 270 403.571 270Z" fill="#CCCCCC"/>
</g>
<defs>
<clipPath id="clip0">
<rect width="404" height="270" fill="white"/>
</clipPath>
</defs>
</svg>
