<svg width="379" height="264" viewBox="0 0 379 264" fill="none" xmlns="http://www.w3.org/2000/svg">
<g clip-path="url(#clip0)">
<path d="M37.9599 44.9046C48.2053 44.9046 56.5109 36.5981 56.5109 26.3514C56.5109 16.1047 48.2053 7.7981 37.9599 7.7981C27.7145 7.7981 19.4089 16.1047 19.4089 26.3514C19.4089 36.5981 27.7145 44.9046 37.9599 44.9046Z" fill="#198262"/>
<path opacity="0.1" d="M35.6933 64.1203C43.4824 81.7158 33.5465 101.977 21.8509 117.234C17.9364 122.35 13.6149 127.714 13.0722 134.131C12.4178 141.981 17.7329 149.196 24.0376 153.913C35.5377 162.51 51.2436 165.168 64.9304 160.83C76.7576 157.082 86.7015 148.618 98.6325 145.206C118.584 139.491 139.733 148.965 156.819 160.77C168.914 169.114 181.867 179.283 196.447 177.495C206.706 176.238 215.413 169.035 221.323 160.554C224.176 156.46 226.658 151.87 230.812 149.109C233.282 147.464 236.183 146.594 239.084 145.972C265.575 140.309 293.691 154.129 319.832 147.021C337.489 142.232 351.567 128.265 360.321 112.194C369.076 96.1226 373.162 77.9764 376.566 59.9978C378.984 47.2272 380.991 33.431 375.433 21.686C369.551 9.25065 355.936 1.71201 342.253 0.299263C328.57 -1.11348 314.848 2.78554 302.242 8.28487C286.493 15.173 271.054 24.8148 253.864 24.8467C242.156 24.8707 230.991 20.377 219.798 16.9489C201.084 11.2221 181.623 8.37666 162.23 5.75071C143.663 3.2365 124.913 0.897885 106.234 2.38247C93.0182 3.43205 81.3465 8.48441 68.5216 10.823C60.1619 12.3475 51.7623 11.2221 43.5582 13.7762C33.4548 16.9369 23.064 24.2601 22.5053 35.7935C21.9786 46.7722 31.5634 54.7858 35.6933 64.1203Z" fill="#198262"/>
<path d="M240.177 79.7882C238.473 75.3464 234.08 64.9065 231.187 66.9777C227.532 69.5957 234.842 81.161 234.842 81.161C235.05 83.2842 230.939 87.702 228.737 89.9049C228.737 89.7293 228.737 89.6295 228.737 89.6295C228.716 89.7133 228.684 89.7939 228.641 89.869L228.458 89.7692C228.408 89.9452 228.32 90.1077 228.198 90.2441C228.198 89.9448 228.178 89.7692 228.178 89.7692C227.755 91.5611 220.373 93.8319 220.373 93.8319C220.373 93.8319 220.174 93.8319 219.83 93.8319C217.779 93.8319 212.44 93.3689 209.966 89.4101C208.687 87.2654 207.05 85.3555 205.126 83.7631C204.467 83.2468 203.667 82.9434 202.832 82.8931C195.996 82.4541 190.462 78.994 189.356 78.2557L189.153 78.1161L189.109 78.2438C188.85 77.8726 188.598 77.4775 188.363 77.0705L188.243 76.851C189.898 76.0203 191.29 74.7476 192.265 73.1739C193.241 71.6002 193.762 69.7871 193.77 67.9355C193.77 67.8677 193.77 67.7958 193.77 67.728C194.371 66.6885 194.688 65.5088 194.687 64.3079V63.1106L196.248 61.7218C196.962 61.0873 197.7 60.4168 198.063 59.5428C198.209 59.1892 198.275 58.8075 198.255 58.4254C198.29 58.0981 198.241 57.7673 198.112 57.4642C197.984 57.1611 197.78 56.8958 197.521 56.6934C196.324 55.8673 194.328 56.6934 193.462 55.5441C193.063 55.0252 193.135 54.3189 192.94 53.7083C192.541 52.4671 191.104 51.7967 189.775 51.7767C188.447 51.7568 187.174 52.2397 185.897 52.6028C183.214 53.3645 180.414 53.627 177.637 53.377C176.886 53.2433 176.114 53.2705 175.374 53.4569C174.922 53.6437 174.521 53.9344 174.202 54.3053C173.883 54.6762 173.656 55.117 173.539 55.5919C173.44 55.9488 173.381 56.3156 173.363 56.6854C172.25 57.9412 171.634 59.5607 171.631 61.2389V64.3079C171.634 65.9462 172.221 67.5298 173.287 68.7736C173.413 70.2176 173.852 71.6168 174.574 72.874C175.295 74.1311 176.282 75.2158 177.465 76.0528C177.465 76.1326 177.465 76.2138 177.465 76.2963L177.517 76.3282C177.453 77.2796 177.306 78.2236 177.078 79.1497V78.9462C177.078 78.9462 171.492 81.9193 165.506 81.9911H164.848C163.667 81.9514 162.519 82.382 161.656 83.1884C159.884 84.8565 156.779 87.4945 154.872 87.4945C154.473 87.4945 144.402 89.4619 142.734 89.7892L139.617 86.7362L139.521 86.9158L139.338 86.7362C138.997 86.7625 138.658 86.8119 138.324 86.8839C136.728 84.9922 133.536 80.5944 132.798 74.6919C132.798 74.6919 139.689 66.842 137.155 59.5269C134.992 53.2932 129.035 66.6545 127.343 70.6812C127.047 71.3839 127.01 72.1688 127.239 72.8961L132.838 90.9425C132.305 92.3409 132.152 93.8557 132.395 95.3324H132.331L136.409 100.564C136.409 100.564 139.478 101.873 144.278 101.849C147.796 101.855 151.283 101.186 154.549 99.8779H155.495L155.315 99.9458H160.171L163.26 109.288C163.156 110.138 161.664 122.003 160.467 124.657C160.111 125.544 159.951 126.496 159.996 127.45C160.059 129.284 160.358 131.101 160.886 132.858L163.591 132.758L163.487 132.97C161.197 137.667 157.37 146.036 155.108 153.858L151.169 161.839L154.122 197.637H154.242L154.469 197.673C154.788 197.721 155.267 197.792 155.898 197.872L155.666 198.271L149.158 209.047C149.158 209.047 144.517 218.549 154.784 216.757C154.784 216.757 158.579 215.655 160.127 209.174L166.879 202.841C166.879 202.841 167.194 198.635 165.283 196.954C165.163 195.011 164.86 189.336 165.327 187.971C165.889 186.319 162.933 167.319 162.933 167.319C162.933 167.319 173.619 145.15 180.091 144.599C180.565 144.566 181.042 144.628 181.492 144.783C186.811 146.515 193.255 159.377 195.15 163.38L195.238 163.563V163.599L195.31 163.755V163.799L195.374 163.934V163.97L195.43 164.094V164.122L195.478 164.222V164.262L195.513 164.338V164.369L195.537 164.425V164.457V164.493L195.557 164.541L196.399 189.464L196.483 189.508H196.523L196.451 190.022L196.084 192.596C196.084 192.596 200.725 202.374 200.442 203.611C200.158 204.848 203.534 209.809 208.314 208.432C213.095 207.055 210.25 199.293 210.25 199.293L205.645 189.803L205.441 189.38C205.9 189.098 206.333 188.776 206.734 188.418C206.734 188.418 205.33 178.23 206.734 176.027C208.139 173.824 208.562 163.771 208.562 163.771C208.562 163.771 207.576 156.887 205.888 153.858L198.817 128.616C200.936 130.587 202.584 131.357 203.961 131.306H204.188C204.794 131.317 205.391 131.168 205.92 130.875C206.204 130.714 206.472 130.526 206.718 130.312C206.765 130.271 206.809 130.227 206.85 130.18C208.817 128.528 204.599 122.055 202.209 118.208C199.907 114.496 203.079 104.411 203.319 103.661C203.532 103.505 203.76 103.371 204.001 103.262C204.496 103.05 205.027 102.935 205.565 102.923C207.856 103.003 210.673 104.32 214.16 104.982C216.584 105.395 219.04 105.586 221.498 105.553H221.642C222.62 105.553 223.506 105.533 224.224 105.505C224.879 105.479 225.52 105.306 226.099 104.998C226.596 104.709 227.045 104.345 227.432 103.921L233.553 97.0046L233.394 97.0804C233.69 96.296 233.69 95.4303 233.394 94.646L239.862 83.4717C240.188 82.9211 240.386 82.3039 240.441 81.666C240.495 81.0282 240.405 80.3863 240.177 79.7882Z" fill="url(#paint0_linear)"/>
<path d="M167.505 201.895L160.989 208.141C159.497 214.526 155.83 215.608 155.83 215.608C145.922 217.372 150.399 208.025 150.399 208.025L156.684 197.39L157.458 196.077C157.458 196.077 161.939 194.72 164.924 195.534C165.3 195.637 165.649 195.826 165.941 196.085C167.813 197.709 167.505 201.895 167.505 201.895Z" fill="#444176"/>
<path d="M207.684 207.462C203.067 208.819 199.811 203.934 200.102 202.709C200.394 201.484 195.885 191.862 195.885 191.862L196.236 189.324L196.563 186.973L204.144 187.516L204.859 189.017L209.304 198.375C209.304 198.375 212.301 206.105 207.684 207.462Z" fill="#444176"/>
<path opacity="0.1" d="M166.013 197.146C165.299 198.371 159.509 197.752 156.688 197.369L157.462 196.056C157.462 196.056 161.943 194.699 164.928 195.514C165.304 195.617 165.653 195.805 165.945 196.064C165.985 196.727 166.013 197.146 166.013 197.146Z" fill="black"/>
<path opacity="0.1" d="M204.867 189.009C200.984 191.595 196.85 189.639 196.228 189.316L196.555 186.965L204.136 187.508L204.867 189.009Z" fill="black"/>
<path d="M205.92 175.424C204.563 177.595 205.92 187.644 205.92 187.644C201.439 191.718 196.148 188.729 196.148 188.729L195.35 164.158C195.35 164.158 186.527 143.929 180.282 144.471C174.038 145.014 163.723 166.872 163.723 166.872C163.723 166.872 166.572 185.605 166.029 187.225C165.486 188.845 166.029 196.727 166.029 196.727C165.079 198.355 155.171 196.727 155.171 196.727L152.322 161.428L156.105 153.55C158.28 145.84 161.975 137.587 164.185 132.958C165.283 130.655 166.017 129.25 166.017 129.25L173.24 127.746L196.683 122.885L205.106 153.55C206.734 156.536 207.684 163.324 207.684 163.324C207.684 163.324 207.277 173.253 205.92 175.424Z" fill="#565387"/>
<g opacity="0.1">
<path opacity="0.1" d="M198.319 188.73L197.52 164.158C197.52 164.158 188.698 143.929 182.453 144.471C182.174 144.499 181.899 144.56 181.635 144.655C187.724 146.678 195.35 164.158 195.35 164.158L196.148 188.73C197.813 189.578 199.689 189.92 201.547 189.715C200.421 189.58 199.328 189.246 198.319 188.73Z" fill="black"/>
<path opacity="0.1" d="M157.326 196.739L154.477 161.44L158.276 153.55C160.45 145.84 164.146 137.587 166.356 132.958C167.453 130.655 168.188 129.25 168.188 129.25L175.41 127.746L196.81 123.296L196.695 122.869L173.239 127.746L166.017 129.25C166.017 129.25 165.283 130.655 164.185 132.958C161.967 137.587 158.28 145.856 156.105 153.55L152.306 161.424L155.155 196.723C155.155 196.723 160.566 197.613 163.774 197.417C161.615 197.3 159.463 197.074 157.326 196.739Z" fill="black"/>
</g>
<path d="M140.818 87.3867C140.818 87.3867 133.081 87.7858 134.166 95.939L136.337 96.2104L139.593 92.6825L141.221 89.6974V89.019L140.818 87.3867Z" fill="#CED2DF"/>
<path opacity="0.1" d="M140.818 87.3867C140.818 87.3867 133.081 87.7858 134.166 95.939L136.337 96.2104L139.593 92.6825L141.221 89.6974V89.019L140.818 87.3867Z" fill="black"/>
<path d="M226.893 90.3718C226.893 90.3718 233.278 93.764 231.646 97.7029L229.611 98.5011L226.897 97.0085L226.498 93.4807L226.77 91.0383L226.893 90.3718Z" fill="#CED2DF"/>
<path opacity="0.1" d="M226.893 90.3718C226.893 90.3718 233.278 93.764 231.646 97.7029L229.611 98.5011L226.897 97.0085L226.498 93.4807L226.77 91.0383L226.893 90.3718Z" fill="black"/>
<path d="M185.901 55.3445H180.47C175.822 55.3445 172.054 59.1127 172.054 63.7611C172.054 68.4095 175.822 72.1777 180.47 72.1777H185.901C190.549 72.1777 194.316 68.4095 194.316 63.7611C194.316 59.1127 190.549 55.3445 185.901 55.3445Z" fill="#88455E"/>
<path d="M140.766 88.54L136.014 96.1226L135.615 94.7737L129.158 73.7341C128.938 73.0169 128.973 72.2452 129.258 71.5511C130.89 67.5843 136.644 54.3907 138.731 60.5565C141.173 67.7399 134.521 75.4901 134.521 75.4901C135.28 81.7796 138.811 86.3371 140.2 87.9175C140.551 88.3285 140.766 88.54 140.766 88.54Z" fill="#EC8C9C"/>
<path d="M225.876 91.7965C225.876 91.7965 233.342 84.7368 233.058 81.8873C233.058 81.8873 225.999 70.4856 229.531 67.9195C232.324 65.8762 236.566 76.1725 238.21 80.5504C238.427 81.1336 238.514 81.7572 238.465 82.3776C238.417 82.998 238.233 83.6003 237.926 84.1421L229.004 99.9418L225.876 91.7965Z" fill="#EC8C9C"/>
<path d="M177.549 72.1139C177.549 72.1139 178.906 80.8019 174.971 84.0623C171.037 87.3228 186.24 87.3029 186.24 87.3029L191.671 82.2785C191.671 82.2785 185.426 76.4399 187.325 72.0979L177.549 72.1139Z" fill="#EC8C9C"/>
<path opacity="0.1" d="M177.278 82.023C177.278 82.023 183.115 86.369 188.949 81.4802L198.45 101.167L197.908 125.196C197.908 125.196 178.223 135.376 170.079 129.134C161.935 122.893 168.722 119.632 168.722 119.632L166.823 101.171L168.858 89.2224C168.858 89.2224 172.521 83.5195 172.796 83.5195C173.072 83.5195 177.278 82.023 177.278 82.023Z" fill="black"/>
<path d="M177.278 81.7517C177.278 81.7517 183.115 86.1057 188.953 81.209L198.454 100.896L197.912 124.924C197.912 124.924 178.227 135.105 170.083 128.863C161.939 122.622 168.726 119.361 168.726 119.361L166.827 100.9L168.862 88.9512C168.862 88.9512 172.525 83.2483 172.801 83.2483C173.076 83.2483 177.278 81.7517 177.278 81.7517Z" fill="#EBF1F6"/>
<path opacity="0.1" d="M177.278 79.7205C177.278 79.7205 171.743 82.8732 165.734 82.7176C165.17 82.6999 164.608 82.7946 164.082 82.996C163.555 83.1974 163.073 83.5016 162.665 83.8909C160.953 85.5351 157.957 88.1371 156.101 88.1371C155.702 88.1371 144.154 90.4438 144.154 90.4438L141.102 87.3908C141.102 87.3908 136.553 96.2823 134.382 95.8753L138.32 101.035C138.32 101.035 145.786 104.292 155.558 100.357H161.261L164.245 109.588C164.245 109.588 162.753 122.079 161.532 124.793C160.311 127.506 161.931 132.802 161.931 132.802L172.653 132.403C172.653 132.403 173.196 127.107 174.01 126.417C174.824 125.727 171.161 102.388 171.161 102.388C171.161 102.388 168.718 89.2186 177.677 84.4695L177.278 79.7205Z" fill="black"/>
<path opacity="0.1" d="M173.235 127.762C172.841 129.372 172.559 131.008 172.394 132.658L164.185 132.97C165.283 130.667 166.017 129.262 166.017 129.262L173.235 127.762Z" fill="black"/>
<path opacity="0.1" d="M140.766 88.5401L136.014 96.1227L135.615 94.7738C137.359 93.0418 139.402 89.4221 140.216 87.9136C140.551 88.3286 140.766 88.5401 140.766 88.5401Z" fill="black"/>
<path d="M177.278 79.7205C177.278 79.7205 171.468 82.8732 165.462 82.7176C164.899 82.6999 164.337 82.7946 163.81 82.996C163.283 83.1974 162.802 83.5016 162.394 83.8909C160.682 85.5351 157.685 88.1371 155.83 88.1371C155.431 88.1371 143.883 90.4438 143.883 90.4438L140.818 87.3868C140.818 87.3868 136.269 96.2783 134.098 95.8713L138.037 101.031C138.037 101.031 145.503 104.288 155.275 100.353H160.977L163.962 109.58C163.962 109.58 162.47 122.071 161.248 124.785C160.027 127.498 161.648 132.794 161.648 132.794L172.37 132.395C172.37 132.395 172.912 127.099 173.726 126.409C174.54 125.719 170.877 102.38 170.877 102.38C170.877 102.38 168.435 89.2106 177.393 84.4615L177.278 79.7205Z" fill="#CED2DF"/>
<path opacity="0.1" d="M188.953 78.8982C188.953 78.8982 194.492 83.1205 201.886 83.6073C202.695 83.6581 203.469 83.9578 204.101 84.4654C205.965 86.0476 207.546 87.9372 208.773 90.0525C211.758 94.9413 219.088 94.3985 219.088 94.3985C219.088 94.3985 226.215 92.1597 226.622 90.4077C226.622 90.4077 226.825 99.9856 231.307 97.671L225.413 104.463C225.041 104.892 224.586 105.241 224.075 105.487C223.563 105.734 223.007 105.873 222.44 105.896C220.225 105.984 216.379 106.012 213.131 105.381C208.243 104.431 204.715 102.125 202.137 104.16C202.137 104.16 198.746 114.748 201.052 118.551C203.358 122.354 207.436 128.731 205.533 130.364C203.63 131.996 201.323 131.856 197.525 127.921C193.726 123.986 193.315 117.334 193.315 117.334L194.264 100.229C194.264 100.229 190.601 87.3308 187.082 84.7527L188.953 78.8982Z" fill="black"/>
<path opacity="0.1" d="M231.845 97.4995L225.935 104.32C225.543 104.772 225.057 105.134 224.511 105.381C224.026 105.6 223.503 105.724 222.971 105.745C220.756 105.836 216.909 105.864 213.661 105.23C209.088 104.34 205.705 102.265 203.175 103.665C202.995 103.764 202.825 103.878 202.664 104.005C202.664 104.005 199.272 114.592 201.579 118.395C203.885 122.199 207.963 128.576 206.06 130.208C205.741 130.488 205.384 130.721 204.998 130.899C203.29 131.669 201.172 131.002 198.051 127.766C194.252 123.827 193.841 117.178 193.841 117.178L194.791 100.074C194.791 100.074 191.128 87.1753 187.609 84.5972L189.161 79.03C190.23 79.7564 195.569 83.1685 202.169 83.6035C202.978 83.6543 203.752 83.954 204.384 84.4615C206.248 86.0439 207.829 87.9335 209.056 90.0487C212.041 94.9374 219.371 94.3946 219.371 94.3946C221.129 93.834 222.845 93.1512 224.507 92.3514C225.548 91.8405 226.466 91.2818 226.901 90.755C227.023 90.6174 227.112 90.4536 227.16 90.2761C227.16 90.2761 227.368 99.8062 231.845 97.4995Z" fill="black"/>
<path d="M231.574 97.6352L225.668 104.463C225.344 104.838 224.954 105.152 224.519 105.389C223.961 105.692 223.342 105.863 222.707 105.888C220.493 105.98 216.646 106.008 213.398 105.373C208.989 104.515 205.681 102.552 203.187 103.673C202.902 103.797 202.634 103.957 202.389 104.148C202.389 104.148 198.997 114.736 201.303 118.539C203.61 122.342 207.688 128.72 205.785 130.352C205.538 130.564 205.271 130.75 204.986 130.907C203.231 131.876 201.06 131.306 197.768 127.909C193.969 123.971 193.558 117.322 193.558 117.322L194.508 100.217C194.508 100.217 190.845 87.3189 187.325 84.7409L188.953 78.9023L189.149 79.038C190.218 79.7644 195.557 83.1765 202.157 83.6115C202.966 83.6623 203.74 83.962 204.372 84.4695C206.237 86.0519 207.817 87.9415 209.045 90.0566C212.029 94.9454 219.36 94.4026 219.36 94.4026C221.117 93.842 222.833 93.1592 224.495 92.3594C225.728 91.7288 226.734 91.0384 226.889 90.4078C226.889 90.4078 226.889 90.5316 226.889 90.7511C227.009 92.3993 227.608 99.6745 231.574 97.6352Z" fill="#CED2DF"/>
<path opacity="0.1" d="M187.445 72.3174H177.469C177.689 73.9037 177.751 75.5077 177.657 77.1063C179.18 78.1781 180.965 78.8149 182.823 78.9485C184.68 79.0821 186.539 78.7074 188.199 77.8646C187.241 76.0927 186.659 74.0813 187.445 72.3174Z" fill="black"/>
<path d="M183.523 78.7627C188.995 78.7627 193.431 74.3262 193.431 68.8535C193.431 63.3808 188.995 58.9443 183.523 58.9443C178.051 58.9443 173.615 63.3808 173.615 68.8535C173.615 74.3262 178.051 78.7627 183.523 78.7627Z" fill="#EC8C9C"/>
<path opacity="0.1" d="M181.464 67.0894C182.569 66.9577 183.674 66.5666 184.764 66.7861C185.753 66.9857 186.595 67.6681 187.585 67.8756C189.492 68.2747 191.264 66.8699 192.704 65.5609L195.817 62.7275C196.507 62.1009 197.217 61.4424 197.572 60.5804C197.928 59.7184 197.804 58.585 197.046 58.0423C195.908 57.2441 193.949 58.0423 193.127 56.9089C192.756 56.398 192.812 55.7116 192.62 55.101C192.221 53.8798 190.849 53.2134 189.564 53.1974C188.279 53.1815 187.05 53.6524 185.821 53.9956C183.232 54.7467 180.525 55.0053 177.84 54.7578C177.116 54.6252 176.371 54.651 175.658 54.8337C175.218 55.0212 174.829 55.3091 174.522 55.6744C174.214 56.0397 173.996 56.4721 173.886 56.9368C173.271 59.1078 174.321 62.6077 175.374 64.5513C176.428 66.4948 179.361 67.3488 181.464 67.0894Z" fill="black"/>
<path d="M181.464 66.8182C182.569 66.6865 183.674 66.2954 184.764 66.5149C185.753 66.7144 186.595 67.3969 187.585 67.6044C189.492 68.0035 191.264 66.5987 192.704 65.2897L195.817 62.4562C196.507 61.8297 197.217 61.1712 197.572 60.3092C197.928 59.4472 197.804 58.3138 197.046 57.771C195.908 56.9729 193.949 57.771 193.127 56.6376C192.756 56.1268 192.812 55.4404 192.62 54.8298C192.221 53.6086 190.849 52.9421 189.564 52.9262C188.279 52.9102 187.05 53.3811 185.821 53.7243C183.232 54.4755 180.525 54.734 177.84 54.4866C177.116 54.3539 176.371 54.3798 175.658 54.5624C175.218 54.7499 174.829 55.0379 174.522 55.4032C174.214 55.7684 173.996 56.2008 173.886 56.6656C173.271 58.8366 174.321 62.3365 175.374 64.28C176.428 66.2235 179.361 67.0576 181.464 66.8182Z" fill="#88455E"/>
<path opacity="0.1" d="M164.182 109.651C164.182 109.651 166.352 109.923 167.438 111.28C168.523 112.636 170.422 113.044 170.422 113.044" fill="black"/>
<path opacity="0.1" d="M144.633 91.7288C144.633 91.7288 146.405 95.6836 145.311 96.0827C144.218 96.4818 144.633 99.3392 144.633 99.3392" fill="black"/>
<g opacity="0.1">
<path opacity="0.1" d="M145.243 90.3718C145.243 90.3718 156.779 88.0651 157.178 88.0651C159.038 88.0651 162.031 85.4631 163.743 83.8189C164.263 83.3201 164.904 82.9641 165.602 82.7853H165.454C164.891 82.7676 164.329 82.8623 163.802 83.0637C163.276 83.2651 162.794 83.5693 162.386 83.9586C160.674 85.6028 157.677 88.2048 155.822 88.2048C155.499 88.2048 148.116 89.6694 145.12 90.2641L145.243 90.3718Z" fill="black"/>
<path opacity="0.1" d="M177.294 80.291V79.7842C174.519 81.1994 171.532 82.1549 168.451 82.6137C171.508 82.3416 174.498 81.5564 177.294 80.291Z" fill="black"/>
<path opacity="0.1" d="M163.028 132.726C163.028 132.726 161.4 127.43 162.629 124.717C163.858 122.003 165.343 109.512 165.343 109.512L162.366 100.281H156.648L156.301 100.417H160.989L163.962 109.651C163.962 109.651 162.47 122.143 161.249 124.856C160.027 127.57 161.648 132.866 161.648 132.866L172.37 132.467V132.383L163.028 132.726Z" fill="black"/>
</g>
<g opacity="0.1">
<path opacity="0.1" d="M205.92 128.181C205.674 128.393 205.407 128.579 205.122 128.735C203.366 129.705 201.196 129.135 197.904 125.738C194.887 122.614 194.009 117.757 193.774 115.917L193.694 117.322C193.694 117.322 194.093 123.974 197.904 127.909C201.196 131.318 203.366 131.876 205.122 130.906C205.407 130.75 205.674 130.564 205.92 130.352C206.491 129.861 206.523 128.939 206.223 127.79C206.149 127.939 206.046 128.072 205.92 128.181Z" fill="black"/>
<path opacity="0.1" d="M229.655 97.8386L225.812 102.28C225.487 102.655 225.098 102.969 224.663 103.206C224.105 103.509 223.485 103.68 222.851 103.705C220.636 103.797 216.79 103.825 213.542 103.19C209.132 102.332 205.824 100.369 203.33 101.49C203.045 101.614 202.777 101.774 202.532 101.965C202.532 101.965 200.342 108.805 200.677 113.463C200.936 109.109 202.532 104.136 202.532 104.136C202.777 103.945 203.045 103.785 203.33 103.661C205.828 102.54 209.132 104.503 213.542 105.361C216.79 105.992 220.632 105.964 222.851 105.876C223.485 105.851 224.105 105.68 224.663 105.377C225.097 105.143 225.486 104.834 225.812 104.463L231.722 97.6431C231.416 97.8335 231.07 97.9503 230.711 97.9842C230.352 98.0182 229.991 97.9683 229.655 97.8386Z" fill="black"/>
</g>
<path d="M56.1198 146.722C56.1671 146.768 56.228 146.797 56.2934 146.806C56.3588 146.815 56.4252 146.802 56.4829 146.77C56.3601 146.772 56.2377 146.756 56.1198 146.722Z" fill="url(#paint1_linear)"/>
<path d="M96.7851 80.6144C96.0668 80.4069 95.0413 80.0676 93.8083 79.6366C95.0896 77.988 96.0272 76.099 96.5656 74.0814L96.4618 74.1213C96.4978 73.9976 96.5337 73.8779 96.5656 73.7502C94.1993 74.712 91.5817 73.0837 89.9137 70.9925C88.2458 68.9014 87.1205 66.3073 85.293 64.3838C84.5313 63.6185 83.7123 62.9128 82.8429 62.2726C82.3042 61.8735 81.7256 61.4226 81.0672 61.4026C80.0018 61.3707 79.1678 62.4163 78.1423 62.7236C77.4675 62.8755 76.7649 62.8493 76.1033 62.6478C73.4577 62.0412 70.9159 60.9197 68.2144 60.6244C66.7691 60.4459 65.3021 60.6113 63.9328 61.1073C62.5761 61.6221 61.9576 62.6478 60.8603 63.4699C59.6632 64.3518 57.3248 64.3319 55.9322 64.4875C54.2423 64.6806 52.5407 64.7513 50.8406 64.699C49.8636 64.6143 48.8798 64.6505 47.9117 64.8068C45.8886 65.2498 44.2645 66.8581 42.7482 68.3985C42.3343 68.747 42.0365 69.2134 41.8943 69.7354C41.8748 69.8825 41.8748 70.0314 41.8943 70.1784C41.879 70.5808 41.9484 70.9818 42.0978 71.3557C42.5646 72.741 43.2241 74.0535 44.0571 75.2547C44.6755 76.1407 45.3978 76.9748 45.7489 78.0244C45.9154 78.5403 46.0028 79.0785 46.0083 79.6207C45.9911 80.1964 45.9311 80.7699 45.8288 81.3367C45.561 82.9036 45.1207 84.4361 44.5159 85.9062C44.1405 86.6608 43.8821 87.4683 43.7498 88.3007C43.7384 88.4708 43.7384 88.6414 43.7498 88.8115C43.65 91.4454 46.3076 93.3411 46.8223 95.959C46.8646 96.1762 46.89 96.3964 46.8982 96.6175C46.8423 98.2498 45.9125 99.8461 44.5399 100.481C44.6596 100.529 44.7833 100.568 44.907 100.608C44.7889 100.682 44.6663 100.749 44.5399 100.808C44.7913 100.904 45.0466 100.987 45.306 101.055C43.746 102.414 42.4348 104.035 41.4314 105.844C36.8146 114.44 5.54653 131.278 5.54653 131.278L6.00941 131.541L5.63432 131.785C2.92889 133.584 -3.4197 138.832 2.31837 145.469C2.31837 145.469 6.79949 138.397 9.93987 135.384C10.0795 135.249 10.2192 135.125 10.3389 135.009C10.4079 135.115 10.4541 135.235 10.4748 135.36C10.4954 135.485 10.4899 135.613 10.4586 135.735L31.0167 124.182C31.0167 124.182 38.323 119.066 40.362 117.912C41.7972 117.018 43.359 116.346 44.9948 115.917L44.7554 116.017C45.524 115.805 46.3165 115.693 47.1136 115.682C50.7528 115.737 54.6952 118.403 55.9921 128.959C57.7319 143.095 56.9258 145.645 56.3672 145.992C56.2983 145.987 56.2301 145.975 56.1637 145.956C56.1809 145.971 56.1996 145.984 56.2195 145.996C56.1438 145.99 56.0689 145.977 55.9961 145.956C56.0363 145.993 56.0852 146.019 56.1383 146.031C56.1914 146.044 56.2469 146.043 56.2993 146.028C56.3371 146.039 56.3768 146.043 56.416 146.038C56.4552 146.033 56.4929 146.02 56.5268 146C56.6185 146.005 56.7104 146.005 56.8021 146C56.8021 146.13 56.7928 146.263 56.7742 146.399C56.7463 146.399 56.6106 146.475 56.7742 146.483C56.7303 147.281 56.7343 148.147 56.7742 149.053C54.9666 149.153 53.159 149.26 51.5868 149.356L51.7264 148.61L51.7903 148.275C53.1789 148.163 54.4957 147.756 54.6513 146.63C54.9905 144.156 51.5948 142.835 48.7058 142.671C45.8168 142.508 28.4908 143.661 28.4908 143.661C28.4908 143.661 25.8931 147.025 34.1331 148.051C34.3779 148.179 34.6319 148.312 34.8953 148.45C38.1235 150.29 42.5008 153.678 44.5997 155.346L44.891 155.578L43.9493 156.344C49.0449 157.497 53.973 176.972 56.6904 185.876C59.4078 194.779 65.3534 194.456 70.2814 193.135C74.8982 191.898 75.4688 178.489 75.5446 176.805V176.633L83.7567 186.778L84.3792 187.548C84.6186 187.673 84.8554 187.79 85.0894 187.899C91.3064 190.857 98.1737 185.186 96.2224 178.72C94.2472 172.203 91.1827 162.566 89.1396 158.491C87.4278 155.079 85.2171 149.412 83.8764 145.864C84.0505 145.794 84.2198 145.713 84.3832 145.621C84.3832 145.621 84.3512 145.461 84.2994 145.17L84.3832 145.126C84.3832 145.126 82.388 134.861 82.3002 127.566C82.3002 127.439 82.3002 127.306 82.3002 127.167C82.3002 127.087 82.3002 127.008 82.3002 126.932C83.7846 126.592 84.7263 126.461 84.7263 126.461L84.7543 126.142L84.5827 126.177L85.4087 116.723C85.4087 116.723 88.4413 110.27 86.119 107.584C85.4129 106.799 84.9415 105.831 84.7583 104.791C84.3592 102.32 84.7583 98.1979 90.1651 94.7738C98.4889 89.4939 101.737 85.1958 101.737 85.1958C101.737 85.1958 101.881 82.1149 96.7851 80.6144ZM80.2532 87.1753V82.8053C81.7974 82.7295 83.3736 82.9091 84.9258 82.8053C85.6878 82.7521 86.4429 82.6251 87.1804 82.4262L87.5555 82.6856C85.2845 84.4326 82.8371 85.9374 80.2532 87.1753ZM56.6505 155.674C57.261 156.097 57.8755 156.536 58.478 156.979C58.8531 159.134 59.1843 160.654 59.2083 160.762C58.5196 158.988 57.6632 157.284 56.6505 155.674Z" fill="url(#paint2_linear)"/>
<path d="M69.8425 152.082L69.4834 154.033L69.208 155.526L68.7053 158.256L63.8291 161.668C63.8291 161.668 63.3902 161.293 62.6639 160.698C60.6688 159.054 56.467 155.717 53.3825 153.914C52.5898 153.407 51.732 153.011 50.8326 152.736L69.8425 152.082Z" fill="#FFBDC6"/>
<path opacity="0.1" d="M69.8425 152.082L69.4833 154.033C68.4085 154.093 67.3304 154.038 66.2671 153.87L54.8908 154.033C54.3521 154.001 53.8493 153.957 53.3784 153.91C52.5858 153.403 51.728 153.007 50.8286 152.732L69.8425 152.082Z" fill="black"/>
<path d="M66.2671 153.55C66.2671 153.55 71.9573 154.524 72.2805 152.086C72.6037 149.647 69.3556 148.362 66.5983 148.179C63.841 147.995 47.2533 149.161 47.2533 149.161C47.2533 149.161 44.3284 153.06 54.8908 153.71L66.2671 153.55Z" fill="#7679B4"/>
<path opacity="0.1" d="M69.8425 152.082L69.4834 154.033L69.208 155.526L68.7053 158.256L63.8291 161.668C63.8291 161.668 63.3902 161.293 62.6639 160.698C60.6688 159.054 56.467 155.717 53.3825 153.914C52.5898 153.407 51.732 153.011 50.8326 152.736L69.8425 152.082Z" fill="black"/>
<path opacity="0.1" d="M69.8425 152.082L69.4833 154.033C68.4085 154.093 67.3304 154.038 66.2671 153.87L54.8908 154.033C54.3521 154.001 53.8493 153.957 53.3784 153.91C52.5858 153.403 51.728 153.007 50.8286 152.732L69.8425 152.082Z" fill="black"/>
<path opacity="0.1" d="M66.2671 153.55C66.2671 153.55 71.9573 154.524 72.2805 152.086C72.6037 149.647 69.3556 148.362 66.5983 148.179C63.841 147.995 47.2533 149.161 47.2533 149.161C47.2533 149.161 44.3284 153.06 54.8908 153.71L66.2671 153.55Z" fill="black"/>
<path d="M78.697 73.4109H48.9572V108.682H78.697V73.4109Z" fill="#A66477"/>
<path opacity="0.1" d="M78.697 73.4109H48.9572V108.682H78.697V73.4109Z" fill="black"/>
<path d="M14.0977 133.796C13.6069 133.92 12.9844 134.391 12.2861 135.077C9.28143 138.046 4.99583 145.01 4.99583 145.01C-0.494847 138.473 5.5824 133.305 8.18808 131.529C8.81855 131.098 9.24152 130.867 9.24152 130.867L14.0977 133.796Z" fill="#FFBDC6"/>
<path d="M69.5193 84.5452C69.5193 84.5452 70.9837 94.7856 76.0195 97.224C81.0553 99.6623 69.5193 104.212 69.5193 104.212L53.7535 98.3613C53.7535 98.3613 62.6918 95.4361 60.9042 86.8199L69.5193 84.5452Z" fill="#FFBDC6"/>
<path d="M52.6323 146.147L52.2732 148.099L51.9978 149.592L51.4951 152.321L46.6189 155.733C46.6189 155.733 46.18 155.358 45.4537 154.764C43.4586 153.119 39.2568 149.783 36.1722 147.979C35.3796 147.473 34.5218 147.077 33.6224 146.802L52.6323 146.147Z" fill="#FFBDC6"/>
<path opacity="0.1" d="M52.6323 146.147L52.2731 148.099C51.1983 148.159 50.1201 148.104 49.0569 147.935L37.6805 148.099C37.1419 148.067 36.6391 148.023 36.1682 147.975C35.3756 147.469 34.5178 147.073 33.6184 146.798L52.6323 146.147Z" fill="black"/>
<path d="M49.041 147.612C49.041 147.612 54.7312 148.586 55.0544 146.147C55.3777 143.709 52.1295 142.408 49.3643 142.248C46.599 142.089 30.0232 143.222 30.0232 143.222C30.0232 143.222 27.0983 147.121 37.6607 147.772L49.041 147.612Z" fill="#7679B4"/>
<path opacity="0.1" d="M51.9818 149.595L51.4791 152.325L46.6029 155.737C46.6029 155.737 46.164 155.362 45.4377 154.768L51.8861 149.48L51.9818 149.595Z" fill="black"/>
<path d="M84.1557 186.806C83.9323 186.697 83.7062 186.581 83.4774 186.458L82.8828 185.7L75.0299 175.723V175.899C74.978 177.555 74.4114 190.765 69.9981 191.982C65.2855 193.283 59.5954 193.606 56.9977 184.83C54.4 176.054 49.6834 156.875 44.8073 155.737L52.0377 149.803C52.0377 149.803 56.8261 155.39 58.7813 160.77C58.7095 160.426 55.4015 144.978 58.1309 142.248H81.8573C81.8573 142.248 85.5124 152.68 88.0343 157.852C89.9896 161.867 92.9225 171.357 94.8179 177.778C96.6933 184.132 90.1412 189.719 84.1557 186.806Z" fill="#7679B4"/>
<path opacity="0.1" d="M83.4934 145.17C79.8342 147.337 63.7453 146.455 58.502 146.104L57.0775 146C56.9219 146 57.1014 145.912 57.1014 145.912L57.2491 144.435L61.1476 134.522L82.0329 122.422C81.6099 123.695 81.4663 125.647 81.5022 127.886C81.606 135.061 83.4934 145.17 83.4934 145.17Z" fill="black"/>
<path d="M83.4934 144.687C79.8342 146.854 63.7453 145.972 58.502 145.621L57.0775 145.517H56.842L57.1014 145.449L58.3863 145.11L61.1476 134.055L82.0329 121.947C81.6099 123.22 81.4663 125.172 81.5022 127.41C81.6059 134.574 83.4934 144.687 83.4934 144.687Z" fill="#F2F1F2"/>
<path opacity="0.1" d="M81.5021 127.394C77.2565 128.372 67.9111 131.25 64.3199 138.17C61.9257 142.791 59.9305 144.774 58.506 145.605L57.0814 145.501L57.1054 145.413L58.3902 145.074L61.1515 134.019L82.0368 121.911C81.6059 123.22 81.4662 125.156 81.5021 127.394Z" fill="black"/>
<path opacity="0.1" d="M9.22166 130.871L14.0978 133.796C13.607 133.92 12.9845 134.39 12.2862 135.077C11.8872 133.88 9.3254 132.235 8.16821 131.533C8.79868 131.102 9.22166 130.871 9.22166 130.871Z" fill="black"/>
<path opacity="0.1" d="M56.2235 145.705C56.1692 145.735 56.1065 145.747 56.0447 145.739C55.983 145.731 55.9254 145.704 55.8804 145.661C55.992 145.692 56.1076 145.707 56.2235 145.705Z" fill="black"/>
<path d="M67.2408 96.5736C67.2408 96.5736 62.8515 97.0605 59.763 93.8119C59.763 93.8119 46.7625 97.5513 42.3732 106.004C37.9839 114.456 8.08044 131.034 8.08044 131.034C8.08044 131.034 13.2679 133.959 12.793 135.424L32.4573 124.046C32.4573 124.046 39.4443 119.006 41.3956 117.869C43.3468 116.731 54.0728 109.743 56.3473 128.759C58.6218 147.776 56.3473 145.521 56.3473 145.521C56.3473 145.521 59.5994 146.658 64.3279 137.539C69.0564 128.42 83.669 126.325 83.669 126.325L84.467 116.747C84.467 116.747 87.368 110.394 85.1454 107.744C84.4676 106.964 84.0175 106.013 83.8445 104.994C83.4734 102.56 83.8445 98.5011 89.032 95.1289C97.0126 89.9408 100.085 85.7026 100.085 85.7026C100.085 85.7026 100.249 82.6137 95.3726 81.1531C90.4964 79.6925 70.6685 71.7268 70.6685 71.7268L70.0181 74.4885L85.6202 85.543C85.6202 85.543 77.8192 91.8804 71.6541 91.7208C71.6302 91.6928 72.7674 96.41 67.2408 96.5736Z" fill="#565388"/>
<path opacity="0.1" d="M70.2535 89.003C69.8692 87.6933 69.5693 86.3603 69.3557 85.0122L60.7406 87.3029C61.1177 88.9471 61.0502 90.662 60.545 92.2715C62.3057 92.7413 64.1658 92.6814 65.8926 92.0993C67.6195 91.5172 69.1363 90.4388 70.2535 88.999V89.003Z" fill="black"/>
<path d="M63.0988 92.1039C68.216 92.1039 72.3643 87.955 72.3643 82.8372C72.3643 77.7194 68.216 73.5706 63.0988 73.5706C57.9816 73.5706 53.8333 77.7194 53.8333 82.8372C53.8333 87.955 57.9816 92.1039 63.0988 92.1039Z" fill="#FFBDC6"/>
<path opacity="0.1" d="M68.0229 61.7616C70.5927 62.053 73.0388 63.1584 75.5686 63.757C76.2008 63.9553 76.8743 63.9815 77.5199 63.8329C78.5015 63.5296 79.2996 62.4999 80.3131 62.5319C80.9396 62.5319 81.5102 62.9788 82.013 63.3899C82.8459 64.0219 83.629 64.717 84.3553 65.4691C86.0991 67.3647 87.1844 69.9188 88.7766 71.9781C90.3687 74.0374 92.8786 75.6417 95.1411 74.6958C93.6048 80.6821 88.5611 85.2595 83.1103 85.6307C80.9356 85.7783 78.721 85.3274 76.6021 85.9659C76.077 86.18 75.5229 86.3145 74.9581 86.365C73.761 86.365 72.7714 85.2515 72.0133 84.17C70.2416 81.6239 68.821 78.7345 66.8258 76.4159C66.1674 75.6496 65.3893 74.9193 64.4596 74.7796C63.5299 74.64 62.6719 75.0829 61.8419 75.514C60.4733 76.2243 59.0727 76.9586 58.0112 78.1718C56.9498 79.385 56.2794 81.2009 56.7184 82.8451C56.9538 83.731 57.4965 84.5292 57.5164 85.4591C57.5164 86.9357 56.2316 88.0172 55.9722 89.4499C55.915 90.0547 55.8937 90.6623 55.9083 91.2697C55.7926 93.2411 54.5078 94.8614 53.159 96.0946C52.6363 96.5774 52.0537 97.0923 51.9021 97.8385C51.7983 98.3454 51.9021 98.8841 51.8342 99.3989C51.6387 100.68 50.3618 101.327 49.2326 101.494C47.9137 101.687 46.5671 101.528 45.33 101.031C46.9262 100.285 47.8798 98.1578 47.5127 96.2422C47.0099 93.6043 44.3604 91.7126 44.5838 89.0228C44.7088 88.1991 44.9563 87.3988 45.3181 86.6483C45.8963 85.1972 46.3164 83.6879 46.571 82.1467C46.8321 80.9605 46.8061 79.7291 46.4952 78.5549C46.156 77.5213 45.4657 76.6992 44.8751 75.8252C44.0753 74.6371 43.4442 73.3437 42.9997 71.9821C42.8386 71.5797 42.777 71.1443 42.8201 70.713C42.9488 70.2042 43.2267 69.7456 43.6182 69.396C45.0707 67.8755 46.6269 66.2912 48.5582 65.8522C49.481 65.6985 50.4195 65.6623 51.3514 65.7445C52.9784 65.7962 54.6069 65.7269 56.2236 65.5369C57.5563 65.3813 59.8149 65.4012 60.9401 64.5312C61.9896 63.7331 62.5841 62.7154 63.881 62.2046C65.2046 61.72 66.6269 61.5679 68.0229 61.7616Z" fill="black"/>
<path opacity="0.1" d="M73.1743 157.445C73.1743 157.445 78.5373 168.009 76.9132 171.261L73.1743 157.445Z" fill="black"/>
<path opacity="0.1" d="M82.8988 185.7L75.0459 175.723V175.899C75.0459 175.899 74.591 172.674 76.0873 173.76C79.3634 176.13 84.6067 180.018 84.7184 180.688C84.8301 181.358 83.657 184.048 82.8988 185.7Z" fill="black"/>
<g opacity="0.1">
<path opacity="0.1" d="M71.7858 91.6927C71.7858 91.6927 72.4482 94.4384 70.3054 95.8113C73.6054 95.2446 73.7491 92.6785 73.6493 91.561C73.0334 91.6608 72.4097 91.7048 71.7858 91.6927Z" fill="black"/>
<path opacity="0.1" d="M10.0357 130.383C10.0357 130.383 39.9391 113.806 44.3284 105.353C47.4768 99.2871 55.0624 95.6515 59.0926 94.0791C56.1517 95.0648 46.2557 98.8441 42.5368 106.004C38.1474 114.456 8.24402 131.034 8.24402 131.034L10.0357 130.383Z" fill="black"/>
<path opacity="0.1" d="M77.6036 90.4037C82.6912 88.8073 87.5554 84.8684 87.5554 84.8684L71.9533 73.8139L72.3084 72.2974L70.8161 71.6987L70.1656 74.4604L85.7678 85.5149C83.2641 87.4833 80.5208 89.126 77.6036 90.4037Z" fill="black"/>
<path opacity="0.1" d="M77.7034 127.861C79.6969 127.181 81.7428 126.664 83.8205 126.317L83.8485 126.002C81.7551 126.462 79.7005 127.083 77.7034 127.861Z" fill="black"/>
<path opacity="0.1" d="M58.7933 144.89H58.6497C58.5953 144.92 58.5326 144.933 58.4709 144.925C58.4091 144.917 58.3515 144.889 58.3065 144.846C58.4182 144.877 58.5338 144.892 58.6497 144.89C59.1844 144.579 59.9864 142.152 58.3065 128.105C56.5109 113.107 49.464 114.285 45.6053 116.009C49.5478 114.923 54.9746 115.861 56.5188 128.755C58.1988 142.803 57.3967 145.233 56.862 145.541C57.5551 145.515 58.2259 145.289 58.7933 144.89Z" fill="black"/>
<path opacity="0.1" d="M56.862 145.545C56.7461 145.547 56.6305 145.532 56.5188 145.501C56.5638 145.544 56.6214 145.571 56.6832 145.579C56.7449 145.587 56.8076 145.575 56.862 145.545Z" fill="black"/>
</g>
<path d="M68.0229 61.4464C70.5927 61.7378 73.0388 62.8432 75.5686 63.4418C76.2008 63.6401 76.8743 63.6663 77.5199 63.5177C78.5015 63.2144 79.2996 62.1847 80.3131 62.2167C80.9396 62.2167 81.5102 62.6636 82.013 63.0747C82.8459 63.7067 83.629 64.4018 84.3553 65.1539C86.0991 67.0495 87.1844 69.6037 88.7766 71.6629C90.3687 73.7222 92.8786 75.3265 95.1411 74.3807C93.6048 80.3669 88.5611 84.9443 83.1103 85.3155C80.9356 85.4631 78.721 85.0122 76.6021 85.6507C76.077 85.8648 75.5229 85.9993 74.9581 86.0498C73.761 86.0498 72.7714 84.9363 72.0133 83.8548C70.2416 81.3087 68.821 78.4193 66.8258 76.1007C66.1674 75.3345 65.3893 74.6041 64.4596 74.4645C63.5299 74.3248 62.6719 74.7678 61.8419 75.1988C60.4733 75.9091 59.0727 76.6434 58.0112 77.8566C56.9498 79.0698 56.2794 80.8857 56.7184 82.5299C56.9538 83.4158 57.4965 84.214 57.5164 85.1439C57.5164 86.6205 56.2316 87.702 55.9722 89.1347C55.915 89.7395 55.8937 90.3471 55.9083 90.9545C55.7926 92.9259 54.5078 94.5462 53.159 95.7794C52.6363 96.2623 52.0537 96.7771 51.9021 97.5233C51.7983 98.0302 51.9021 98.5689 51.8342 99.0838C51.6387 100.365 50.3618 101.011 49.2326 101.179C47.9137 101.372 46.5671 101.213 45.33 100.716C46.9262 99.9697 47.8798 97.8426 47.5127 95.927C47.0099 93.2891 44.3604 91.3975 44.5838 88.7077C44.7088 87.8839 44.9563 87.0836 45.3181 86.3331C45.8963 84.882 46.3164 83.3727 46.571 81.8315C46.8321 80.6453 46.8061 79.4139 46.4952 78.2398C46.156 77.2061 45.4657 76.384 44.8751 75.5101C44.0753 74.3219 43.4442 73.0285 42.9997 71.6669C42.8386 71.2645 42.777 70.8291 42.8201 70.3978C42.9488 69.889 43.2267 69.4304 43.6182 69.0809C45.0707 67.5604 46.6269 65.976 48.5582 65.537C49.481 65.3833 50.4195 65.3471 51.3514 65.4293C52.9784 65.481 54.6069 65.4117 56.2236 65.2218C57.5563 65.0661 59.8149 65.0861 60.9401 64.2161C61.9896 63.4179 62.5841 62.4002 63.881 61.8894C65.2046 61.4048 66.6269 61.2527 68.0229 61.4464Z" fill="#A66477"/>
<path d="M332.593 40.6463C332.593 40.5945 332.593 40.5466 332.593 40.4987C332.593 40.4508 332.593 40.3949 332.569 40.347H332.505C332.505 40.2393 332.505 40.1315 332.505 40.0158C332.345 36.3163 327.23 28.4425 325.179 30.7412C323.383 32.7605 326.092 37.8687 327.473 40.1674L327.597 40.375L327.529 40.3311C327.529 40.3311 321.819 57.3639 321.144 58.0263C320.47 58.6888 315.769 72.082 309.573 73.5905C308.347 73.8818 307.33 74.1452 306.476 74.3886L306.544 74.1612C306.943 72.8562 307.434 71.623 307.633 70.1704C307.833 68.7177 307.633 66.9578 306.899 66.2514C306.54 65.9002 306.101 65.8523 305.806 65.2936C305.614 64.8036 305.511 64.2832 305.502 63.7571L304.976 57.3L305.343 57.1883C307.561 56.4779 309.712 54.7938 309.964 52.527C309.886 52.5563 309.808 52.5816 309.728 52.6028C309.757 52.471 309.78 52.3378 309.796 52.2037C307.932 52.938 306.205 51.0065 304.409 50.1405C301.452 48.6918 298.072 50.0567 295.02 50.3879C291.56 50.767 288.276 49.3303 284.741 49.5898C282.817 49.7374 280.679 51.0424 280.782 52.938C280.842 53.9796 281.58 54.8616 281.884 55.8593C282.65 58.2737 280.946 60.6962 279.454 62.7554C278.472 64.1083 277.53 65.7565 277.363 67.3449C273.927 63.7531 270.212 59.6027 269.781 58.0423L259.841 41.0095C259.841 41.0095 259.606 41.2609 259.227 41.6321C259.167 41.4485 259.095 41.233 259.015 41.0175C257.746 37.4617 254.155 28.8455 249.602 30.4259C245.049 32.0062 251.489 40.8379 254.291 44.3578L254.69 44.8447C254.455 44.9024 254.208 44.8913 253.979 44.8128L265.065 63.829C265.065 63.829 267.08 67.4686 268.927 68.4583C268.927 68.4583 282.698 85.8223 282.865 89.2943C283.033 92.7663 289.058 102.029 289.058 102.029C289.058 102.029 291.073 117.078 287.546 119.724H287.59H287.618H287.662H287.702H287.781H287.833H287.885H287.953H288.009H288.089H288.129C287.961 119.888 287.789 120.067 287.614 120.263C285 123.16 281.66 129.37 286.225 139.93C292.941 155.494 293.95 161.592 293.95 161.592C293.95 161.592 281.181 162.254 278.668 162.749C276.441 163.188 267.786 163.495 265.807 163.547C265.1 162.725 263.014 160.905 260.196 163.547C256.669 166.856 254.151 177.914 254.151 177.914C254.151 177.914 252.806 186.846 257.343 184.527C257.343 184.527 262.718 177.084 264.227 176.753C264.977 176.589 265.771 175.484 266.377 174.418L266.409 174.438C266.445 174.438 266.593 174.358 266.832 174.263C267.95 173.82 271.026 172.754 273.452 173.285C274.781 173.576 280.479 173.644 286.453 173.628C285.104 176.861 282.686 185.201 282.686 185.201C282.686 185.201 281.676 192.98 285.028 192.66C287.422 192.425 291.093 186.307 293.009 182.815C294.397 181.797 298.376 178.15 301.317 178.425L321.132 170.819C321.132 170.819 325.833 168.173 323.315 159.409C321.32 152.441 315.642 138.178 313.399 132.619L313.331 132.475C312.789 131.13 312.462 130.332 312.462 130.332C311.54 127.794 310.936 125.152 310.662 122.466C310.642 122.254 310.626 122.039 310.61 121.827C310.888 121.711 311.149 121.559 311.388 121.376C311.388 121.376 309.541 102.691 311.388 100.704L311.42 100.668V100.644L311.452 100.604L311.524 100.512L311.612 100.401C311.711 100.269 311.831 100.105 311.967 99.9059C313.024 98.3574 314.995 94.8216 314.429 90.6472C314.405 90.4663 314.376 90.284 314.341 90.1005C314.124 88.9684 313.736 87.8758 313.192 86.8599C313.112 86.437 313.063 86.0089 313.044 85.5789C313.044 85.3354 313.044 85.068 313.044 84.7807V84.7328C313.044 84.6557 313.044 84.5785 313.044 84.5014V84.4455C313.044 84.2579 313.076 84.0464 313.104 83.8708V83.799C313.104 83.7271 313.116 83.654 313.14 83.5795V83.4877C313.14 83.4159 313.172 83.344 313.188 83.2722V83.1964C313.212 83.1006 313.236 83.0048 313.268 82.909V82.8611C313.291 82.7813 313.318 82.7028 313.347 82.6257L313.383 82.5339L313.463 82.3423L313.503 82.2465C313.535 82.1747 313.571 82.1029 313.607 82.031L313.635 81.9712C313.683 81.8834 313.733 81.7969 313.786 81.7118L313.83 81.6439L313.962 81.4564L314.026 81.3726L314.165 81.2049L314.229 81.1331C314.301 81.0573 314.373 80.9815 314.453 80.9096C316.635 78.9142 326.376 64.2081 326.376 64.2081C326.376 64.2081 328.726 60.8997 328.726 58.7526C328.858 58.7048 333.012 44.8566 332.593 40.6463ZM306.444 164.262C306.205 161.995 305.965 159.185 305.746 156.28L309.545 162.202C309.545 162.202 309.185 164.006 306.444 164.262Z" fill="url(#paint3_linear)"/>
<path d="M266.836 163.009C266.836 163.009 264.562 159.417 261.146 162.685C257.73 165.954 255.296 176.825 255.296 176.825C255.296 176.825 253.995 185.605 258.385 183.326C258.385 183.326 263.572 176.011 265.049 175.687C266.525 175.364 268.137 171.297 268.137 171.297L266.836 163.009Z" fill="#493545"/>
<path d="M291.213 171.784C291.213 171.784 288.125 170.32 287.151 171.461C286.177 172.602 282.925 183.976 282.925 183.976C282.925 183.976 281.952 191.455 285.2 191.128C288.448 190.801 294.138 179.091 294.138 179.091L291.213 171.784Z" fill="#493545"/>
<path opacity="0.05" d="M291.213 171.784C291.213 171.784 288.125 170.32 287.151 171.461C286.177 172.602 282.925 183.976 282.925 183.976C282.925 183.976 281.952 191.455 285.2 191.128C288.448 190.801 294.138 179.091 294.138 179.091L291.213 171.784Z" fill="black"/>
<path d="M301.939 149.679L308.926 160.57C308.926 160.57 308.439 163.009 304.214 162.522L289.749 171.625C289.749 171.625 288.492 182.707 292.51 181.702C293.16 181.538 297.697 176.825 300.961 177.152L320.143 169.673C320.143 169.673 324.692 167.071 322.254 158.459C319.816 149.847 311.755 129.877 311.755 129.877L299.014 137.005L301.939 149.679Z" fill="#3E3D77"/>
<path opacity="0.05" d="M301.939 149.679L308.926 160.57C308.926 160.57 308.439 163.009 304.214 162.522L289.749 171.625C289.749 171.625 288.492 182.707 292.51 181.702C293.16 181.538 297.697 176.825 300.961 177.152L320.143 169.673C320.143 169.673 324.692 167.071 322.254 158.459C319.816 149.847 311.755 129.877 311.755 129.877L299.014 137.005L301.939 149.679Z" fill="black"/>
<path d="M306.328 165.77C307.302 171.948 301.78 172.435 301.78 172.435C301.78 172.435 276.912 172.922 273.987 172.271C271.062 171.621 267.16 173.409 267.16 173.409C262.12 170.32 266.186 162.681 266.186 162.681C266.186 162.681 276.589 162.358 279.027 161.883C281.465 161.408 293.815 160.734 293.815 160.734C293.815 160.734 292.841 154.72 286.337 139.443C281.92 129.067 285.14 122.961 287.682 120.115C288.33 119.36 289.081 118.699 289.912 118.152L309.904 119.126C309.882 120.134 309.92 121.143 310.016 122.147C310.357 125.594 311.253 128.963 312.669 132.124C311.532 132.124 304.218 138.952 304.218 138.952C304.218 138.952 305.351 159.596 306.328 165.77Z" fill="#3E3D77"/>
<path opacity="0.1" d="M267.646 163.332C267.646 163.332 278.049 163.009 280.487 162.534C282.925 162.059 295.275 161.396 295.275 161.396C295.275 161.396 294.302 155.382 287.798 140.105C283.38 129.729 286.6 123.623 289.142 120.778C289.791 120.023 290.542 119.362 291.373 118.814L309.896 119.716C309.896 119.525 309.896 119.317 309.896 119.138L289.904 118.164C289.073 118.711 288.322 119.372 287.674 120.127C285.144 122.977 281.912 129.079 286.329 139.455C292.849 154.72 293.815 160.734 293.815 160.734C293.815 160.734 281.445 161.384 279.027 161.871C276.609 162.358 266.186 162.669 266.186 162.669C266.186 162.669 262.124 170.312 267.16 173.413C267.16 173.413 267.311 173.341 267.559 173.237C264.211 169.793 267.646 163.332 267.646 163.332Z" fill="black"/>
<path d="M297.386 58.4932H287.311V84.0104H297.386V58.4932Z" fill="#493545"/>
<path opacity="0.1" d="M297.386 58.4932H287.311V84.0104H297.386V58.4932Z" fill="black"/>
<path d="M303.148 54.7499C303.495 54.8456 303.886 54.8576 304.122 55.3365C304.268 55.7192 304.348 56.1242 304.357 56.5337L304.992 64.4196C305.001 64.9359 305.101 65.4466 305.287 65.9281C305.554 66.4629 305.997 66.5267 306.344 66.8699C307.043 67.5643 307.246 69.3044 307.055 70.7211C306.863 72.1378 306.38 73.351 306.001 74.6321C305.459 76.4679 305.1 78.5311 304.337 80.0795C303.575 81.628 302.191 82.474 301.297 81.173C300.403 79.872 300.523 77.2461 300.355 75.095C300.076 71.5033 298.675 68.4064 298.579 64.7907C298.5 61.8655 299.286 59.1358 299.776 56.3621C300.128 54.4585 300.148 52.1478 300.658 50.4358C301.085 52.4711 301.899 54.4066 303.148 54.7499Z" fill="#493545"/>
<path opacity="0.1" d="M303.148 54.7499C303.495 54.8456 303.886 54.8576 304.122 55.3365C304.268 55.7192 304.348 56.1242 304.357 56.5337L304.992 64.4196C305.001 64.9359 305.101 65.4466 305.287 65.9281C305.554 66.4629 305.997 66.5267 306.344 66.8699C307.043 67.5643 307.246 69.3044 307.055 70.7211C306.863 72.1378 306.38 73.351 306.001 74.6321C305.459 76.4679 305.1 78.5311 304.337 80.0795C303.575 81.628 302.191 82.474 301.297 81.173C300.403 79.872 300.523 77.2461 300.355 75.095C300.076 71.5033 298.675 68.4064 298.579 64.7907C298.5 61.8655 299.286 59.1358 299.776 56.3621C300.128 54.4585 300.148 52.1478 300.658 50.4358C301.085 52.4711 301.899 54.4066 303.148 54.7499Z" fill="black"/>
<path d="M260.496 43.5398L256.597 46.7923C256.597 46.7923 256.134 46.2495 255.444 45.3715C252.734 41.9115 246.506 33.2315 250.907 31.6791C255.308 30.1266 258.788 38.5912 260.017 42.0871C260.328 42.9731 260.496 43.5398 260.496 43.5398Z" fill="#C77485"/>
<path d="M330.869 42.4023C329.245 44.8407 326.97 42.4023 326.97 42.4023C326.97 42.4023 326.679 41.9673 326.268 41.265C324.931 39.0022 322.31 33.9857 324.045 31.9983C326.041 29.7275 330.985 37.4777 331.136 41.1133C331.183 41.5603 331.09 42.0109 330.869 42.4023Z" fill="#C77485"/>
<path d="M290.886 68.7336C290.886 68.7336 294.138 79.1377 293.16 82.2226C292.183 85.3075 300.151 88.8992 300.151 88.8992H309.253C309.253 88.8992 312.506 82.2345 311.691 80.283C310.877 78.3315 303.89 76.8709 303.89 76.8709C303.89 76.8709 299.828 76.8709 299.992 65.98L290.886 68.7336Z" fill="#C77485"/>
<path opacity="0.1" d="M260.496 43.5398L256.597 46.7923C256.597 46.7923 256.134 46.2496 255.444 45.3716C256.861 45.1202 259.059 43.0529 260.021 42.0872C260.328 42.9731 260.496 43.5398 260.496 43.5398Z" fill="black"/>
<path opacity="0.1" d="M330.869 42.4023C329.245 44.8407 326.97 42.4023 326.97 42.4023C326.97 42.4023 326.679 41.9673 326.268 41.2649L326.32 41.1013C327.373 41.8556 330.649 41.2131 331.136 41.1013C331.186 41.5523 331.092 42.0074 330.869 42.4023Z" fill="black"/>
<path opacity="0.1" d="M310.008 122.143C304.98 124.437 288.643 120.351 287.662 120.107C288.31 119.352 289.061 118.691 289.892 118.144L309.884 119.118C309.866 120.127 309.907 121.138 310.008 122.143Z" fill="black"/>
<path d="M293.001 77.6732C293.001 77.6732 289.102 78.9742 283.576 73.9338C283.576 73.9338 271.206 61.7419 270.408 58.8167L260.831 42.0553C260.831 42.0553 256.769 46.4451 255.141 45.7946L265.867 64.4876C265.867 64.4876 267.818 68.0793 269.606 69.0371C269.606 69.0371 282.933 86.1058 283.093 89.5179C283.252 92.9301 289.098 102.069 289.098 102.069C289.098 102.069 291.049 116.859 287.634 119.461C287.634 119.461 306.648 124.338 310.71 121.085C310.71 121.085 308.922 102.728 310.71 100.768C310.71 100.768 316.236 94.267 312.497 87.1155C312.497 87.1155 311.699 83.2165 313.798 81.265C315.897 79.3134 325.338 64.8468 325.338 64.8468C325.338 64.8468 327.613 61.5943 327.613 59.4831C327.613 59.4831 331.838 45.1801 331.204 41.4407C331.204 41.4407 327.465 42.2388 326.328 41.4407C326.328 41.4407 320.801 58.2021 320.151 58.8326C319.5 59.4632 314.963 72.6488 308.938 74.1134C302.913 75.5781 301.951 76.2246 301.951 76.2246C301.951 76.2246 313.651 83.5397 307.964 86.7882C302.278 90.0368 293.001 77.6732 293.001 77.6732Z" fill="#FFAAC4"/>
<path opacity="0.1" d="M300.387 71.236C300.194 69.7049 300.115 68.1615 300.151 66.6187L291.05 69.3803C291.289 69.9867 291.48 70.6112 291.62 71.248C292.662 71.7069 294.066 72.7924 295.275 72.7924C297.104 72.8522 298.902 72.3049 300.387 71.236Z" fill="black"/>
<path d="M295.112 72.3094C299.779 72.3094 303.563 68.525 303.563 63.8568C303.563 59.1886 299.779 55.4043 295.112 55.4043C290.444 55.4043 286.66 59.1886 286.66 63.8568C286.66 68.525 290.444 72.3094 295.112 72.3094Z" fill="#C77485"/>
<path opacity="0.1" d="M285.056 50.835C283.197 50.9786 281.122 52.2637 281.225 54.1274C281.281 55.153 281.984 56.019 282.291 57.0008C283.029 59.3753 281.385 61.7578 279.941 63.7851C278.496 65.8125 277.147 68.4983 278.384 70.6453C278.737 71.1623 279.118 71.6592 279.526 72.1339C281.054 74.1971 281.034 76.9827 281.712 79.461C282.579 82.6316 284.626 85.3499 287.435 87.057C290.243 88.7642 293.599 89.3307 296.812 88.6399C295.602 87.0957 294.999 85.1625 295.116 83.2044C295.208 81.7837 295.666 80.2991 295.116 78.9861C294.405 77.298 292.323 76.6315 291.249 75.1549C290.176 73.6783 290.248 71.6311 290.766 69.8711C291.285 68.1112 292.183 66.4789 292.614 64.6831C292.72 64.1591 292.853 63.6409 293.013 63.1306C293.763 60.9995 296.006 59.7624 298.2 59.2316C300.395 58.7008 302.701 58.6689 304.844 57.9705C306.987 57.2721 309.07 55.6359 309.317 53.3891C307.514 54.1114 305.842 52.2278 304.102 51.3617C301.237 49.941 297.969 51.2779 295.016 51.6052C291.652 51.9803 288.46 50.5875 285.056 50.835Z" fill="black"/>
<path d="M284.892 50.5117C283.033 50.6554 280.958 51.9404 281.062 53.8041C281.118 54.8298 281.82 55.6958 282.127 56.6775C282.865 59.052 281.221 61.4346 279.777 63.4619C278.332 65.4892 276.984 68.175 278.221 70.3221C278.573 70.839 278.954 71.336 279.362 71.8107C280.89 73.8739 280.87 76.6595 281.548 79.1378C282.415 82.3084 284.463 85.0266 287.271 86.7338C290.079 88.441 293.435 89.0074 296.648 88.3166C295.438 86.7725 294.835 84.8393 294.952 82.8812C295.044 81.4604 295.503 79.9759 294.952 78.6629C294.242 76.9748 292.159 76.3083 291.085 74.8317C290.012 73.3551 290.084 71.3078 290.602 69.5479C291.121 67.7879 292.019 66.1557 292.45 64.3598C292.556 63.8359 292.69 63.3177 292.849 62.8074C293.599 60.6763 295.842 59.4392 298.036 58.9084C300.231 58.3776 302.538 58.3457 304.68 57.6473C306.823 56.9489 308.906 55.3127 309.153 53.0658C307.35 53.7882 305.678 51.9045 303.938 51.0385C301.073 49.6178 297.805 50.9547 294.852 51.2819C291.496 51.6531 288.316 50.2443 284.892 50.5117Z" fill="#493545"/>
<path opacity="0.1" d="M303.483 82.6338C303.483 82.6338 306.867 85.6548 307.533 86.9878L303.483 82.6338Z" fill="black"/>
<path opacity="0.1" d="M310.806 100.676C310.806 100.676 306.58 100.676 304.629 101.163C302.677 101.65 297.965 101.163 297.965 101.163" fill="black"/>
<g opacity="0.1">
<path opacity="0.1" d="M307.953 86.7761C307.588 86.9846 307.194 87.1354 306.783 87.223C307.843 87.4581 308.953 87.2992 309.904 86.7761C315.594 83.5236 303.89 76.2124 303.89 76.2124H301.939C301.939 76.2124 313.643 83.5276 307.953 86.7761Z" fill="black"/>
<path opacity="0.1" d="M331.232 41.7238C331.232 41.62 331.208 41.5203 331.192 41.4285C330.524 41.567 329.848 41.6696 329.169 41.7358C329.855 41.8112 330.547 41.8072 331.232 41.7238Z" fill="black"/>
<path opacity="0.1" d="M289.589 119.449C293.001 116.847 291.054 102.057 291.054 102.057C291.054 102.057 285.204 92.9538 285.04 89.5416C284.877 86.1295 271.553 69.0608 271.553 69.0608C269.765 68.0871 267.814 64.5113 267.814 64.5113C267.814 64.5113 256.761 46.4689 255.137 45.8184L265.863 64.5113C265.863 64.5113 267.814 68.103 269.602 69.0608C269.602 69.0608 282.929 86.1295 283.089 89.5416C283.248 92.9538 289.098 102.069 289.098 102.069C289.098 102.069 291.05 116.859 287.634 119.461C287.634 119.461 299.321 122.458 306.328 122.186C299.306 121.939 289.589 119.449 289.589 119.449Z" fill="black"/>
<path opacity="0.1" d="M293.097 77.8007L293.001 77.677C292.89 77.7099 292.776 77.7352 292.662 77.7528C292.813 77.7728 292.957 77.7887 293.097 77.8007Z" fill="black"/>
</g>
<g opacity="0.1">
<path opacity="0.1" d="M331.192 41.4087L331.092 41.4286C330.921 46.4211 327.457 58.1501 327.457 58.1501C327.457 60.2613 325.183 63.5138 325.183 63.5138C325.183 63.5138 315.757 77.9805 313.643 79.932C311.528 81.8835 312.342 85.7825 312.342 85.7825L312.362 85.8224C312.298 84.5094 312.457 82.4741 313.802 81.229C315.913 79.2775 325.342 64.8108 325.342 64.8108C325.342 64.8108 327.617 61.5583 327.617 59.4471C327.617 59.4711 331.842 45.168 331.192 41.4087Z" fill="black"/>
<path opacity="0.1" d="M310.554 99.455C310.798 100.836 310.634 99.3751 310.718 100.756C310.718 100.756 314.708 96.0748 313.619 90.2881C313.946 95.4602 310.554 99.455 310.554 99.455Z" fill="black"/>
</g>
<path opacity="0.1" d="M187.461 264C281.71 264 358.115 256.66 358.115 247.606C358.115 238.551 281.71 231.211 187.461 231.211C93.2115 231.211 16.8073 238.551 16.8073 247.606C16.8073 256.66 93.2115 264 187.461 264Z" fill="#198262"/>
<path d="M121.31 230.972C121.31 230.972 115.5 211.238 122.399 196.715C125.333 190.641 126.218 183.78 124.921 177.16C124.28 174.022 123.353 170.95 122.152 167.981" stroke="#535461" stroke-width="2" stroke-miterlimit="10"/>
<path d="M126.453 158.81C126.453 161.229 122.064 168.241 122.064 168.241C122.064 168.241 117.674 161.229 117.674 158.81C117.63 158.208 117.71 157.603 117.91 157.034C118.109 156.464 118.425 155.941 118.835 155.499C119.246 155.057 119.744 154.704 120.297 154.462C120.851 154.221 121.448 154.096 122.052 154.096C122.655 154.096 123.253 154.221 123.806 154.462C124.359 154.704 124.857 155.057 125.268 155.499C125.679 155.941 125.994 156.464 126.194 157.034C126.394 157.603 126.474 158.208 126.429 158.81H126.453Z" fill="#198262"/>
<path d="M133.679 172.204C132.367 174.235 124.881 177.739 124.881 177.739C124.881 177.739 125.017 169.474 126.329 167.442C126.621 166.915 127.017 166.453 127.494 166.086C127.972 165.718 128.52 165.453 129.104 165.307C129.688 165.16 130.296 165.135 130.89 165.234C131.485 165.333 132.052 165.553 132.558 165.88C133.063 166.208 133.496 166.636 133.829 167.138C134.162 167.64 134.388 168.205 134.494 168.798C134.599 169.391 134.581 169.999 134.441 170.585C134.301 171.171 134.042 171.722 133.679 172.204Z" fill="#198262"/>
<path d="M133.364 195.099C131.206 196.188 122.99 195.434 122.99 195.434C122.99 195.434 127.279 188.366 129.438 187.277C129.955 186.966 130.531 186.765 131.13 186.687C131.728 186.609 132.337 186.655 132.917 186.823C133.496 186.991 134.035 187.276 134.5 187.662C134.965 188.047 135.345 188.524 135.616 189.063C135.888 189.602 136.046 190.192 136.08 190.795C136.114 191.397 136.023 192 135.813 192.567C135.603 193.133 135.279 193.649 134.86 194.084C134.442 194.519 133.938 194.863 133.38 195.095L133.364 195.099Z" fill="#198262"/>
<path d="M129.226 212.363C127.283 213.8 119.039 214.45 119.039 214.45C119.039 214.45 122.072 206.76 124.019 205.319C124.956 204.75 126.072 204.552 127.148 204.764C128.224 204.976 129.181 205.584 129.832 206.466C130.482 207.349 130.779 208.444 130.663 209.534C130.547 210.625 130.028 211.632 129.206 212.359L129.226 212.363Z" fill="#198262"/>
<path d="M115.679 178.21C117.415 179.894 125.495 181.642 125.495 181.642C125.495 181.642 123.5 173.616 121.78 171.928C121.379 171.478 120.889 171.116 120.342 170.863C119.794 170.611 119.201 170.474 118.598 170.461C117.995 170.449 117.397 170.56 116.839 170.789C116.281 171.018 115.777 171.359 115.357 171.792C114.936 172.224 114.61 172.738 114.397 173.303C114.185 173.867 114.091 174.469 114.121 175.071C114.151 175.673 114.305 176.262 114.573 176.802C114.841 177.342 115.218 177.821 115.679 178.21Z" fill="#198262"/>
<path d="M111.102 198.467C113.261 199.556 121.477 198.802 121.477 198.802C121.477 198.802 117.204 191.734 115.045 190.665C114.021 190.24 112.875 190.218 111.836 190.603C110.797 190.989 109.942 191.753 109.443 192.742C108.944 193.732 108.837 194.874 109.145 195.939C109.453 197.003 110.152 197.912 111.102 198.483V198.467Z" fill="#198262"/>
<path d="M109.347 218.764C111.29 220.201 119.534 220.851 119.534 220.851C119.534 220.851 116.501 213.161 114.554 211.72C114.098 211.317 113.562 211.012 112.982 210.827C112.401 210.641 111.789 210.579 111.183 210.643C110.577 210.708 109.991 210.897 109.462 211.2C108.934 211.504 108.474 211.914 108.112 212.404C107.751 212.895 107.496 213.455 107.363 214.05C107.229 214.645 107.222 215.261 107.34 215.858C107.458 216.456 107.699 217.023 108.048 217.523C108.397 218.022 108.846 218.444 109.367 218.76L109.347 218.764Z" fill="#198262"/>
<path opacity="0.1" d="M126.453 158.81C126.453 161.229 122.064 168.241 122.064 168.241C122.064 168.241 117.674 161.229 117.674 158.81C117.63 158.208 117.71 157.603 117.91 157.034C118.109 156.464 118.425 155.941 118.835 155.499C119.246 155.057 119.744 154.704 120.297 154.462C120.851 154.221 121.448 154.096 122.052 154.096C122.655 154.096 123.253 154.221 123.806 154.462C124.359 154.704 124.857 155.057 125.268 155.499C125.679 155.941 125.994 156.464 126.194 157.034C126.394 157.603 126.474 158.208 126.429 158.81H126.453Z" fill="#198262"/>
<path opacity="0.1" d="M133.679 172.204C132.367 174.235 124.881 177.739 124.881 177.739C124.881 177.739 125.017 169.474 126.329 167.442C126.621 166.915 127.017 166.453 127.494 166.086C127.972 165.718 128.52 165.453 129.104 165.307C129.688 165.16 130.296 165.135 130.89 165.234C131.485 165.333 132.052 165.553 132.558 165.88C133.063 166.208 133.496 166.636 133.829 167.138C134.162 167.64 134.388 168.205 134.494 168.798C134.599 169.391 134.581 169.999 134.441 170.585C134.301 171.171 134.042 171.722 133.679 172.204Z" fill="#198262"/>
<path opacity="0.1" d="M133.364 195.099C131.206 196.188 122.99 195.434 122.99 195.434C122.99 195.434 127.279 188.366 129.438 187.277C129.955 186.966 130.531 186.765 131.13 186.687C131.728 186.609 132.337 186.655 132.917 186.823C133.496 186.991 134.035 187.276 134.5 187.662C134.965 188.047 135.345 188.524 135.616 189.063C135.888 189.602 136.046 190.192 136.08 190.795C136.114 191.397 136.023 192 135.813 192.567C135.603 193.133 135.279 193.649 134.86 194.084C134.442 194.519 133.938 194.863 133.38 195.095L133.364 195.099Z" fill="#198262"/>
<path opacity="0.1" d="M129.226 212.363C127.283 213.8 119.039 214.45 119.039 214.45C119.039 214.45 122.072 206.76 124.019 205.319C124.956 204.75 126.072 204.552 127.148 204.764C128.224 204.976 129.181 205.584 129.832 206.466C130.482 207.349 130.779 208.444 130.663 209.534C130.547 210.625 130.028 211.632 129.206 212.359L129.226 212.363Z" fill="#198262"/>
<path opacity="0.1" d="M115.679 178.21C117.415 179.894 125.495 181.642 125.495 181.642C125.495 181.642 123.5 173.616 121.78 171.928C121.379 171.478 120.889 171.116 120.342 170.863C119.794 170.611 119.201 170.474 118.598 170.461C117.995 170.449 117.397 170.56 116.839 170.789C116.281 171.018 115.777 171.359 115.357 171.792C114.936 172.224 114.61 172.738 114.397 173.303C114.185 173.867 114.091 174.469 114.121 175.071C114.151 175.673 114.305 176.262 114.573 176.802C114.841 177.342 115.218 177.821 115.679 178.21Z" fill="#198262"/>
<path opacity="0.1" d="M111.102 198.467C113.261 199.556 121.477 198.802 121.477 198.802C121.477 198.802 117.204 191.734 115.045 190.665C114.021 190.24 112.875 190.218 111.836 190.603C110.797 190.989 109.942 191.753 109.443 192.742C108.944 193.732 108.837 194.874 109.145 195.939C109.453 197.003 110.152 197.912 111.102 198.483V198.467Z" fill="#198262"/>
<path opacity="0.1" d="M109.347 218.764C111.29 220.201 119.534 220.851 119.534 220.851C119.534 220.851 116.501 213.161 114.554 211.72C114.098 211.317 113.562 211.012 112.982 210.827C112.401 210.641 111.789 210.579 111.183 210.643C110.577 210.708 109.991 210.897 109.462 211.2C108.934 211.504 108.474 211.914 108.112 212.404C107.751 212.895 107.496 213.455 107.363 214.05C107.229 214.645 107.222 215.261 107.34 215.858C107.458 216.456 107.699 217.023 108.048 217.523C108.397 218.022 108.846 218.444 109.367 218.76L109.347 218.764Z" fill="#198262"/>
<path d="M238.88 231.256C238.88 231.256 233.07 211.521 239.969 196.998C242.904 190.925 243.789 184.063 242.491 177.444C241.851 174.306 240.924 171.233 239.722 168.265" stroke="#535461" stroke-width="2" stroke-miterlimit="10"/>
<path d="M244.016 159.09C244.016 161.508 239.626 168.52 239.626 168.52C239.626 168.52 235.237 161.508 235.237 159.09C235.319 157.984 235.815 156.951 236.627 156.197C237.439 155.443 238.506 155.024 239.614 155.024C240.722 155.024 241.789 155.443 242.601 156.197C243.413 156.951 243.91 157.984 243.992 159.09H244.016Z" fill="#198262"/>
<path d="M251.254 172.483C249.941 174.514 242.455 178.018 242.455 178.018C242.455 178.018 242.591 169.753 243.904 167.722C244.195 167.194 244.592 166.733 245.069 166.365C245.546 165.998 246.094 165.733 246.678 165.586C247.263 165.439 247.871 165.415 248.465 165.513C249.059 165.612 249.627 165.832 250.132 166.159C250.638 166.487 251.071 166.915 251.404 167.417C251.737 167.919 251.963 168.484 252.068 169.077C252.173 169.67 252.155 170.279 252.015 170.865C251.875 171.451 251.616 172.001 251.254 172.483Z" fill="#198262"/>
<path d="M250.951 195.378C248.792 196.468 240.576 195.713 240.576 195.713C240.576 195.713 244.866 188.646 247.024 187.556C247.542 187.243 248.12 187.04 248.72 186.96C249.321 186.88 249.931 186.926 250.513 187.094C251.095 187.261 251.636 187.548 252.102 187.935C252.567 188.322 252.948 188.801 253.22 189.342C253.492 189.883 253.648 190.475 253.68 191.08C253.712 191.685 253.619 192.29 253.406 192.857C253.193 193.424 252.864 193.94 252.442 194.374C252.02 194.808 251.512 195.15 250.951 195.378Z" fill="#198262"/>
<path d="M246.797 212.642C244.854 214.079 236.61 214.73 236.61 214.73C236.61 214.73 239.642 207.039 241.59 205.599C242.527 205.029 243.643 204.831 244.719 205.043C245.795 205.256 246.752 205.863 247.402 206.746C248.053 207.629 248.35 208.723 248.234 209.814C248.118 210.904 247.598 211.912 246.777 212.638L246.797 212.642Z" fill="#198262"/>
<path d="M233.258 178.489C234.994 180.173 243.074 181.921 243.074 181.921C243.074 181.921 241.079 173.896 239.359 172.208C238.958 171.758 238.468 171.395 237.921 171.143C237.373 170.891 236.779 170.754 236.177 170.741C235.574 170.728 234.975 170.84 234.417 171.069C233.86 171.297 233.355 171.639 232.935 172.071C232.515 172.504 232.189 173.018 231.976 173.582C231.764 174.146 231.669 174.748 231.7 175.35C231.73 175.952 231.884 176.542 232.152 177.082C232.42 177.622 232.796 178.101 233.258 178.489Z" fill="#198262"/>
<path d="M228.673 198.746C230.832 199.836 239.048 199.081 239.048 199.081C239.048 199.081 234.758 192.014 232.599 190.924C231.576 190.499 230.43 190.477 229.39 190.862C228.351 191.248 227.496 192.012 226.997 193.002C226.498 193.991 226.392 195.133 226.7 196.198C227.008 197.263 227.707 198.172 228.657 198.742L228.673 198.746Z" fill="#198262"/>
<path d="M226.921 219.043C228.864 220.48 237.108 221.131 237.108 221.131C237.108 221.131 234.076 213.44 232.128 212C231.191 211.43 230.075 211.232 228.999 211.444C227.924 211.657 226.966 212.264 226.316 213.147C225.665 214.03 225.369 215.124 225.484 216.215C225.6 217.305 226.12 218.313 226.941 219.039L226.921 219.043Z" fill="#198262"/>
<path opacity="0.1" d="M244.016 159.09C244.016 161.508 239.626 168.52 239.626 168.52C239.626 168.52 235.237 161.508 235.237 159.09C235.319 157.984 235.815 156.951 236.627 156.197C237.439 155.443 238.506 155.024 239.614 155.024C240.722 155.024 241.789 155.443 242.601 156.197C243.413 156.951 243.91 157.984 243.992 159.09H244.016Z" fill="#198262"/>
<path opacity="0.1" d="M251.254 172.483C249.941 174.514 242.455 178.018 242.455 178.018C242.455 178.018 242.591 169.753 243.904 167.722C244.195 167.194 244.592 166.733 245.069 166.365C245.546 165.998 246.094 165.733 246.678 165.586C247.263 165.439 247.871 165.415 248.465 165.513C249.059 165.612 249.627 165.832 250.132 166.159C250.638 166.487 251.071 166.915 251.404 167.417C251.737 167.919 251.963 168.484 252.068 169.077C252.173 169.67 252.155 170.279 252.015 170.865C251.875 171.451 251.616 172.001 251.254 172.483Z" fill="#198262"/>
<path opacity="0.1" d="M250.951 195.378C248.792 196.468 240.576 195.713 240.576 195.713C240.576 195.713 244.866 188.646 247.024 187.556C247.542 187.243 248.12 187.04 248.72 186.96C249.321 186.88 249.931 186.926 250.513 187.094C251.095 187.261 251.636 187.548 252.102 187.935C252.567 188.322 252.948 188.801 253.22 189.342C253.492 189.883 253.648 190.475 253.68 191.08C253.712 191.685 253.619 192.29 253.406 192.857C253.193 193.424 252.864 193.94 252.442 194.374C252.02 194.808 251.512 195.15 250.951 195.378Z" fill="#198262"/>
<path opacity="0.1" d="M246.797 212.642C244.854 214.079 236.61 214.73 236.61 214.73C236.61 214.73 239.642 207.039 241.59 205.599C242.527 205.029 243.643 204.831 244.719 205.043C245.795 205.256 246.752 205.863 247.402 206.746C248.053 207.629 248.35 208.723 248.234 209.814C248.118 210.904 247.598 211.912 246.777 212.638L246.797 212.642Z" fill="#198262"/>
<path opacity="0.1" d="M233.258 178.489C234.994 180.173 243.074 181.921 243.074 181.921C243.074 181.921 241.079 173.896 239.359 172.208C238.958 171.758 238.468 171.395 237.921 171.143C237.373 170.891 236.779 170.754 236.177 170.741C235.574 170.728 234.975 170.84 234.417 171.069C233.86 171.297 233.355 171.639 232.935 172.071C232.515 172.504 232.189 173.018 231.976 173.582C231.764 174.146 231.669 174.748 231.7 175.35C231.73 175.952 231.884 176.542 232.152 177.082C232.42 177.622 232.796 178.101 233.258 178.489Z" fill="#198262"/>
<path opacity="0.1" d="M228.673 198.746C230.832 199.836 239.048 199.081 239.048 199.081C239.048 199.081 234.758 192.014 232.599 190.924C231.576 190.499 230.43 190.477 229.39 190.862C228.351 191.248 227.496 192.012 226.997 193.002C226.498 193.991 226.392 195.133 226.7 196.198C227.008 197.263 227.707 198.172 228.657 198.742L228.673 198.746Z" fill="#198262"/>
<path opacity="0.1" d="M226.921 219.043C228.864 220.48 237.108 221.131 237.108 221.131C237.108 221.131 234.076 213.44 232.128 212C231.191 211.43 230.075 211.232 228.999 211.444C227.924 211.657 226.966 212.264 226.316 213.147C225.665 214.03 225.369 215.124 225.484 216.215C225.6 217.305 226.12 218.313 226.941 219.039L226.921 219.043Z" fill="#198262"/>
<path opacity="0.5" d="M267.311 6.11001H264.805C265.042 6.12134 265.28 6.08436 265.502 6.00133C265.725 5.9183 265.928 5.79093 266.1 5.62695C266.272 5.46296 266.409 5.26577 266.503 5.04732C266.596 4.82887 266.645 4.59369 266.645 4.35605C266.645 4.11841 266.596 3.88324 266.503 3.66479C266.409 3.44634 266.272 3.24915 266.1 3.08516C265.928 2.92118 265.725 2.79381 265.502 2.71078C265.28 2.62774 265.042 2.59077 264.805 2.60209H244.486C244.036 2.6236 243.611 2.81778 243.299 3.14435C242.988 3.47093 242.814 3.90483 242.814 4.35605C242.814 4.80727 242.988 5.24118 243.299 5.56775C243.611 5.89433 244.036 6.08851 244.486 6.11001H246.992C246.542 6.13152 246.117 6.3257 245.805 6.65228C245.494 6.97885 245.32 7.41276 245.32 7.86398C245.32 8.3152 245.494 8.74909 245.805 9.07567C246.117 9.40225 246.542 9.59643 246.992 9.61793H243.485C243.248 9.60661 243.01 9.64358 242.788 9.72662C242.565 9.80965 242.362 9.93702 242.19 10.101C242.018 10.265 241.881 10.4622 241.787 10.6806C241.694 10.8991 241.646 11.1343 241.646 11.3719C241.646 11.6095 241.694 11.8447 241.787 12.0632C241.881 12.2816 242.018 12.4788 242.19 12.6428C242.362 12.8068 242.565 12.9341 242.788 13.0172C243.01 13.1002 243.248 13.1372 243.485 13.1259H263.788C264.025 13.1372 264.262 13.1002 264.485 13.0172C264.707 12.9341 264.911 12.8068 265.083 12.6428C265.255 12.4788 265.392 12.2816 265.485 12.0632C265.579 11.8447 265.627 11.6095 265.627 11.3719C265.627 11.1343 265.579 10.8991 265.485 10.6806C265.392 10.4622 265.255 10.265 265.083 10.101C264.911 9.93702 264.707 9.80965 264.485 9.72662C264.262 9.64358 264.025 9.60661 263.788 9.61793H267.311C267.762 9.59643 268.187 9.40225 268.498 9.07567C268.809 8.74909 268.983 8.3152 268.983 7.86398C268.983 7.41276 268.809 6.97885 268.498 6.65228C268.187 6.3257 267.762 6.13152 267.311 6.11001Z" fill="#DEE3F3"/>
<path opacity="0.5" d="M149.908 16.3423H148.001C148.182 16.3522 148.364 16.325 148.534 16.2624C148.705 16.1998 148.861 16.1031 148.993 15.9781C149.125 15.8532 149.23 15.7027 149.302 15.5358C149.373 15.3689 149.41 15.189 149.41 15.0073C149.41 14.8256 149.373 14.6458 149.302 14.4789C149.23 14.312 149.125 14.1614 148.993 14.0365C148.861 13.9116 148.705 13.8149 148.534 13.7523C148.364 13.6896 148.182 13.6625 148.001 13.6724H132.55C132.209 13.6911 131.888 13.8399 131.653 14.0882C131.417 14.3365 131.286 14.6654 131.286 15.0073C131.286 15.3493 131.417 15.6782 131.653 15.9265C131.888 16.1748 132.209 16.3236 132.55 16.3423H134.458C134.276 16.3323 134.095 16.3595 133.924 16.4221C133.753 16.4847 133.597 16.5814 133.466 16.7064C133.334 16.8313 133.228 16.9818 133.157 17.1487C133.085 17.3157 133.048 17.4955 133.048 17.6772C133.048 17.8589 133.085 18.0387 133.157 18.2056C133.228 18.3725 133.334 18.5231 133.466 18.648C133.597 18.7729 133.753 18.8697 133.924 18.9323C134.095 18.9949 134.276 19.022 134.458 19.0121H131.788C131.607 19.0022 131.425 19.0294 131.255 19.092C131.084 19.1546 130.928 19.2513 130.796 19.3762C130.664 19.5011 130.559 19.6517 130.487 19.8186C130.415 19.9855 130.378 20.1653 130.378 20.347C130.378 20.5288 130.415 20.7086 130.487 20.8755C130.559 21.0424 130.664 21.1929 130.796 21.3179C130.928 21.4428 131.084 21.5395 131.255 21.6021C131.425 21.6647 131.607 21.6919 131.788 21.682H147.239C147.42 21.6919 147.602 21.6647 147.772 21.6021C147.943 21.5395 148.099 21.4428 148.231 21.3179C148.363 21.1929 148.468 21.0424 148.539 20.8755C148.611 20.7086 148.648 20.5288 148.648 20.347C148.648 20.1653 148.611 19.9855 148.539 19.8186C148.468 19.6517 148.363 19.5011 148.231 19.3762C148.099 19.2513 147.943 19.1546 147.772 19.092C147.602 19.0294 147.42 19.0022 147.239 19.0121H149.908C150.249 18.9934 150.571 18.8446 150.806 18.5964C151.041 18.3481 151.172 18.0191 151.172 17.6772C151.172 17.3353 151.041 17.0063 150.806 16.758C150.571 16.5097 150.249 16.3609 149.908 16.3423Z" fill="#DEE3F3"/>
<path d="M20.2229 205.431C20.2229 205.431 27.206 219.139 21.5158 226.638C15.8256 234.137 22.0345 254.574 22.0345 254.574" stroke="#198262" stroke-miterlimit="10"/>
<path d="M22.3058 201.145C22.3058 203.787 20.3665 205.934 20.3665 205.934C20.3665 205.934 18.4272 203.791 18.4272 201.145C18.4272 198.499 20.3665 196.356 20.3665 196.356C20.3665 196.356 22.3058 198.503 22.3058 201.145Z" fill="#198262"/>
<path d="M23.8422 205.431C23.8422 205.431 16.8591 219.139 22.5493 226.638C28.2395 234.137 22.0306 254.574 22.0306 254.574" stroke="#198262" stroke-miterlimit="10"/>
<path d="M21.7751 201.145C21.7751 203.787 23.7144 205.934 23.7144 205.934C23.7144 205.934 25.6537 203.791 25.6537 201.145C25.6537 198.499 23.7144 196.356 23.7144 196.356C23.7144 196.356 21.7751 198.503 21.7751 201.145Z" fill="#198262"/>
<path opacity="0.1" d="M21.7751 201.145C21.7751 203.787 23.7144 205.934 23.7144 205.934C23.7144 205.934 25.6537 203.791 25.6537 201.145C25.6537 198.499 23.7144 196.356 23.7144 196.356C23.7144 196.356 21.7751 198.503 21.7751 201.145Z" fill="black"/>
<path d="M26.6952 205.431C26.6952 205.431 33.6783 219.139 27.9881 226.638C22.2979 234.137 28.5068 254.574 28.5068 254.574" stroke="#198262" stroke-miterlimit="10"/>
<path d="M28.7582 201.145C28.7582 203.787 26.8189 205.934 26.8189 205.934C26.8189 205.934 24.8796 203.791 24.8796 201.145C24.8796 198.499 26.8189 196.356 26.8189 196.356C26.8189 196.356 28.7582 198.503 28.7582 201.145Z" fill="#198262"/>
<path d="M27.6688 212.127C25.8373 214.031 22.9523 214.23 22.9523 214.23C22.9523 214.23 23.0401 211.341 24.8716 209.442C26.7032 207.542 29.5882 207.338 29.5882 207.338C29.5882 207.338 29.4884 210.22 27.6688 212.127Z" fill="#198262"/>
<path d="M27.8524 221.586C26.0209 223.489 23.1359 223.689 23.1359 223.689C23.1359 223.689 23.2237 220.799 25.0552 218.9C26.8868 217 29.7718 216.797 29.7718 216.797C29.7718 216.797 29.684 219.678 27.8524 221.586Z" fill="#198262"/>
<path d="M17.9165 226.786C19.6483 228.781 19.5885 231.67 19.5885 231.67C19.5885 231.67 16.7194 231.323 14.9876 229.328C13.2558 227.332 13.3157 224.443 13.3157 224.443C13.3157 224.443 16.1847 224.79 17.9165 226.786Z" fill="#198262"/>
<path d="M19.5126 206.628C21.7152 208.089 22.4295 210.89 22.4295 210.89C22.4295 210.89 19.5725 211.325 17.3698 209.865C15.1671 208.404 14.4529 205.603 14.4529 205.603C14.4529 205.603 17.3219 205.16 19.5126 206.628Z" fill="#198262"/>
<path opacity="0.1" d="M19.5126 206.628C21.7152 208.089 22.4295 210.89 22.4295 210.89C22.4295 210.89 19.5725 211.325 17.3698 209.865C15.1671 208.404 14.4529 205.603 14.4529 205.603C14.4529 205.603 17.3219 205.16 19.5126 206.628Z" fill="black"/>
<path d="M30.3064 205.431C30.3064 205.431 23.3233 219.139 29.0135 226.638C34.7037 234.137 28.4948 254.574 28.4948 254.574" stroke="#198262" stroke-miterlimit="10"/>
<path d="M28.2395 201.145C28.2395 203.787 30.1788 205.934 30.1788 205.934C30.1788 205.934 32.1181 203.791 32.1181 201.145C32.1181 198.499 30.1788 196.356 30.1788 196.356C30.1788 196.356 28.2395 198.503 28.2395 201.145Z" fill="#198262"/>
<path opacity="0.1" d="M28.2395 201.145C28.2395 203.787 30.1788 205.934 30.1788 205.934C30.1788 205.934 32.1181 203.791 32.1181 201.145C32.1181 198.499 30.1788 196.356 30.1788 196.356C30.1788 196.356 28.2395 198.503 28.2395 201.145Z" fill="black"/>
<path d="M28.7981 212.331C26.9426 214.215 26.803 217.12 26.803 217.12C26.803 217.12 29.688 216.956 31.5435 215.073C33.399 213.189 33.5386 210.284 33.5386 210.284C33.5386 210.284 30.6536 210.447 28.7981 212.331Z" fill="#198262"/>
<path opacity="0.1" d="M28.7981 212.331C26.9426 214.215 26.803 217.12 26.803 217.12C26.803 217.12 29.688 216.956 31.5435 215.073C33.399 213.189 33.5386 210.284 33.5386 210.284C33.5386 210.284 30.6536 210.447 28.7981 212.331Z" fill="black"/>
<path d="M32.4333 225.425C30.5778 227.308 30.4381 230.214 30.4381 230.214C30.4381 230.214 33.3231 230.05 35.1786 228.166C37.0341 226.283 37.1738 223.377 37.1738 223.377C37.1738 223.377 34.2768 223.541 32.4333 225.425Z" fill="#198262"/>
<path d="M27.0942 222.548C27.0942 222.548 31.296 215.923 37.1977 215.763" stroke="#198262" stroke-miterlimit="10"/>
<path d="M23.8103 218.545C23.8103 218.545 19.6085 211.92 13.7068 211.76" stroke="#198262" stroke-miterlimit="10"/>
<path d="M23.2635 228.003C23.2635 228.003 27.4654 221.378 33.367 221.219" stroke="#198262" stroke-miterlimit="10"/>
<path d="M36.9943 216.817C37.5959 216.817 38.0836 216.329 38.0836 215.727C38.0836 215.125 37.5959 214.638 36.9943 214.638C36.3926 214.638 35.9049 215.125 35.9049 215.727C35.9049 216.329 36.3926 216.817 36.9943 216.817Z" fill="#198262"/>
<path d="M13.8104 212.906C14.4121 212.906 14.8998 212.418 14.8998 211.816C14.8998 211.215 14.4121 210.727 13.8104 210.727C13.2088 210.727 12.7211 211.215 12.7211 211.816C12.7211 212.418 13.2088 212.906 13.8104 212.906Z" fill="#198262"/>
<path d="M26.356 230.174C26.356 230.174 22.1542 223.549 16.2526 223.39" stroke="#198262" stroke-miterlimit="10"/>
<path d="M16.3563 224.543C16.958 224.543 17.4457 224.055 17.4457 223.454C17.4457 222.852 16.958 222.364 16.3563 222.364C15.7547 222.364 15.267 222.852 15.267 223.454C15.267 224.055 15.7547 224.543 16.3563 224.543Z" fill="#198262"/>
<path d="M33.4468 222.364C34.0484 222.364 34.5361 221.876 34.5361 221.274C34.5361 220.673 34.0484 220.185 33.4468 220.185C32.8451 220.185 32.3574 220.673 32.3574 221.274C32.3574 221.876 32.8451 222.364 33.4468 222.364Z" fill="#198262"/>
<path d="M49.5916 246.596C49.5916 246.596 39.4642 244.569 36.7588 241.867C34.0534 239.165 21.9068 234.44 20.5541 237.816C19.2014 241.193 2.32239 252.674 13.8025 254.701C25.2827 256.729 40.813 257.403 44.1888 256.05C47.5646 254.697 49.5916 246.596 49.5916 246.596Z" fill="#A8A8A8"/>
<path opacity="0.2" d="M13.8025 253.444C25.2827 255.472 40.813 256.146 44.1888 254.793C46.7585 253.764 48.5462 248.807 49.2525 246.524L49.5917 246.596C49.5917 246.596 47.5646 254.701 44.1888 256.05C40.813 257.399 25.2827 256.725 13.8025 254.701C10.4906 254.115 9.54087 252.742 9.9 251.006C10.1793 252.123 11.3365 253.009 13.8025 253.444Z" fill="black"/>
<path d="M357.065 208.536C357.065 208.536 360.409 212.926 355.521 219.51C350.633 226.095 346.603 231.686 348.235 235.805C348.235 235.805 355.609 223.541 361.61 223.369C367.612 223.198 363.669 215.907 357.065 208.536Z" fill="#198262"/>
<path opacity="0.1" d="M357.065 208.536C357.357 208.959 357.586 209.421 357.748 209.908C363.605 216.789 366.722 223.21 361.096 223.373C355.852 223.525 349.564 232.9 348.055 235.27C348.105 235.453 348.165 235.633 348.235 235.809C348.235 235.809 355.609 223.545 361.61 223.373C367.612 223.202 363.669 215.907 357.065 208.536Z" fill="black"/>
<path d="M363.282 214.107C363.282 215.647 363.11 216.9 362.883 216.9C362.656 216.9 362.484 215.651 362.484 214.107C362.484 212.562 362.699 213.309 362.911 213.309C363.122 213.309 363.282 212.57 363.282 214.107Z" fill="#FFD037"/>
<path d="M365.417 215.947C364.064 216.685 362.887 217.144 362.787 216.94C362.688 216.737 363.697 216.003 365.05 215.268C366.403 214.534 365.868 215.069 365.972 215.268C366.075 215.468 366.766 215.208 365.417 215.947Z" fill="#FFD037"/>
<path d="M339.404 208.536C339.404 208.536 336.06 212.926 340.948 219.51C345.837 226.095 349.867 231.686 348.235 235.805C348.235 235.805 340.861 223.541 334.859 223.369C328.858 223.198 332.8 215.907 339.404 208.536Z" fill="#198262"/>
<path opacity="0.1" d="M339.404 208.536C339.113 208.959 338.883 209.421 338.722 209.908C332.864 216.789 329.748 223.21 335.374 223.373C340.617 223.525 346.906 232.9 348.414 235.27C348.365 235.453 348.305 235.633 348.235 235.809C348.235 235.809 340.861 223.545 334.859 223.373C328.858 223.202 332.8 215.907 339.404 208.536Z" fill="black"/>
<path d="M333.187 214.107C333.187 215.647 333.359 216.9 333.586 216.9C333.814 216.9 333.985 215.651 333.985 214.107C333.985 212.562 333.77 213.309 333.558 213.309C333.347 213.309 333.187 212.57 333.187 214.107Z" fill="#FFD037"/>
<path d="M331.052 215.947C332.405 216.685 333.582 217.144 333.682 216.94C333.782 216.737 332.772 216.003 331.419 215.268C330.067 214.534 330.601 215.069 330.498 215.268C330.394 215.468 329.7 215.208 331.052 215.947Z" fill="#FFD037"/>
<path d="M334.253 235.23C334.253 235.23 343.602 234.943 346.419 232.936C349.236 230.928 360.784 228.546 361.499 231.738C362.213 234.931 375.548 247.745 364.994 247.829C354.44 247.913 340.47 246.185 337.656 244.473C334.843 242.761 334.253 235.23 334.253 235.23Z" fill="#A8A8A8"/>
<path opacity="0.2" d="M365.182 246.724C354.627 246.807 340.657 245.079 337.844 243.367C335.701 242.062 334.847 237.381 334.564 235.222H334.253C334.253 235.222 334.843 242.765 337.656 244.477C340.47 246.189 354.44 247.921 364.994 247.833C368.043 247.809 369.092 246.724 369.036 245.119C368.613 246.097 367.468 246.704 365.182 246.724Z" fill="black"/>
<path opacity="0.5" d="M70.9637 29.7875H68.4578C68.6951 29.7988 68.9323 29.7619 69.1549 29.6788C69.3776 29.5958 69.581 29.4684 69.753 29.3044C69.925 29.1405 70.0619 28.9433 70.1554 28.7248C70.249 28.5064 70.2972 28.2712 70.2972 28.0335C70.2972 27.7959 70.249 27.5607 70.1554 27.3423C70.0619 27.1238 69.925 26.9266 69.753 26.7627C69.581 26.5987 69.3776 26.4713 69.1549 26.3883C68.9323 26.3052 68.6951 26.2683 68.4578 26.2796H48.1551C47.7044 26.3011 47.2793 26.4953 46.968 26.8218C46.6567 27.1484 46.483 27.5823 46.483 28.0335C46.483 28.4848 46.6567 28.9187 46.968 29.2452C47.2793 29.5718 47.7044 29.766 48.1551 29.7875H50.661C50.2103 29.809 49.7853 30.0032 49.4739 30.3298C49.1626 30.6563 48.9889 31.0902 48.9889 31.5415C48.9889 31.9927 49.1626 32.4266 49.4739 32.7532C49.7853 33.0797 50.2103 33.2739 50.661 33.2954H47.1535C46.7029 33.3169 46.2778 33.5111 45.9664 33.8377C45.6551 34.1643 45.4814 34.5982 45.4814 35.0494C45.4814 35.5006 45.6551 35.9345 45.9664 36.2611C46.2778 36.5877 46.7029 36.7818 47.1535 36.8034H67.4562C67.6936 36.8147 67.9307 36.7777 68.1534 36.6947C68.376 36.6116 68.5795 36.4843 68.7515 36.3203C68.9234 36.1563 69.0603 35.9591 69.1539 35.7407C69.2474 35.5222 69.2956 35.287 69.2956 35.0494C69.2956 34.8117 69.2474 34.5766 69.1539 34.3581C69.0603 34.1397 68.9234 33.9425 68.7515 33.7785C68.5795 33.6145 68.376 33.4871 68.1534 33.4041C67.9307 33.3211 67.6936 33.2841 67.4562 33.2954H70.9637C71.4144 33.2739 71.8394 33.0797 72.1508 32.7532C72.4621 32.4266 72.6358 31.9927 72.6358 31.5415C72.6358 31.0902 72.4621 30.6563 72.1508 30.3298C71.8394 30.0032 71.4144 29.809 70.9637 29.7875Z" fill="#DEE3F3"/>
</g>
<defs>
<linearGradient id="paint0_linear" x1="183.754" y1="217.004" x2="183.754" y2="51.7847" gradientUnits="userSpaceOnUse">
<stop stop-color="#808080" stop-opacity="0.25"/>
<stop offset="0.54" stop-color="#808080" stop-opacity="0.12"/>
<stop offset="1" stop-color="#808080" stop-opacity="0.1"/>
</linearGradient>
<linearGradient id="paint1_linear" x1="152.778" y1="188.903" x2="152.778" y2="188.884" gradientUnits="userSpaceOnUse">
<stop stop-color="#808080" stop-opacity="0.25"/>
<stop offset="0.54" stop-color="#808080" stop-opacity="0.12"/>
<stop offset="1" stop-color="#808080" stop-opacity="0.1"/>
</linearGradient>
<linearGradient id="paint2_linear" x1="25695.8" y1="80693.7" x2="25695.8" y2="36178.9" gradientUnits="userSpaceOnUse">
<stop stop-color="#808080" stop-opacity="0.25"/>
<stop offset="0.54" stop-color="#808080" stop-opacity="0.12"/>
<stop offset="1" stop-color="#808080" stop-opacity="0.1"/>
</linearGradient>
<linearGradient id="paint3_linear" x1="72385.1" y1="97816.4" x2="72385.1" y2="31705.1" gradientUnits="userSpaceOnUse">
<stop stop-color="#808080" stop-opacity="0.25"/>
<stop offset="0.54" stop-color="#808080" stop-opacity="0.12"/>
<stop offset="1" stop-color="#808080" stop-opacity="0.1"/>
</linearGradient>
<clipPath id="clip0">
<rect width="379" height="264" fill="white"/>
</clipPath>
</defs>
</svg>
