<svg width="298" height="207" viewBox="0 0 298 207" fill="none" xmlns="http://www.w3.org/2000/svg">
<g clip-path="url(#clip0)">
<path opacity="0.1" d="M126.778 7.95825C114.665 3.38475 101.864 -0.435592 88.7967 0.0446805C69.5833 0.748716 51.1396 11.4812 42.1073 27.2401C34.444 40.5922 33.4984 56.242 30.1972 71.0594C26.1347 89.3125 18.3394 106.665 10.0163 123.63C5.54693 132.744 0.830162 142.055 0.0962602 152.045C-0.920758 165.916 6.21761 179.737 17.4131 188.964C28.6085 198.19 43.4762 203.058 58.3989 204.119C66.3399 204.684 74.6382 204.16 81.6913 200.727C89.154 197.095 94.5937 190.533 102.087 186.952C109.03 183.634 117.152 183.17 124.948 183.601C135.126 184.164 145.173 186.148 154.793 189.496C165.689 193.294 175.82 198.798 186.678 202.651C197.535 206.504 209.695 208.655 220.806 205.44C231.251 202.419 239.497 195.084 246.932 187.656C259.09 175.533 270.233 162.447 280.252 148.528C286.961 139.193 293.206 129.344 296.172 118.464C301.845 97.6627 294.039 74.1949 276.725 59.9886C262.38 48.2192 243.128 43.1109 224.283 40.011C207.098 37.1839 187.228 37.0093 171.409 29.6414C156.324 22.6066 142.597 13.9344 126.778 7.95825Z" fill="#1D9B75"/>
<path d="M173.877 168.914V178.828H176.717L176.167 168.185L173.877 168.914Z" fill="#AAABB0"/>
<path d="M131.226 166.914V176.827H134.068L133.518 166.185L131.226 166.914Z" fill="#AAABB0"/>
<path d="M180.84 152.361C180.84 151.356 180.019 150.541 179.008 150.541C177.996 150.541 177.176 151.356 177.176 152.361V166.368C177.176 167.373 177.996 168.188 179.008 168.188C180.019 168.188 180.84 167.373 180.84 166.368V152.361Z" fill="#AAABB0"/>
<path d="M133.837 148.448C133.837 147.443 133.017 146.628 132.005 146.628C130.993 146.628 130.173 147.443 130.173 148.448V166.365C130.173 167.37 130.993 168.185 132.005 168.185C133.017 168.185 133.837 167.37 133.837 166.365V148.448Z" fill="#AAABB0"/>
<path d="M185.515 44.9355C185.515 44.9355 189.179 43.3882 189.729 44.9355C190.279 46.4827 190.553 59.8539 190.553 59.8539H187.071L185.515 44.9355Z" fill="#AAABB0"/>
<path d="M145.384 44.9355C145.384 44.9355 141.717 43.3882 141.168 44.9355C140.618 46.4827 140.343 59.8539 140.343 59.8539H143.826L145.384 44.9355Z" fill="#AAABB0"/>
<path d="M145.931 31.6543L145.381 42.7524H147.855V31.3814L145.931 31.6543Z" fill="#AAABB0"/>
<path d="M143.826 59.8539L144.559 43.8439C144.559 43.8439 144.285 40.2965 152.987 41.388C161.689 42.4795 187.164 44.6626 187.164 44.6626V59.8539H143.826Z" fill="#33323D"/>
<path d="M178.643 144.174L177.269 168.641C177.269 168.641 157.11 179.739 132.647 169.187L134.846 143.446L178.643 144.174Z" fill="#33323D"/>
<path d="M159.493 47.8444L159.949 63.6715H188.354L186.705 42.7524L159.493 47.8444Z" fill="#444053"/>
<path d="M162.379 133.712H135.623V167.367H162.379V133.712Z" fill="#4C4981"/>
<path d="M152.531 147.449C152.531 147.449 156.379 144.447 157.019 145.356C157.66 146.265 154.732 150.178 153.539 149.722C152.347 149.266 152.531 147.449 152.531 147.449Z" fill="#FFB9B9"/>
<path d="M259.334 58.9425H83.7006V146.265H259.334V58.9425Z" fill="#504F60"/>
<path d="M143.916 31.0185C143.916 31.0185 142.542 18.2831 143.916 16.7386C145.291 15.1941 168.38 0.545766 189.729 17.7373C189.729 17.7373 191.744 17.8301 191.378 22.3763C191.163 25.2537 191.177 28.1434 191.422 31.0185C191.422 31.0185 145.475 34.2931 143.916 31.0185Z" fill="#33323D"/>
<path opacity="0.1" d="M143.916 31.0185C143.916 31.0185 142.542 18.2831 143.916 16.7386C145.291 15.1941 168.38 0.545766 189.729 17.7373C189.729 17.7373 191.744 17.8301 191.378 22.3763C191.163 25.2537 191.177 28.1434 191.422 31.0185C191.422 31.0185 145.475 34.2931 143.916 31.0185Z" fill="black"/>
<path d="M143.916 32.6558C143.916 32.6558 142.542 19.9204 143.916 18.3759C145.291 16.8314 168.38 2.18307 189.729 19.3746C189.729 19.3746 191.744 19.4674 191.378 24.0136C191.163 26.891 191.177 29.7807 191.422 32.6558C191.422 32.6558 145.475 35.9304 143.916 32.6558Z" fill="#33323D"/>
<path d="M192.203 26.8352C192.203 26.8352 193.668 32.2928 193.211 33.2015C192.755 34.1102 192.838 36.6589 192.838 36.6589C192.838 36.6589 192.937 38.2962 192.203 38.4763C191.469 38.6564 190.828 38.7492 191.422 39.295C192.016 39.8407 191.422 40.6594 191.422 40.6594C191.422 40.6594 191.1 41.9338 191.422 42.7524C191.744 43.571 189.542 43.9121 189.729 44.9355C189.916 45.9588 190.531 48.8458 189.729 48.9386C188.926 49.0314 190.004 52.5761 189.281 52.5761C188.558 52.5761 188.044 58.9425 188.044 58.9425C188.044 58.9425 182.959 54.6691 179.57 55.8507C179.57 55.8507 179.845 52.3033 180.944 51.0289C182.043 49.7545 181.711 46.4827 181.711 46.4827L187.164 30.1998L192.203 26.8352Z" fill="#4C4981"/>
<path d="M164.991 102.091C163.8 103.398 162.517 96.4173 162.517 96.4173C162.517 96.4173 159.128 101.056 156.929 97.9646C155.406 95.8225 156.607 89.7536 157.478 86.2307C157.869 84.6643 158.198 83.6001 158.198 83.6001L163.146 82.7814C163.146 82.7814 163.163 83.8511 163.273 85.15C163.421 86.9047 163.743 89.0823 164.427 89.6035C165.634 90.5067 166.183 100.773 164.991 102.091Z" fill="#AE6E79"/>
<path opacity="0.1" d="M162.426 20.3761C162.426 20.3761 153.812 20.286 151.706 24.8323C149.601 29.3785 149.507 30.9284 148.683 31.6543C147.858 32.3802 157.66 36.2032 157.66 36.2032L158.119 51.8475C158.119 51.8475 160.043 49.9128 163.157 50.7888C166.271 51.6647 170.213 50.7888 170.213 50.7888C170.213 50.7888 170.029 50.4586 172.596 50.7888C175.164 51.119 183.316 46.8456 183.316 46.8456C183.316 46.8456 183.451 40.0018 183.269 38.5446C183.088 37.0874 189.086 26.3795 189.086 26.3795C189.086 26.3795 193.758 21.9233 188.904 20.3761C188.904 20.3761 187.186 17.8055 182.766 17.8301C178.346 17.8547 162.426 20.3761 162.426 20.3761Z" fill="black"/>
<path d="M162.426 20.1032C162.426 20.1032 153.812 20.0131 151.706 24.5594C149.601 29.1056 149.507 30.6555 148.683 31.3814C147.858 32.1073 157.66 35.9303 157.66 35.9303L158.119 51.5747C158.119 51.5747 160.043 49.6399 163.157 50.5159C166.271 51.3918 170.213 50.5159 170.213 50.5159C170.213 50.5159 170.029 50.1857 172.596 50.5159C175.164 50.8461 183.316 46.5727 183.316 46.5727C183.316 46.5727 186.521 41.388 186.34 39.9335C186.158 38.4791 192.752 27.471 192.752 27.471C192.752 27.471 193.761 21.6504 188.904 20.1032C188.904 20.1032 187.186 17.5327 182.766 17.5572C178.346 17.5818 162.426 20.1032 162.426 20.1032Z" fill="#4C4981"/>
<path opacity="0.1" d="M163.295 85.1419C161.406 84.5579 158.443 85.8459 157.5 86.2334C157.891 84.6671 158.221 83.6028 158.221 83.6028L163.168 82.7842C163.168 82.7842 163.176 83.8539 163.295 85.1419Z" fill="black"/>
<path d="M151.338 31.3814H148.683C148.683 31.3814 148.133 36.9319 148.683 38.5691C149.232 40.2064 149.507 39.969 149.323 41.1806C149.139 42.3922 150.607 44.2478 150.607 44.2478C150.607 44.2478 150.788 48.8213 151.706 50.5241C152.624 52.2269 150.697 59.8621 150.697 59.8621C151.223 61.1802 152 62.3848 152.987 63.4096C154.545 64.9541 155.37 70.6846 154.911 72.8676C154.452 75.0507 156.195 75.8693 156.195 75.8693C156.195 75.8693 156.929 86.0588 157.203 86.0588C157.478 86.0588 162.792 83.3299 164.441 85.6931L163.157 76.3251L163.251 58.2248C163.251 58.2248 161.508 55.949 162.426 53.9488C163.344 51.9485 161.692 47.2168 161.692 47.2168L159.309 36.6672L151.338 31.3814Z" fill="#4C4981"/>
<path d="M134.846 175.19C134.846 175.19 130.997 174.372 130.907 175.19C130.816 176.009 126.325 184.378 131.915 186.834C137.506 189.29 152.437 194.565 176.719 187.743C176.719 187.743 178.275 188.288 177.909 184.924C177.544 181.559 177.544 177.829 177.544 177.829C177.544 177.829 173.877 176.827 171.128 177.193C168.38 177.559 144.466 182.378 134.846 175.19Z" fill="#33323D"/>
<path opacity="0.1" d="M134.846 175.19C134.846 175.19 130.997 174.372 130.907 175.19C130.816 176.009 126.325 184.378 131.915 186.834C137.506 189.29 152.437 194.565 176.719 187.743C176.719 187.743 178.275 188.288 177.909 184.924C177.544 181.559 177.544 177.829 177.544 177.829C177.544 177.829 173.877 176.827 171.128 177.193C168.38 177.559 144.466 182.378 134.846 175.19Z" fill="black"/>
<path d="M134.846 174.099C134.846 174.099 130.997 173.28 130.907 174.099C130.816 174.917 126.325 183.287 131.915 185.743C137.506 188.198 152.437 193.473 176.719 186.651C176.719 186.651 178.275 187.197 177.909 183.832C177.544 180.468 177.544 176.737 177.544 176.737C177.544 176.737 173.877 175.736 171.128 176.102C168.38 176.467 144.466 181.286 134.846 174.099Z" fill="#33323D"/>
<path d="M157.286 34.6505C157.05 35.9849 156.514 37.2675 156.431 38.6182C156.349 39.969 156.874 41.5053 158.13 42.0347C158.48 42.1387 158.82 42.2757 159.144 42.444C159.628 42.7688 159.826 43.38 159.927 43.9531C160.062 44.6929 160.095 45.4476 160.024 46.1962C159.955 46.9493 159.793 47.7598 160.167 48.4174C160.824 49.5826 162.536 49.4107 163.839 49.0833L163.391 52.5297C163.355 52.8026 163.333 53.111 163.534 53.2965C163.629 53.3628 163.736 53.4096 163.849 53.4339C163.962 53.4583 164.08 53.4599 164.193 53.4384C165.326 53.3675 166.491 53.212 167.462 52.6198C168.432 52.0276 169.155 50.9252 168.971 49.8146C168.756 48.5266 167.415 47.5033 167.596 46.2098C167.737 45.2083 168.723 44.5725 169.372 43.803C170.546 42.3949 170.609 40.2555 169.688 38.6619C168.767 37.0683 166.989 36.0804 165.158 35.9003C164.144 35.7994 163.088 35.9222 162.135 35.5729C161.803 35.452 161.504 35.2566 161.26 35.0019C161.017 34.7473 160.837 34.4402 160.733 34.1048" fill="#444053"/>
<path d="M125.319 155.998L126.278 153.924C126.278 153.924 131.456 149.135 132.647 148.8C133.837 148.464 138.694 147.001 139.428 147.001C140.162 147.001 153.539 146.273 153.539 146.273L155.095 149.913L138.306 153.572L132.647 157.666L125.319 155.998Z" fill="#767D9F"/>
<path d="M165.656 100.148L164.779 106.847L164.441 109.426L160.502 109.971C160.502 109.971 160.076 109.065 159.474 107.674C157.646 103.45 154.205 94.7392 156.2 93.2356C158.853 91.2326 159.499 97.8746 159.499 97.8746L162.522 96.4174L165.656 100.148Z" fill="#FFB9B9"/>
<path d="M164.999 112.61H145.107V142.444H164.999V112.61Z" fill="white"/>
<path opacity="0.1" d="M164.999 112.61H145.107V142.444H164.999V112.61Z" fill="black"/>
<path d="M173.939 114.225L154.261 111.337L149.866 140.851L169.544 143.739L173.939 114.225Z" fill="white"/>
<path d="M166.242 115.639L156.113 114.152L153.851 129.342L163.98 130.828L166.242 115.639Z" fill="#1D9B75"/>
<path d="M165.037 135.466L152.765 133.665L152.274 136.963L164.546 138.764L165.037 135.466Z" fill="#1D9B75"/>
<path opacity="0.1" d="M170.213 37.3384C176.563 37.3384 181.711 32.2279 181.711 25.9238C181.711 19.6196 176.563 14.5091 170.213 14.5091C163.863 14.5091 158.715 19.6196 158.715 25.9238C158.715 32.2279 163.863 37.3384 170.213 37.3384Z" fill="black"/>
<path d="M170.213 37.0655C176.563 37.0655 181.711 31.955 181.711 25.6509C181.711 19.3468 176.563 14.2362 170.213 14.2362C163.863 14.2362 158.715 19.3468 158.715 25.6509C158.715 31.955 163.863 37.0655 170.213 37.0655Z" fill="#AE6E79"/>
<path d="M160.733 34.1102C160.655 33.8162 160.683 33.5043 160.813 33.2288C161.25 32.3256 162.495 32.2464 163.504 32.2928C165.876 32.402 168.479 32.4156 170.334 30.9284C171.104 30.3172 171.964 28.7808 173.083 29.0728C174.078 29.3321 174.493 30.6719 175.529 30.9694C176.279 31.1849 177.057 30.8411 177.821 30.6965C178.921 30.4809 180.048 30.661 181.164 30.6692C182.28 30.6774 183.492 30.4673 184.253 29.6568C185.281 28.5653 185.114 26.8598 185.023 25.3644C184.91 23.4327 185.042 21.4946 185.416 19.5956C185.79 17.7073 186.364 15.5952 185.314 13.977C184.314 12.4352 182.241 12.0123 180.826 10.8307C179.501 9.73915 178.8 7.98998 177.401 6.97759C175.639 5.70323 173.245 5.88606 171.079 6.1071L166.379 6.60374C165.166 6.732 163.905 6.87662 162.907 7.5943C161.107 8.88776 160.859 11.5756 159.155 12.9919C158.396 13.6195 157.426 13.9306 156.56 14.4C155.694 14.8693 154.859 15.6116 154.76 16.583C154.677 17.4017 155.123 18.1576 155.34 18.9462C155.854 20.8291 155.051 22.7665 154.537 24.6631C154.023 26.5596 153.924 28.8627 155.417 30.1207C155.719 30.3772 156.071 30.5737 156.365 30.8411C157.374 31.7553 157.511 33.297 157.278 34.6287" fill="#444053"/>
<path d="M171.15 39.909C171.302 39.909 171.425 39.6035 171.425 39.2268C171.425 38.85 171.302 38.5446 171.15 38.5446C170.999 38.5446 170.875 38.85 170.875 39.2268C170.875 39.6035 170.999 39.909 171.15 39.909Z" fill="#444053"/>
<path d="M171.15 42.7524C171.302 42.7524 171.425 42.447 171.425 42.0702C171.425 41.6934 171.302 41.388 171.15 41.388C170.999 41.388 170.875 41.6934 170.875 42.0702C170.875 42.447 170.999 42.7524 171.15 42.7524Z" fill="#444053"/>
<path d="M165.054 102.071C165.348 101.736 165.543 100.873 165.656 99.7356L162.379 95.6806C162.379 95.6806 163.767 103.542 165.054 102.071Z" fill="#AE6E79"/>
<path opacity="0.1" d="M168.748 169.097C168.748 169.097 163.372 177.349 146.574 176.465C130.75 175.646 123.026 167.915 123.394 165.186C123.763 162.457 122.386 155.816 125.775 153.905C127.74 152.8 130.327 153.455 132.152 154.203C132.782 154.457 133.473 154.529 134.143 154.409C134.812 154.29 135.435 153.985 135.937 153.529C137.605 152.036 140.717 150.355 145.629 151.679C146.261 151.846 146.927 151.834 147.553 151.643C149.598 151.024 154.466 149.949 157.998 152.336C158.556 152.718 159.212 152.935 159.89 152.96C160.567 152.986 161.238 152.82 161.824 152.481L161.874 152.451C163.523 151.449 171.219 160.91 171.219 160.91C171.219 160.91 171.587 168.188 168.748 169.097Z" fill="black"/>
<path d="M168.748 169.37C168.748 169.37 163.372 177.622 146.574 176.737C130.75 175.919 123.026 168.188 123.394 165.459C123.763 162.73 122.386 156.088 125.775 154.178C127.74 153.073 130.327 153.728 132.152 154.476C132.782 154.73 133.473 154.802 134.143 154.682C134.812 154.563 135.435 154.258 135.937 153.802C137.605 152.309 140.717 150.628 145.629 151.952C146.261 152.119 146.927 152.107 147.553 151.916C149.598 151.297 154.466 150.221 157.998 152.609C158.556 152.991 159.212 153.208 159.89 153.233C160.567 153.259 161.238 153.093 161.824 152.754L161.874 152.724C163.523 151.722 171.219 161.183 171.219 161.183C171.219 161.183 171.587 168.461 168.748 169.37Z" fill="#767D9F"/>
<path opacity="0.1" d="M146.574 172.601C152.622 172.601 157.525 167.733 157.525 161.729C157.525 155.725 152.622 150.857 146.574 150.857C140.526 150.857 135.623 155.725 135.623 161.729C135.623 167.733 140.526 172.601 146.574 172.601Z" fill="black"/>
<path d="M146.574 172.873C152.622 172.873 157.525 168.006 157.525 162.002C157.525 155.998 152.622 151.13 146.574 151.13C140.526 151.13 135.623 155.998 135.623 162.002C135.623 168.006 140.526 172.873 146.574 172.873Z" fill="#FFB9B9"/>
<path d="M143.435 152.604C142.286 152.912 141.154 153.501 140.593 154.47C140.255 155.054 140.137 155.755 139.648 156.241C138.955 156.932 137.787 156.945 136.849 157.333C135.912 157.72 135.294 159.085 136.212 159.516C135.255 159.565 134.546 160.441 134.428 161.311C134.31 162.182 134.642 163.05 134.964 163.879C136.014 166.564 137.143 169.367 139.458 171.277C143.229 174.393 148.913 174.249 153.979 173.919C154.393 173.932 154.803 173.838 155.169 173.646C155.719 173.285 155.788 172.595 155.879 171.989C156.261 169.402 157.674 167.053 158.597 164.583C159.521 162.114 159.9 159.213 158.344 157.027C156.055 153.785 147.289 151.567 143.435 152.604Z" fill="#B96B6B"/>
<path opacity="0.1" d="M164.779 106.847L164.441 109.426L160.502 109.971C160.502 109.971 160.076 109.065 159.474 107.674L164.716 106.697L164.779 106.847Z" fill="black"/>
<path d="M168.929 163.822L171.222 161.183L170.763 146.63C170.989 145.58 171.142 144.516 171.222 143.446C171.313 141.899 170.076 138.444 170.076 138.444C170.267 137.752 170.528 137.081 170.854 136.441C171.403 135.349 170.078 132.893 170.078 132.893C170.078 132.893 168.105 126.527 168.929 123.343C169.754 120.158 168.729 118.341 168.729 118.341C168.729 118.341 167.923 114.793 168.014 113.339C168.105 111.884 166.181 110.517 166.181 110.517L164.716 106.97L158.853 108.061V120.341C158.853 120.341 159.218 132.075 158.853 134.351C158.487 136.626 159.584 138.807 159.584 138.807C159.584 138.807 158.943 142.171 159.493 143.446C160.043 144.72 161.142 147.812 161.142 147.812C160.938 148.917 161.001 150.054 161.327 151.13C161.876 152.724 161.327 153.632 161.327 153.632L168.929 163.822Z" fill="#767D9F"/>
<g opacity="0.1">
<path opacity="0.1" d="M185.424 18.6979C185.114 20.2952 184.975 21.9206 185.009 23.547C185.033 22.1946 185.175 20.8469 185.435 19.5192C185.677 18.3076 185.985 17.0033 185.919 15.7944C185.818 16.7719 185.653 17.7417 185.424 18.6979Z" fill="black"/>
<path opacity="0.1" d="M156.373 29.9624C156.079 29.6895 155.728 29.4985 155.425 29.2393C154.623 28.5598 154.284 27.5747 154.218 26.5105C154.139 27.8749 154.419 29.1956 155.425 30.0579C155.728 30.3172 156.079 30.5136 156.373 30.7811C156.988 31.3851 157.345 32.2013 157.368 33.0596C157.448 31.9135 157.215 30.721 156.373 29.9624Z" fill="black"/>
<path opacity="0.1" d="M155.497 19.773C155.545 19.1967 155.494 18.6164 155.348 18.0566C155.189 17.4726 154.903 16.9023 154.798 16.3156C154.798 16.3784 154.776 16.4439 154.768 16.5121C154.688 17.3307 155.134 18.0866 155.348 18.8752C155.427 19.169 155.477 19.4697 155.497 19.773Z" fill="black"/>
<path opacity="0.1" d="M184.262 28.759C183.5 29.5777 182.288 29.7796 181.172 29.7714C180.056 29.7632 178.927 29.5831 177.83 29.8014C177.066 29.9542 176.288 30.2953 175.537 30.0743C174.501 29.7769 174.086 28.437 173.094 28.1778C171.964 27.8831 171.104 29.4194 170.345 30.0307C168.49 31.5042 165.887 31.4906 163.515 31.3951C162.506 31.3487 161.261 31.4278 160.826 32.3338C160.694 32.6085 160.666 32.9214 160.747 33.2152L157.388 33.7391C157.375 34.0136 157.345 34.2871 157.297 34.5578L160.747 34.012C160.666 33.7182 160.694 33.4053 160.826 33.1306C161.261 32.2246 162.506 32.1455 163.515 32.1919C165.887 32.301 168.49 32.3147 170.345 30.8275C171.115 30.2162 171.975 28.6799 173.094 28.9746C174.086 29.2311 174.501 30.5737 175.537 30.8711C176.288 31.084 177.066 30.7429 177.83 30.5982C178.929 30.3799 180.056 30.56 181.172 30.5682C182.288 30.5764 183.5 30.3663 184.262 29.5558C185.023 28.7454 185.133 27.5365 185.086 26.3577C185.053 27.2718 184.864 28.1178 184.262 28.759Z" fill="black"/>
</g>
<g opacity="0.1">
<path opacity="0.1" d="M158.817 41.8655C158.493 41.6963 158.154 41.5592 157.803 41.4562C157.206 41.1871 156.733 40.7063 156.475 40.1082C156.681 41.0496 157.204 41.9065 158.078 42.2749C158.428 42.3779 158.768 42.515 159.092 42.6842C159.299 42.8294 159.466 43.0235 159.578 43.2491C159.468 42.7142 159.268 42.1684 158.817 41.8655Z" fill="black"/>
<path opacity="0.1" d="M163.512 48.5048C162.245 48.824 160.59 48.9905 159.895 47.9235C159.916 48.1806 159.991 48.4305 160.114 48.6576C160.708 49.7082 162.159 49.6727 163.394 49.4135L163.512 48.5048Z" fill="black"/>
<path opacity="0.1" d="M168.646 49.2524C168.822 50.3603 168.097 51.4655 167.135 52.0468C166.172 52.628 164.999 52.789 163.866 52.8654C163.686 52.8885 163.503 52.8679 163.333 52.8054C163.281 52.9207 163.265 53.0485 163.285 53.1731C163.306 53.2977 163.362 53.4137 163.448 53.507C163.534 53.6002 163.645 53.6666 163.768 53.698C163.891 53.7295 164.021 53.7246 164.141 53.6841C165.274 53.6131 166.439 53.4576 167.409 52.8654C168.38 52.2732 169.105 51.1708 168.918 50.0602C168.866 49.7798 168.774 49.5079 168.646 49.2524Z" fill="black"/>
<path opacity="0.1" d="M169.867 39.3741C170.035 40.0376 170.047 40.7303 169.905 41.3995C169.762 42.0687 169.467 42.6966 169.042 43.2354C168.393 44.0159 167.407 44.6408 167.266 45.6422C167.22 46.1027 167.316 46.5663 167.541 46.9712C167.517 46.802 167.517 46.6301 167.541 46.4609C167.681 45.4594 168.668 44.8236 169.317 44.0541C170.383 42.7743 170.532 40.8886 169.867 39.3741Z" fill="black"/>
</g>
<g opacity="0.1">
<path opacity="0.1" d="M136.852 157.753C137.787 157.368 138.955 157.355 139.65 156.661C140.14 156.176 140.258 155.474 140.596 154.893C141.146 153.922 142.286 153.335 143.435 153.027C147.283 151.99 156.057 154.206 158.344 157.417C159.014 158.389 159.38 159.536 159.394 160.714C159.482 159.354 159.114 158.004 158.347 156.874C156.06 153.662 147.294 151.447 143.438 152.484C142.289 152.792 141.157 153.379 140.599 154.35C140.261 154.931 140.142 155.633 139.653 156.118C138.958 156.809 137.789 156.822 136.855 157.21C136.143 157.502 135.615 158.364 135.808 158.943C135.884 158.681 136.017 158.439 136.198 158.234C136.378 158.028 136.601 157.864 136.852 157.753Z" fill="black"/>
<path opacity="0.1" d="M134.433 161.718C134.549 160.845 135.258 159.972 136.217 159.922C136.116 159.881 136.026 159.817 135.954 159.736C135.881 159.656 135.827 159.56 135.797 159.456C135.432 159.59 135.111 159.821 134.869 160.124C134.626 160.426 134.472 160.789 134.422 161.172C134.396 161.394 134.396 161.619 134.422 161.841C134.433 161.8 134.433 161.759 134.433 161.718Z" fill="black"/>
</g>
<path d="M192.659 62.8283H167.646V95.2112H192.659V62.8283Z" fill="white"/>
<path opacity="0.1" d="M192.659 62.8283H167.646V95.2112H192.659V62.8283Z" fill="black"/>
<path d="M202.216 64.7281L177.565 68.9377L183.094 100.852L207.745 96.6424L202.216 64.7281Z" fill="white"/>
<path d="M189.331 89.7046L183.539 90.6936L184.838 98.1915L190.63 97.2025L189.331 89.7046Z" fill="#1D9B75"/>
<path d="M197.345 88.3346L191.554 89.3236L192.853 96.8214L198.644 95.8324L197.345 88.3346Z" fill="#1D9B75"/>
<path d="M203.009 77.3496L182.698 80.8121L184 88.344L204.311 84.8815L203.009 77.3496Z" fill="#1D9B75"/>
<path d="M201.316 68.3603L181.005 71.8228L181.295 73.5032L201.606 70.0406L201.316 68.3603Z" fill="#1D9B75"/>
<path d="M201.982 71.4513L181.671 74.9139L181.961 76.5942L202.272 73.1317L201.982 71.4513Z" fill="#1D9B75"/>
<path d="M181.711 54.0306C181.711 54.0306 170.213 65.4916 175.985 68.4033C181.758 71.3149 185.515 58.716 185.515 58.716L186.428 55.8507L181.711 54.0306Z" fill="#AE6E79"/>
<path opacity="0.1" d="M180.705 53.0182L179.284 56.1345C179.284 56.1345 186.293 57.1114 187.758 59.2153L186.889 53.7168L185.859 51.37L180.705 53.0182Z" fill="black"/>
<path d="M180.98 52.7453L179.559 55.8616C179.559 55.8616 186.568 56.8385 188.033 58.9425L187.164 53.4439L186.134 51.0971L180.98 52.7453Z" fill="#4C4981"/>
<path d="M223.409 110.042L223.257 110.146L223.466 110.239L223.692 110.22L223.719 110.064L223.409 110.042Z" fill="#464A5F"/>
<path opacity="0.1" d="M223.409 110.042L223.257 110.146L223.466 110.239L223.692 110.22L223.719 110.064L223.409 110.042Z" fill="black"/>
<path d="M223.409 110.042L223.255 110.141L223.134 109.993L223.208 109.873L223.277 109.851L223.409 110.042Z" fill="#9C9CA1"/>
<path opacity="0.1" d="M223.409 110.042L223.255 110.141L223.134 109.993L223.208 109.873L223.277 109.851L223.409 110.042Z" fill="black"/>
<path d="M250.464 91.1835L239.211 75.048C239.111 74.904 238.984 74.7809 238.836 74.6858C238.689 74.5907 238.523 74.5254 238.35 74.4937C238.177 74.462 238 74.4645 237.827 74.5011C237.655 74.5377 237.492 74.6076 237.347 74.7069L212.263 91.8002C211.969 92.0002 211.768 92.3076 211.702 92.655C211.637 93.0023 211.713 93.3613 211.914 93.6531L223.137 109.993L250.464 91.1835Z" fill="#9C9CA1"/>
<path opacity="0.1" d="M250.464 91.1835L239.211 75.048C239.111 74.904 238.984 74.7809 238.836 74.6858C238.689 74.5907 238.523 74.5254 238.35 74.4937C238.177 74.462 238 74.4645 237.827 74.5011C237.655 74.5377 237.492 74.6076 237.347 74.7069L212.263 91.8002C211.969 92.0002 211.768 92.3076 211.702 92.655C211.637 93.0023 211.713 93.3613 211.914 93.6531L223.137 109.993L250.464 91.1835Z" fill="black"/>
<path d="M250.739 91.2217L239.486 75.0862C239.386 74.9421 239.258 74.8189 239.11 74.7238C238.962 74.6286 238.797 74.5634 238.624 74.5317C238.45 74.5 238.272 74.5025 238.1 74.5392C237.928 74.5758 237.764 74.6458 237.619 74.7451L212.538 91.8493C212.244 92.0494 212.043 92.3565 211.977 92.7037C211.911 93.0509 211.986 93.4098 212.186 93.7022L223.409 110.051L250.739 91.2217Z" fill="#9C9CA1"/>
<path d="M260.145 94.4117L250.799 91.4318L223.466 110.242L232.96 113.325C233.173 113.394 233.398 113.412 233.619 113.379C233.84 113.346 234.05 113.262 234.233 113.134L260.222 94.9165C260.271 94.8894 260.31 94.8482 260.334 94.7983C260.359 94.7485 260.368 94.6925 260.359 94.6377C260.351 94.5829 260.326 94.5319 260.288 94.4915C260.249 94.4511 260.2 94.4233 260.145 94.4117Z" fill="#464A5F"/>
<path opacity="0.1" d="M260.145 94.4117L250.799 91.4318L223.466 110.242L232.96 113.325C233.173 113.394 233.398 113.412 233.619 113.379C233.84 113.346 234.05 113.262 234.233 113.134L260.222 94.9165C260.271 94.8894 260.31 94.8482 260.334 94.7983C260.359 94.7485 260.368 94.6925 260.359 94.6377C260.351 94.5829 260.326 94.5319 260.288 94.4915C260.249 94.4511 260.2 94.4233 260.145 94.4117Z" fill="black"/>
<path d="M260.087 94.2234L250.742 91.2408L223.409 110.051L232.903 113.129C233.115 113.198 233.34 113.218 233.562 113.185C233.783 113.152 233.993 113.069 234.175 112.94L260.164 94.7228C260.211 94.6949 260.248 94.6539 260.272 94.6048C260.295 94.5558 260.303 94.501 260.295 94.4474C260.286 94.3939 260.262 94.344 260.225 94.3041C260.188 94.2642 260.14 94.2361 260.087 94.2234Z" fill="#464A5F"/>
<g opacity="0.1">
<path opacity="0.1" d="M246.325 90.5013L245.635 89.5189C245.593 89.4619 245.531 89.423 245.461 89.4103C245.392 89.3976 245.32 89.4121 245.261 89.4507L244.235 90.1302C244.178 90.1704 244.138 90.2311 244.124 90.2997C244.111 90.3682 244.124 90.4394 244.161 90.4986L244.796 91.4673C244.836 91.5253 244.897 91.5659 244.966 91.5806C245.035 91.5954 245.107 91.5831 245.167 91.5464L246.248 90.8724C246.306 90.8325 246.347 90.7715 246.361 90.7023C246.376 90.6331 246.363 90.561 246.325 90.5013Z" fill="black"/>
<path opacity="0.1" d="M244.483 91.7675L243.79 90.7878C243.749 90.7309 243.687 90.692 243.617 90.6792C243.547 90.6665 243.476 90.681 243.416 90.7196L242.394 91.4046C242.336 91.4444 242.296 91.5049 242.281 91.5735C242.267 91.642 242.28 91.7135 242.317 91.7729L242.952 92.7417C242.991 92.8002 243.052 92.8413 243.121 92.8566C243.19 92.8718 243.262 92.86 243.323 92.8235L244.406 92.1495C244.436 92.1297 244.463 92.104 244.483 92.074C244.504 92.0439 244.518 92.0101 244.525 91.9745C244.532 91.939 244.532 91.9023 244.525 91.8668C244.518 91.8312 244.503 91.7975 244.483 91.7675Z" fill="black"/>
<path opacity="0.1" d="M242.548 93.0964L241.855 92.1168C241.814 92.0598 241.752 92.0209 241.682 92.0082C241.612 91.9955 241.54 92.0099 241.481 92.0485L240.456 92.7335C240.398 92.7738 240.357 92.835 240.344 92.9042C240.33 92.9734 240.343 93.0452 240.382 93.1046L241.017 94.0733C241.056 94.1313 241.117 94.1719 241.186 94.1867C241.255 94.2014 241.328 94.1892 241.388 94.1525L242.468 93.4784C242.499 93.4588 242.525 93.4333 242.546 93.4033C242.567 93.3734 242.581 93.3397 242.589 93.3041C242.596 93.2685 242.596 93.2318 242.589 93.1961C242.582 93.1605 242.568 93.1266 242.548 93.0964Z" fill="black"/>
<path opacity="0.1" d="M240.588 94.4444L239.895 93.4621C239.854 93.4058 239.792 93.3674 239.723 93.3548C239.654 93.3421 239.583 93.3561 239.524 93.3939L238.499 94.0815C238.441 94.1218 238.402 94.1825 238.388 94.251C238.374 94.3196 238.387 94.3907 238.425 94.4499L239.06 95.4186C239.099 95.4764 239.159 95.517 239.227 95.5322C239.296 95.5475 239.368 95.5361 239.428 95.5005L240.511 94.8237C240.541 94.8039 240.567 94.7784 240.587 94.7485C240.608 94.7187 240.622 94.6852 240.629 94.65C240.636 94.6147 240.636 94.5784 240.629 94.5432C240.622 94.5079 240.608 94.4743 240.588 94.4444Z" fill="black"/>
<path opacity="0.1" d="M238.631 95.7898L237.938 94.8101C237.897 94.7531 237.835 94.7142 237.765 94.7015C237.695 94.6888 237.624 94.7033 237.564 94.7419L236.542 95.4268C236.484 95.4667 236.444 95.5272 236.429 95.5957C236.415 95.6643 236.428 95.7357 236.465 95.7952L237.1 96.764C237.139 96.8224 237.2 96.8636 237.269 96.8788C237.338 96.8941 237.41 96.8823 237.471 96.8458L238.554 96.1691C238.584 96.1492 238.61 96.1237 238.63 96.0939C238.651 96.064 238.665 96.0305 238.672 95.9953C238.679 95.96 238.679 95.9237 238.672 95.8885C238.665 95.8532 238.651 95.8197 238.631 95.7898Z" fill="black"/>
<path opacity="0.1" d="M236.759 97.2579L235.899 96.0408C235.89 96.0273 235.878 96.0157 235.864 96.0067C235.85 95.9977 235.835 95.9915 235.819 95.9884C235.803 95.9854 235.786 95.9856 235.77 95.9889C235.754 95.9923 235.739 95.9988 235.726 96.0081L234.467 96.8513C234.453 96.8601 234.441 96.8716 234.432 96.8851C234.422 96.8986 234.416 96.9137 234.412 96.9298C234.409 96.9458 234.409 96.9623 234.412 96.9783C234.415 96.9944 234.422 97.0096 234.431 97.0232L235.22 98.2266C235.238 98.2542 235.266 98.2737 235.298 98.2809C235.331 98.288 235.365 98.2823 235.393 98.2648L236.723 97.4461C236.739 97.4371 236.753 97.4248 236.764 97.41C236.774 97.3951 236.782 97.3781 236.785 97.3602C236.789 97.3423 236.788 97.3239 236.783 97.3062C236.779 97.2885 236.771 97.272 236.759 97.2579Z" fill="black"/>
<path opacity="0.1" d="M234.802 98.6031L233.936 97.3861C233.927 97.3724 233.915 97.3608 233.901 97.3518C233.887 97.3427 233.871 97.3365 233.855 97.3335C233.839 97.3304 233.822 97.3306 233.806 97.334C233.789 97.3374 233.774 97.344 233.76 97.3533L232.501 98.1965C232.474 98.2153 232.456 98.2437 232.45 98.2758C232.443 98.3079 232.45 98.3412 232.468 98.3684L233.257 99.5719C233.266 99.5861 233.277 99.5985 233.29 99.6083C233.304 99.618 233.319 99.6249 233.335 99.6285C233.352 99.6321 233.368 99.6323 233.385 99.6291C233.401 99.6259 233.417 99.6194 233.43 99.6101L234.758 98.7914C234.775 98.7835 234.79 98.7719 234.802 98.7574C234.814 98.743 234.822 98.726 234.826 98.7079C234.83 98.6897 234.83 98.6709 234.826 98.6527C234.822 98.6346 234.814 98.6176 234.802 98.6031Z" fill="black"/>
<path opacity="0.1" d="M233.067 99.7957L232.207 98.5895C232.188 98.5632 232.159 98.5453 232.127 98.5397C232.094 98.5341 232.061 98.5412 232.034 98.5595L230.775 99.4C230.747 99.4188 230.728 99.4476 230.722 99.4801C230.715 99.5127 230.721 99.5466 230.739 99.5746L231.528 100.778C231.547 100.805 231.575 100.824 231.607 100.831C231.639 100.838 231.673 100.833 231.701 100.816L233.032 99.9976C233.05 99.989 233.066 99.9762 233.078 99.9602C233.091 99.9443 233.099 99.9256 233.102 99.9058C233.106 99.886 233.104 99.8657 233.098 99.8465C233.092 99.8274 233.082 99.8099 233.067 99.7957Z" fill="black"/>
<path opacity="0.1" d="M231.127 101.127L230.267 99.9102C230.247 99.8839 230.218 99.8661 230.186 99.8605C230.154 99.8549 230.121 99.8619 230.093 99.8802L228.835 100.721C228.821 100.73 228.809 100.742 228.799 100.755C228.79 100.769 228.783 100.784 228.78 100.801C228.777 100.817 228.777 100.834 228.78 100.85C228.783 100.866 228.789 100.882 228.799 100.895L229.588 102.099C229.606 102.126 229.634 102.145 229.667 102.152C229.699 102.159 229.733 102.154 229.761 102.137L231.091 101.318C231.107 101.309 231.121 101.296 231.132 101.281C231.142 101.266 231.15 101.249 231.153 101.231C231.157 101.213 231.156 101.194 231.151 101.176C231.147 101.158 231.139 101.142 231.127 101.127Z" fill="black"/>
<path opacity="0.1" d="M229.247 102.41L228.386 101.193C228.377 101.179 228.366 101.168 228.352 101.159C228.338 101.15 228.323 101.143 228.307 101.14C228.291 101.137 228.274 101.138 228.258 101.141C228.242 101.144 228.227 101.151 228.213 101.16L226.954 102.003C226.94 102.012 226.929 102.024 226.919 102.037C226.91 102.051 226.903 102.066 226.9 102.082C226.897 102.098 226.897 102.114 226.9 102.13C226.903 102.146 226.909 102.162 226.919 102.175L227.708 103.379C227.726 103.406 227.754 103.426 227.786 103.433C227.819 103.44 227.853 103.434 227.881 103.417L229.211 102.598C229.227 102.589 229.241 102.577 229.252 102.562C229.262 102.547 229.27 102.53 229.273 102.512C229.276 102.494 229.276 102.476 229.271 102.458C229.267 102.441 229.258 102.424 229.247 102.41Z" fill="black"/>
<path opacity="0.1" d="M227.367 103.714L226.515 102.494C226.495 102.468 226.466 102.45 226.434 102.445C226.402 102.439 226.369 102.446 226.341 102.464L225.082 103.305C225.069 103.314 225.057 103.326 225.047 103.339C225.038 103.353 225.031 103.369 225.028 103.385C225.025 103.401 225.025 103.418 225.028 103.434C225.031 103.45 225.037 103.466 225.047 103.48L225.836 104.683C225.854 104.71 225.882 104.729 225.915 104.736C225.947 104.743 225.98 104.738 226.009 104.721L227.339 103.902C227.355 103.893 227.368 103.88 227.377 103.865C227.387 103.85 227.394 103.832 227.396 103.815C227.399 103.797 227.398 103.779 227.393 103.761C227.387 103.744 227.379 103.728 227.367 103.714Z" fill="black"/>
<path opacity="0.1" d="M225.487 105.005L224.626 103.788C224.617 103.774 224.605 103.763 224.592 103.754C224.578 103.745 224.563 103.739 224.547 103.736C224.531 103.732 224.514 103.733 224.498 103.736C224.482 103.739 224.467 103.746 224.453 103.755L223.194 104.593C223.18 104.602 223.168 104.613 223.159 104.627C223.15 104.64 223.143 104.655 223.14 104.671C223.137 104.687 223.137 104.704 223.14 104.72C223.143 104.736 223.149 104.751 223.158 104.765L223.947 105.968C223.965 105.996 223.994 106.015 224.026 106.023C224.058 106.03 224.092 106.024 224.121 106.006L225.451 105.188C225.466 105.179 225.479 105.167 225.489 105.152C225.499 105.138 225.506 105.121 225.51 105.104C225.513 105.087 225.513 105.069 225.509 105.052C225.505 105.035 225.497 105.019 225.487 105.005Z" fill="black"/>
<path opacity="0.1" d="M245.088 88.7248L244.395 87.7424C244.353 87.6854 244.291 87.6465 244.222 87.6338C244.152 87.6211 244.08 87.6356 244.021 87.6742L243.007 88.3619C242.949 88.4017 242.908 88.4622 242.894 88.5308C242.88 88.5994 242.893 88.6708 242.93 88.7303L243.565 89.699C243.605 89.757 243.665 89.7976 243.734 89.8123C243.803 89.8271 243.876 89.8148 243.936 89.7781L245.019 89.1041C245.079 89.0628 245.119 88.9997 245.132 88.9286C245.145 88.8575 245.129 88.7842 245.088 88.7248Z" fill="black"/>
<path opacity="0.1" d="M242.38 84.8417L241.687 83.8539C241.646 83.7976 241.585 83.7593 241.516 83.7466C241.447 83.7339 241.375 83.7479 241.316 83.7857L240.291 84.4706C240.233 84.5105 240.193 84.571 240.178 84.6395C240.164 84.7081 240.177 84.7795 240.214 84.839L240.849 85.8077C240.888 85.8662 240.949 85.9074 241.018 85.9226C241.087 85.9379 241.16 85.926 241.22 85.8896L242.303 85.2156C242.363 85.1756 242.404 85.1141 242.418 85.0442C242.433 84.9743 242.419 84.9017 242.38 84.8417Z" fill="black"/>
<path opacity="0.1" d="M243.243 89.991L242.55 89.0113C242.509 88.9551 242.448 88.9167 242.379 88.904C242.31 88.8913 242.238 88.9053 242.179 88.9431L241.154 89.628C241.097 89.6683 241.057 89.729 241.043 89.7975C241.029 89.8661 241.042 89.9373 241.08 89.9964L241.712 90.9652C241.751 91.0236 241.812 91.0648 241.881 91.08C241.95 91.0953 242.023 91.0835 242.083 91.047L243.166 90.373C243.197 90.3532 243.223 90.3275 243.244 90.2975C243.264 90.2674 243.278 90.2336 243.285 90.198C243.293 90.1625 243.293 90.1258 243.285 90.0903C243.278 90.0547 243.264 90.021 243.243 89.991Z" fill="black"/>
<path opacity="0.1" d="M241.308 91.3199L240.615 90.3403C240.574 90.2833 240.512 90.2444 240.442 90.2317C240.373 90.219 240.301 90.2335 240.242 90.2721L239.219 90.9488C239.16 90.9887 239.119 91.0497 239.105 91.119C239.091 91.1882 239.104 91.2602 239.142 91.3199L239.777 92.2887C239.817 92.3467 239.878 92.3873 239.947 92.402C240.016 92.4168 240.088 92.4045 240.148 92.3678L241.231 91.6938C241.291 91.6538 241.332 91.5923 241.346 91.5224C241.361 91.4526 241.347 91.3799 241.308 91.3199Z" fill="black"/>
<path opacity="0.1" d="M239.348 92.668L238.658 91.6856C238.617 91.6286 238.555 91.5897 238.485 91.577C238.416 91.5643 238.344 91.5788 238.285 91.6174L237.259 92.3133C237.202 92.3535 237.162 92.4142 237.148 92.4827C237.134 92.5513 237.148 92.6225 237.185 92.6816L237.82 93.6504C237.86 93.7084 237.92 93.749 237.99 93.7637C238.059 93.7785 238.131 93.7662 238.191 93.7295L239.271 93.0555C239.303 93.0357 239.33 93.0097 239.351 92.9792C239.372 92.9487 239.386 92.9143 239.393 92.8781C239.401 92.8419 239.4 92.8046 239.392 92.7685C239.385 92.7323 239.37 92.6982 239.348 92.668Z" fill="black"/>
<path opacity="0.1" d="M240.58 86.1707L239.887 85.191C239.846 85.1348 239.784 85.0964 239.715 85.0837C239.646 85.071 239.575 85.085 239.516 85.1228L238.491 85.8077C238.433 85.8476 238.392 85.9081 238.378 85.9767C238.364 86.0452 238.376 86.1166 238.414 86.1761L239.049 87.1449C239.088 87.2033 239.149 87.2445 239.218 87.2597C239.287 87.275 239.359 87.2632 239.42 87.2267L240.503 86.5527C240.533 86.5329 240.56 86.5072 240.58 86.4771C240.601 86.4471 240.615 86.4133 240.622 86.3777C240.629 86.3422 240.629 86.3055 240.622 86.27C240.615 86.2344 240.6 86.2007 240.58 86.1707Z" fill="black"/>
<path opacity="0.1" d="M238.645 87.5023L237.952 86.52C237.911 86.463 237.848 86.4241 237.779 86.4114C237.709 86.3986 237.637 86.4131 237.578 86.4517L236.556 87.1285C236.498 87.1684 236.457 87.2288 236.443 87.2974C236.429 87.366 236.441 87.4374 236.479 87.4969L237.114 88.4656C237.153 88.5236 237.214 88.5642 237.283 88.579C237.352 88.5937 237.424 88.5814 237.485 88.5447L238.568 87.8707C238.626 87.8308 238.666 87.7704 238.68 87.7018C238.695 87.6332 238.682 87.5618 238.645 87.5023Z" fill="black"/>
<path opacity="0.1" d="M236.685 88.8476L235.992 87.868C235.951 87.8113 235.89 87.7724 235.821 87.7592C235.752 87.746 235.68 87.7595 235.621 87.797L234.596 88.4929C234.538 88.5332 234.498 88.5938 234.485 88.6624C234.471 88.7309 234.484 88.8021 234.522 88.8613L235.157 89.83C235.196 89.8885 235.256 89.9296 235.326 89.9449C235.395 89.9601 235.467 89.9483 235.528 89.9119L236.608 89.2351C236.639 89.2153 236.666 89.1893 236.687 89.1588C236.708 89.1284 236.723 89.094 236.73 89.0577C236.737 89.0215 236.737 88.9842 236.729 88.9481C236.721 88.912 236.706 88.8778 236.685 88.8476Z" fill="black"/>
<path opacity="0.1" d="M237.391 94.0133L236.699 93.0336C236.658 92.977 236.596 92.938 236.527 92.9248C236.458 92.9116 236.387 92.9252 236.327 92.9627L235.31 93.6504C235.253 93.6906 235.213 93.7513 235.199 93.8199C235.186 93.8884 235.199 93.9596 235.236 94.0187L235.86 94.9875C235.899 95.0452 235.959 95.0859 236.028 95.1011C236.096 95.1163 236.168 95.105 236.229 95.0693L237.312 94.3926C237.342 94.373 237.368 94.3476 237.389 94.3179C237.409 94.2881 237.424 94.2547 237.431 94.2194C237.438 94.1842 237.439 94.1478 237.432 94.1124C237.425 94.077 237.411 94.0433 237.391 94.0133Z" fill="black"/>
<path opacity="0.1" d="M235.434 95.3586L234.741 94.379C234.7 94.322 234.638 94.2831 234.568 94.2704C234.499 94.2577 234.427 94.2721 234.368 94.3107L233.345 94.9957C233.287 95.0355 233.247 95.096 233.232 95.1646C233.218 95.2332 233.231 95.3046 233.268 95.3641L233.903 96.3328C233.942 96.3913 234.003 96.4324 234.072 96.4477C234.141 96.4629 234.214 96.4511 234.274 96.4146L235.357 95.7406C235.388 95.7208 235.414 95.6951 235.435 95.6651C235.455 95.635 235.469 95.6012 235.476 95.5657C235.484 95.5301 235.483 95.4935 235.476 95.4579C235.469 95.4223 235.455 95.3886 235.434 95.3586Z" fill="black"/>
<path opacity="0.1" d="M233.562 96.8267L232.702 95.6096C232.693 95.5961 232.681 95.5845 232.667 95.5755C232.654 95.5665 232.638 95.5603 232.622 95.5573C232.606 95.5542 232.59 95.5544 232.574 95.5577C232.558 95.5611 232.542 95.5676 232.529 95.5769L231.27 96.4201C231.256 96.4289 231.244 96.4404 231.235 96.4539C231.225 96.4674 231.219 96.4826 231.216 96.4986C231.212 96.5146 231.212 96.5311 231.215 96.5471C231.219 96.5632 231.225 96.5784 231.234 96.592L232.023 97.7954C232.032 97.8094 232.043 97.8215 232.057 97.831C232.07 97.8405 232.085 97.8473 232.102 97.8508C232.118 97.8544 232.134 97.8547 232.151 97.8517C232.167 97.8488 232.182 97.8426 232.196 97.8336L233.527 97.015C233.543 97.006 233.556 96.9936 233.567 96.9788C233.578 96.9639 233.585 96.947 233.588 96.929C233.592 96.9111 233.591 96.8927 233.587 96.875C233.582 96.8573 233.574 96.8408 233.562 96.8267Z" fill="black"/>
<path opacity="0.1" d="M231.828 98.0192L230.967 96.7994C230.948 96.7731 230.919 96.7552 230.887 96.7496C230.855 96.744 230.821 96.7511 230.794 96.7694L229.538 97.6098C229.511 97.6287 229.491 97.6574 229.485 97.69C229.478 97.7226 229.484 97.7565 229.502 97.7845L230.291 98.9879C230.31 99.015 230.338 99.0341 230.37 99.0412C230.402 99.0483 230.436 99.0429 230.464 99.0261L231.795 98.2075C231.811 98.1989 231.826 98.1867 231.837 98.1718C231.848 98.1569 231.855 98.1396 231.858 98.1214C231.862 98.1032 231.86 98.0845 231.855 98.0667C231.85 98.049 231.841 98.0327 231.828 98.0192Z" fill="black"/>
<path opacity="0.1" d="M229.887 99.3509L229.027 98.1338C229.008 98.1075 228.979 98.0896 228.946 98.084C228.914 98.0784 228.881 98.0855 228.854 98.1038L227.595 98.9443C227.581 98.9531 227.569 98.9646 227.56 98.9781C227.55 98.9916 227.544 99.0067 227.541 99.0227C227.537 99.0388 227.537 99.0553 227.54 99.0713C227.544 99.0874 227.55 99.1026 227.559 99.1162L228.348 100.322C228.366 100.349 228.395 100.368 228.427 100.376C228.459 100.383 228.493 100.377 228.521 100.361L229.852 99.5419C229.868 99.5326 229.881 99.52 229.892 99.5049C229.903 99.4898 229.91 99.4726 229.913 99.4545C229.917 99.4364 229.916 99.4177 229.912 99.3998C229.907 99.3819 229.899 99.3652 229.887 99.3509Z" fill="black"/>
<path opacity="0.1" d="M228.007 100.644L227.147 99.4273C227.138 99.4137 227.126 99.4021 227.112 99.3931C227.099 99.3841 227.083 99.3779 227.067 99.3749C227.051 99.3718 227.034 99.372 227.018 99.3754C227.002 99.3787 226.987 99.3852 226.974 99.3945L225.715 100.227C225.701 100.236 225.689 100.247 225.68 100.261C225.67 100.274 225.664 100.289 225.661 100.305C225.657 100.321 225.657 100.338 225.66 100.354C225.663 100.37 225.67 100.385 225.679 100.399L226.468 101.602C226.486 101.63 226.514 101.649 226.547 101.656C226.579 101.664 226.613 101.658 226.641 101.64L227.971 100.822C227.986 100.813 227.998 100.801 228.008 100.787C228.017 100.773 228.024 100.757 228.027 100.741C228.031 100.724 228.031 100.707 228.027 100.69C228.024 100.674 228.017 100.658 228.007 100.644Z" fill="black"/>
<path opacity="0.1" d="M240.019 89.4725L239.326 88.4929C239.285 88.4367 239.223 88.3983 239.154 88.3856C239.085 88.3729 239.014 88.3869 238.955 88.4247L237.93 89.1123C237.872 89.1526 237.833 89.2133 237.819 89.2818C237.805 89.3504 237.818 89.4216 237.856 89.4807L238.491 90.4495C238.53 90.5068 238.591 90.5468 238.659 90.5616C238.727 90.5763 238.799 90.5645 238.859 90.5286L239.942 89.8546C239.973 89.8347 239.999 89.8091 240.019 89.779C240.04 89.749 240.054 89.7152 240.061 89.6796C240.068 89.644 240.068 89.6074 240.061 89.5718C240.054 89.5363 240.039 89.5025 240.019 89.4725Z" fill="black"/>
<path opacity="0.1" d="M238.059 90.8206L237.367 89.8382C237.325 89.7812 237.263 89.7423 237.193 89.7296C237.124 89.7169 237.052 89.7314 236.993 89.77L235.97 90.4577C235.912 90.4975 235.872 90.558 235.858 90.6266C235.843 90.6952 235.856 90.7666 235.893 90.826L236.528 91.7948C236.567 91.8532 236.628 91.8944 236.697 91.9096C236.766 91.9249 236.839 91.9131 236.899 91.8766L237.982 91.1999C238.012 91.1801 238.038 91.1545 238.059 91.1247C238.079 91.0949 238.093 91.0614 238.1 91.0261C238.107 90.9909 238.107 90.9546 238.1 90.9193C238.093 90.884 238.079 90.8505 238.059 90.8206Z" fill="black"/>
<path opacity="0.1" d="M236.105 92.1658L235.412 91.1862C235.371 91.1292 235.309 91.0903 235.239 91.0776C235.169 91.0649 235.097 91.0794 235.038 91.118L234.013 91.8029C233.955 91.8432 233.916 91.9039 233.902 91.9724C233.888 92.041 233.901 92.1122 233.939 92.1713L234.574 93.14C234.613 93.1985 234.674 93.2397 234.743 93.2549C234.812 93.2702 234.884 93.2583 234.945 93.2219L236.025 92.5452C236.056 92.5255 236.082 92.5001 236.102 92.4704C236.123 92.4407 236.137 92.4072 236.145 92.372C236.152 92.3367 236.152 92.3003 236.145 92.265C236.139 92.2296 236.125 92.1959 236.105 92.1658Z" fill="black"/>
<path opacity="0.1" d="M234.145 93.5112L233.452 92.5315C233.411 92.4753 233.349 92.4369 233.28 92.4242C233.211 92.4115 233.14 92.4255 233.081 92.4633L232.056 93.1482C231.998 93.1885 231.959 93.2492 231.945 93.3178C231.931 93.3863 231.944 93.4575 231.982 93.5166L232.617 94.4963C232.656 94.554 232.716 94.5947 232.785 94.6099C232.853 94.6251 232.925 94.6138 232.985 94.5782L234.068 93.9041C234.1 93.8843 234.128 93.8581 234.149 93.8272C234.171 93.7962 234.186 93.7612 234.193 93.7243C234.2 93.6875 234.2 93.6495 234.191 93.6128C234.183 93.5761 234.167 93.5415 234.145 93.5112Z" fill="black"/>
<path opacity="0.1" d="M232.287 94.9793L231.427 93.7622C231.417 93.7487 231.406 93.7371 231.392 93.7281C231.378 93.7191 231.363 93.7129 231.347 93.7099C231.331 93.7068 231.314 93.707 231.298 93.7104C231.282 93.7137 231.267 93.7202 231.253 93.7295L229.994 94.5727C229.967 94.591 229.948 94.6193 229.941 94.6514C229.935 94.6836 229.941 94.717 229.959 94.7446L230.748 95.9508C230.757 95.9645 230.768 95.9764 230.782 95.9856C230.795 95.9949 230.811 96.0014 230.827 96.0047C230.843 96.008 230.859 96.008 230.876 96.0049C230.892 96.0017 230.907 95.9954 230.921 95.9862L232.251 95.1676C232.267 95.1586 232.281 95.1462 232.292 95.1314C232.302 95.1166 232.31 95.0996 232.313 95.0817C232.316 95.0638 232.316 95.0453 232.311 95.0276C232.307 95.01 232.298 94.9935 232.287 94.9793Z" fill="black"/>
<path opacity="0.1" d="M230.542 96.1718L229.681 94.952C229.661 94.9255 229.632 94.9076 229.599 94.902C229.566 94.8964 229.533 94.9035 229.505 94.922L228.249 95.7625C228.221 95.7813 228.202 95.81 228.196 95.8426C228.189 95.8752 228.195 95.9091 228.213 95.9371L229.002 97.1405C229.02 97.1682 229.049 97.1877 229.081 97.1948C229.113 97.202 229.147 97.1962 229.175 97.1787L230.506 96.3601C230.522 96.3511 230.536 96.3387 230.546 96.3239C230.557 96.309 230.564 96.2921 230.568 96.2742C230.571 96.2562 230.57 96.2378 230.566 96.2201C230.561 96.2024 230.553 96.1859 230.542 96.1718Z" fill="black"/>
<path opacity="0.1" d="M228.601 97.498L227.741 96.2782C227.721 96.2517 227.691 96.2338 227.659 96.2282C227.626 96.2226 227.592 96.2298 227.565 96.2482L226.306 97.0887C226.279 97.1079 226.26 97.1366 226.253 97.169C226.247 97.2014 226.253 97.2351 226.27 97.2633L227.062 98.4667C227.08 98.4944 227.108 98.5139 227.14 98.521C227.173 98.5282 227.207 98.5224 227.235 98.5049L228.562 97.6863C228.579 97.6779 228.593 97.6659 228.605 97.6512C228.616 97.6365 228.624 97.6194 228.627 97.6013C228.631 97.5833 228.631 97.5646 228.626 97.5467C228.621 97.5288 228.613 97.5121 228.601 97.498Z" fill="black"/>
<path opacity="0.1" d="M226.721 98.7969L225.86 97.5798C225.851 97.5662 225.839 97.5545 225.825 97.5455C225.811 97.5365 225.796 97.5303 225.779 97.5272C225.763 97.5242 225.746 97.5244 225.73 97.5278C225.714 97.5312 225.698 97.5377 225.684 97.5471L224.426 98.3903C224.399 98.409 224.38 98.4375 224.374 98.4696C224.368 98.5017 224.374 98.5349 224.393 98.5622L225.181 99.7656C225.19 99.7799 225.201 99.7923 225.215 99.802C225.228 99.8118 225.243 99.8186 225.26 99.8222C225.276 99.8258 225.293 99.826 225.309 99.8229C225.325 99.8197 225.341 99.8132 225.355 99.8038L226.682 98.9852C226.699 98.9768 226.713 98.9648 226.724 98.9501C226.736 98.9354 226.743 98.9183 226.747 98.9002C226.751 98.8821 226.75 98.8635 226.746 98.8456C226.741 98.8277 226.733 98.811 226.721 98.7969Z" fill="black"/>
<path opacity="0.1" d="M226.127 101.935L225.267 100.718C225.247 100.692 225.219 100.674 225.186 100.668C225.154 100.663 225.121 100.67 225.094 100.688L223.835 101.528C223.821 101.537 223.809 101.549 223.8 101.562C223.79 101.576 223.784 101.591 223.78 101.607C223.777 101.623 223.777 101.639 223.78 101.656C223.783 101.672 223.79 101.687 223.799 101.7L224.588 102.907C224.606 102.934 224.635 102.953 224.667 102.96C224.699 102.967 224.733 102.962 224.761 102.945L226.091 102.126C226.107 102.117 226.121 102.104 226.132 102.089C226.143 102.074 226.15 102.057 226.153 102.039C226.157 102.021 226.156 102.002 226.152 101.984C226.147 101.966 226.139 101.949 226.127 101.935Z" fill="black"/>
<path opacity="0.1" d="M224.247 103.229L223.387 102.011C223.377 101.998 223.366 101.986 223.352 101.977C223.338 101.968 223.323 101.962 223.307 101.959C223.291 101.956 223.274 101.956 223.258 101.96C223.242 101.963 223.227 101.969 223.213 101.979L221.954 102.822C221.941 102.831 221.929 102.842 221.919 102.856C221.91 102.869 221.904 102.884 221.9 102.9C221.897 102.916 221.897 102.933 221.9 102.949C221.903 102.965 221.91 102.98 221.919 102.994L222.708 104.197C222.726 104.225 222.754 104.244 222.786 104.252C222.819 104.259 222.853 104.253 222.881 104.235L224.211 103.417C224.227 103.408 224.241 103.395 224.252 103.381C224.262 103.366 224.27 103.349 224.273 103.331C224.276 103.313 224.276 103.295 224.271 103.277C224.267 103.259 224.259 103.243 224.247 103.229Z" fill="black"/>
<path opacity="0.1" d="M227.199 95.495L226.374 94.3489C226.348 94.3133 226.31 94.2891 226.266 94.2814C226.222 94.2738 226.177 94.2833 226.141 94.308L224.953 95.1021C224.935 95.1142 224.919 95.1298 224.907 95.148C224.894 95.1663 224.886 95.1868 224.881 95.2084C224.877 95.2299 224.877 95.2521 224.881 95.2737C224.886 95.2953 224.894 95.3158 224.907 95.334L225.649 96.4665C225.66 96.4852 225.675 96.5014 225.693 96.5142C225.711 96.527 225.732 96.536 225.753 96.5409C225.775 96.5457 225.797 96.5462 225.819 96.5423C225.84 96.5385 225.861 96.5303 225.88 96.5183L227.136 95.7351C227.157 95.7241 227.175 95.709 227.189 95.6907C227.204 95.6724 227.214 95.6513 227.22 95.6288C227.226 95.6062 227.227 95.5827 227.224 95.5597C227.22 95.5367 227.212 95.5147 227.199 95.495Z" fill="black"/>
<path opacity="0.1" d="M225.319 96.7885L224.508 95.6424C224.496 95.6242 224.48 95.6087 224.461 95.5967C224.443 95.5847 224.422 95.5764 224.4 95.5723C224.379 95.5683 224.356 95.5685 224.335 95.573C224.313 95.5776 224.293 95.5863 224.274 95.5987L223.087 96.4064C223.069 96.4183 223.053 96.4337 223.04 96.4517C223.028 96.4697 223.019 96.49 223.015 96.5113C223.011 96.5326 223.011 96.5546 223.015 96.576C223.019 96.5974 223.028 96.6176 223.04 96.6357L223.782 97.7708C223.807 97.8075 223.844 97.8334 223.887 97.8431C223.93 97.8527 223.976 97.8454 224.013 97.8227L225.269 97.0395C225.291 97.0275 225.309 97.011 225.323 96.9913C225.337 96.9716 225.347 96.949 225.352 96.9252C225.357 96.9014 225.356 96.8769 225.35 96.8533C225.345 96.8297 225.334 96.8076 225.319 96.7885Z" fill="black"/>
<path opacity="0.1" d="M223.439 98.082L222.628 96.9331C222.602 96.8975 222.563 96.8733 222.519 96.8657C222.476 96.858 222.431 96.8675 222.394 96.8922L221.207 97.6863C221.188 97.6984 221.172 97.714 221.16 97.7323C221.148 97.7505 221.139 97.771 221.135 97.7926C221.13 97.8142 221.13 97.8364 221.135 97.8579C221.139 97.8795 221.148 97.9 221.16 97.9182L221.902 99.0507C221.914 99.0694 221.929 99.0856 221.947 99.0984C221.965 99.1112 221.985 99.1203 222.007 99.1251C222.028 99.1299 222.051 99.1304 222.072 99.1266C222.094 99.1227 222.115 99.1145 222.133 99.1025L223.389 98.3194C223.409 98.3075 223.426 98.2918 223.439 98.2732C223.452 98.2546 223.461 98.2335 223.466 98.2113C223.47 98.189 223.47 98.1661 223.466 98.1439C223.461 98.1216 223.452 98.1006 223.439 98.082Z" fill="black"/>
<path opacity="0.1" d="M221.583 99.4081L220.723 98.1884C220.704 98.162 220.675 98.1442 220.643 98.1386C220.61 98.133 220.577 98.1401 220.55 98.1584L219.291 98.9988C219.263 99.0177 219.244 99.0464 219.238 99.079C219.231 99.1115 219.237 99.1454 219.255 99.1735L220.044 100.377C220.063 100.404 220.091 100.423 220.123 100.43C220.155 100.437 220.189 100.432 220.217 100.415L221.548 99.5964C221.564 99.5882 221.579 99.5762 221.59 99.5614C221.602 99.5466 221.609 99.5294 221.613 99.5111C221.616 99.4929 221.615 99.4741 221.61 99.4562C221.605 99.4383 221.596 99.4219 221.583 99.4081Z" fill="black"/>
<path opacity="0.1" d="M243.831 86.8146L243.086 85.764C243.045 85.7075 242.982 85.6692 242.913 85.657C242.843 85.6448 242.771 85.6597 242.713 85.6986L239.805 87.7206C239.748 87.7612 239.709 87.8216 239.696 87.8895C239.683 87.9573 239.696 88.0277 239.733 88.0863L240.434 89.1614C240.454 89.1912 240.48 89.2167 240.51 89.2366C240.54 89.2564 240.574 89.2701 240.61 89.277C240.645 89.2838 240.682 89.2836 240.717 89.2765C240.752 89.2693 240.786 89.2552 240.816 89.2351L243.768 87.1858C243.825 87.1438 243.863 87.0818 243.874 87.0128C243.886 86.9437 243.871 86.8727 243.831 86.8146Z" fill="black"/>
<path opacity="0.1" d="M224.835 100.049L223.923 98.7696C223.913 98.7559 223.901 98.7442 223.887 98.7352C223.873 98.7263 223.858 98.7202 223.841 98.7174C223.825 98.7146 223.808 98.7151 223.792 98.7189C223.775 98.7227 223.76 98.7298 223.747 98.7396L220.608 100.923C220.581 100.941 220.562 100.969 220.556 101.001C220.55 101.032 220.557 101.065 220.575 101.092L221.432 102.41C221.441 102.424 221.453 102.436 221.467 102.446C221.481 102.455 221.497 102.462 221.514 102.465C221.531 102.469 221.548 102.469 221.565 102.465C221.581 102.462 221.597 102.455 221.611 102.445L224.802 100.227C224.83 100.208 224.849 100.178 224.855 100.145C224.862 100.112 224.854 100.077 224.835 100.049Z" fill="black"/>
<path opacity="0.1" d="M234.821 90.2612L233.98 89.0387C233.961 89.0119 233.933 88.9935 233.9 88.9874C233.868 88.9813 233.834 88.9879 233.807 89.0059L226.836 93.6777C226.809 93.696 226.79 93.7243 226.783 93.7564C226.776 93.7885 226.783 93.822 226.8 93.8496L227.661 95.1594C227.67 95.1736 227.682 95.1859 227.696 95.1954C227.71 95.2049 227.726 95.2116 227.743 95.2149C227.759 95.2182 227.776 95.2181 227.793 95.2147C227.81 95.2113 227.825 95.2045 227.839 95.1949L234.788 90.4358C234.802 90.4265 234.814 90.4146 234.823 90.4008C234.832 90.387 234.838 90.3715 234.841 90.3553C234.844 90.3391 234.844 90.3224 234.841 90.3063C234.837 90.2901 234.831 90.2748 234.821 90.2612Z" fill="black"/>
</g>
<path d="M246.509 90.534L245.816 89.5516C245.775 89.4946 245.712 89.4557 245.643 89.443C245.573 89.4303 245.501 89.4448 245.442 89.4834L244.42 90.1711C244.362 90.2109 244.321 90.2714 244.307 90.34C244.293 90.4086 244.305 90.48 244.343 90.5395L244.978 91.5082C245.017 91.5667 245.077 91.6078 245.147 91.6231C245.216 91.6383 245.288 91.6265 245.349 91.5901L246.432 90.9133C246.462 90.8935 246.488 90.8679 246.508 90.8381C246.528 90.8083 246.542 90.7748 246.55 90.7396C246.557 90.7043 246.557 90.668 246.55 90.6327C246.543 90.5974 246.529 90.5639 246.509 90.534Z" fill="#464A5F"/>
<path d="M244.656 91.8002L243.963 90.8205C243.922 90.7643 243.86 90.7259 243.791 90.7132C243.722 90.7005 243.651 90.7145 243.592 90.7523L242.567 91.4372C242.509 91.4771 242.469 91.5376 242.454 91.6062C242.44 91.6747 242.453 91.7462 242.49 91.8056L243.125 92.7744C243.164 92.8328 243.225 92.874 243.294 92.8893C243.363 92.9045 243.435 92.8927 243.496 92.8562L244.579 92.1822C244.61 92.1624 244.636 92.1367 244.656 92.1066C244.677 92.0766 244.691 92.0428 244.698 92.0072C244.705 91.9717 244.705 91.935 244.698 91.8995C244.691 91.8639 244.677 91.8302 244.656 91.8002Z" fill="#464A5F"/>
<path d="M242.732 93.1319L242.039 92.1522C241.998 92.0952 241.936 92.0563 241.866 92.0436C241.796 92.0309 241.725 92.0454 241.665 92.084L240.643 92.7717C240.585 92.8115 240.545 92.872 240.53 92.9406C240.516 93.0092 240.529 93.0806 240.566 93.14L241.201 94.1088C241.241 94.1668 241.301 94.2074 241.37 94.2221C241.44 94.2369 241.512 94.2246 241.572 94.1879L242.655 93.5139C242.686 93.4941 242.712 93.4684 242.732 93.4383C242.753 93.4083 242.767 93.3745 242.774 93.3389C242.781 93.3033 242.781 93.2667 242.774 93.2312C242.767 93.1956 242.752 93.1618 242.732 93.1319Z" fill="#464A5F"/>
<path d="M240.769 94.4772L240.077 93.4948C240.035 93.4385 239.974 93.4002 239.905 93.3875C239.836 93.3748 239.765 93.3888 239.706 93.4266L238.68 94.1142C238.65 94.1345 238.624 94.1605 238.604 94.1907C238.584 94.221 238.571 94.2549 238.564 94.2904C238.557 94.326 238.558 94.3625 238.566 94.3978C238.573 94.4331 238.588 94.4666 238.609 94.4963L239.244 95.465C239.283 95.5235 239.344 95.5646 239.413 95.5799C239.482 95.5951 239.554 95.5833 239.615 95.5469L240.695 94.8701C240.727 94.8501 240.755 94.8237 240.776 94.7927C240.797 94.7616 240.812 94.7266 240.819 94.6897C240.825 94.6528 240.825 94.6149 240.816 94.5783C240.808 94.5418 240.792 94.5073 240.769 94.4772Z" fill="#464A5F"/>
<path d="M238.812 95.8225L238.12 94.8428C238.078 94.7866 238.017 94.7482 237.948 94.7355C237.879 94.7228 237.807 94.7368 237.749 94.7746L236.723 95.4595C236.666 95.4998 236.626 95.5605 236.612 95.629C236.598 95.6976 236.612 95.7688 236.649 95.8279L237.281 96.7967C237.321 96.8551 237.381 96.8963 237.45 96.9115C237.519 96.9268 237.592 96.915 237.652 96.8785L238.735 96.2018C238.766 96.1819 238.792 96.1564 238.812 96.1266C238.832 96.0967 238.846 96.0633 238.853 96.028C238.86 95.9928 238.86 95.9565 238.853 95.9212C238.846 95.8859 238.832 95.8524 238.812 95.8225Z" fill="#464A5F"/>
<path d="M236.94 97.2906L236.08 96.0736C236.071 96.06 236.059 96.0484 236.046 96.0394C236.032 96.0304 236.017 96.0242 236 96.0212C235.984 96.0181 235.968 96.0183 235.952 96.0217C235.936 96.025 235.92 96.0315 235.907 96.0408L234.648 96.884C234.634 96.8928 234.622 96.9043 234.613 96.9178C234.604 96.9313 234.597 96.9465 234.594 96.9625C234.59 96.9785 234.59 96.995 234.594 97.0111C234.597 97.0271 234.603 97.0424 234.612 97.0559L235.401 98.2593C235.419 98.287 235.447 98.3065 235.48 98.3136C235.512 98.3208 235.546 98.315 235.574 98.2975L236.905 97.4789C236.921 97.4699 236.935 97.4575 236.945 97.4427C236.956 97.4279 236.963 97.4109 236.967 97.393C236.97 97.3751 236.969 97.3566 236.965 97.3389C236.96 97.3213 236.952 97.3048 236.94 97.2906Z" fill="#464A5F"/>
<path d="M234.983 98.6359L234.123 97.4188C234.114 97.4052 234.102 97.3935 234.088 97.3845C234.074 97.3755 234.058 97.3693 234.042 97.3662C234.026 97.3632 234.009 97.3634 233.993 97.3668C233.976 97.3702 233.961 97.3767 233.947 97.3861L232.691 98.2293C232.677 98.2381 232.665 98.2496 232.656 98.2631C232.647 98.2766 232.64 98.2918 232.637 98.3078C232.633 98.3238 232.633 98.3403 232.636 98.3563C232.64 98.3724 232.646 98.3876 232.655 98.4012L233.444 99.6074C233.453 99.6211 233.465 99.633 233.478 99.6422C233.492 99.6515 233.507 99.6579 233.523 99.6612C233.539 99.6646 233.556 99.6646 233.572 99.6615C233.588 99.6583 233.604 99.652 233.617 99.6428L234.948 98.8242C234.963 98.8148 234.977 98.8024 234.987 98.7875C234.998 98.7726 235.005 98.7558 235.008 98.738C235.011 98.7202 235.011 98.7019 235.007 98.6843C235.003 98.6667 234.995 98.6502 234.983 98.6359Z" fill="#464A5F"/>
<path d="M233.249 99.8284L232.389 98.6086C232.369 98.5823 232.34 98.5644 232.308 98.5588C232.276 98.5532 232.243 98.5603 232.215 98.5786L230.957 99.4081C230.929 99.427 230.91 99.4557 230.903 99.4883C230.896 99.5209 230.903 99.5548 230.921 99.5828L231.71 100.786C231.728 100.813 231.756 100.832 231.789 100.839C231.821 100.847 231.855 100.841 231.883 100.824L233.213 100.006C233.228 99.9967 233.24 99.9848 233.249 99.9708C233.259 99.9569 233.266 99.9412 233.269 99.9246C233.272 99.9081 233.272 99.891 233.269 99.8745C233.265 99.8579 233.259 99.8423 233.249 99.8284Z" fill="#464A5F"/>
<path d="M231.308 101.163L230.448 99.9539C230.429 99.9276 230.4 99.9098 230.368 99.9042C230.335 99.8986 230.302 99.9056 230.275 99.9239L229.016 100.764C229.002 100.773 228.99 100.785 228.981 100.799C228.971 100.813 228.965 100.828 228.961 100.844C228.958 100.861 228.958 100.877 228.961 100.894C228.965 100.91 228.971 100.925 228.98 100.939L229.769 102.142C229.788 102.17 229.816 102.189 229.848 102.196C229.88 102.203 229.914 102.197 229.942 102.181L231.273 101.362C231.29 101.353 231.306 101.341 231.318 101.325C231.33 101.309 231.338 101.291 231.341 101.271C231.345 101.252 231.344 101.232 231.338 101.213C231.332 101.194 231.322 101.177 231.308 101.163Z" fill="#464A5F"/>
<path d="M229.428 102.453L228.568 101.236C228.559 101.223 228.547 101.211 228.533 101.202C228.52 101.193 228.504 101.187 228.488 101.184C228.472 101.181 228.456 101.181 228.44 101.185C228.424 101.188 228.408 101.194 228.395 101.204L227.136 102.047C227.122 102.056 227.11 102.067 227.101 102.081C227.091 102.094 227.085 102.109 227.082 102.125C227.078 102.141 227.078 102.158 227.081 102.174C227.085 102.19 227.091 102.205 227.1 102.219L227.889 103.422C227.898 103.436 227.909 103.448 227.923 103.458C227.936 103.467 227.951 103.474 227.967 103.478C227.984 103.481 228 103.482 228.017 103.479C228.033 103.476 228.048 103.469 228.062 103.46L229.393 102.642C229.409 102.633 229.422 102.62 229.433 102.606C229.444 102.591 229.451 102.574 229.454 102.556C229.458 102.538 229.457 102.519 229.453 102.502C229.448 102.484 229.44 102.468 229.428 102.453Z" fill="#464A5F"/>
<path d="M227.548 103.747L226.688 102.527C226.668 102.501 226.64 102.483 226.607 102.477C226.575 102.472 226.542 102.479 226.515 102.497L225.256 103.338C225.228 103.356 225.209 103.385 225.202 103.418C225.196 103.45 225.202 103.484 225.22 103.512L226.009 104.716C226.027 104.743 226.056 104.762 226.088 104.769C226.12 104.776 226.154 104.771 226.182 104.754L227.512 103.935C227.528 103.926 227.542 103.914 227.553 103.899C227.564 103.884 227.571 103.867 227.574 103.849C227.578 103.831 227.577 103.813 227.573 103.795C227.568 103.778 227.56 103.761 227.548 103.747Z" fill="#464A5F"/>
<path d="M225.668 105.038L224.808 103.821C224.799 103.807 224.787 103.796 224.773 103.787C224.759 103.778 224.744 103.771 224.728 103.768C224.712 103.765 224.695 103.765 224.679 103.769C224.663 103.772 224.648 103.779 224.635 103.788L223.376 104.631C223.362 104.64 223.35 104.651 223.341 104.665C223.331 104.678 223.325 104.694 223.321 104.71C223.318 104.726 223.318 104.742 223.321 104.758C223.324 104.774 223.331 104.789 223.34 104.803L224.129 106.006C224.137 106.02 224.149 106.032 224.162 106.042C224.176 106.052 224.191 106.058 224.207 106.062C224.223 106.065 224.24 106.066 224.256 106.063C224.273 106.06 224.288 106.054 224.302 106.045L225.632 105.226C225.648 105.217 225.662 105.205 225.673 105.19C225.683 105.175 225.691 105.158 225.694 105.14C225.698 105.122 225.697 105.104 225.692 105.086C225.688 105.068 225.68 105.052 225.668 105.038Z" fill="#464A5F"/>
<path d="M245.269 88.7657L244.576 87.7834C244.535 87.7271 244.473 87.6887 244.404 87.676C244.335 87.6634 244.264 87.6773 244.205 87.7151L243.18 88.4028C243.122 88.4431 243.083 88.5038 243.069 88.5723C243.055 88.6408 243.068 88.712 243.106 88.7712L243.738 89.7399C243.777 89.7984 243.838 89.8395 243.907 89.8548C243.976 89.87 244.048 89.8582 244.109 89.8218L245.192 89.145C245.222 89.1252 245.248 89.0996 245.268 89.0698C245.289 89.04 245.303 89.0065 245.31 88.9713C245.317 88.936 245.317 88.8997 245.31 88.8644C245.303 88.8292 245.289 88.7956 245.269 88.7657Z" fill="#464A5F"/>
<path d="M242.562 84.8744L241.869 83.8948C241.828 83.8385 241.766 83.8001 241.697 83.7875C241.628 83.7748 241.557 83.7888 241.498 83.8266L240.473 84.5115C240.415 84.5518 240.375 84.6125 240.361 84.681C240.348 84.7495 240.361 84.8207 240.398 84.8799L241.033 85.8486C241.073 85.9064 241.133 85.947 241.201 85.9622C241.27 85.9775 241.341 85.9661 241.402 85.9305L242.485 85.2565C242.515 85.2366 242.542 85.211 242.562 85.1809C242.582 85.1509 242.597 85.1171 242.604 85.0815C242.611 85.0459 242.611 85.0093 242.604 84.9737C242.596 84.9382 242.582 84.9044 242.562 84.8744Z" fill="#464A5F"/>
<path d="M243.425 90.0237L242.732 89.0386C242.691 88.9824 242.629 88.944 242.56 88.9313C242.491 88.9186 242.42 88.9326 242.361 88.9704L241.336 89.6554C241.278 89.6956 241.238 89.7563 241.224 89.8248C241.211 89.8934 241.224 89.9646 241.261 90.0237L241.896 90.9925C241.936 91.0502 241.996 91.0909 242.064 91.1061C242.133 91.1213 242.204 91.1099 242.265 91.0743L243.348 90.4003C243.408 90.3603 243.45 90.2983 243.464 90.2278C243.479 90.1572 243.464 90.0839 243.425 90.0237Z" fill="#464A5F"/>
<path d="M241.489 91.3527L240.808 90.373C240.766 90.3168 240.705 90.2784 240.636 90.2657C240.567 90.253 240.496 90.267 240.437 90.3048L239.411 90.9897C239.353 91.0301 239.313 91.0912 239.299 91.1604C239.285 91.2296 239.299 91.3015 239.337 91.3608L239.969 92.3296C240.009 92.3876 240.07 92.4282 240.139 92.4429C240.208 92.4577 240.28 92.4454 240.341 92.4087L241.424 91.7347C241.453 91.714 241.479 91.6877 241.498 91.6572C241.517 91.6268 241.531 91.5928 241.537 91.5573C241.543 91.5218 241.542 91.4854 241.534 91.4503C241.526 91.4152 241.511 91.382 241.489 91.3527Z" fill="#464A5F"/>
<path d="M239.532 92.7007L238.84 91.7183C238.798 91.6614 238.736 91.6225 238.667 91.6098C238.597 91.597 238.525 91.6115 238.466 91.6501L237.443 92.3378C237.385 92.3777 237.345 92.4381 237.331 92.5067C237.316 92.5753 237.329 92.6467 237.366 92.7062L238.001 93.6749C238.041 93.7334 238.101 93.7745 238.17 93.7898C238.24 93.805 238.312 93.7932 238.373 93.7568L239.455 93.08C239.486 93.0602 239.512 93.0347 239.532 93.0048C239.552 92.975 239.566 92.9415 239.573 92.9063C239.581 92.871 239.581 92.8347 239.574 92.7994C239.567 92.7642 239.553 92.7306 239.532 92.7007Z" fill="#464A5F"/>
<path d="M240.761 86.2034L240.068 85.2183C240.027 85.1621 239.966 85.1237 239.897 85.111C239.828 85.0983 239.756 85.1123 239.697 85.1501L238.672 85.835C238.615 85.8753 238.575 85.936 238.561 86.0045C238.547 86.0731 238.56 86.1442 238.598 86.2034L239.233 87.1721C239.272 87.2299 239.332 87.2705 239.401 87.2858C239.469 87.301 239.541 87.2896 239.601 87.254L240.684 86.58C240.744 86.54 240.786 86.4779 240.801 86.4074C240.815 86.3369 240.801 86.2636 240.761 86.2034Z" fill="#464A5F"/>
<path d="M238.826 87.5351L238.133 86.5527C238.092 86.4964 238.03 86.458 237.961 86.4454C237.892 86.4327 237.821 86.4467 237.762 86.4845L236.737 87.1721C236.679 87.212 236.639 87.2725 236.624 87.341C236.61 87.4096 236.623 87.481 236.66 87.5405L237.295 88.5092C237.334 88.5677 237.395 88.6089 237.464 88.6241C237.533 88.6394 237.606 88.6275 237.666 88.5911L238.749 87.9144C238.779 87.8945 238.805 87.869 238.825 87.8392C238.846 87.8093 238.86 87.7758 238.867 87.7406C238.874 87.7053 238.874 87.669 238.867 87.6338C238.86 87.5985 238.846 87.5649 238.826 87.5351Z" fill="#464A5F"/>
<path d="M236.869 88.8803L236.176 87.9007C236.135 87.8437 236.073 87.8048 236.003 87.7921C235.934 87.7794 235.862 87.7938 235.802 87.8325L234.78 88.5174C234.722 88.5573 234.682 88.6178 234.667 88.6863C234.653 88.7549 234.666 88.8263 234.703 88.8858L235.338 89.8573C235.377 89.9157 235.438 89.9569 235.507 89.9721C235.576 89.9874 235.648 89.9756 235.709 89.9391L236.789 89.2624C236.82 89.2428 236.847 89.2172 236.867 89.1873C236.888 89.1573 236.903 89.1236 236.91 89.088C236.917 89.0524 236.918 89.0157 236.911 88.9801C236.904 88.9444 236.889 88.9105 236.869 88.8803Z" fill="#464A5F"/>
<path d="M237.573 94.046L236.88 93.0664C236.839 93.0101 236.777 92.9717 236.708 92.959C236.639 92.9463 236.568 92.9603 236.509 92.9981L235.484 93.6776C235.426 93.7179 235.386 93.7786 235.373 93.8471C235.359 93.9156 235.372 93.9868 235.409 94.046L236.044 95.0147C236.084 95.0725 236.144 95.1131 236.212 95.1283C236.281 95.1436 236.352 95.1322 236.413 95.0966L237.496 94.4198C237.555 94.3799 237.597 94.3184 237.611 94.2485C237.625 94.1786 237.612 94.1059 237.573 94.046Z" fill="#464A5F"/>
<path d="M235.616 95.3913L234.923 94.4117C234.881 94.3554 234.82 94.3171 234.751 94.3044C234.682 94.2917 234.611 94.3057 234.552 94.3435L233.527 95.042C233.469 95.0819 233.428 95.1424 233.414 95.211C233.4 95.2795 233.412 95.351 233.45 95.4104L234.084 96.3792C234.124 96.4376 234.184 96.4788 234.253 96.4941C234.323 96.5093 234.395 96.4975 234.456 96.461L235.539 95.787C235.571 95.7672 235.599 95.7409 235.621 95.7097C235.643 95.6786 235.658 95.6433 235.665 95.606C235.672 95.5688 235.672 95.5305 235.663 95.4935C235.655 95.4566 235.638 95.4217 235.616 95.3913Z" fill="#464A5F"/>
<path d="M233.744 96.8594L232.883 95.6423C232.874 95.6288 232.863 95.6172 232.849 95.6082C232.835 95.5992 232.82 95.593 232.804 95.59C232.788 95.5869 232.771 95.5871 232.755 95.5905C232.739 95.5938 232.724 95.6003 232.71 95.6096L231.462 96.4528C231.448 96.4616 231.437 96.4731 231.427 96.4866C231.418 96.5001 231.411 96.5153 231.408 96.5313C231.405 96.5473 231.405 96.5638 231.408 96.5799C231.411 96.5959 231.417 96.6111 231.427 96.6247L232.215 97.8281C232.224 97.8421 232.236 97.8542 232.249 97.8637C232.262 97.8732 232.278 97.88 232.294 97.8835C232.31 97.8871 232.327 97.8874 232.343 97.8845C232.359 97.8815 232.375 97.8753 232.389 97.8663L233.719 97.0477C233.734 97.0375 233.746 97.0243 233.756 97.009C233.765 96.9938 233.771 96.9767 233.773 96.959C233.776 96.9412 233.774 96.9232 233.769 96.9061C233.764 96.8889 233.755 96.873 233.744 96.8594Z" fill="#464A5F"/>
<path d="M232.012 98.0437L231.152 96.824C231.132 96.7975 231.103 96.7795 231.07 96.7739C231.037 96.7684 231.003 96.7755 230.976 96.794L229.717 97.6344C229.69 97.6537 229.671 97.6824 229.665 97.7148C229.658 97.7472 229.664 97.7809 229.681 97.8091L230.473 99.0125C230.491 99.0401 230.519 99.0596 230.551 99.0668C230.584 99.0739 230.618 99.0681 230.646 99.0507L231.974 98.232C231.99 98.2236 232.005 98.2116 232.016 98.1969C232.027 98.1822 232.035 98.1652 232.039 98.1471C232.042 98.129 232.042 98.1103 232.037 98.0924C232.033 98.0745 232.024 98.0579 232.012 98.0437Z" fill="#464A5F"/>
<path d="M230.069 99.3863L229.208 98.1665C229.189 98.1402 229.16 98.1223 229.128 98.1167C229.096 98.1111 229.062 98.1182 229.035 98.1365L227.776 98.977C227.749 98.9958 227.73 99.0246 227.723 99.0571C227.716 99.0897 227.723 99.1236 227.741 99.1516L228.529 100.355C228.548 100.382 228.576 100.401 228.608 100.408C228.641 100.415 228.674 100.41 228.703 100.393L230.033 99.5746C230.05 99.5663 230.064 99.5543 230.076 99.5395C230.087 99.5247 230.095 99.5075 230.098 99.4893C230.102 99.471 230.101 99.4522 230.096 99.4344C230.09 99.4165 230.081 99.4 230.069 99.3863Z" fill="#464A5F"/>
<path d="M228.191 100.677L227.339 99.46C227.33 99.4465 227.318 99.4349 227.305 99.4259C227.291 99.4169 227.276 99.4107 227.26 99.4076C227.243 99.4046 227.227 99.4047 227.211 99.4081C227.195 99.4115 227.18 99.418 227.166 99.4273L225.907 100.27C225.88 100.289 225.861 100.317 225.854 100.349C225.847 100.381 225.854 100.415 225.871 100.442L226.66 101.646C226.678 101.673 226.707 101.693 226.739 101.7C226.771 101.707 226.805 101.701 226.833 101.684L228.164 100.865C228.18 100.856 228.193 100.843 228.203 100.828C228.213 100.813 228.22 100.796 228.223 100.778C228.225 100.76 228.224 100.741 228.218 100.724C228.213 100.706 228.204 100.69 228.191 100.677Z" fill="#464A5F"/>
<path d="M240.2 89.508L239.51 88.5256C239.469 88.4686 239.407 88.4297 239.337 88.417C239.268 88.4043 239.196 88.4188 239.137 88.4574L238.111 89.145C238.054 89.1853 238.014 89.246 238 89.3145C237.986 89.3831 238 89.4543 238.037 89.5134L238.672 90.4822C238.712 90.5402 238.773 90.5808 238.842 90.5955C238.911 90.6102 238.983 90.598 239.043 90.5613L240.123 89.8873C240.154 89.8674 240.18 89.8419 240.2 89.8121C240.22 89.7822 240.234 89.7487 240.241 89.7135C240.249 89.6783 240.249 89.6419 240.242 89.6067C240.235 89.5714 240.221 89.5379 240.2 89.508Z" fill="#464A5F"/>
<path d="M238.243 90.8533L237.551 89.8736C237.51 89.8169 237.448 89.778 237.379 89.7648C237.31 89.7516 237.239 89.7652 237.18 89.8027L236.154 90.4903C236.097 90.5306 236.057 90.5913 236.043 90.6598C236.029 90.7284 236.043 90.7996 236.08 90.8587L236.715 91.8275C236.754 91.8852 236.814 91.9259 236.883 91.9411C236.951 91.9563 237.023 91.9449 237.083 91.9093L238.166 91.2326C238.197 91.2128 238.223 91.1872 238.243 91.1574C238.263 91.1276 238.277 91.0941 238.284 91.0588C238.291 91.0236 238.291 90.9873 238.284 90.952C238.277 90.9167 238.263 90.8832 238.243 90.8533Z" fill="#464A5F"/>
<path d="M236.286 92.1986L235.585 91.2217C235.544 91.1647 235.482 91.1258 235.412 91.1131C235.343 91.1004 235.271 91.1148 235.212 91.1535L234.211 91.8356C234.153 91.8755 234.113 91.936 234.098 92.0046C234.084 92.0731 234.097 92.1446 234.134 92.204L234.769 93.1728C234.808 93.2312 234.869 93.2724 234.938 93.2876C235.007 93.3029 235.079 93.2911 235.14 93.2546L236.223 92.5806C236.253 92.5597 236.278 92.5332 236.297 92.5027C236.316 92.4722 236.329 92.4382 236.335 92.4027C236.341 92.3671 236.339 92.3308 236.331 92.2958C236.323 92.2608 236.307 92.2277 236.286 92.1986Z" fill="#464A5F"/>
<path d="M234.326 93.5439L233.634 92.5643C233.592 92.508 233.531 92.4696 233.462 92.4569C233.393 92.4442 233.322 92.4582 233.263 92.496L232.237 93.181C232.18 93.2212 232.14 93.2819 232.126 93.3505C232.113 93.419 232.126 93.4902 232.163 93.5493L232.798 94.5181C232.837 94.5758 232.897 94.6165 232.966 94.6317C233.034 94.6469 233.106 94.6355 233.166 94.5999L234.249 93.9259C234.28 93.9061 234.306 93.8804 234.327 93.8504C234.347 93.8203 234.362 93.7865 234.369 93.7509C234.376 93.7154 234.376 93.6787 234.369 93.6432C234.361 93.6076 234.347 93.5739 234.326 93.5439Z" fill="#464A5F"/>
<path d="M232.457 95.012L231.597 93.795C231.588 93.7813 231.576 93.7697 231.562 93.7607C231.548 93.7516 231.532 93.7454 231.516 93.7424C231.5 93.7393 231.483 93.7395 231.466 93.7429C231.45 93.7463 231.435 93.7529 231.421 93.7622L230.162 94.6054C230.135 94.6238 230.116 94.652 230.109 94.6842C230.102 94.7163 230.109 94.7497 230.126 94.7774L230.915 95.9835C230.924 95.9973 230.936 96.0093 230.95 96.0185C230.964 96.0278 230.979 96.0343 230.996 96.0376C231.012 96.0409 231.029 96.041 231.045 96.0378C231.062 96.0346 231.077 96.0282 231.091 96.019L232.419 95.2003C232.435 95.1916 232.449 95.1794 232.46 95.1647C232.471 95.1499 232.479 95.133 232.482 95.1151C232.486 95.0971 232.486 95.0786 232.481 95.0608C232.477 95.043 232.469 95.0264 232.457 95.012Z" fill="#464A5F"/>
<path d="M230.723 96.2045L229.862 94.9875C229.853 94.9739 229.842 94.9623 229.828 94.9533C229.814 94.9443 229.799 94.9381 229.783 94.9351C229.767 94.932 229.75 94.9322 229.734 94.9356C229.718 94.9389 229.703 94.9455 229.689 94.9547L228.439 95.7952C228.411 95.814 228.392 95.8428 228.385 95.8753C228.379 95.9079 228.385 95.9418 228.403 95.9698L229.192 97.1732C229.21 97.2003 229.239 97.2194 229.271 97.2265C229.303 97.2336 229.337 97.2282 229.365 97.2114L230.695 96.3928C230.711 96.3831 230.724 96.3702 230.734 96.3551C230.743 96.3399 230.75 96.3228 230.753 96.3049C230.755 96.287 230.754 96.2688 230.749 96.2515C230.744 96.2342 230.735 96.2181 230.723 96.2045Z" fill="#464A5F"/>
<path d="M228.782 97.5389L227.922 96.3191C227.902 96.2926 227.873 96.2747 227.84 96.2691C227.807 96.2635 227.774 96.2707 227.746 96.2891L226.49 97.1296C226.462 97.1484 226.443 97.1772 226.437 97.2097C226.43 97.2423 226.436 97.2762 226.454 97.3042L227.243 98.5076C227.261 98.5353 227.289 98.5548 227.322 98.562C227.354 98.5691 227.388 98.5633 227.416 98.5458L228.747 97.7272C228.763 97.7182 228.776 97.7058 228.787 97.691C228.798 97.6762 228.805 97.6592 228.808 97.6413C228.812 97.6234 228.811 97.6049 228.807 97.5872C228.802 97.5696 228.794 97.5531 228.782 97.5389Z" fill="#464A5F"/>
<path d="M226.902 98.8296L226.042 97.6126C226.033 97.5989 226.021 97.5873 226.007 97.5783C225.993 97.5692 225.977 97.563 225.961 97.56C225.944 97.5569 225.928 97.5571 225.911 97.5605C225.895 97.5639 225.88 97.5705 225.866 97.5798L224.61 98.423C224.596 98.4319 224.584 98.4434 224.575 98.4568C224.565 98.4703 224.559 98.4855 224.556 98.5015C224.552 98.5175 224.552 98.5341 224.555 98.5501C224.558 98.5661 224.565 98.5814 224.574 98.5949L225.363 99.8011C225.372 99.8148 225.383 99.8267 225.397 99.836C225.411 99.8452 225.426 99.8517 225.442 99.855C225.458 99.8583 225.475 99.8584 225.491 99.8552C225.507 99.852 225.522 99.8457 225.536 99.8366L226.867 99.0179C226.882 99.0086 226.896 98.9961 226.906 98.9812C226.916 98.9664 226.924 98.9495 226.927 98.9317C226.93 98.9139 226.93 98.8957 226.926 98.8781C226.921 98.8605 226.913 98.844 226.902 98.8296Z" fill="#464A5F"/>
<path d="M226.311 101.971L225.451 100.751C225.431 100.724 225.402 100.706 225.369 100.701C225.336 100.695 225.303 100.702 225.275 100.721L224.016 101.561C223.988 101.58 223.969 101.609 223.963 101.641C223.956 101.674 223.962 101.708 223.98 101.736L224.769 102.939C224.788 102.966 224.816 102.985 224.848 102.992C224.88 103 224.914 102.994 224.942 102.977L226.273 102.159C226.289 102.15 226.304 102.138 226.315 102.124C226.326 102.109 226.334 102.092 226.338 102.074C226.341 102.056 226.341 102.037 226.336 102.019C226.332 102.001 226.323 101.985 226.311 101.971Z" fill="#464A5F"/>
<path d="M224.431 103.261L223.571 102.044C223.561 102.031 223.549 102.019 223.536 102.01C223.522 102.001 223.506 101.995 223.49 101.992C223.473 101.989 223.457 101.989 223.44 101.992C223.424 101.996 223.409 102.002 223.395 102.011L222.136 102.855C222.109 102.873 222.089 102.901 222.083 102.933C222.076 102.966 222.082 102.999 222.1 103.027L222.889 104.23C222.898 104.244 222.91 104.256 222.923 104.266C222.937 104.275 222.953 104.282 222.969 104.286C222.985 104.289 223.002 104.289 223.019 104.286C223.035 104.283 223.051 104.277 223.065 104.268L224.393 103.45C224.409 103.441 224.424 103.429 224.435 103.414C224.446 103.4 224.454 103.383 224.458 103.365C224.461 103.347 224.461 103.328 224.456 103.31C224.452 103.292 224.443 103.275 224.431 103.261Z" fill="#464A5F"/>
<path d="M227.381 95.5305L226.57 94.3816C226.544 94.346 226.505 94.3218 226.461 94.3142C226.418 94.3065 226.373 94.316 226.336 94.3407L225.14 95.1348C225.104 95.1597 225.078 95.1979 225.069 95.2413C225.061 95.2846 225.069 95.3297 225.094 95.3667L225.836 96.5019C225.86 96.5389 225.899 96.5647 225.942 96.5739C225.986 96.5831 226.032 96.5749 226.069 96.551L227.323 95.7679C227.343 95.7567 227.361 95.7414 227.375 95.7232C227.388 95.7049 227.398 95.684 227.404 95.6617C227.409 95.6394 227.41 95.6162 227.406 95.5936C227.402 95.5711 227.393 95.5495 227.381 95.5305Z" fill="#464A5F"/>
<path d="M225.5 96.8212L224.689 95.6751C224.677 95.657 224.661 95.6414 224.643 95.6294C224.624 95.6174 224.604 95.6091 224.582 95.605C224.56 95.601 224.538 95.6012 224.516 95.6058C224.495 95.6103 224.474 95.619 224.456 95.6314L223.268 96.4282C223.232 96.4527 223.206 96.4904 223.198 96.5333C223.189 96.5762 223.198 96.6208 223.222 96.6575L223.964 97.7927C223.989 97.8295 224.027 97.8555 224.07 97.8651C224.114 97.8748 224.159 97.8674 224.197 97.8445L225.454 97.0613C225.473 97.0487 225.489 97.0324 225.502 97.0135C225.514 96.9946 225.523 96.9733 225.528 96.951C225.532 96.9286 225.532 96.9057 225.527 96.8834C225.522 96.8611 225.513 96.84 225.5 96.8212Z" fill="#464A5F"/>
<path d="M223.62 98.1147L222.796 96.9658C222.77 96.9304 222.732 96.9063 222.689 96.8986C222.645 96.891 222.601 96.9004 222.565 96.9249L221.375 97.719C221.338 97.7439 221.312 97.7822 221.304 97.8255C221.295 97.8689 221.304 97.9139 221.328 97.9509L222.07 99.0861C222.095 99.1231 222.133 99.1489 222.177 99.1581C222.22 99.1673 222.266 99.1591 222.304 99.1352L223.56 98.3521C223.58 98.3411 223.598 98.3261 223.612 98.3079C223.626 98.2897 223.637 98.2688 223.642 98.2465C223.648 98.2242 223.649 98.201 223.645 98.1783C223.641 98.1556 223.633 98.1339 223.62 98.1147Z" fill="#464A5F"/>
<path d="M221.768 99.4436L220.907 98.2238C220.888 98.1973 220.858 98.1794 220.825 98.1738C220.793 98.1682 220.759 98.1754 220.731 98.1938L219.472 99.0343C219.445 99.0535 219.427 99.0824 219.421 99.115C219.414 99.1475 219.421 99.1812 219.44 99.2089L220.228 100.412C220.246 100.44 220.275 100.459 220.307 100.467C220.339 100.474 220.373 100.468 220.402 100.451L221.732 99.6319C221.748 99.6229 221.762 99.6105 221.772 99.5957C221.783 99.5808 221.79 99.5639 221.794 99.546C221.797 99.528 221.797 99.5096 221.792 99.4919C221.788 99.4742 221.779 99.4577 221.768 99.4436Z" fill="#464A5F"/>
<path d="M244.016 86.8556L243.282 85.8022C243.24 85.7457 243.178 85.7073 243.108 85.6951C243.038 85.6829 242.967 85.6978 242.908 85.7367L239.983 87.7588C239.927 87.7994 239.888 87.8598 239.875 87.9277C239.862 87.9955 239.875 88.0659 239.912 88.1245L240.615 89.1996C240.636 89.2294 240.662 89.2549 240.692 89.2748C240.722 89.2946 240.756 89.3083 240.791 89.3152C240.827 89.322 240.863 89.3218 240.898 89.3147C240.934 89.3075 240.968 89.2934 240.998 89.2733L243.947 87.224C244.003 87.1829 244.042 87.1218 244.055 87.0533C244.068 86.9848 244.054 86.9141 244.016 86.8556Z" fill="#464A5F"/>
<path d="M225.017 100.082L224.104 98.8023C224.095 98.7886 224.083 98.7769 224.069 98.7679C224.055 98.759 224.039 98.7529 224.023 98.7501C224.006 98.7473 223.989 98.7478 223.973 98.7516C223.957 98.7555 223.942 98.7625 223.928 98.7723L220.789 100.955C220.762 100.974 220.744 101.003 220.737 101.035C220.731 101.067 220.738 101.1 220.756 101.127L221.616 102.443C221.626 102.457 221.638 102.469 221.652 102.479C221.666 102.488 221.682 102.495 221.698 102.498C221.715 102.501 221.732 102.501 221.749 102.498C221.765 102.494 221.781 102.488 221.795 102.478L224.986 100.26C225.014 100.24 225.032 100.21 225.038 100.177C225.044 100.144 225.036 100.11 225.017 100.082Z" fill="#464A5F"/>
<path d="M235.003 90.2939L234.178 89.0795C234.159 89.0522 234.13 89.0331 234.097 89.0265C234.064 89.0199 234.03 89.0262 234.002 89.0441L227.034 93.7104C227.02 93.7192 227.008 93.7307 226.999 93.7442C226.99 93.7576 226.983 93.7728 226.98 93.7889C226.977 93.8049 226.976 93.8214 226.98 93.8374C226.983 93.8535 226.989 93.8687 226.998 93.8823L227.856 95.1921C227.865 95.2063 227.877 95.2186 227.891 95.2281C227.905 95.2376 227.921 95.2443 227.938 95.2476C227.954 95.2509 227.972 95.2508 227.988 95.2474C228.005 95.244 228.021 95.2372 228.035 95.2276L234.983 90.4685C235.009 90.4477 235.025 90.4177 235.029 90.3851C235.032 90.3524 235.023 90.3197 235.003 90.2939Z" fill="#464A5F"/>
<path opacity="0.1" d="M235.036 86.1243L231.33 80.7785C231.228 80.63 231.07 80.5277 230.892 80.4939C230.714 80.4602 230.53 80.4977 230.379 80.5984L220.173 87.4013C220.098 87.4518 220.034 87.5165 219.984 87.5917C219.934 87.6669 219.899 87.7511 219.882 87.8396C219.865 87.9281 219.866 88.019 219.884 88.1072C219.903 88.1954 219.938 88.2792 219.989 88.3537L223.766 93.8523C223.817 93.9269 223.882 93.9909 223.958 94.0404C224.034 94.09 224.119 94.1241 224.208 94.1408C224.297 94.1576 224.389 94.1566 224.477 94.138C224.566 94.1194 224.65 94.0835 224.725 94.0324L234.86 87.0711C234.934 87.0206 234.998 86.9559 235.047 86.8809C235.096 86.8059 235.129 86.7219 235.146 86.634C235.162 86.546 235.161 86.4557 235.142 86.3682C235.123 86.2807 235.087 86.1978 235.036 86.1243Z" fill="black"/>
<path d="M235.206 86.157L231.501 80.8112C231.398 80.6633 231.24 80.5615 231.062 80.5278C230.885 80.4941 230.7 80.5312 230.55 80.6311L220.358 87.4395C220.282 87.4895 220.217 87.554 220.167 87.629C220.116 87.7041 220.081 87.7884 220.064 87.877C220.046 87.9656 220.047 88.0567 220.065 88.1451C220.084 88.2335 220.119 88.3174 220.171 88.3919L223.936 93.885C223.987 93.9597 224.052 94.0237 224.128 94.0732C224.204 94.1227 224.289 94.1569 224.378 94.1736C224.467 94.1903 224.559 94.1894 224.648 94.1708C224.737 94.1521 224.821 94.1162 224.896 94.0651L235.036 87.1039C235.11 87.0529 235.173 86.9879 235.221 86.9127C235.27 86.8375 235.303 86.7535 235.319 86.6655C235.334 86.5776 235.333 86.4874 235.313 86.4001C235.294 86.3129 235.258 86.2303 235.206 86.157Z" fill="#939498"/>
<path d="M258.182 94.7964L250.321 92.1931L225.107 109.581L232.911 112.105C233.121 112.173 233.345 112.192 233.564 112.16C233.783 112.128 233.991 112.046 234.172 111.92L258.254 95.2958C258.301 95.2684 258.338 95.2277 258.362 95.1791C258.385 95.1304 258.394 95.0759 258.386 95.0224C258.379 94.9689 258.355 94.9189 258.319 94.8787C258.283 94.8385 258.235 94.8098 258.182 94.7964Z" fill="#1D9B75"/>
</g>
<defs>
<clipPath id="clip0">
<rect width="298" height="207" fill="white"/>
</clipPath>
</defs>
</svg>
