<svg width="251" height="182" viewBox="0 0 251 182" fill="none" xmlns="http://www.w3.org/2000/svg">
<g clip-path="url(#clip0)">
<path d="M159.95 136.44V180.313H50.0702C37.5509 180.313 27.3651 170.472 27.3651 158.376C27.3651 146.281 37.5509 136.44 50.0702 136.44H159.95Z" fill="#F2F2F2"/>
<path d="M162.649 179.975C162.648 180.423 162.471 180.852 162.154 181.168C161.838 181.484 161.409 181.662 160.962 181.662H48.1131C41.984 181.662 36.1061 179.227 31.7722 174.891C27.4383 170.556 25.0035 164.676 25.0035 158.545C25.0035 152.414 27.4383 146.534 31.7722 142.198C36.1061 137.863 41.984 135.427 48.1131 135.427H160.962C161.409 135.427 161.838 135.605 162.155 135.921C162.471 136.238 162.649 136.667 162.649 137.115C162.649 137.562 162.471 137.991 162.155 138.308C161.838 138.624 161.409 138.802 160.962 138.802H48.1131C42.8788 138.802 37.8589 140.882 34.1577 144.585C30.4565 148.287 28.3772 153.309 28.3772 158.545C28.3772 163.781 30.4565 168.803 34.1577 172.505C37.8589 176.208 42.8788 178.288 48.1131 178.288H160.962C161.409 178.288 161.838 178.466 162.154 178.782C162.471 179.098 162.648 179.528 162.649 179.975Z" fill="#1D9B75"/>
<path d="M159.95 146.564H41.8718C41.7823 146.564 41.6965 146.529 41.6332 146.465C41.57 146.402 41.5344 146.316 41.5344 146.227C41.5344 146.137 41.57 146.051 41.6332 145.988C41.6965 145.925 41.7823 145.889 41.8718 145.889H159.95C160.039 145.889 160.125 145.925 160.188 145.988C160.252 146.051 160.287 146.137 160.287 146.227C160.287 146.316 160.252 146.402 160.188 146.465C160.125 146.529 160.039 146.564 159.95 146.564Z" fill="#CCCCCC"/>
<path d="M159.95 154.664H41.8718C41.7823 154.664 41.6965 154.628 41.6332 154.565C41.57 154.502 41.5344 154.416 41.5344 154.326C41.5344 154.237 41.57 154.151 41.6332 154.088C41.6965 154.024 41.7823 153.989 41.8718 153.989H159.95C160.039 153.989 160.125 154.024 160.188 154.088C160.252 154.151 160.287 154.237 160.287 154.326C160.287 154.416 160.252 154.502 160.188 154.565C160.125 154.628 160.039 154.664 159.95 154.664Z" fill="#CCCCCC"/>
<path d="M159.95 162.763H41.8718C41.7823 162.763 41.6965 162.728 41.6332 162.664C41.57 162.601 41.5344 162.515 41.5344 162.426C41.5344 162.336 41.57 162.251 41.6332 162.187C41.6965 162.124 41.7823 162.088 41.8718 162.088H159.95C160.039 162.088 160.125 162.124 160.188 162.187C160.252 162.251 160.287 162.336 160.287 162.426C160.287 162.515 160.252 162.601 160.188 162.664C160.125 162.728 160.039 162.763 159.95 162.763Z" fill="#CCCCCC"/>
<path d="M159.95 170.863H41.8718C41.7823 170.863 41.6965 170.828 41.6332 170.764C41.57 170.701 41.5344 170.615 41.5344 170.526C41.5344 170.436 41.57 170.35 41.6332 170.287C41.6965 170.224 41.7823 170.188 41.8718 170.188H159.95C160.039 170.188 160.125 170.224 160.188 170.287C160.252 170.35 160.287 170.436 160.287 170.526C160.287 170.615 160.252 170.701 160.188 170.764C160.125 170.828 160.039 170.863 159.95 170.863Z" fill="#CCCCCC"/>
<path d="M244.871 144.698L217.353 178.861L131.792 109.896C122.044 102.039 120.285 87.9828 127.871 78.5643C135.457 69.1459 149.561 67.8759 159.31 75.7335L244.871 144.698Z" fill="#F2F2F2"/>
<path d="M219.667 180.292C219.386 180.641 218.978 180.863 218.534 180.911C218.089 180.959 217.643 180.828 217.295 180.548L129.422 109.719C124.649 105.872 121.6 100.287 120.944 94.1906C120.289 88.0946 122.081 81.9878 125.926 77.2136C129.772 72.4393 135.356 69.3888 141.449 68.733C147.543 68.0773 153.648 69.87 158.421 73.7168L246.294 144.545C246.466 144.684 246.61 144.856 246.716 145.05C246.823 145.245 246.889 145.458 246.913 145.679C246.937 145.899 246.917 146.122 246.855 146.335C246.792 146.548 246.689 146.746 246.55 146.919C246.411 147.091 246.239 147.235 246.044 147.341C245.85 147.447 245.636 147.514 245.416 147.538C245.196 147.561 244.973 147.541 244.76 147.479C244.548 147.416 244.349 147.312 244.177 147.173L156.304 76.3447C154.286 74.7168 151.967 73.5026 149.48 72.7714C146.993 72.0402 144.386 71.8064 141.808 72.0832C139.23 72.3601 136.733 73.1422 134.457 74.385C132.182 75.6277 130.174 77.3068 128.547 79.3261C126.921 81.3455 125.708 83.6656 124.978 86.154C124.248 88.6424 124.015 91.2503 124.293 93.8286C124.571 96.407 125.353 98.9054 126.597 101.181C127.84 103.457 129.519 105.465 131.538 107.091L219.412 177.92C219.76 178.201 219.982 178.608 220.03 179.053C220.078 179.498 219.947 179.944 219.667 180.292Z" fill="#CCCCCC"/>
<path d="M238.521 152.582L146.576 78.4716C146.541 78.4438 146.512 78.4095 146.491 78.3706C146.47 78.3317 146.457 78.289 146.452 78.2449C146.447 78.2008 146.451 78.1563 146.463 78.1138C146.476 78.0712 146.497 78.0316 146.524 77.9971C146.552 77.9626 146.587 77.9339 146.625 77.9126C146.664 77.8914 146.707 77.878 146.751 77.8733C146.795 77.8685 146.84 77.8725 146.882 77.885C146.925 77.8975 146.964 77.9182 146.999 77.946L238.944 152.056C238.978 152.084 239.007 152.119 239.028 152.157C239.05 152.196 239.063 152.239 239.068 152.283C239.073 152.327 239.069 152.372 239.056 152.414C239.044 152.457 239.023 152.497 238.995 152.531C238.967 152.566 238.933 152.595 238.894 152.616C238.855 152.637 238.812 152.65 238.768 152.655C238.724 152.66 238.68 152.656 238.637 152.643C238.595 152.631 238.555 152.61 238.521 152.582V152.582Z" fill="#CCCCCC"/>
<path d="M233.44 158.889L141.495 84.7787C141.426 84.7225 141.381 84.641 141.372 84.5521C141.362 84.4631 141.389 84.3741 141.445 84.3044C141.501 84.2348 141.582 84.1903 141.671 84.1807C141.76 84.171 141.849 84.1971 141.919 84.2531L233.864 158.364C233.898 158.391 233.927 158.426 233.948 158.465C233.97 158.503 233.983 158.546 233.988 158.59C233.993 158.634 233.989 158.679 233.976 158.722C233.964 158.764 233.943 158.804 233.915 158.838C233.887 158.873 233.853 158.902 233.814 158.923C233.775 158.944 233.732 158.957 233.688 158.962C233.644 158.967 233.6 158.963 233.557 158.95C233.515 158.938 233.475 158.917 233.44 158.889Z" fill="#CCCCCC"/>
<path d="M228.36 165.196L136.415 91.0856C136.346 91.0295 136.301 90.9479 136.292 90.8589C136.282 90.7699 136.308 90.6808 136.364 90.6111C136.42 90.5414 136.502 90.4969 136.591 90.4873C136.68 90.4777 136.769 90.5039 136.839 90.56L228.784 164.67C228.818 164.698 228.847 164.733 228.868 164.772C228.889 164.81 228.903 164.853 228.907 164.897C228.912 164.941 228.908 164.986 228.896 165.028C228.883 165.071 228.863 165.111 228.835 165.145C228.807 165.18 228.773 165.208 228.734 165.229C228.695 165.251 228.652 165.264 228.608 165.269C228.564 165.274 228.519 165.27 228.477 165.257C228.434 165.245 228.395 165.224 228.36 165.196V165.196Z" fill="#CCCCCC"/>
<path d="M223.28 171.503L131.335 97.3925C131.301 97.3647 131.272 97.3304 131.251 97.2915C131.23 97.2526 131.216 97.2099 131.212 97.1658C131.207 97.1217 131.211 97.0772 131.223 97.0347C131.236 96.9921 131.256 96.9525 131.284 96.918C131.312 96.8835 131.346 96.8548 131.385 96.8335C131.424 96.8123 131.467 96.7989 131.511 96.7942C131.555 96.7894 131.599 96.7934 131.642 96.8059C131.684 96.8184 131.724 96.8391 131.759 96.8669L223.704 170.977C223.738 171.005 223.767 171.039 223.788 171.078C223.809 171.117 223.823 171.16 223.828 171.204C223.832 171.248 223.828 171.293 223.816 171.335C223.804 171.378 223.783 171.418 223.755 171.452C223.727 171.487 223.693 171.515 223.654 171.537C223.615 171.558 223.572 171.571 223.528 171.576C223.484 171.581 223.439 171.577 223.397 171.564C223.354 171.552 223.315 171.531 223.28 171.503Z" fill="#CCCCCC"/>
<path d="M250.663 182H0.337366C0.247891 182 0.16208 181.965 0.0988118 181.901C0.0355435 181.838 0 181.752 0 181.663C0 181.573 0.0355435 181.487 0.0988118 181.424C0.16208 181.361 0.247891 181.325 0.337366 181.325H250.663C250.752 181.325 250.838 181.361 250.901 181.424C250.964 181.487 251 181.573 251 181.663C251 181.752 250.964 181.838 250.901 181.901C250.838 181.965 250.752 182 250.663 182Z" fill="#CCCCCC"/>
<path d="M114.057 131.828L110.2 131.828L108.366 116.946L114.058 116.947L114.057 131.828Z" fill="#FFB8B8"/>
<path d="M107.445 130.726H114.883V135.411H102.762C102.762 134.795 102.883 134.186 103.118 133.618C103.354 133.049 103.699 132.533 104.133 132.098C104.568 131.663 105.085 131.318 105.653 131.082C106.221 130.847 106.83 130.726 107.445 130.726Z" fill="#2F2E41"/>
<path d="M74.6543 131.828L70.7975 131.828L68.9633 116.946L74.6556 116.947L74.6543 131.828Z" fill="#FFB8B8"/>
<path d="M68.0425 130.726H75.4807V135.411H63.3593C63.3593 134.795 63.4804 134.186 63.7157 133.618C63.9511 133.049 64.2961 132.533 64.731 132.098C65.1658 131.663 65.6821 131.318 66.2503 131.082C66.8185 130.847 67.4275 130.726 68.0425 130.726Z" fill="#2F2E41"/>
<path d="M87.5365 21.4414V19.754C87.5365 16.8674 88.6828 14.099 90.7232 12.0579C92.7636 10.0168 95.531 8.87012 98.4165 8.87012H98.4166C101.302 8.87012 104.07 10.0168 106.11 12.0579C108.15 14.099 109.297 16.8674 109.297 19.754V21.4414C109.297 23.5224 108.47 25.5182 106.999 26.9897C105.528 28.4612 103.533 29.2879 101.453 29.2879H95.3803C94.3502 29.2879 93.3302 29.0849 92.3786 28.6906C91.4269 28.2963 90.5622 27.7183 89.8339 26.9897C89.1055 26.2611 88.5278 25.3961 88.1336 24.4441C87.7394 23.4921 87.5365 22.4718 87.5365 21.4414Z" fill="#2F2E41"/>
<path d="M98.4166 29.8684C102.993 29.8684 106.703 26.1573 106.703 21.5795C106.703 17.0016 102.993 13.2905 98.4166 13.2905C93.8403 13.2905 90.1306 17.0016 90.1306 21.5795C90.1306 26.1573 93.8403 29.8684 98.4166 29.8684Z" fill="#FFB8B8"/>
<path d="M53.3458 50.0675C53.6821 49.7499 54.0839 49.5099 54.5229 49.3644C54.9619 49.2189 55.4274 49.1715 55.8868 49.2255C56.3461 49.2794 56.788 49.4335 57.1814 49.6768C57.5747 49.9201 57.91 50.2467 58.1635 50.6336L65.2666 49.2895L67.1359 53.4084L57.0783 55.1656C56.4003 55.5485 55.6054 55.6694 54.8442 55.5052C54.0831 55.3411 53.4085 54.9034 52.9485 54.275C52.4884 53.6466 52.2747 52.8712 52.348 52.0957C52.4212 51.3203 52.7762 50.5986 53.3458 50.0675V50.0675Z" fill="#FFB8B8"/>
<path d="M91.9566 35.0885L92.0495 35.2293L80.4017 42.9051L60.7473 49.1834C60.4868 49.2672 60.2633 49.4387 60.1149 49.6687C59.9666 49.8987 59.9025 50.1731 59.9336 50.4451L60.3623 54.1394C60.3814 54.3029 60.4343 54.4606 60.5178 54.6024C60.6013 54.7442 60.7136 54.867 60.8473 54.963C60.981 55.0589 61.1333 55.1258 61.2944 55.1594C61.4555 55.193 61.6218 55.1925 61.7827 55.158L80.2804 51.1917C81.1756 51.0008 82.0221 50.628 82.7673 50.0964L95.853 40.7829C96.3274 40.4434 96.7059 39.9869 96.9517 39.4578C97.1975 38.9287 97.3023 38.3449 97.2559 37.7633C97.2079 37.1808 97.0091 36.6209 96.6792 36.1387C96.3493 35.6564 95.8996 35.2683 95.3743 35.0126C94.8489 34.7569 94.2661 34.6425 93.6832 34.6805C93.1002 34.7185 92.5372 34.9076 92.0495 35.2293L91.9566 35.0885Z" fill="#CCCCCC"/>
<path d="M110.269 127.605C109.973 127.605 109.683 127.519 109.435 127.357C109.188 127.196 108.992 126.965 108.873 126.694L91.1918 82.9894C91.1505 82.8946 91.0812 82.8147 90.9932 82.7605C90.9052 82.7063 90.8027 82.6804 90.6995 82.6862C90.5963 82.692 90.4973 82.7293 90.4159 82.793C90.3346 82.8568 90.2747 82.944 90.2443 83.0428L75.8191 125.591C75.7582 125.789 75.6575 125.972 75.5231 126.13C75.3887 126.287 75.2235 126.416 75.0376 126.507C74.8518 126.599 74.6492 126.651 74.4423 126.661C74.2355 126.671 74.0288 126.639 73.8348 126.566L68.9976 124.752C68.735 124.654 68.5047 124.486 68.3321 124.265C68.1596 124.044 68.0516 123.78 68.0202 123.501C65.8441 104.537 84.821 56.6697 85.013 56.1885L85.0662 56.0552L102.365 59.8832L102.401 59.9224C109.303 67.4543 114.976 114.96 116.043 124.407C116.083 124.748 116.005 125.092 115.823 125.384C115.641 125.675 115.365 125.895 115.041 126.008L110.771 127.519C110.61 127.576 110.44 127.605 110.269 127.605Z" fill="#2F2E41"/>
<path d="M95.3639 61.4239C91.1727 61.4239 86.4999 60.5879 85.0615 57.1376L85.0284 57.0584L85.0731 56.9849C86.2085 55.1215 87.709 51.9427 86.9025 51.346C85.3137 50.1709 84.5428 48.2378 84.6112 45.6003C84.7598 39.8746 88.6598 34.7911 94.3159 32.9506H94.3159C95.8947 32.4451 97.5013 32.0313 99.1278 31.7112C100.313 31.4719 101.538 31.4982 102.712 31.7883C103.886 32.0784 104.982 32.6251 105.92 33.3891C106.87 34.1581 107.637 35.128 108.168 36.2291C108.699 37.3302 108.979 38.5352 108.988 39.7576C109.048 45.8764 108.106 54.3987 103.283 60.2496C103.057 60.5211 102.742 60.7041 102.395 60.7664C100.074 61.1863 97.722 61.4062 95.3639 61.4239Z" fill="#CCCCCC"/>
<path d="M93.8049 61.1946C94.033 60.3761 94.5748 59.6807 95.3125 59.2596C96.0502 58.8385 96.9243 58.7256 97.7448 58.9456C97.9123 58.9924 98.0756 59.0529 98.2332 59.1265L103.627 54.2166L107.377 56.7444L99.6646 63.572C99.3164 64.2001 98.7681 64.6937 98.107 64.9742C97.446 65.2547 96.7102 65.306 96.0166 65.1199C95.6126 65.0093 95.2346 64.8197 94.9043 64.562C94.574 64.3043 94.298 63.9837 94.0923 63.6187C93.8867 63.2537 93.7554 62.8515 93.706 62.4355C93.6567 62.0194 93.6903 61.5976 93.8049 61.1946Z" fill="#FFB8B8"/>
<path d="M102.772 61.2572C102.422 61.2575 102.083 61.1364 101.812 60.9146L99.6855 59.176C99.5082 59.031 99.3659 58.8479 99.2694 58.6401C99.1729 58.4324 99.1246 58.2056 99.1282 57.9766C99.1317 57.7475 99.187 57.5223 99.2899 57.3177C99.3928 57.113 99.5406 56.9344 99.7223 56.795L108.643 49.9509C108.749 49.8694 108.818 49.7494 108.836 49.6171C108.854 49.4847 108.819 49.3507 108.738 49.244L103.232 41.9624C102.593 41.1192 102.272 40.0768 102.327 39.0197C102.382 37.9626 102.808 36.959 103.532 36.1866C104.294 35.3634 105.337 34.8569 106.455 34.7674C107.573 34.678 108.684 35.0122 109.567 35.7037L109.601 35.7405L115.351 43.9759C115.972 44.4635 116.473 45.0883 116.814 45.8015C117.154 46.5147 117.325 47.2969 117.313 48.0871C117.301 48.8773 117.107 49.6541 116.746 50.3569C116.384 51.0596 115.865 51.6692 115.229 52.1381L103.676 60.9595C103.414 61.1529 103.098 61.2572 102.772 61.2572Z" fill="#CCCCCC"/>
<path d="M91.077 19.2477V15.135L98.4166 11.929L105.415 15.135V19.2477C105.415 19.4267 105.344 19.5984 105.217 19.7249C105.091 19.8515 104.919 19.9226 104.74 19.9226H91.7517C91.5727 19.9226 91.4011 19.8515 91.2746 19.7249C91.1481 19.5984 91.077 19.4267 91.077 19.2477Z" fill="#2F2E41"/>
<path d="M98.0797 9.41566C97.0005 5.96033 99.267 2.00036 102.618 0.63265C105.968 -0.735059 109.977 0.221012 112.804 2.48067C115.631 4.74033 117.385 8.12488 118.315 11.6235C119.244 15.1221 119.42 18.7703 119.592 22.3863C123.709 23.1427 126.509 28.0271 125.083 31.9635C123.657 35.8999 118.378 37.8556 114.733 35.7981C111.088 33.7406 110.032 28.2099 112.663 24.9535C113.908 23.4126 114.603 21.5004 114.639 19.5195C114.675 17.5387 114.049 15.6025 112.86 14.0177C111.672 12.4329 109.989 11.29 108.078 10.77C106.167 10.2501 104.137 10.3828 102.31 11.1472C100.281 11.9959 97.7355 9.79068 98.0797 9.41566Z" fill="#2F2E41"/>
<path d="M51.8242 34.1136C46.8955 34.0812 42.0284 33.0149 37.5374 30.9835C37.27 30.8643 37.0431 30.6699 36.8843 30.424C36.7254 30.178 36.6415 29.8912 36.6427 29.5984V17.308C36.6432 16.9053 36.8033 16.5193 37.0879 16.2346C37.3725 15.9499 37.7584 15.7898 38.1609 15.7893H65.4875C65.89 15.7898 66.2758 15.9499 66.5604 16.2346C66.8451 16.5193 67.0051 16.9053 67.0056 17.308V29.5985C67.0068 29.8912 66.9229 30.1781 66.7641 30.424C66.6052 30.6699 66.3783 30.8643 66.111 30.9835C61.6199 33.0149 56.7528 34.0812 51.8242 34.1136Z" fill="#1D9B75"/>
<path d="M51.8204 24.1569C51.6178 24.1571 51.4172 24.1168 51.2305 24.0383L29.5608 14.8926C29.2814 14.7747 29.0436 14.5758 28.8783 14.3214C28.7129 14.0671 28.6275 13.769 28.6331 13.4657C28.6386 13.1623 28.7349 12.8676 28.9095 12.6195C29.084 12.3714 29.3289 12.1812 29.6125 12.0736L51.2824 3.84994C51.6314 3.71687 52.0173 3.71769 52.3658 3.85224L73.7453 12.0759C74.0273 12.1844 74.2705 12.3746 74.4438 12.6221C74.6172 12.8696 74.7127 13.1632 74.7183 13.4654C74.7239 13.7675 74.6392 14.0645 74.4752 14.3182C74.3111 14.572 74.0751 14.771 73.7973 14.8898L52.4175 24.0353C52.2287 24.1158 52.0256 24.1571 51.8204 24.1569Z" fill="#1D9B75"/>
<path d="M39.1729 31.8201C40.2908 31.8201 41.1971 30.9135 41.1971 29.7952C41.1971 28.6768 40.2908 27.7703 39.1729 27.7703C38.0549 27.7703 37.1487 28.6768 37.1487 29.7952C37.1487 30.9135 38.0549 31.8201 39.1729 31.8201Z" fill="#3F3D56"/>
<path opacity="0.2" d="M73.8712 13.5918L52.4913 22.7373C52.3247 22.8086 52.1453 22.8456 51.9641 22.846C51.7828 22.8464 51.6033 22.8103 51.4363 22.7399L29.7666 13.5945C29.4945 13.4823 29.2674 13.2827 29.1214 13.0271C29.0258 13.1929 28.9666 13.377 28.9477 13.5674C28.9287 13.7578 28.9505 13.9501 29.0115 14.1314C29.0725 14.3127 29.1714 14.479 29.3016 14.6192C29.4318 14.7593 29.5903 14.8702 29.7666 14.9444L51.4363 24.0898C51.6033 24.1603 51.7828 24.1964 51.9641 24.1959C52.1453 24.1955 52.3247 24.1585 52.4913 24.0872L73.8712 14.9417C74.0466 14.8669 74.2042 14.7557 74.3335 14.6154C74.4627 14.4752 74.5608 14.3091 74.6212 14.1282C74.6816 13.9473 74.703 13.7556 74.6839 13.5658C74.6648 13.3759 74.6056 13.1924 74.5104 13.0271C74.3654 13.2807 74.1407 13.4792 73.8712 13.5918Z" fill="black"/>
<path d="M39.343 29.787C39.4325 29.787 39.5183 29.7515 39.5815 29.6882C39.6448 29.6249 39.6803 29.539 39.6803 29.4495V18.1569L50.8071 14.102C50.8965 14.1033 50.9829 14.069 51.0471 14.0067C51.1113 13.9443 51.1481 13.859 51.1495 13.7695C51.1508 13.68 51.1165 13.5936 51.0542 13.5294C50.9919 13.4652 50.9066 13.4283 50.8171 13.427L39.6904 17.4819C39.6009 17.4798 39.5118 17.496 39.4287 17.5294C39.3456 17.5627 39.2701 17.6126 39.2068 17.676C39.1429 17.7387 39.0921 17.8135 39.0576 17.8961C39.023 17.9787 39.0053 18.0673 39.0056 18.1569V29.4495C39.0056 29.539 39.0412 29.6249 39.1044 29.6882C39.1677 29.7515 39.2535 29.787 39.343 29.787Z" fill="#3F3D56"/>
</g>
<defs>
<clipPath id="clip0">
<rect width="251" height="182" fill="white"/>
</clipPath>
</defs>
</svg>
