<svg width="449" height="231" viewBox="0 0 449 231" fill="none" xmlns="http://www.w3.org/2000/svg">
<path d="M448.404 230.948H0.596206C0.438378 230.948 0.287173 230.885 0.175733 230.774C0.0642925 230.662 0.00170898 230.511 0.00170898 230.353C0.00170898 230.196 0.0642925 230.045 0.175733 229.933C0.287173 229.822 0.438378 229.759 0.596206 229.758H448.404C448.562 229.759 448.713 229.822 448.824 229.933C448.936 230.045 448.998 230.196 448.998 230.353C448.998 230.511 448.936 230.662 448.824 230.774C448.713 230.885 448.562 230.948 448.404 230.948Z" fill="#3F3D56"/>
<path d="M140.384 28.7067C142.172 28.7067 143.622 27.2599 143.622 25.4751C143.622 23.6904 142.172 22.2436 140.384 22.2436C138.595 22.2436 137.146 23.6904 137.146 25.4751C137.146 27.2599 138.595 28.7067 140.384 28.7067Z" fill="#F2F2F2"/>
<path d="M127.478 28.7067C129.266 28.7067 130.716 27.2599 130.716 25.4751C130.716 23.6904 129.266 22.2436 127.478 22.2436C125.69 22.2436 124.24 23.6904 124.24 25.4751C124.24 27.2599 125.69 28.7067 127.478 28.7067Z" fill="#F2F2F2"/>
<path d="M114.572 28.7067C116.361 28.7067 117.811 27.2599 117.811 25.4751C117.811 23.6904 116.361 22.2436 114.572 22.2436C112.784 22.2436 111.334 23.6904 111.334 25.4751C111.334 27.2599 112.784 28.7067 114.572 28.7067Z" fill="#F2F2F2"/>
<path d="M101.667 28.7067C103.455 28.7067 104.905 27.2599 104.905 25.4751C104.905 23.6904 103.455 22.2436 101.667 22.2436C99.8782 22.2436 98.4284 23.6904 98.4284 25.4751C98.4284 27.2599 99.8782 28.7067 101.667 28.7067Z" fill="#F2F2F2"/>
<path d="M140.384 42.1987C142.172 42.1987 143.622 40.7519 143.622 38.9672C143.622 37.1825 142.172 35.7357 140.384 35.7357C138.595 35.7357 137.146 37.1825 137.146 38.9672C137.146 40.7519 138.595 42.1987 140.384 42.1987Z" fill="#F2F2F2"/>
<path d="M127.478 42.1987C129.266 42.1987 130.716 40.7519 130.716 38.9672C130.716 37.1825 129.266 35.7357 127.478 35.7357C125.69 35.7357 124.24 37.1825 124.24 38.9672C124.24 40.7519 125.69 42.1987 127.478 42.1987Z" fill="#F2F2F2"/>
<path d="M114.572 42.1987C116.361 42.1987 117.811 40.7519 117.811 38.9672C117.811 37.1825 116.361 35.7357 114.572 35.7357C112.784 35.7357 111.334 37.1825 111.334 38.9672C111.334 40.7519 112.784 42.1987 114.572 42.1987Z" fill="#F2F2F2"/>
<path d="M101.667 42.1987C103.455 42.1987 104.905 40.7519 104.905 38.9672C104.905 37.1825 103.455 35.7357 101.667 35.7357C99.8782 35.7357 98.4284 37.1825 98.4284 38.9672C98.4284 40.7519 99.8782 42.1987 101.667 42.1987Z" fill="#F2F2F2"/>
<path d="M140.384 55.6908C142.172 55.6908 143.622 54.244 143.622 52.4593C143.622 50.6745 142.172 49.2277 140.384 49.2277C138.595 49.2277 137.146 50.6745 137.146 52.4593C137.146 54.244 138.595 55.6908 140.384 55.6908Z" fill="#F2F2F2"/>
<path d="M127.478 55.6908C129.266 55.6908 130.716 54.244 130.716 52.4593C130.716 50.6745 129.266 49.2277 127.478 49.2277C125.69 49.2277 124.24 50.6745 124.24 52.4593C124.24 54.244 125.69 55.6908 127.478 55.6908Z" fill="#F2F2F2"/>
<path d="M114.572 55.6908C116.361 55.6908 117.811 54.244 117.811 52.4593C117.811 50.6745 116.361 49.2277 114.572 49.2277C112.784 49.2277 111.334 50.6745 111.334 52.4593C111.334 54.244 112.784 55.6908 114.572 55.6908Z" fill="#F2F2F2"/>
<path d="M101.667 55.6908C103.455 55.6908 104.905 54.244 104.905 52.4593C104.905 50.6745 103.455 49.2277 101.667 49.2277C99.8782 49.2277 98.4284 50.6745 98.4284 52.4593C98.4284 54.244 99.8782 55.6908 101.667 55.6908Z" fill="#F2F2F2"/>
<path d="M140.384 69.1829C142.172 69.1829 143.622 67.7361 143.622 65.9513C143.622 64.1666 142.172 62.7198 140.384 62.7198C138.595 62.7198 137.146 64.1666 137.146 65.9513C137.146 67.7361 138.595 69.1829 140.384 69.1829Z" fill="#F2F2F2"/>
<path d="M127.478 69.1829C129.266 69.1829 130.716 67.7361 130.716 65.9513C130.716 64.1666 129.266 62.7198 127.478 62.7198C125.69 62.7198 124.24 64.1666 124.24 65.9513C124.24 67.7361 125.69 69.1829 127.478 69.1829Z" fill="#F2F2F2"/>
<path d="M114.572 69.1829C116.361 69.1829 117.811 67.7361 117.811 65.9513C117.811 64.1666 116.361 62.7198 114.572 62.7198C112.784 62.7198 111.334 64.1666 111.334 65.9513C111.334 67.7361 112.784 69.1829 114.572 69.1829Z" fill="#F2F2F2"/>
<path d="M101.667 69.1829C103.455 69.1829 104.905 67.7361 104.905 65.9513C104.905 64.1666 103.455 62.7198 101.667 62.7198C99.8782 62.7198 98.4284 64.1666 98.4284 65.9513C98.4284 67.7361 99.8782 69.1829 101.667 69.1829Z" fill="#F2F2F2"/>
<path d="M140.384 82.6749C142.172 82.6749 143.622 81.2281 143.622 79.4434C143.622 77.6587 142.172 76.2119 140.384 76.2119C138.595 76.2119 137.146 77.6587 137.146 79.4434C137.146 81.2281 138.595 82.6749 140.384 82.6749Z" fill="#F2F2F2"/>
<path d="M127.478 82.6749C129.266 82.6749 130.716 81.2281 130.716 79.4434C130.716 77.6587 129.266 76.2119 127.478 76.2119C125.69 76.2119 124.24 77.6587 124.24 79.4434C124.24 81.2281 125.69 82.6749 127.478 82.6749Z" fill="#F2F2F2"/>
<path d="M114.572 82.6749C116.361 82.6749 117.811 81.2281 117.811 79.4434C117.811 77.6587 116.361 76.2119 114.572 76.2119C112.784 76.2119 111.334 77.6587 111.334 79.4434C111.334 81.2281 112.784 82.6749 114.572 82.6749Z" fill="#F2F2F2"/>
<path d="M101.667 82.6749C103.455 82.6749 104.905 81.2281 104.905 79.4434C104.905 77.6587 103.455 76.2119 101.667 76.2119C99.8782 76.2119 98.4284 77.6587 98.4284 79.4434C98.4284 81.2281 99.8782 82.6749 101.667 82.6749Z" fill="#F2F2F2"/>
<path d="M140.384 96.167C142.172 96.167 143.622 94.7202 143.622 92.9355C143.622 91.1507 142.172 89.7039 140.384 89.7039C138.595 89.7039 137.146 91.1507 137.146 92.9355C137.146 94.7202 138.595 96.167 140.384 96.167Z" fill="#F2F2F2"/>
<path d="M127.478 96.167C129.266 96.167 130.716 94.7202 130.716 92.9355C130.716 91.1507 129.266 89.7039 127.478 89.7039C125.69 89.7039 124.24 91.1507 124.24 92.9355C124.24 94.7202 125.69 96.167 127.478 96.167Z" fill="#F2F2F2"/>
<path d="M114.572 96.167C116.361 96.167 117.811 94.7202 117.811 92.9355C117.811 91.1507 116.361 89.7039 114.572 89.7039C112.784 89.7039 111.334 91.1507 111.334 92.9355C111.334 94.7202 112.784 96.167 114.572 96.167Z" fill="#F2F2F2"/>
<path d="M101.667 96.167C103.455 96.167 104.905 94.7202 104.905 92.9355C104.905 91.1507 103.455 89.7039 101.667 89.7039C99.8782 89.7039 98.4284 91.1507 98.4284 92.9355C98.4284 94.7202 99.8782 96.167 101.667 96.167Z" fill="#F2F2F2"/>
<path d="M111.929 181.093V182.093C111.931 183.749 112.591 185.337 113.764 186.508C114.938 187.679 116.529 188.338 118.188 188.339H163.255C164.915 188.339 166.506 187.68 167.68 186.509C168.854 185.338 169.513 183.749 169.514 182.093V181.093C169.517 179.632 169.003 178.216 168.062 177.096C167.749 176.724 167.394 176.389 167.005 176.096C167.005 176.096 142.229 175.537 142.229 174.847H118.188C116.529 174.849 114.938 175.508 113.765 176.679C112.592 177.85 111.931 179.438 111.929 181.093Z" fill="#CCCCCC"/>
<path d="M144.339 188.091H137.829V230.066H144.339V188.091Z" fill="#CCCCCC"/>
<path d="M162.866 229.838C162.866 230.54 153.002 230.11 140.834 230.11C128.665 230.11 118.801 230.54 118.801 229.838C118.801 229.136 128.665 223.57 140.834 223.57C153.002 223.57 162.866 229.136 162.866 229.838Z" fill="#CCCCCC"/>
<path d="M153.916 180.246C154.386 179.616 154.712 178.892 154.871 178.123C155.03 177.355 155.018 176.561 154.837 175.797C154.655 175.034 154.308 174.319 153.819 173.704C153.331 173.089 152.713 172.588 152.01 172.237L138.213 125.322L127.707 130.457L144.573 174.958C144.06 176.176 144.013 177.54 144.44 178.791C144.867 180.041 145.739 181.092 146.891 181.744C148.043 182.395 149.394 182.603 150.689 182.327C151.984 182.051 153.132 181.31 153.916 180.246L153.916 180.246Z" fill="#A0616A"/>
<path d="M141.339 133.157L129.58 136.333C129.246 136.424 128.895 136.441 128.554 136.384C128.212 136.327 127.886 136.198 127.599 136.004C127.312 135.81 127.07 135.557 126.89 135.262C126.709 134.966 126.595 134.635 126.555 134.292L125.133 122.255C124.68 120.544 124.925 118.724 125.814 117.193C126.703 115.662 128.165 114.545 129.878 114.088C131.591 113.63 133.416 113.87 134.952 114.753C136.489 115.636 137.612 117.091 138.075 118.8L142.919 129.871C143.058 130.188 143.126 130.531 143.12 130.877C143.114 131.223 143.033 131.563 142.883 131.875C142.733 132.187 142.517 132.463 142.251 132.684C141.985 132.905 141.673 133.067 141.339 133.157H141.339Z" fill="#198262"/>
<path d="M156.99 224.918L163.129 224.918L166.049 209.029H156.989L156.99 224.918Z" fill="#A0616A"/>
<path d="M155.424 222.918L167.513 222.918H167.514C168.526 222.917 169.527 223.116 170.462 223.503C171.397 223.889 172.246 224.455 172.962 225.169C173.677 225.883 174.245 226.731 174.632 227.664C175.019 228.597 175.218 229.596 175.218 230.606V230.856L155.424 230.857L155.424 222.918Z" fill="#2F2E41"/>
<path d="M164.115 216.398C164.044 216.398 163.972 216.394 163.9 216.388L155.404 215.77C155.06 215.738 154.729 215.628 154.435 215.448C154.14 215.268 153.892 215.023 153.707 214.732C153.523 214.441 153.408 214.112 153.372 213.769C153.335 213.427 153.378 213.081 153.497 212.757L164.867 187.265C164.948 187.038 164.981 186.796 164.964 186.555C164.947 186.315 164.881 186.08 164.768 185.866C164.656 185.65 164.5 185.46 164.309 185.308C164.118 185.157 163.897 185.047 163.661 184.987C158.315 183.592 144.597 179.879 132.722 175.534C127.635 173.672 124.431 170.982 123.199 167.537C121.575 162.997 123.977 158.855 124.08 158.682L124.161 158.546L135.335 159.559L147.448 160.587L173.994 174.793C176.218 175.993 177.908 177.986 178.726 180.374C179.545 182.761 179.432 185.369 178.41 187.677L166.171 215.065C165.994 215.462 165.706 215.799 165.341 216.035C164.976 216.272 164.55 216.398 164.115 216.398Z" fill="#2F2E41"/>
<path d="M137.278 109.124C144.07 109.124 149.576 103.629 149.576 96.851C149.576 90.0726 144.07 84.5777 137.278 84.5777C130.485 84.5777 124.979 90.0726 124.979 96.851C124.979 103.629 130.485 109.124 137.278 109.124Z" fill="#A0616A"/>
<path d="M153.484 224.419L159.623 224.418L162.544 208.529H153.483L153.484 224.419Z" fill="#A0616A"/>
<path d="M151.918 222.418L164.008 222.418H164.009C165.02 222.418 166.022 222.617 166.957 223.003C167.892 223.389 168.741 223.956 169.457 224.67C170.172 225.384 170.74 226.231 171.127 227.164C171.514 228.097 171.713 229.097 171.713 230.106V230.356L151.919 230.357L151.918 222.418Z" fill="#2F2E41"/>
<path d="M160.61 217.897C160.539 217.897 160.467 217.894 160.395 217.887L151.899 217.269C151.555 217.238 151.224 217.127 150.929 216.947C150.635 216.768 150.386 216.523 150.202 216.231C150.018 215.94 149.903 215.611 149.866 215.268C149.83 214.926 149.873 214.58 149.991 214.257L161.361 188.764C161.443 188.537 161.476 188.295 161.459 188.055C161.442 187.814 161.375 187.579 161.263 187.366C161.151 187.149 160.995 186.959 160.804 186.808C160.613 186.656 160.392 186.547 160.156 186.486C154.809 185.092 141.092 181.378 129.217 177.033C124.13 175.171 120.925 172.481 119.694 169.037C118.07 164.496 120.472 160.355 120.575 160.181L120.656 160.045L131.83 161.058L143.943 162.087L170.489 176.292C172.713 177.492 174.403 179.485 175.221 181.873C176.04 184.26 175.927 186.868 174.905 189.177L162.666 216.564C162.489 216.961 162.201 217.298 161.836 217.534C161.471 217.771 161.045 217.897 160.61 217.897Z" fill="#2F2E41"/>
<path d="M141.071 116.084L128.051 111.586C128.051 111.586 119.878 117.853 123.805 133.398C125.854 141.42 125.257 149.887 122.102 157.544C121.722 158.491 121.284 159.414 120.791 160.308C120.791 160.308 135.312 177.798 148.832 164.805L143.574 139.57C143.574 139.57 151.837 122.83 141.071 116.084Z" fill="#2F2E41"/>
<path d="M138.805 109.542C137.054 106.927 135.673 103.302 137.6 100.814C139.502 98.3583 143.254 98.72 146.168 97.6334C150.226 96.12 152.579 91.3625 151.845 87.1018C151.111 82.8411 147.684 79.3092 143.601 77.864C139.518 76.4189 134.914 76.8889 130.916 78.5531C125.994 80.6017 121.772 84.5646 120.001 89.5847C118.231 94.6047 119.177 100.632 122.85 104.491C126.788 108.627 132.968 109.73 138.685 109.663" fill="#2F2E41"/>
<path d="M127.364 87.2385C125.159 89.0304 121.793 88.2345 119.426 86.6619C117.058 85.0893 115.137 82.85 112.575 81.6171C108.059 79.4433 102.599 80.8884 98.2031 83.2961C93.8076 85.7039 89.9113 89.0303 85.2684 90.9197C80.6255 92.8092 74.7008 92.9026 71.1852 89.3349C70.32 91.8363 70.2493 94.5432 70.9827 97.0862C71.716 99.6293 73.2178 101.885 75.283 103.544C77.3482 105.204 79.8762 106.188 82.5223 106.361C85.1683 106.534 87.8034 105.888 90.0681 104.512C95.1553 101.419 97.9653 94.9354 103.671 93.2286C106.829 92.2842 110.219 93.0449 113.41 93.8688C116.601 94.6927 119.929 95.583 123.149 94.8816C126.369 94.1801 129.382 91.2921 128.972 88.0282L127.364 87.2385Z" fill="#2F2E41"/>
<path d="M167.4 202.884C166.098 194.443 166.098 185.852 167.4 177.411C167.483 176.909 167.741 176.452 168.13 176.122C168.518 175.792 169.012 175.611 169.522 175.61H189.488C189.811 175.608 190.131 175.681 190.422 175.822C190.713 175.963 190.968 176.168 191.168 176.422C191.372 176.68 191.514 176.98 191.584 177.301C191.654 177.622 191.65 177.954 191.572 178.273C189.704 186.08 189.704 194.215 191.572 202.022C191.65 202.341 191.654 202.673 191.584 202.994C191.514 203.315 191.372 203.616 191.168 203.873C190.968 204.127 190.713 204.332 190.422 204.473C190.131 204.614 189.811 204.687 189.488 204.686H169.522C169.012 204.685 168.518 204.503 168.13 204.173C167.741 203.843 167.483 203.386 167.4 202.884Z" fill="#198262"/>
<path d="M183.343 187.941H172.866C172.468 187.94 172.086 187.782 171.804 187.501C171.523 187.22 171.364 186.839 171.364 186.441V185.856C171.364 185.458 171.523 185.077 171.804 184.796C172.086 184.515 172.468 184.357 172.866 184.357H183.343C183.742 184.357 184.124 184.515 184.405 184.796C184.687 185.077 184.845 185.458 184.846 185.856V186.441C184.845 186.839 184.687 187.22 184.405 187.501C184.124 187.782 183.742 187.94 183.343 187.941Z" fill="white"/>
<path d="M183.343 194.109H172.866C172.468 194.109 172.086 193.951 171.804 193.67C171.523 193.389 171.364 193.008 171.364 192.61V192.024C171.364 191.627 171.523 191.246 171.804 190.965C172.086 190.684 172.468 190.526 172.866 190.525H183.343C183.742 190.526 184.124 190.684 184.405 190.965C184.687 191.246 184.845 191.627 184.846 192.024V192.61C184.845 193.008 184.687 193.389 184.405 193.67C184.124 193.951 183.742 194.109 183.343 194.109Z" fill="white"/>
<path d="M172.651 177.997C172.948 177.271 173.082 176.488 173.044 175.704C173.005 174.921 172.795 174.155 172.428 173.461C172.061 172.767 171.546 172.161 170.919 171.688C170.292 171.214 169.569 170.883 168.8 170.718L143.695 128.731L134.808 136.322L162.279 175.207C162.088 176.515 162.383 177.847 163.11 178.951C163.837 180.056 164.945 180.856 166.223 181.199C167.502 181.543 168.862 181.407 170.047 180.817C171.231 180.227 172.158 179.224 172.651 177.997L172.651 177.997Z" fill="#A0616A"/>
<path d="M148.683 135.538L138.092 141.545C137.791 141.716 137.456 141.82 137.111 141.851C136.766 141.881 136.418 141.836 136.092 141.72C135.765 141.604 135.467 141.419 135.219 141.178C134.97 140.937 134.777 140.645 134.652 140.323L130.262 129.022C129.395 127.479 129.176 125.655 129.654 123.951C130.132 122.247 131.267 120.801 132.811 119.931C134.355 119.061 136.182 118.838 137.891 119.31C139.6 119.782 141.052 120.911 141.928 122.45L149.391 131.962C149.604 132.234 149.756 132.55 149.837 132.886C149.917 133.223 149.924 133.572 149.857 133.912C149.79 134.251 149.65 134.572 149.448 134.853C149.245 135.133 148.984 135.367 148.683 135.538Z" fill="#2F2E41"/>
<path d="M261.369 150.286H58.0693C57.206 150.286 56.3782 150.629 55.7678 151.238C55.1574 151.847 54.8145 152.673 54.8145 153.534C54.8145 154.396 55.1574 155.222 55.7678 155.831C56.3782 156.44 57.206 156.783 58.0693 156.783H63.8277V227.491C63.8277 228.352 64.1707 229.179 64.7811 229.788C65.3915 230.397 66.2193 230.739 67.0825 230.739C67.9458 230.739 68.7737 230.397 69.3841 229.788C69.9944 229.179 70.3373 228.352 70.3373 227.491V163.024L106.827 229.024C107.259 229.768 107.97 230.311 108.803 230.533C109.636 230.754 110.523 230.637 111.27 230.207C112.016 229.777 112.561 229.069 112.785 228.238C113.009 227.407 112.894 226.522 112.464 225.776L74.32 156.783H248.6V156.825L210.48 225.776C210.048 226.522 209.931 227.409 210.154 228.241C210.378 229.073 210.923 229.782 211.671 230.213C212.418 230.644 213.307 230.76 214.141 230.537C214.974 230.314 215.685 229.77 216.117 229.024L248.6 170.27V227.491C248.6 228.352 248.943 229.179 249.554 229.788C250.164 230.397 250.992 230.739 251.855 230.739C252.718 230.739 253.546 230.397 254.157 229.788C254.767 229.179 255.11 228.352 255.11 227.491V158.495L256.057 156.783H261.369C262.232 156.783 263.06 156.44 263.671 155.831C264.281 155.222 264.624 154.396 264.624 153.534C264.624 152.673 264.281 151.847 263.671 151.238C263.06 150.629 262.232 150.286 261.369 150.286Z" fill="#3F3D56"/>
<path d="M177.245 148.288H137.687C136.719 148.288 135.934 149.071 135.934 150.037C135.934 151.002 136.719 151.786 137.687 151.786H177.245C178.213 151.786 178.998 151.002 178.998 150.037C178.998 149.071 178.213 148.288 177.245 148.288Z" fill="#CCCCCC"/>
<path d="M203.784 151.785H159.218C158.356 151.785 157.528 151.442 156.918 150.833C156.308 150.224 155.965 149.399 155.964 148.537V124.052C155.965 123.191 156.308 122.365 156.918 121.756C157.528 121.147 158.356 120.805 159.218 120.804H203.784C204.647 120.805 205.474 121.147 206.085 121.756C206.695 122.365 207.038 123.191 207.039 124.052V148.537C207.038 149.399 206.695 150.224 206.085 150.833C205.474 151.442 204.647 151.785 203.784 151.785Z" fill="#CCCCCC"/>
<path d="M181.501 139.293C183.161 139.293 184.506 137.951 184.506 136.295C184.506 134.639 183.161 133.296 181.501 133.296C179.842 133.296 178.497 134.639 178.497 136.295C178.497 137.951 179.842 139.293 181.501 139.293Z" fill="white"/>
<path d="M237.795 91.4569V3.7585C237.796 2.76203 238.193 1.8067 238.899 1.10209C239.605 0.397478 240.563 0.00113345 241.561 0H311.028C312.026 0.00113345 312.984 0.397478 313.69 1.10209C314.396 1.8067 314.793 2.76203 314.794 3.7585V91.4569C314.793 92.4534 314.396 93.4087 313.69 94.1133C312.984 94.8179 312.026 95.2143 311.028 95.2154H241.561C240.563 95.2143 239.605 94.8179 238.899 94.1133C238.193 93.4087 237.796 92.4534 237.795 91.4569ZM241.561 0.835225C240.784 0.836095 240.04 1.14436 239.491 1.69239C238.942 2.24043 238.633 2.98347 238.632 3.7585V91.4569C238.633 92.232 238.942 92.975 239.491 93.523C240.04 94.0711 240.784 94.3793 241.561 94.3802H311.028C311.804 94.3793 312.549 94.0711 313.098 93.523C313.647 92.975 313.956 92.232 313.957 91.4569V3.7585C313.956 2.98347 313.647 2.24043 313.098 1.69239C312.549 1.14436 311.804 0.836095 311.028 0.835225H241.561Z" fill="#E6E6E6"/>
<path d="M280.19 40.2752V22.2679C280.19 21.7697 280.389 21.292 280.742 20.9397C281.095 20.5874 281.574 20.3892 282.073 20.3887H297.364C297.863 20.3892 298.342 20.5874 298.695 20.9397C299.048 21.292 299.247 21.7697 299.247 22.2679V40.2752C299.247 40.7734 299.048 41.2511 298.695 41.6034C298.342 41.9557 297.863 42.1539 297.364 42.1544H282.073C281.574 42.1539 281.095 41.9557 280.742 41.6034C280.389 41.2511 280.19 40.7734 280.19 40.2752Z" fill="#198262"/>
<path d="M250.478 48.6274V30.6202C250.479 30.1219 250.677 29.6442 251.03 29.2919C251.383 28.9396 251.862 28.7414 252.361 28.7409H267.652C268.152 28.7414 268.63 28.9396 268.983 29.2919C269.336 29.6442 269.535 30.1219 269.535 30.6202V48.6274C269.535 49.1256 269.336 49.6033 268.983 49.9556C268.63 50.3079 268.152 50.5061 267.652 50.5067H252.361C251.862 50.5061 251.383 50.3079 251.03 49.9556C250.677 49.6033 250.479 49.1256 250.478 48.6274Z" fill="#CCCCCC"/>
<path d="M274.331 74.1017V56.0944C274.332 55.5962 274.53 55.1185 274.883 54.7662C275.236 54.4139 275.715 54.2157 276.214 54.2152H291.505C292.005 54.2157 292.483 54.4139 292.836 54.7662C293.189 55.1185 293.388 55.5962 293.389 56.0944V74.1017C293.388 74.5999 293.189 75.0776 292.836 75.4299C292.483 75.7822 292.005 75.9804 291.505 75.9809H276.214C275.715 75.9804 275.236 75.7822 274.883 75.4299C274.53 75.0776 274.332 74.5999 274.331 74.1017Z" fill="#FF6584"/>
<path d="M390.947 9.13822C392.736 9.13822 394.185 7.6914 394.185 5.90667C394.185 4.12194 392.736 2.67513 390.947 2.67513C389.159 2.67513 387.709 4.12194 387.709 5.90667C387.709 7.6914 389.159 9.13822 390.947 9.13822Z" fill="#F2F2F2"/>
<path d="M390.947 22.0173C392.736 22.0173 394.185 20.5705 394.185 18.7857C394.185 17.001 392.736 15.5542 390.947 15.5542C389.159 15.5542 387.709 17.001 387.709 18.7857C387.709 20.5705 389.159 22.0173 390.947 22.0173Z" fill="#F2F2F2"/>
<path d="M390.947 34.8964C392.736 34.8964 394.185 33.4495 394.185 31.6648C394.185 29.8801 392.736 28.4333 390.947 28.4333C389.159 28.4333 387.709 29.8801 387.709 31.6648C387.709 33.4495 389.159 34.8964 390.947 34.8964Z" fill="#F2F2F2"/>
<path d="M390.947 47.7754C392.736 47.7754 394.185 46.3286 394.185 44.5439C394.185 42.7592 392.736 41.3123 390.947 41.3123C389.159 41.3123 387.709 42.7592 387.709 44.5439C387.709 46.3286 389.159 47.7754 390.947 47.7754Z" fill="#F2F2F2"/>
<path d="M377.427 9.13822C379.216 9.13822 380.666 7.6914 380.666 5.90667C380.666 4.12194 379.216 2.67513 377.427 2.67513C375.639 2.67513 374.189 4.12194 374.189 5.90667C374.189 7.6914 375.639 9.13822 377.427 9.13822Z" fill="#F2F2F2"/>
<path d="M377.427 22.0173C379.216 22.0173 380.666 20.5705 380.666 18.7857C380.666 17.001 379.216 15.5542 377.427 15.5542C375.639 15.5542 374.189 17.001 374.189 18.7857C374.189 20.5705 375.639 22.0173 377.427 22.0173Z" fill="#F2F2F2"/>
<path d="M377.427 34.8964C379.216 34.8964 380.666 33.4495 380.666 31.6648C380.666 29.8801 379.216 28.4333 377.427 28.4333C375.639 28.4333 374.189 29.8801 374.189 31.6648C374.189 33.4495 375.639 34.8964 377.427 34.8964Z" fill="#F2F2F2"/>
<path d="M377.427 47.7754C379.216 47.7754 380.666 46.3286 380.666 44.5439C380.666 42.7592 379.216 41.3123 377.427 41.3123C375.639 41.3123 374.189 42.7592 374.189 44.5439C374.189 46.3286 375.639 47.7754 377.427 47.7754Z" fill="#F2F2F2"/>
<path d="M363.907 9.13822C365.696 9.13822 367.146 7.6914 367.146 5.90667C367.146 4.12194 365.696 2.67513 363.907 2.67513C362.119 2.67513 360.669 4.12194 360.669 5.90667C360.669 7.6914 362.119 9.13822 363.907 9.13822Z" fill="#F2F2F2"/>
<path d="M363.907 22.0173C365.696 22.0173 367.146 20.5705 367.146 18.7857C367.146 17.001 365.696 15.5542 363.907 15.5542C362.119 15.5542 360.669 17.001 360.669 18.7857C360.669 20.5705 362.119 22.0173 363.907 22.0173Z" fill="#F2F2F2"/>
<path d="M363.907 34.8964C365.696 34.8964 367.146 33.4495 367.146 31.6648C367.146 29.8801 365.696 28.4333 363.907 28.4333C362.119 28.4333 360.669 29.8801 360.669 31.6648C360.669 33.4495 362.119 34.8964 363.907 34.8964Z" fill="#F2F2F2"/>
<path d="M363.907 47.7754C365.696 47.7754 367.146 46.3286 367.146 44.5439C367.146 42.7592 365.696 41.3123 363.907 41.3123C362.119 41.3123 360.669 42.7592 360.669 44.5439C360.669 46.3286 362.119 47.7754 363.907 47.7754Z" fill="#F2F2F2"/>
<path d="M350.387 9.13822C352.176 9.13822 353.626 7.6914 353.626 5.90667C353.626 4.12194 352.176 2.67513 350.387 2.67513C348.599 2.67513 347.149 4.12194 347.149 5.90667C347.149 7.6914 348.599 9.13822 350.387 9.13822Z" fill="#F2F2F2"/>
<path d="M350.387 22.0173C352.176 22.0173 353.626 20.5705 353.626 18.7857C353.626 17.001 352.176 15.5542 350.387 15.5542C348.599 15.5542 347.149 17.001 347.149 18.7857C347.149 20.5705 348.599 22.0173 350.387 22.0173Z" fill="#F2F2F2"/>
<path d="M350.387 34.8964C352.176 34.8964 353.626 33.4495 353.626 31.6648C353.626 29.8801 352.176 28.4333 350.387 28.4333C348.599 28.4333 347.149 29.8801 347.149 31.6648C347.149 33.4495 348.599 34.8964 350.387 34.8964Z" fill="#F2F2F2"/>
<path d="M350.387 47.7754C352.176 47.7754 353.626 46.3286 353.626 44.5439C353.626 42.7592 352.176 41.3123 350.387 41.3123C348.599 41.3123 347.149 42.7592 347.149 44.5439C347.149 46.3286 348.599 47.7754 350.387 47.7754Z" fill="#F2F2F2"/>
<path d="M336.867 9.13822C338.656 9.13822 340.106 7.6914 340.106 5.90667C340.106 4.12194 338.656 2.67513 336.867 2.67513C335.079 2.67513 333.629 4.12194 333.629 5.90667C333.629 7.6914 335.079 9.13822 336.867 9.13822Z" fill="#F2F2F2"/>
<path d="M336.867 22.0173C338.656 22.0173 340.106 20.5705 340.106 18.7857C340.106 17.001 338.656 15.5542 336.867 15.5542C335.079 15.5542 333.629 17.001 333.629 18.7857C333.629 20.5705 335.079 22.0173 336.867 22.0173Z" fill="#F2F2F2"/>
<path d="M336.867 34.8964C338.656 34.8964 340.106 33.4495 340.106 31.6648C340.106 29.8801 338.656 28.4333 336.867 28.4333C335.079 28.4333 333.629 29.8801 333.629 31.6648C333.629 33.4495 335.079 34.8964 336.867 34.8964Z" fill="#F2F2F2"/>
<path d="M336.867 47.7754C338.656 47.7754 340.106 46.3286 340.106 44.5439C340.106 42.7592 338.656 41.3123 336.867 41.3123C335.079 41.3123 333.629 42.7592 333.629 44.5439C333.629 46.3286 335.079 47.7754 336.867 47.7754Z" fill="#F2F2F2"/>
<path d="M323.348 9.13822C325.136 9.13822 326.586 7.6914 326.586 5.90667C326.586 4.12194 325.136 2.67513 323.348 2.67513C321.559 2.67513 320.109 4.12194 320.109 5.90667C320.109 7.6914 321.559 9.13822 323.348 9.13822Z" fill="#F2F2F2"/>
<path d="M323.348 22.0173C325.136 22.0173 326.586 20.5705 326.586 18.7857C326.586 17.001 325.136 15.5542 323.348 15.5542C321.559 15.5542 320.109 17.001 320.109 18.7857C320.109 20.5705 321.559 22.0173 323.348 22.0173Z" fill="#F2F2F2"/>
<path d="M323.348 34.8964C325.136 34.8964 326.586 33.4495 326.586 31.6648C326.586 29.8801 325.136 28.4333 323.348 28.4333C321.559 28.4333 320.109 29.8801 320.109 31.6648C320.109 33.4495 321.559 34.8964 323.348 34.8964Z" fill="#F2F2F2"/>
<path d="M323.348 47.7754C325.136 47.7754 326.586 46.3286 326.586 44.5439C326.586 42.7592 325.136 41.3123 323.348 41.3123C321.559 41.3123 320.109 42.7592 320.109 44.5439C320.109 46.3286 321.559 47.7754 323.348 47.7754Z" fill="#F2F2F2"/>
<path d="M336.394 120.555C336.128 119.828 336.02 119.052 336.075 118.279C336.131 117.507 336.349 116.755 336.717 116.072C337.084 115.39 337.591 114.793 338.206 114.32C338.821 113.847 339.529 113.509 340.283 113.328C340.522 113.272 340.765 113.232 341.01 113.21L353.179 91.9227L350.106 86.6546L357.755 80.7657L363.607 88.8769C364.305 89.852 364.67 91.0256 364.646 92.2237C364.623 93.4217 364.213 94.5802 363.477 95.5273L346.77 116.872C346.831 117.041 346.883 117.214 346.926 117.389C347.107 118.142 347.126 118.925 346.983 119.686C346.84 120.448 346.537 121.17 346.095 121.807C345.652 122.443 345.08 122.979 344.416 123.379C343.751 123.78 343.009 124.035 342.239 124.13C342.015 124.158 341.79 124.172 341.564 124.172C340.436 124.168 339.335 123.82 338.411 123.173C337.486 122.527 336.782 121.613 336.394 120.555Z" fill="#FFB8B8"/>
<path d="M312.651 225.312L306.512 225.311L303.592 201.681L312.652 201.681L312.651 225.312Z" fill="#FFB8B8"/>
<path d="M302.127 223.56H313.967V231H294.673C294.673 230.023 294.866 229.055 295.24 228.153C295.615 227.25 296.164 226.43 296.856 225.739C297.548 225.049 298.37 224.501 299.275 224.127C300.179 223.753 301.148 223.56 302.127 223.56Z" fill="#2F2E41"/>
<path d="M363.226 225.312L357.087 225.311L354.166 201.681L363.227 201.681L363.226 225.312Z" fill="#FFB8B8"/>
<path d="M352.702 223.56H364.541V231H345.247C345.247 230.023 345.44 229.055 345.815 228.153C346.189 227.25 346.739 226.43 347.431 225.739C348.123 225.049 348.945 224.501 349.849 224.127C350.754 223.753 351.723 223.56 352.702 223.56Z" fill="#2F2E41"/>
<path d="M359.458 81.9164L345.675 87.143L342.31 77.8151C341.864 76.5765 341.87 75.2202 342.328 73.9858C342.786 72.7514 343.667 71.7184 344.815 71.0694C345.976 70.4128 347.334 70.1922 348.644 70.4474C349.953 70.7025 351.128 71.4167 351.957 72.4608L359.458 81.9164Z" fill="#198262"/>
<path d="M313.181 206.173L301.622 203.542C301.007 203.401 300.469 203.033 300.115 202.512C299.76 201.991 299.617 201.356 299.713 200.734C304.351 171.397 308.814 154.216 320.314 132.398C320.474 131.991 322.27 123.734 323.442 118.264C323.428 117.661 323.635 117.074 324.023 116.612C324.411 116.15 324.955 115.845 325.552 115.753L347.106 112.443C347.431 112.33 347.774 112.279 348.118 112.291L348.333 112.332L348.331 112.543C348.328 112.762 348.11 112.795 348.028 112.808L347.741 112.852C348.068 113.004 348.368 113.207 348.63 113.455C358.074 124.79 362.985 161.946 369.222 202.994C369.257 203.328 369.216 203.664 369.103 203.98C368.99 204.295 368.808 204.581 368.569 204.817C368.343 205.063 368.07 205.261 367.766 205.398C367.461 205.536 367.132 205.61 366.798 205.617L353.027 205.952C352.422 205.965 351.833 205.759 351.369 205.371C350.905 204.983 350.598 204.441 350.505 203.844L341.23 150.351C341.166 149.933 340.97 149.547 340.671 149.247C340.372 148.948 339.984 148.752 339.566 148.688C339.147 148.623 338.719 148.694 338.343 148.889C337.968 149.084 337.664 149.394 337.477 149.773C329.994 164.982 323.015 178.134 316.142 204.374C316.006 204.907 315.696 205.378 315.262 205.715C314.827 206.052 314.293 206.236 313.743 206.236C313.554 206.236 313.365 206.215 313.181 206.173Z" fill="#2F2E41"/>
<path d="M324.401 118.875C324.111 118.67 323.868 118.406 323.688 118.1C323.508 117.794 323.396 117.454 323.358 117.101C321.593 100.656 322.822 87.7865 327.117 77.757C327.873 76.0271 329.012 74.4908 330.449 73.2636C331.886 72.0363 333.583 71.15 335.412 70.6713L346.553 70.1101L346.611 70.1379C349.125 71.3668 351.176 73.3715 352.458 75.8547C353.741 78.338 354.187 81.1676 353.731 83.924C350.148 93.3501 347.147 103.164 349.436 111.081C349.532 111.412 349.56 111.759 349.518 112.101C349.476 112.443 349.366 112.773 349.193 113.072C349.026 113.36 348.801 113.611 348.533 113.81C348.265 114.008 347.958 114.15 347.633 114.226L326.413 119.263C326.069 119.345 325.712 119.352 325.365 119.285C325.018 119.218 324.69 119.078 324.401 118.875Z" fill="#198262"/>
<path d="M319.606 95.2748L298.237 78.4517C298.067 78.5114 297.893 78.5624 297.718 78.6044C296.964 78.7805 296.181 78.7962 295.42 78.6506C294.659 78.505 293.938 78.2013 293.303 77.7592C292.663 77.3168 292.125 76.7432 291.726 76.0768C291.326 75.4103 291.074 74.6664 290.986 73.8948C290.843 72.6612 291.121 71.4156 291.776 70.3599C292.432 69.3042 293.425 68.5005 294.596 68.0791C295.326 67.8176 296.104 67.7131 296.878 67.7724C297.652 67.8317 298.404 68.0534 299.086 68.4232C299.768 68.7929 300.364 69.3023 300.835 69.9179C301.306 70.5336 301.642 71.2415 301.82 71.9955C301.875 72.2344 301.913 72.4769 301.934 72.7211L323.206 84.9676L328.5 81.9262L334.364 89.5877L326.145 95.4339C325.183 96.1126 324.027 96.4637 322.849 96.4351C321.671 96.4064 320.533 95.9995 319.606 95.2748H319.606Z" fill="#FFB8B8"/>
<path d="M336.972 91.9736L324.779 83.6998L330.509 75.6011C331.27 74.5257 332.387 73.7534 333.663 73.4205C334.94 73.0877 336.293 73.2158 337.484 73.7822C338.688 74.3552 339.648 75.3391 340.189 76.5563C340.73 77.7735 340.818 79.1438 340.435 80.4196L336.972 91.9736Z" fill="#198262"/>
<path d="M342.835 65.9574C349.628 65.9574 355.134 60.4625 355.134 53.6841C355.134 46.9058 349.628 41.4108 342.835 41.4108C336.043 41.4108 330.537 46.9058 330.537 53.6841C330.537 60.4625 336.043 65.9574 342.835 65.9574Z" fill="#FFB8B8"/>
<path d="M338.326 51.8561C335.165 54.0151 331.015 56.2344 327.786 53.9353C325.666 52.4256 324.998 49.6301 325.858 47.1768C327.404 42.7651 331.651 40.8229 335.713 39.3341C340.993 37.3987 346.742 35.8591 352.193 37.2451C357.643 38.6311 362.461 43.8976 361.477 49.4244C360.685 53.8689 356.484 57.5671 357.081 62.0418C357.681 66.5452 362.756 68.9157 367.236 69.7205C371.717 70.5254 376.731 70.784 379.951 73.9956C384.058 78.0926 383.032 85.4155 379.167 89.7411C375.302 94.0667 369.47 96.0275 363.818 97.3604C356.33 99.1265 348.23 100.055 341.118 97.1237C334.006 94.1927 328.472 86.3029 330.532 78.9045C331.402 75.7795 333.452 73.1384 335.434 70.5672C337.415 67.996 339.421 65.3073 340.177 62.1527C340.807 59.5239 340.34 56.4717 338.593 54.4998C338.276 54.1546 338.076 53.7179 338.022 53.2522C337.969 52.7866 338.065 52.316 338.296 51.9081L338.326 51.8561Z" fill="#2F2E41"/>
</svg>
