<svg width="266" height="192" viewBox="0 0 266 192" fill="none" xmlns="http://www.w3.org/2000/svg">
<g clip-path="url(#clip0)">
<path d="M265.616 190.528H0.384393C0.282446 190.528 0.184674 190.487 0.112586 190.415C0.0404981 190.343 0 190.245 0 190.144C0 190.042 0.0404981 189.944 0.112586 189.872C0.184674 189.8 0.282446 189.76 0.384393 189.76H265.616C265.718 189.76 265.815 189.8 265.887 189.872C265.96 189.944 266 190.042 266 190.144C266 190.245 265.96 190.343 265.887 190.415C265.815 190.487 265.718 190.528 265.616 190.528Z" fill="#CCCCCC"/>
<path d="M239.363 123.541H83.2997C82.637 123.541 82.0015 123.804 81.5329 124.272C81.0643 124.74 80.8011 125.375 80.8011 126.037C80.8011 126.7 81.0643 127.335 81.5329 127.803C82.0015 128.271 82.637 128.534 83.2997 128.534H87.7202V188.261C87.7202 188.923 87.9834 189.558 88.452 190.026C88.9206 190.494 89.5561 190.757 90.2187 190.757C90.8814 190.757 91.5169 190.494 91.9855 190.026C92.454 189.558 92.7173 188.923 92.7173 188.261L92.7553 128.534H229.561V188.261C229.561 188.923 229.824 189.558 230.293 190.026C230.762 190.494 231.397 190.757 232.06 190.757C232.722 190.757 233.358 190.494 233.827 190.026C234.295 189.558 234.558 188.923 234.558 188.261V129.85L235.285 128.534H239.363C240.026 128.534 240.661 128.271 241.13 127.803C241.599 127.335 241.862 126.7 241.862 126.037C241.862 125.375 241.599 124.74 241.13 124.272C240.661 123.804 240.026 123.541 239.363 123.541Z" fill="#CCCCCC"/>
<path d="M169.823 124.847H122.549C121.634 124.846 120.756 124.483 120.109 123.836C119.462 123.189 119.098 122.312 119.097 121.397V95.3908C119.098 94.4761 119.462 93.5993 120.109 92.9525C120.756 92.3058 121.634 91.942 122.549 91.9409H169.823C170.738 91.942 171.615 92.3058 172.263 92.9525C172.91 93.5993 173.274 94.4761 173.275 95.3908V121.397C173.274 122.312 172.91 123.189 172.263 123.836C171.615 124.483 170.738 124.846 169.823 124.847Z" fill="#3F3D56"/>
<path d="M169.822 94.5959H122.549C122.339 94.5964 122.136 94.6803 121.987 94.8293C121.838 94.9783 121.754 95.1803 121.754 95.391V121.398C121.754 121.609 121.838 121.811 121.987 121.96C122.136 122.109 122.339 122.193 122.549 122.193H169.822C170.033 122.193 170.235 122.109 170.384 121.96C170.534 121.811 170.618 121.609 170.618 121.398V95.391C170.618 95.1803 170.534 94.9783 170.384 94.8293C170.235 94.6803 170.033 94.5964 169.822 94.5959Z" fill="white"/>
<path d="M150.218 113.009C150.218 113.009 144.559 111.706 141.446 114.095C138.334 116.484 145.407 121.913 145.407 121.913L150.218 113.009Z" fill="#2F2E41"/>
<path d="M146.463 110.547C149.411 110.547 151.801 108.159 151.801 105.213C151.801 102.267 149.411 99.8789 146.463 99.8789C143.515 99.8789 141.125 102.267 141.125 105.213C141.125 108.159 143.515 110.547 146.463 110.547Z" fill="#A0616A"/>
<path d="M142.335 97.7253C142.691 97.1216 143.207 96.6279 143.826 96.2988C144.445 95.9696 145.143 95.8179 145.843 95.8602C146.576 95.952 147.29 96.1518 147.963 96.4532L151.453 97.8134C152.356 98.1654 153.345 98.5965 153.737 99.4823C154.101 100.305 153.829 101.254 153.555 102.11L152.249 106.179C152.104 105.258 151.856 104.356 151.509 103.491C151.156 102.62 150.519 101.894 149.701 101.431C148.794 100.966 147.726 100.976 146.708 101.025C145.267 101.094 143.7 101.277 142.676 102.293C142.133 102.87 141.764 103.589 141.614 104.367C141.465 105.14 141.391 105.926 141.391 106.714C140.8 105.699 140.302 104.633 139.904 103.528C139.576 102.705 139.389 101.833 139.351 100.949C139.317 100.057 139.613 99.1832 140.183 98.4957C140.472 98.1597 140.85 97.9112 141.273 97.7781C141.696 97.645 142.148 97.6327 142.578 97.7425L142.335 97.7253Z" fill="#2F2E41"/>
<path d="M159.209 117.634C159.159 117.454 159.057 117.293 158.915 117.17C158.774 117.048 158.599 116.97 158.413 116.947C158.401 116.938 158.388 116.93 158.375 116.924L150.406 112.461C150.178 112.334 149.91 112.299 149.658 112.364C149.405 112.429 149.187 112.589 149.05 112.81L146.87 116.336L143.587 113.056L143.535 113.004C143.367 112.835 143.144 112.732 142.907 112.711C142.67 112.69 142.433 112.754 142.237 112.89L135.688 117.473C135.677 117.473 135.665 117.477 135.654 117.477C135.34 117.529 135.054 117.686 134.842 117.923C134.63 118.16 134.506 118.462 134.489 118.779L134.32 122.193H160.474L159.209 117.634Z" fill="#1D9B75"/>
<path d="M173.806 121.663H168.76C168.76 121.522 168.704 121.387 168.605 121.288C168.505 121.188 168.37 121.132 168.229 121.132H166.636C166.495 121.132 166.36 121.188 166.26 121.288C166.16 121.387 166.104 121.522 166.104 121.663H164.511C164.511 121.522 164.455 121.387 164.355 121.288C164.256 121.188 164.121 121.132 163.98 121.132H162.386C162.245 121.132 162.11 121.188 162.011 121.288C161.911 121.387 161.855 121.522 161.855 121.663H160.262C160.262 121.522 160.206 121.387 160.106 121.288C160.006 121.188 159.871 121.132 159.73 121.132H158.137C157.996 121.132 157.861 121.188 157.761 121.288C157.662 121.387 157.606 121.522 157.606 121.663H156.012C156.012 121.522 155.956 121.387 155.857 121.288C155.757 121.188 155.622 121.132 155.481 121.132H153.888C153.747 121.132 153.612 121.188 153.512 121.288C153.413 121.387 153.357 121.522 153.357 121.663H151.763C151.763 121.522 151.707 121.387 151.608 121.288C151.508 121.188 151.373 121.132 151.232 121.132H149.638C149.498 121.132 149.362 121.188 149.263 121.288C149.163 121.387 149.107 121.522 149.107 121.663H147.514C147.514 121.522 147.458 121.387 147.358 121.288C147.259 121.188 147.123 121.132 146.983 121.132H145.389C145.248 121.132 145.113 121.188 145.014 121.288C144.914 121.387 144.858 121.522 144.858 121.663H143.264C143.264 121.522 143.209 121.387 143.109 121.288C143.009 121.188 142.874 121.132 142.733 121.132H141.14C140.999 121.132 140.864 121.188 140.764 121.288C140.665 121.387 140.609 121.522 140.609 121.663H139.015C139.015 121.522 138.959 121.387 138.86 121.288C138.76 121.188 138.625 121.132 138.484 121.132H136.891C136.75 121.132 136.615 121.188 136.515 121.288C136.415 121.387 136.359 121.522 136.359 121.663H134.766C134.766 121.522 134.71 121.387 134.61 121.288C134.511 121.188 134.376 121.132 134.235 121.132H132.641C132.5 121.132 132.365 121.188 132.266 121.288C132.166 121.387 132.11 121.522 132.11 121.663H130.517C130.517 121.522 130.461 121.387 130.361 121.288C130.261 121.188 130.126 121.132 129.985 121.132H128.392C128.251 121.132 128.116 121.188 128.016 121.288C127.917 121.387 127.861 121.522 127.861 121.663H126.267C126.267 121.522 126.211 121.387 126.112 121.288C126.012 121.188 125.877 121.132 125.736 121.132H124.143C124.002 121.132 123.867 121.188 123.767 121.288C123.667 121.387 123.612 121.522 123.612 121.663H118.566C118.143 121.663 117.739 121.832 117.44 122.13C117.142 122.429 116.974 122.833 116.974 123.255C116.974 123.677 117.142 124.082 117.44 124.38C117.739 124.679 118.143 124.847 118.566 124.847H173.806C174.229 124.847 174.634 124.68 174.933 124.381C175.232 124.082 175.4 123.677 175.4 123.255C175.4 122.833 175.232 122.428 174.933 122.129C174.634 121.831 174.229 121.663 173.806 121.663Z" fill="#3F3D56"/>
<path d="M110.351 112.416V122.989H83.8426C83.1324 123.013 82.4244 122.895 81.761 122.64C81.0976 122.386 80.4922 122.001 79.9811 121.507C79.4699 121.014 79.0633 120.423 78.7857 119.769C78.508 119.115 78.3649 118.413 78.3649 117.703C78.3649 116.992 78.508 116.29 78.7857 115.636C79.0633 114.982 79.4699 114.391 79.9811 113.898C80.4922 113.405 81.0976 113.019 81.761 112.765C82.4244 112.51 83.1324 112.392 83.8426 112.416H110.351Z" fill="#F2F2F2"/>
<path d="M111.002 122.907C111.002 123.015 110.959 123.119 110.883 123.195C110.807 123.271 110.703 123.314 110.595 123.314H83.3704C81.8918 123.314 80.4737 122.727 79.4282 121.682C78.3826 120.638 77.7952 119.221 77.7952 117.743C77.7952 116.266 78.3826 114.849 79.4282 113.804C80.4737 112.759 81.8918 112.172 83.3704 112.172H110.595C110.703 112.172 110.807 112.215 110.883 112.291C110.959 112.368 111.002 112.471 111.002 112.579C111.002 112.687 110.959 112.79 110.883 112.867C110.807 112.943 110.703 112.986 110.595 112.986H83.3704C82.1084 112.987 80.8984 113.489 80.0064 114.381C79.1145 115.273 78.6134 116.482 78.6134 117.743C78.6134 119.004 79.1145 120.214 80.0064 121.106C80.8984 121.998 82.1084 122.5 83.3704 122.501H110.595C110.703 122.501 110.807 122.544 110.883 122.62C110.959 122.696 111.002 122.8 111.002 122.907Z" fill="#1D9B75"/>
<path d="M110.351 114.856H81.8647C81.854 114.856 81.8433 114.854 81.8334 114.85C81.8235 114.846 81.8144 114.84 81.8068 114.832C81.7992 114.825 81.7932 114.816 81.789 114.806C81.7849 114.796 81.7828 114.785 81.7828 114.775C81.7828 114.764 81.7849 114.753 81.789 114.743C81.7932 114.734 81.7992 114.725 81.8068 114.717C81.8144 114.709 81.8235 114.703 81.8334 114.699C81.8433 114.695 81.854 114.693 81.8647 114.693H110.351C110.373 114.694 110.393 114.702 110.408 114.717C110.424 114.733 110.432 114.753 110.432 114.775C110.432 114.796 110.424 114.817 110.408 114.832C110.393 114.847 110.373 114.856 110.351 114.856Z" fill="#CCCCCC"/>
<path d="M110.351 116.808H81.8647C81.854 116.808 81.8433 116.806 81.8334 116.802C81.8235 116.798 81.8144 116.792 81.8068 116.784C81.7992 116.777 81.7932 116.768 81.789 116.758C81.7849 116.748 81.7828 116.737 81.7828 116.727C81.7828 116.716 81.7849 116.705 81.789 116.695C81.7932 116.685 81.7992 116.676 81.8068 116.669C81.8144 116.661 81.8235 116.655 81.8334 116.651C81.8433 116.647 81.854 116.645 81.8647 116.645H110.351C110.373 116.645 110.393 116.654 110.408 116.669C110.424 116.684 110.432 116.705 110.432 116.727C110.432 116.748 110.424 116.769 110.408 116.784C110.393 116.799 110.373 116.808 110.351 116.808Z" fill="#CCCCCC"/>
<path d="M110.351 118.76H81.8647C81.854 118.76 81.8433 118.758 81.8334 118.754C81.8235 118.75 81.8144 118.744 81.8068 118.736C81.7992 118.728 81.7932 118.719 81.789 118.71C81.7849 118.7 81.7828 118.689 81.7828 118.678C81.7828 118.668 81.7849 118.657 81.789 118.647C81.7932 118.637 81.7992 118.628 81.8068 118.621C81.8144 118.613 81.8235 118.607 81.8334 118.603C81.8433 118.599 81.854 118.597 81.8647 118.597H110.351C110.373 118.597 110.393 118.606 110.408 118.621C110.424 118.636 110.432 118.657 110.432 118.678C110.432 118.7 110.424 118.72 110.408 118.736C110.393 118.751 110.373 118.759 110.351 118.76Z" fill="#CCCCCC"/>
<path d="M110.351 120.711H81.8647C81.854 120.712 81.8433 120.709 81.8334 120.705C81.8235 120.701 81.8144 120.695 81.8068 120.688C81.7992 120.68 81.7932 120.671 81.789 120.661C81.7849 120.651 81.7828 120.641 81.7828 120.63C81.7828 120.619 81.7849 120.609 81.789 120.599C81.7932 120.589 81.7992 120.58 81.8068 120.572C81.8144 120.565 81.8235 120.559 81.8334 120.555C81.8433 120.551 81.854 120.549 81.8647 120.549H110.351C110.373 120.549 110.393 120.558 110.408 120.573C110.424 120.588 110.432 120.609 110.432 120.63C110.432 120.652 110.424 120.672 110.408 120.687C110.393 120.703 110.373 120.711 110.351 120.711Z" fill="#CCCCCC"/>
<path d="M105.354 101.277V111.85H78.8455C78.1352 111.875 77.4273 111.756 76.7639 111.502C76.1004 111.247 75.4951 110.862 74.9839 110.368C74.4728 109.875 74.0662 109.284 73.7886 108.63C73.5109 107.977 73.3678 107.274 73.3678 106.564C73.3678 105.854 73.5109 105.151 73.7886 104.497C74.0662 103.843 74.4728 103.252 74.9839 102.759C75.4951 102.266 76.1004 101.88 76.7639 101.626C77.4273 101.371 78.1352 101.253 78.8455 101.277H105.354Z" fill="#F2F2F2"/>
<path d="M106.005 111.769C106.005 111.876 105.962 111.98 105.886 112.056C105.81 112.132 105.706 112.175 105.598 112.175H78.3733C77.6412 112.175 76.9162 112.031 76.2398 111.751C75.5634 111.471 74.9488 111.061 74.4311 110.544C73.9134 110.026 73.5027 109.412 73.2225 108.736C72.9423 108.06 72.7981 107.336 72.7981 106.604C72.7981 105.873 72.9423 105.148 73.2225 104.472C73.5027 103.797 73.9134 103.182 74.4311 102.665C74.9488 102.148 75.5634 101.737 76.2398 101.458C76.9162 101.178 77.6412 101.033 78.3733 101.033H105.598C105.706 101.033 105.81 101.076 105.886 101.153C105.962 101.229 106.005 101.332 106.005 101.44C106.005 101.548 105.962 101.651 105.886 101.728C105.81 101.804 105.706 101.847 105.598 101.847H78.3733C77.1113 101.848 75.9013 102.35 75.0093 103.242C74.1174 104.134 73.6163 105.343 73.6163 106.604C73.6163 107.865 74.1174 109.075 75.0093 109.967C75.9013 110.859 77.1113 111.361 78.3733 111.362H105.598C105.706 111.362 105.81 111.405 105.886 111.481C105.962 111.557 106.005 111.661 106.005 111.769Z" fill="#3F3D56"/>
<path d="M105.354 103.717H76.8676C76.8569 103.717 76.8462 103.715 76.8363 103.711C76.8263 103.707 76.8173 103.701 76.8097 103.693C76.8021 103.686 76.796 103.677 76.7919 103.667C76.7878 103.657 76.7856 103.646 76.7856 103.636C76.7856 103.625 76.7878 103.614 76.7919 103.605C76.796 103.595 76.8021 103.586 76.8097 103.578C76.8173 103.571 76.8263 103.565 76.8363 103.56C76.8462 103.556 76.8569 103.554 76.8676 103.554H105.354C105.376 103.555 105.396 103.563 105.411 103.578C105.426 103.594 105.435 103.614 105.435 103.636C105.435 103.657 105.426 103.678 105.411 103.693C105.396 103.708 105.376 103.717 105.354 103.717Z" fill="#CCCCCC"/>
<path d="M105.354 105.669H76.8676C76.8569 105.669 76.8462 105.667 76.8363 105.663C76.8263 105.659 76.8173 105.653 76.8097 105.646C76.8021 105.638 76.796 105.629 76.7919 105.619C76.7878 105.609 76.7856 105.599 76.7856 105.588C76.7856 105.577 76.7878 105.567 76.7919 105.557C76.796 105.547 76.8021 105.538 76.8097 105.53C76.8173 105.523 76.8263 105.517 76.8363 105.513C76.8462 105.509 76.8569 105.507 76.8676 105.507H105.354C105.376 105.507 105.396 105.515 105.411 105.531C105.426 105.546 105.435 105.566 105.435 105.588C105.435 105.609 105.426 105.63 105.411 105.645C105.396 105.66 105.376 105.669 105.354 105.669Z" fill="#CCCCCC"/>
<path d="M105.354 107.621H76.8676C76.8569 107.621 76.8462 107.619 76.8363 107.615C76.8263 107.611 76.8173 107.605 76.8097 107.597C76.8021 107.59 76.796 107.581 76.7919 107.571C76.7878 107.561 76.7856 107.55 76.7856 107.54C76.7856 107.529 76.7878 107.518 76.7919 107.508C76.796 107.498 76.8021 107.489 76.8097 107.482C76.8173 107.474 76.8263 107.468 76.8363 107.464C76.8462 107.46 76.8569 107.458 76.8676 107.458H105.354C105.376 107.458 105.396 107.467 105.411 107.482C105.426 107.498 105.435 107.518 105.435 107.54C105.435 107.561 105.426 107.582 105.411 107.597C105.396 107.612 105.376 107.621 105.354 107.621Z" fill="#CCCCCC"/>
<path d="M105.354 109.573H76.8676C76.8569 109.573 76.8462 109.571 76.8363 109.567C76.8263 109.563 76.8173 109.557 76.8097 109.549C76.8021 109.542 76.796 109.533 76.7919 109.523C76.7878 109.513 76.7856 109.502 76.7856 109.491C76.7856 109.481 76.7878 109.47 76.7919 109.46C76.796 109.45 76.8021 109.441 76.8097 109.434C76.8173 109.426 76.8263 109.42 76.8363 109.416C76.8462 109.412 76.8569 109.41 76.8676 109.41H105.354C105.376 109.41 105.396 109.419 105.411 109.434C105.426 109.449 105.435 109.47 105.435 109.491C105.435 109.513 105.426 109.534 105.411 109.549C105.396 109.564 105.376 109.573 105.354 109.573Z" fill="#CCCCCC"/>
<path d="M136.192 160.568V151.35C136.192 150.942 136.03 150.552 135.741 150.263C135.453 149.975 135.062 149.813 134.654 149.813H99.6743C99.2665 149.813 98.8755 149.975 98.5871 150.263C98.2988 150.552 98.1368 150.942 98.1368 151.35V160.568H136.192Z" fill="#CCCCCC"/>
<path d="M136.192 164.025H98.1368V175.932H136.192V164.025Z" fill="#CCCCCC"/>
<path d="M98.1368 179.389V188.607C98.1368 189.015 98.2988 189.405 98.5871 189.694C98.8755 189.982 99.2665 190.144 99.6743 190.144H134.654C135.062 190.144 135.453 189.982 135.741 189.694C136.03 189.405 136.192 189.015 136.192 188.607V179.389H98.1368Z" fill="#CCCCCC"/>
<path d="M116.972 156.727C117.609 156.727 118.125 156.212 118.125 155.575C118.125 154.939 117.609 154.423 116.972 154.423C116.335 154.423 115.819 154.939 115.819 155.575C115.819 156.212 116.335 156.727 116.972 156.727Z" fill="white"/>
<path d="M116.972 172.091C117.609 172.091 118.125 171.575 118.125 170.939C118.125 170.303 117.609 169.787 116.972 169.787C116.335 169.787 115.819 170.303 115.819 170.939C115.819 171.575 116.335 172.091 116.972 172.091Z" fill="white"/>
<path d="M117.034 187.13C117.671 187.13 118.187 186.614 118.187 185.977C118.187 185.341 117.671 184.825 117.034 184.825C116.397 184.825 115.881 185.341 115.881 185.977C115.881 186.614 116.397 187.13 117.034 187.13Z" fill="white"/>
<path d="M131.877 139.303V149.876H105.369C104.658 149.9 103.95 149.782 103.287 149.527C102.624 149.273 102.018 148.887 101.507 148.394C100.996 147.901 100.589 147.31 100.312 146.656C100.034 146.002 99.891 145.299 99.891 144.589C99.891 143.879 100.034 143.176 100.312 142.523C100.589 141.869 100.996 141.278 101.507 140.785C102.018 140.291 102.624 139.906 103.287 139.651C103.95 139.397 104.658 139.278 105.369 139.303H131.877Z" fill="#F2F2F2"/>
<path d="M132.528 149.794C132.528 149.902 132.485 150.005 132.409 150.081C132.333 150.158 132.229 150.201 132.121 150.201H104.896C104.164 150.201 103.438 150.058 102.761 149.778C102.085 149.498 101.469 149.088 100.951 148.571C100.433 148.053 100.022 147.439 99.7414 146.763C99.461 146.086 99.3166 145.362 99.3166 144.63C99.3166 143.898 99.461 143.173 99.7414 142.497C100.022 141.821 100.433 141.206 100.951 140.689C101.469 140.172 102.085 139.761 102.761 139.482C103.438 139.202 104.164 139.058 104.896 139.059H132.121C132.229 139.059 132.333 139.102 132.409 139.178C132.485 139.254 132.528 139.358 132.528 139.465C132.528 139.573 132.485 139.677 132.409 139.753C132.333 139.829 132.229 139.872 132.121 139.872H104.896C103.634 139.873 102.424 140.375 101.532 141.267C100.64 142.159 100.139 143.369 100.139 144.63C100.139 145.891 100.64 147.1 101.532 147.992C102.424 148.884 103.634 149.386 104.896 149.387H132.121C132.229 149.387 132.333 149.43 132.409 149.506C132.485 149.583 132.528 149.686 132.528 149.794Z" fill="#3F3D56"/>
<path d="M131.877 141.742H103.391C103.38 141.743 103.369 141.74 103.359 141.736C103.349 141.732 103.34 141.726 103.333 141.719C103.325 141.711 103.319 141.702 103.315 141.692C103.311 141.682 103.309 141.672 103.309 141.661C103.309 141.65 103.311 141.64 103.315 141.63C103.319 141.62 103.325 141.611 103.333 141.603C103.34 141.596 103.349 141.59 103.359 141.586C103.369 141.582 103.38 141.58 103.391 141.58H131.877C131.899 141.58 131.919 141.589 131.934 141.604C131.95 141.619 131.958 141.64 131.958 141.661C131.958 141.683 131.95 141.703 131.934 141.718C131.919 141.734 131.899 141.742 131.877 141.742Z" fill="#CCCCCC"/>
<path d="M131.877 143.695H103.391C103.38 143.695 103.369 143.693 103.359 143.689C103.349 143.685 103.34 143.679 103.333 143.671C103.325 143.663 103.319 143.654 103.315 143.645C103.311 143.635 103.309 143.624 103.309 143.613C103.309 143.603 103.311 143.592 103.315 143.582C103.319 143.572 103.325 143.563 103.333 143.556C103.34 143.548 103.349 143.542 103.359 143.538C103.369 143.534 103.38 143.532 103.391 143.532H131.877C131.899 143.532 131.919 143.541 131.934 143.556C131.95 143.571 131.958 143.592 131.958 143.613C131.958 143.635 131.95 143.655 131.934 143.671C131.919 143.686 131.899 143.694 131.877 143.695Z" fill="#CCCCCC"/>
<path d="M131.877 145.646H103.391C103.38 145.646 103.369 145.644 103.359 145.64C103.349 145.636 103.34 145.63 103.333 145.623C103.325 145.615 103.319 145.606 103.315 145.596C103.311 145.586 103.309 145.576 103.309 145.565C103.309 145.554 103.311 145.544 103.315 145.534C103.319 145.524 103.325 145.515 103.333 145.507C103.34 145.5 103.349 145.494 103.359 145.49C103.369 145.486 103.38 145.484 103.391 145.484H131.877C131.899 145.484 131.919 145.492 131.934 145.508C131.95 145.523 131.958 145.543 131.958 145.565C131.958 145.586 131.95 145.607 131.934 145.622C131.919 145.638 131.899 145.646 131.877 145.646Z" fill="#CCCCCC"/>
<path d="M131.877 147.598H103.391C103.38 147.598 103.369 147.596 103.359 147.592C103.349 147.588 103.34 147.582 103.333 147.575C103.325 147.567 103.319 147.558 103.315 147.548C103.311 147.538 103.309 147.528 103.309 147.517C103.309 147.506 103.311 147.496 103.315 147.486C103.319 147.476 103.325 147.467 103.333 147.459C103.34 147.452 103.349 147.446 103.359 147.442C103.369 147.438 103.38 147.435 103.391 147.436H131.877C131.899 147.436 131.919 147.444 131.934 147.46C131.95 147.475 131.958 147.495 131.958 147.517C131.958 147.538 131.95 147.559 131.934 147.574C131.919 147.589 131.899 147.598 131.877 147.598Z" fill="#CCCCCC"/>
<path d="M96.1407 70.2976V2.88894C96.1416 2.12302 96.4464 1.38871 96.9885 0.847117C97.5305 0.305524 98.2653 0.000871218 99.0319 0H152.358C153.125 0.000876291 153.86 0.305531 154.402 0.847123C154.944 1.38871 155.248 2.12302 155.249 2.88894V70.2976C155.248 71.0635 154.944 71.7978 154.402 72.3394C153.86 72.881 153.125 73.1856 152.358 73.1865H99.0319C98.2653 73.1856 97.5305 72.881 96.9885 72.3394C96.4464 71.7978 96.1416 71.0635 96.1407 70.2976ZM99.0319 0.641988C98.4357 0.642655 97.8641 0.879603 97.4425 1.30084C97.021 1.72209 96.7838 2.29322 96.7832 2.88894V70.2976C96.7838 70.8933 97.021 71.4644 97.4425 71.8857C97.8641 72.3069 98.4357 72.5439 99.0319 72.5445H152.358C152.954 72.5438 153.526 72.3069 153.947 71.8857C154.369 71.4644 154.606 70.8933 154.607 70.2976V2.88894C154.606 2.29322 154.369 1.72209 153.947 1.30084C153.526 0.879603 152.954 0.642656 152.358 0.641988H99.0319Z" fill="#E6E6E6"/>
<path d="M128.685 30.9572V17.1161C128.686 16.7331 128.838 16.366 129.109 16.0952C129.38 15.8244 129.748 15.6721 130.131 15.6716H141.869C142.252 15.6721 142.62 15.8244 142.891 16.0952C143.162 16.366 143.314 16.7331 143.315 17.1161V30.9572C143.314 31.3402 143.162 31.7073 142.891 31.9781C142.62 32.2489 142.252 32.4013 141.869 32.4017H130.131C129.748 32.4013 129.38 32.2489 129.109 31.9781C128.838 31.7073 128.686 31.3402 128.685 30.9572Z" fill="#1D9B75"/>
<path d="M105.877 37.3771V23.536C105.878 23.1531 106.03 22.7859 106.301 22.5151C106.572 22.2443 106.939 22.092 107.323 22.0916H119.061C119.444 22.092 119.812 22.2443 120.083 22.5151C120.354 22.7859 120.506 23.1531 120.507 23.536V37.3771C120.506 37.7601 120.354 38.1273 120.083 38.3981C119.812 38.6689 119.444 38.8212 119.061 38.8216H107.323C106.939 38.8212 106.572 38.6689 106.301 38.3981C106.03 38.1273 105.878 37.7601 105.877 37.3771Z" fill="#CCCCCC"/>
<path d="M124.188 56.9577V43.1166C124.188 42.7336 124.341 42.3665 124.612 42.0957C124.883 41.8249 125.25 41.6725 125.634 41.6721H137.372C137.755 41.6725 138.122 41.8249 138.393 42.0957C138.664 42.3665 138.817 42.7336 138.817 43.1166V56.9577C138.817 57.3407 138.664 57.7078 138.393 57.9786C138.122 58.2494 137.755 58.4017 137.372 58.4022H125.634C125.25 58.4017 124.883 58.2494 124.612 57.9786C124.341 57.7078 124.188 57.3407 124.188 56.9577Z" fill="#FF6584"/>
<path d="M194.335 120.238H182.257C182.143 120.238 182.03 120.265 181.927 120.315L178.878 121.84C178.778 121.883 178.693 121.954 178.632 122.045C178.572 122.135 178.54 122.242 178.54 122.351C178.54 122.46 178.572 122.566 178.632 122.657C178.693 122.748 178.778 122.819 178.878 122.862L181.927 124.387C182.03 124.437 182.143 124.464 182.257 124.463H194.335C194.501 124.473 194.665 124.417 194.79 124.307C194.915 124.197 194.992 124.042 195.004 123.876V120.826C194.992 120.66 194.915 120.505 194.79 120.395C194.665 120.285 194.501 120.229 194.335 120.238Z" fill="#3F3D56"/>
<path d="M195.004 120.826V123.876C194.992 124.042 194.915 124.197 194.79 124.307C194.665 124.417 194.501 124.473 194.335 124.463H191.929V120.238H194.335C194.501 120.228 194.665 120.285 194.79 120.395C194.915 120.505 194.992 120.66 195.004 120.826Z" fill="#1D9B75"/>
<path d="M194.244 97.4228C194.791 97.1869 195.382 97.0692 195.978 97.0773C196.573 97.0854 197.161 97.2193 197.701 97.47C198.242 97.7208 198.723 98.0828 199.113 98.5323C199.504 98.9819 199.795 99.5088 199.968 100.079C200.022 100.259 200.063 100.443 200.091 100.63L216.98 108.999L220.889 106.41L225.752 112.005L219.784 116.848C219.067 117.426 218.181 117.757 217.26 117.793C216.339 117.828 215.431 117.566 214.671 117.045L197.535 105.204C197.408 105.258 197.278 105.306 197.145 105.346C196.575 105.519 195.975 105.569 195.383 105.493C194.792 105.417 194.224 105.218 193.716 104.907C193.207 104.597 192.77 104.183 192.433 103.692C192.096 103.201 191.866 102.644 191.76 102.058C191.728 101.888 191.707 101.716 191.697 101.544C191.65 100.679 191.868 99.8208 192.324 99.084C192.779 98.3473 193.449 97.7675 194.244 97.4228Z" fill="#FFB8B8"/>
<path d="M229.422 148.949H210.967C210.967 149.479 191.947 149.909 191.947 149.909C191.649 150.134 191.377 150.391 191.136 150.677C190.414 151.538 190.019 152.626 190.021 153.75V154.518C190.022 155.791 190.528 157.012 191.429 157.913C192.33 158.813 193.552 159.319 194.826 159.319H229.422C230.696 159.318 231.917 158.812 232.818 157.912C233.719 157.012 234.225 155.791 234.226 154.518V153.75C234.225 152.477 233.718 151.257 232.817 150.357C231.916 149.457 230.695 148.95 229.422 148.949Z" fill="#3F3D56"/>
<path d="M209.347 191.393H214.344V159.129H209.347V191.393Z" fill="#3F3D56"/>
<path d="M195.125 191.217C195.125 191.757 202.697 191.426 212.038 191.426C221.379 191.426 228.951 191.757 228.951 191.217C228.951 190.678 221.379 186.399 212.038 186.399C202.697 186.399 195.125 190.678 195.125 191.217Z" fill="#3F3D56"/>
<path d="M199.636 187.435L194.923 187.435L192.681 175.222L199.636 175.222L199.636 187.435Z" fill="#FFB8B8"/>
<path d="M200.838 192L185.642 192V191.807C185.642 191.031 185.795 190.263 186.093 189.546C186.39 188.829 186.825 188.177 187.375 187.629C187.924 187.08 188.576 186.644 189.293 186.348C190.011 186.051 190.78 185.898 191.557 185.898H191.557L200.838 185.898L200.838 192Z" fill="#2F2E41"/>
<path d="M192.587 179.862L183.192 158.811C182.408 157.036 182.321 155.032 182.949 153.197C183.578 151.361 184.875 149.83 186.582 148.907L206.96 137.988L216.259 137.198L224.837 136.419L224.899 136.523C224.978 136.657 226.822 139.84 225.575 143.33C224.63 145.978 222.17 148.045 218.265 149.476C209.149 152.816 198.619 155.671 194.514 156.743C194.333 156.789 194.163 156.873 194.017 156.99C193.87 157.106 193.75 157.252 193.664 157.419C193.578 157.583 193.527 157.763 193.514 157.948C193.501 158.133 193.527 158.319 193.589 158.494L202.317 178.088C202.408 178.337 202.441 178.603 202.413 178.866C202.385 179.129 202.297 179.382 202.155 179.606C202.014 179.83 201.823 180.018 201.597 180.156C201.371 180.295 201.117 180.379 200.853 180.404L194.331 180.878C194.276 180.884 194.221 180.886 194.166 180.886C193.832 180.886 193.505 180.789 193.225 180.608C192.945 180.426 192.723 180.167 192.587 179.862Z" fill="#2F2E41"/>
<path d="M201.942 187.435L197.23 187.435L194.988 175.222L201.943 175.222L201.942 187.435Z" fill="#FFB8B8"/>
<path d="M203.144 192L187.949 192V191.807C187.949 191.031 188.102 190.263 188.399 189.546C188.696 188.829 189.132 188.177 189.681 187.629C190.23 187.08 190.882 186.644 191.6 186.348C192.317 186.051 193.086 185.898 193.863 185.898H193.864L203.144 185.898L203.144 192Z" fill="#2F2E41"/>
<path d="M195.278 181.014L185.883 159.963C185.099 158.189 185.012 156.184 185.64 154.349C186.268 152.514 187.565 150.982 189.273 150.059L209.651 139.14L218.95 138.35L227.527 137.571L227.589 137.676C227.668 137.809 229.513 140.992 228.266 144.482C227.32 147.13 224.861 149.198 220.955 150.629C211.84 153.969 201.309 156.823 197.205 157.895C197.024 157.941 196.854 158.026 196.708 158.142C196.561 158.259 196.441 158.405 196.355 158.571C196.269 158.735 196.218 158.916 196.205 159.101C196.192 159.286 196.217 159.471 196.28 159.646L205.008 179.24C205.099 179.489 205.132 179.755 205.104 180.018C205.076 180.281 204.988 180.535 204.846 180.758C204.705 180.982 204.514 181.171 204.288 181.309C204.062 181.447 203.807 181.532 203.544 181.556L197.022 182.031C196.966 182.036 196.911 182.039 196.856 182.039C196.522 182.039 196.196 181.942 195.916 181.76C195.635 181.578 195.414 181.319 195.278 181.014Z" fill="#2F2E41"/>
<path d="M190.595 116.705C186.648 111.458 183.527 105.638 181.341 99.4469C181.214 99.0766 181.223 98.6734 181.366 98.3091C181.509 97.9448 181.777 97.643 182.122 97.4575L195.632 90.2244C195.85 90.1065 196.093 90.04 196.341 90.0299C196.589 90.0198 196.836 90.0665 197.064 90.1663C197.295 90.2669 197.501 90.4189 197.665 90.6109C197.829 90.8028 197.947 91.0297 198.01 91.274C199.582 97.2396 202.538 102.752 206.638 107.364C206.806 107.552 206.93 107.776 206.999 108.018C207.068 108.261 207.081 108.516 207.037 108.765C206.994 109.009 206.896 109.241 206.75 109.442C206.604 109.642 206.414 109.807 206.195 109.924L192.686 117.157C192.34 117.341 191.94 117.397 191.558 117.314C191.175 117.231 190.834 117.015 190.595 116.705Z" fill="#CCCCCC"/>
<path d="M191.517 116.013C191.59 116.103 191.692 116.166 191.806 116.189C191.92 116.213 192.038 116.196 192.141 116.141L205.65 108.908C205.716 108.874 205.773 108.825 205.816 108.765C205.86 108.705 205.889 108.636 205.901 108.563C205.915 108.487 205.911 108.407 205.89 108.332C205.868 108.257 205.829 108.188 205.776 108.13C201.556 103.382 198.513 97.7075 196.894 91.5662C196.876 91.4903 196.839 91.4198 196.789 91.3601C196.738 91.3005 196.675 91.2534 196.603 91.2224C196.535 91.1922 196.461 91.178 196.387 91.1811C196.313 91.1841 196.241 91.2043 196.176 91.24L182.667 98.4731C182.564 98.5284 182.484 98.6176 182.441 98.7254C182.398 98.8332 182.393 98.9528 182.428 99.0635C184.575 105.143 187.64 110.859 191.517 116.013Z" fill="white"/>
<path d="M235.476 114.775L224.896 118.793L222.313 111.623C221.97 110.671 221.975 109.628 222.327 108.68C222.678 107.731 223.355 106.937 224.236 106.438C225.127 105.933 226.169 105.764 227.175 105.96C228.18 106.156 229.082 106.705 229.718 107.507L235.476 114.775Z" fill="#1D9B75"/>
<path d="M208.565 143.183C208.342 143.026 208.156 142.823 208.018 142.588C207.88 142.353 207.793 142.091 207.764 141.82C206.409 129.18 207.353 119.287 210.649 111.578C211.23 110.249 212.105 109.068 213.208 108.125C214.311 107.181 215.613 106.5 217.018 106.132L225.57 105.701L225.614 105.722C227.544 106.667 229.118 108.207 230.103 110.116C231.087 112.025 231.43 114.2 231.08 116.319C228.329 123.564 226.026 131.107 227.783 137.193C227.856 137.447 227.878 137.714 227.846 137.977C227.814 138.24 227.729 138.493 227.597 138.723C227.468 138.944 227.296 139.137 227.09 139.29C226.884 139.443 226.649 139.551 226.399 139.61L210.109 143.482C209.845 143.544 209.571 143.55 209.305 143.499C209.039 143.447 208.786 143.34 208.565 143.183Z" fill="#1D9B75"/>
<path d="M222.716 102.509C227.93 102.509 232.157 98.2852 232.157 93.0751C232.157 87.865 227.93 83.6414 222.716 83.6414C217.502 83.6414 213.275 87.865 213.275 93.0751C213.275 98.2852 217.502 102.509 222.716 102.509Z" fill="#FFB8B8"/>
<path d="M196.518 100.547L189.161 103.792C188.881 103.915 188.563 103.923 188.278 103.812C187.993 103.702 187.764 103.483 187.64 103.204L187.458 102.792C187.335 102.512 187.328 102.195 187.438 101.91C187.549 101.625 187.768 101.396 188.047 101.272L195.405 98.0267C195.685 97.9036 196.002 97.8965 196.287 98.0069C196.572 98.1173 196.802 98.3362 196.926 98.6155L197.108 99.0274C197.231 99.3071 197.238 99.6241 197.127 99.909C197.017 100.194 196.798 100.423 196.518 100.547Z" fill="#CCCCCC"/>
<path d="M199.209 105.54L191.851 108.786C191.571 108.909 191.254 108.916 190.969 108.805C190.684 108.695 190.454 108.476 190.331 108.197L190.149 107.785C190.025 107.505 190.018 107.188 190.129 106.903C190.239 106.618 190.458 106.389 190.738 106.265L198.096 103.02C198.376 102.897 198.693 102.89 198.978 103C199.263 103.11 199.493 103.329 199.616 103.609L199.798 104.021C199.922 104.3 199.929 104.617 199.818 104.902C199.708 105.187 199.489 105.416 199.209 105.54Z" fill="#CCCCCC"/>
<path d="M204.883 125.043L188.48 112.112C188.349 112.158 188.216 112.197 188.081 112.23C187.502 112.365 186.901 112.377 186.317 112.265C185.734 112.153 185.18 111.92 184.692 111.58C184.201 111.24 183.788 110.799 183.482 110.287C183.175 109.775 182.981 109.203 182.913 108.61C182.803 107.662 183.017 106.704 183.52 105.893C184.023 105.081 184.786 104.463 185.685 104.14C186.245 103.939 186.842 103.858 187.436 103.904C188.031 103.949 188.608 104.12 189.132 104.404C189.655 104.688 190.113 105.08 190.474 105.553C190.836 106.026 191.094 106.57 191.23 107.15C191.272 107.334 191.302 107.52 191.318 107.708L207.648 117.121L211.711 114.783L216.213 120.672L209.903 125.166C209.165 125.687 208.277 125.957 207.373 125.935C206.469 125.913 205.596 125.6 204.883 125.043Z" fill="#FFB8B8"/>
<path d="M218.215 122.506L208.855 116.146L213.254 109.921C213.838 109.095 214.695 108.501 215.675 108.245C216.655 107.99 217.694 108.088 218.608 108.523C219.532 108.964 220.269 109.72 220.685 110.656C221.1 111.591 221.167 112.644 220.873 113.625L218.215 122.506Z" fill="#1D9B75"/>
<path d="M219.254 91.6699C216.828 93.3293 213.642 95.0352 211.163 93.268C209.536 92.1076 209.023 89.9588 209.683 88.0731C210.87 84.6821 214.13 83.1893 217.248 82.0449C221.302 80.5573 225.715 79.3738 229.899 80.4392C234.083 81.5046 237.781 85.5526 237.026 89.8007C236.419 93.217 233.194 96.0595 233.651 99.499C234.112 102.96 238.008 104.783 241.447 105.401C244.887 106.02 248.736 106.219 251.208 108.687C254.361 111.836 253.573 117.465 250.606 120.79C247.639 124.115 243.162 125.622 238.823 126.646C233.075 128.004 226.857 128.717 221.398 126.464C215.938 124.212 211.69 118.147 213.271 112.46C213.939 110.058 215.513 108.028 217.034 106.052C218.555 104.076 220.095 102.009 220.675 99.5842C221.158 97.5636 220.801 95.2176 219.46 93.7019C219.216 93.4366 219.062 93.1009 219.021 92.743C218.98 92.385 219.054 92.0233 219.231 91.7098L219.254 91.6699Z" fill="#2F2E41"/>
<path d="M41.9266 137.505C39.4938 138.36 36.8818 138.574 34.3422 138.127C31.8026 137.68 29.421 136.587 27.4269 134.953C22.3483 130.694 20.756 123.677 19.4604 117.179C18.183 110.773 16.9056 104.367 15.6283 97.9607L23.6512 103.481C29.4208 107.45 35.3204 111.547 39.3152 117.297C43.3101 123.047 45.0538 130.896 41.8441 137.118" fill="#E6E6E6"/>
<path d="M41.2408 160.773C42.0528 154.863 42.8878 148.877 42.3182 142.903C41.8123 137.598 40.1926 132.416 36.8949 128.168C35.1445 125.917 33.0145 123.988 30.6009 122.469C29.9715 122.072 29.3922 123.069 30.0188 123.464C34.1952 126.101 37.4254 129.996 39.2438 134.586C41.2522 139.69 41.5748 145.255 41.2287 150.677C41.0194 153.956 40.5758 157.214 40.1288 160.467C40.0936 160.614 40.1155 160.769 40.1903 160.901C40.2651 161.032 40.387 161.131 40.5315 161.176C40.6789 161.215 40.8361 161.195 40.9689 161.12C41.1016 161.045 41.1993 160.92 41.2408 160.773H41.2408Z" fill="#F2F2F2"/>
<path d="M33.4195 150.315C32.3762 151.899 30.942 153.189 29.2551 154.059C27.5683 154.929 25.6857 155.35 23.7887 155.282C18.9134 155.05 14.8489 151.65 11.1901 148.423L0.368195 138.875L7.53052 138.533C12.6812 138.286 17.9648 138.056 22.8707 139.644C27.7766 141.231 32.3011 145.05 33.1981 150.125" fill="#E6E6E6"/>
<path d="M43.5356 164.171C39.6272 157.26 35.0938 149.58 26.9934 147.126C24.7411 146.446 22.3794 146.202 20.0355 146.408C19.2967 146.472 19.4812 147.609 20.2186 147.546C24.1475 147.22 28.0688 148.256 31.3223 150.481C34.4532 152.611 36.8909 155.571 38.9541 158.711C40.2179 160.633 41.35 162.638 42.4822 164.64C42.8441 165.28 43.9017 164.818 43.5356 164.171Z" fill="#F2F2F2"/>
<path d="M49.798 171.444C49.6663 169.92 49.1185 168.46 48.2141 167.225C47.3098 165.99 46.0836 165.027 44.6692 164.44V160.445H37.9635V164.566C36.6186 165.181 35.4613 166.142 34.6093 167.351C33.7574 168.559 33.2414 169.972 33.1139 171.444L31.5371 189.759H51.3748L49.798 171.444Z" fill="#F2F2F2"/>
</g>
<defs>
<clipPath id="clip0">
<rect width="266" height="192" fill="white"/>
</clipPath>
</defs>
</svg>
