<svg width="253" height="175" viewBox="0 0 253 175" fill="none" xmlns="http://www.w3.org/2000/svg">
<g clip-path="url(#clip0)">
<path d="M24.9899 162.164C25.0992 166.245 25.782 170.291 27.0183 174.181C27.0457 174.272 27.0762 174.361 27.1058 174.451H34.6747C34.6667 174.37 34.6585 174.28 34.6505 174.181C34.1459 168.372 37.029 133.436 40.5079 127.39C40.2031 127.88 24.4031 143.705 24.9899 162.164Z" fill="#E6E6E6"/>
<path d="M25.5579 174.182C25.6212 174.272 25.687 174.362 25.7544 174.451H31.4328C31.3898 174.374 31.3399 174.284 31.282 174.182C30.3441 172.486 27.5676 167.418 24.9905 162.164C22.222 156.518 19.68 150.657 19.894 148.536C19.8277 149.014 17.9111 163.598 25.5579 174.182Z" fill="#E6E6E6"/>
<path d="M117.597 168.209C117.652 170.282 117.999 172.338 118.627 174.314C118.641 174.36 118.657 174.405 118.672 174.451H122.517C122.513 174.41 122.509 174.364 122.505 174.314C122.249 171.363 123.713 153.613 125.481 150.541C125.326 150.79 117.299 158.83 117.597 168.209Z" fill="#E6E6E6"/>
<path d="M117.885 174.314C117.918 174.36 117.951 174.406 117.985 174.451H120.87C120.848 174.412 120.823 174.366 120.794 174.314C120.317 173.453 118.906 170.878 117.597 168.209C116.191 165.34 114.899 162.363 115.008 161.285C114.974 161.528 114 168.937 117.885 174.314Z" fill="#E6E6E6"/>
<path d="M94.8309 49.9956L85.0425 56.967L91.1332 57.6202L99.6168 50.432L94.8309 49.9956Z" fill="#3F3D56"/>
<path d="M56.5352 169.028L62.4225 169.028L65.2233 146.29L56.5341 146.29L56.5352 169.028Z" fill="#9F616A"/>
<path d="M55.0334 167.103L66.6276 167.103H66.6281C68.5876 167.103 70.4669 167.882 71.8525 169.27C73.2382 170.657 74.0167 172.539 74.0168 174.501V174.741L55.0337 174.742L55.0334 167.103Z" fill="#2F2E41"/>
<path d="M52.8339 87.8137C52.8339 87.8137 50.2824 90.7017 54.5073 101.959L53.7631 163.687L67.4547 163.42L70.4643 133.309L75.9438 89.3697L52.8339 87.8137Z" fill="#2F2E41"/>
<path d="M39.164 78.0693C38.3551 78.0671 37.5789 77.7493 37.0001 77.1835C36.4213 76.6176 36.0855 75.8482 36.064 75.0385L35.4215 50.7928L46.4155 29.9081C46.6652 29.4378 47.0304 29.039 47.4768 28.7494C47.9232 28.4598 48.436 28.2889 48.9667 28.253L57.3451 27.7144L56.6216 76.5869L39.4365 78.0576C39.3453 78.0655 39.2545 78.0694 39.164 78.0693Z" fill="#1D9B75"/>
<path d="M80.6396 96.3479L80.4897 96.325C62.9744 93.6502 49.757 91.0859 49.6255 91.0603L49.4613 91.0284L54.0528 79.8461C54.0165 78.6777 53.0226 45.8652 54.9253 36.4378C56.7672 27.3116 65.4492 25.816 66.4386 25.6753L67.432 22.3794L79.9826 28.9187L82.1715 36.4621L82.6161 57.1366L80.6396 96.3479Z" fill="#3F3D56"/>
<path d="M63.392 65.048C55.3058 65.048 48.7273 56.2446 48.7273 45.4238C48.7273 34.6029 55.3058 25.7996 63.392 25.7996C71.4781 25.7996 78.0567 34.6029 78.0567 45.4238C78.0567 56.2446 71.4781 65.048 63.392 65.048ZM63.392 27.7208C56.3639 27.7208 50.646 35.6623 50.646 45.4238C50.646 55.1853 56.3639 63.1268 63.392 63.1268C70.4201 63.1268 76.1379 55.1853 76.1379 45.4238C76.1379 35.6623 70.4201 27.7208 63.392 27.7208Z" fill="#1D9B75"/>
<path d="M88.1986 53.7952C87.6335 53.795 87.0744 53.912 86.5565 54.1388C86.0387 54.3656 85.5734 54.6972 85.1898 55.1128H64.0943L56.3671 56.7598L57.6358 66.5578L85.1235 60.6385C85.5786 61.1531 86.1552 61.5454 86.8006 61.7795C87.4461 62.0136 88.1398 62.0821 88.8185 61.9787C89.4972 61.8754 90.1392 61.6034 90.6859 61.1877C91.2326 60.772 91.6666 60.2258 91.9483 59.5989C92.23 58.9721 92.3504 58.2846 92.2985 57.5991C92.2466 56.9137 92.024 56.2522 91.6511 55.6751C91.2782 55.098 90.7669 54.6235 90.1638 54.2951C89.5608 53.9668 88.8851 53.7949 88.1986 53.7952Z" fill="#9F616A"/>
<path d="M86.6497 20.991C90.6201 17.0153 90.6201 10.5696 86.6497 6.59401C82.6793 2.6184 76.242 2.6184 72.2716 6.59401C68.3012 10.5696 68.3012 17.0153 72.2716 20.991C76.242 24.9666 82.6793 24.9666 86.6497 20.991Z" fill="#9F616A"/>
<path d="M69.8986 5.65394L69.4057 4.66062L71.8858 3.4268C71.8858 3.4268 74.6217 -1.03066 79.5724 0.221982C84.5231 1.47463 86.7506 2.22431 86.7506 2.22431L89.2244 3.47067L87.9828 4.70762L90.2101 5.45733L88.7221 6.19762L90.4535 7.19408L89.5214 12.3023C89.5214 12.3023 87.9734 8.4279 84.9973 9.90848C82.0213 11.3891 76.5776 9.14311 76.5776 9.14311L71.8482 18.3079C71.8482 18.3079 70.8726 15.0952 69.133 15.9518C69.133 15.9518 64.6889 8.86501 69.8986 5.65394Z" fill="#2F2E41"/>
<path d="M158.24 68.3275L157.805 60.1667L153.419 56.5986L150.879 64.1556L136.668 83.1331C135.996 83.2408 135.369 83.539 134.862 83.9924C134.354 84.4458 133.986 85.0354 133.802 85.6914C133.619 86.3474 133.626 87.0423 133.825 87.694C134.023 88.3457 134.404 88.9269 134.922 89.3688C135.44 89.8107 136.073 90.0947 136.747 90.1874C137.421 90.2801 138.108 90.1775 138.725 89.8917C139.343 89.606 139.866 89.1491 140.233 88.575C140.599 88.001 140.794 87.3338 140.793 86.6525C140.793 86.6045 140.788 86.5579 140.786 86.5103L158.24 68.3275Z" fill="#FFB7B7"/>
<path d="M166.685 171.18L163.325 171.18L161.726 158.201L166.685 158.201L166.685 171.18Z" fill="#FFB7B7"/>
<path d="M167.542 174.442L156.706 174.442V174.304C156.706 173.184 157.151 172.11 157.942 171.318C158.733 170.526 159.805 170.081 160.924 170.081H160.924L167.542 170.082L167.542 174.442Z" fill="#2F2E41"/>
<path d="M182.309 171.18L178.949 171.18L177.35 158.201L182.309 158.201L182.309 171.18Z" fill="#FFB7B7"/>
<path d="M183.166 174.442L172.33 174.442V174.304C172.33 173.184 172.775 172.11 173.566 171.318C174.357 170.526 175.429 170.081 176.548 170.081H176.548L183.166 170.082L183.166 174.442Z" fill="#2F2E41"/>
<path d="M178.757 34.2356C180.18 28.3535 181.385 21.719 178.702 16.3015C176.84 12.5426 169.953 11.2767 166.005 12.6309C162.057 13.9851 159.202 17.6592 157.947 21.665C156.692 25.6709 156.838 29.9875 157.385 34.1519C164.646 34.0122 171.907 33.8726 178.757 34.2356Z" fill="#2F2E41"/>
<path d="M170.565 33.1951C174.668 30.9491 176.176 25.7978 173.933 21.6892C171.69 17.5807 166.546 16.0707 162.443 18.3167C158.339 20.5626 156.831 25.714 159.074 29.8225C161.317 33.9311 166.462 35.441 170.565 33.1951Z" fill="#FFB8B8"/>
<path d="M176.855 24.0094C176.882 22.5825 176.622 21.1647 176.091 19.8403C175.56 18.516 174.768 17.312 173.763 16.2999C172.758 15.2879 171.56 14.4884 170.241 13.9491C168.921 13.4098 167.507 13.1415 166.082 13.1603C164.656 13.1792 163.249 13.4846 161.945 14.0586C160.64 14.6326 159.463 15.4634 158.485 16.5016C157.507 17.5398 156.748 18.7643 156.252 20.1022C155.756 21.4402 155.533 22.8643 155.598 24.29C162.845 24.3054 170.092 24.3208 176.855 24.0094Z" fill="#2F2E41"/>
<path d="M152.907 76.8349C152.907 76.8349 151.529 96.874 152.277 102.987C153.025 109.1 161.166 162.541 161.166 162.541L167.307 162.53L169.131 99.5528L176.393 163.142L182.744 162.481L186.346 100.279C186.346 100.279 185.781 76.9916 181.19 74.6565L152.907 76.8349Z" fill="#2F2E41"/>
<path d="M162.54 96.6991C158.029 96.6976 153.584 95.6197 149.572 93.5547L149.484 93.5098L152.879 70.9565L152.658 44.0772C152.652 43.3394 152.793 42.6078 153.073 41.9251C153.352 41.2424 153.764 40.6222 154.286 40.1008C154.807 39.5794 155.427 39.1671 156.109 38.8881C156.791 38.609 157.522 38.4688 158.258 38.4756L176.473 38.643C177.279 38.6504 178.076 38.8239 178.812 39.1527C179.549 39.4815 180.21 39.9585 180.755 40.5542C181.299 41.1498 181.716 41.8513 181.978 42.615C182.24 43.3786 182.342 44.1882 182.279 44.9932L180.574 66.5415L186.211 84.0314L185.231 85.3356C182.59 88.8637 179.164 91.7275 175.226 93.6998C171.287 95.6722 166.944 96.6991 162.54 96.6991Z" fill="#3F3D56"/>
<path d="M150.828 61.665L152.737 42.1636L153.35 41.2896C153.771 40.6909 154.305 40.1813 154.922 39.7899C155.54 39.3986 156.228 39.1331 156.948 39.0089C157.668 38.8847 158.406 38.9041 159.119 39.066C159.831 39.2279 160.505 39.5292 161.101 39.9525L161.627 40.326L161.108 60.0889L150.828 61.665Z" fill="#3F3D56"/>
<path d="M229.038 156.941C233.972 155.576 236.077 163.079 231.156 164.487C226.222 165.852 224.116 158.349 229.038 156.941Z" fill="#3F3D56"/>
<path d="M201.68 166.597C206.614 165.232 208.72 172.735 203.798 174.144C198.864 175.508 196.758 168.006 201.68 166.597Z" fill="#3F3D56"/>
<path d="M190.608 87.4668L190.684 87.4453L203.393 121.996L205.069 121.524L192.268 86.7259C192.241 86.1896 192.031 85.6789 191.673 85.2786C191.315 84.8783 190.832 84.6125 190.303 84.5254C183.947 83.519 181.37 89.1685 181.37 89.1685L181.396 89.206L194.39 124.529L196.065 124.058L183.454 89.7738C187.293 85.9714 190.608 87.4668 190.608 87.4668Z" fill="#3F3D56"/>
<path d="M205.174 168.541C203.36 168.525 201.599 167.93 200.147 166.842C198.695 165.754 197.628 164.231 197.101 162.493C194.675 154.543 188.952 135.495 188.194 130.326C187.206 123.596 192.77 121.682 192.894 121.641C193.044 121.59 195.281 120.963 198.376 120.096C203.639 118.621 211.592 116.392 211.884 116.261C213.116 115.832 214.424 115.662 215.725 115.763C217.025 115.863 218.291 116.232 219.443 116.845C220.63 117.471 221.678 118.331 222.523 119.375C223.368 120.418 223.992 121.622 224.357 122.915L232.543 152.078C233.048 153.865 232.907 155.774 232.143 157.468C231.38 159.161 230.044 160.53 228.37 161.333C222.054 164.372 212.79 168.425 205.298 168.54C205.257 168.54 205.215 168.541 205.174 168.541Z" fill="#1D9B75"/>
<path d="M189.256 86.2717L185.141 62.2017L184.682 54.0784L178.029 56.2604L183.64 87.7784C183.413 88.3918 183.359 89.0557 183.484 89.6976C183.609 90.3395 183.908 90.9346 184.348 91.4179C184.788 91.9012 185.352 92.254 185.979 92.4378C186.606 92.6216 187.271 92.6293 187.902 92.4601C188.533 92.2908 189.105 91.9512 189.556 91.4782C190.007 91.0052 190.32 90.4172 190.46 89.7784C190.599 89.1396 190.561 88.4746 190.349 87.8561C190.136 87.2376 189.758 86.6895 189.256 86.2717V86.2717Z" fill="#FFB7B7"/>
<path d="M186.266 60.692L175.882 60.1265L173.443 40.5082L173.68 40.3019C174.265 39.7941 174.944 39.4068 175.679 39.1625C176.413 38.9181 177.189 38.8214 177.961 38.878C178.733 38.9345 179.486 39.1432 180.177 39.492C180.868 39.8408 181.484 40.3228 181.989 40.9105L182.469 41.4699L182.476 41.5052L186.266 60.692Z" fill="#3F3D56"/>
<path d="M228.552 156.523L217.939 120.553L192.982 127.616L192.833 127.088L218.311 119.878L218.388 120.138L229.078 156.367L228.552 156.523Z" fill="#3F3D56"/>
<path d="M39.9562 75.4905L38.826 50.8159L50.4021 28.1577L50.89 28.4078L39.3806 50.9361L40.5039 75.4653L39.9562 75.4905Z" fill="#3F3D56"/>
<path d="M252.726 175H0.274106C0.201409 175 0.131689 174.971 0.0802836 174.92C0.0288788 174.868 0 174.798 0 174.726C0 174.653 0.0288788 174.583 0.0802836 174.532C0.131689 174.48 0.201409 174.451 0.274106 174.451H252.726C252.799 174.451 252.868 174.48 252.92 174.532C252.971 174.583 253 174.653 253 174.726C253 174.798 252.971 174.868 252.92 174.92C252.868 174.971 252.799 175 252.726 175Z" fill="#CCCCCC"/>
<path d="M57.7708 68.3943L55.3584 61.2089L54.7748 37.2568L55.8027 33.8584C56.1727 32.6352 56.7855 31.4995 57.6044 30.5192C58.4232 29.5388 59.4313 28.7341 60.5682 28.1533C61.7051 27.5724 62.9474 27.2274 64.2207 27.1388C65.494 27.0502 66.772 27.2199 67.9782 27.6378C69.1844 28.0557 70.2939 28.713 71.2403 29.5706C72.1867 30.4281 72.9504 31.4681 73.4858 32.6283C74.0211 33.7884 74.317 35.0449 74.3558 36.3223C74.3946 37.5997 74.1754 38.8718 73.7114 40.0624L68.2019 54.1989L68.482 54.7432L80.4182 54.6464L84.6581 62.2883L57.7708 68.3943Z" fill="#3F3D56"/>
<path d="M133.809 119.527L133.801 119.529L120.571 122.181L109.191 126.77C109.044 126.829 108.886 126.859 108.728 126.858C108.569 126.856 108.412 126.823 108.266 126.761C108.12 126.699 107.988 126.608 107.877 126.495C107.766 126.381 107.678 126.247 107.619 126.1C107.605 126.065 107.593 126.03 107.582 125.994L99.2683 98.119C99.1808 97.8302 99.2049 97.5191 99.3357 97.2473C99.4664 96.9754 99.6944 96.7627 99.9744 96.6511L111.563 91.978L111.572 91.9763L124.801 89.3244L136.182 84.7353C136.479 84.6154 136.811 84.6187 137.106 84.7444C137.401 84.87 137.634 85.1078 137.753 85.4053C137.767 85.44 137.78 85.4752 137.79 85.511L146.104 113.386C146.192 113.675 146.168 113.986 146.037 114.258C145.906 114.53 145.678 114.743 145.398 114.854L133.809 119.527Z" fill="#E5E5E5"/>
<path d="M119.613 100.803C116.579 99.7311 113.444 98.792 110.294 98.012L110.136 97.9729L111.735 103.335L119.882 100.898L119.613 100.803ZM111.86 103.103L110.407 98.2321C113.405 98.9793 116.388 99.8708 119.282 100.884L111.86 103.103ZM135.51 108.051C134.098 107.252 132.665 106.486 131.213 105.754C130.812 105.552 130.41 105.353 130.007 105.157C127.547 103.958 125.049 102.866 122.514 101.879L122.485 101.868L112.213 104.939L115.018 114.343L135.7 108.159L135.51 108.051ZM115.143 114.112L112.445 105.064L122.477 102.064C124.922 103.016 127.338 104.071 129.727 105.228C130.142 105.429 130.555 105.632 130.967 105.839C132.406 106.56 133.826 107.316 135.228 108.106L115.143 114.112ZM135.51 108.051C134.098 107.252 132.665 106.486 131.213 105.754C130.812 105.552 130.41 105.353 130.007 105.157C127.547 103.958 125.049 102.866 122.514 101.879L122.485 101.868L112.213 104.939L115.018 114.343L135.7 108.159L135.51 108.051ZM115.143 114.112L112.445 105.064L122.477 102.064C124.922 103.016 127.338 104.071 129.727 105.228C130.142 105.429 130.555 105.632 130.967 105.839C132.406 106.56 133.826 107.316 135.228 108.106L115.143 114.112ZM119.613 100.803C116.579 99.7311 113.444 98.792 110.294 98.012L110.136 97.9729L111.735 103.335L119.882 100.898L119.613 100.803ZM111.86 103.103L110.407 98.2321C113.405 98.9793 116.388 99.8708 119.282 100.884L111.86 103.103ZM119.613 100.803C116.579 99.7311 113.444 98.792 110.294 98.012L110.136 97.9729L111.735 103.335L119.882 100.898L119.613 100.803ZM111.86 103.103L110.407 98.2321C113.405 98.9793 116.388 99.8708 119.282 100.884L111.86 103.103ZM135.51 108.051C134.098 107.252 132.665 106.486 131.213 105.754C130.812 105.552 130.41 105.353 130.007 105.157C127.547 103.958 125.049 102.866 122.514 101.879L122.485 101.868L112.213 104.939L115.018 114.343L135.7 108.159L135.51 108.051ZM115.143 114.112L112.445 105.064L122.477 102.064C124.922 103.016 127.338 104.071 129.727 105.228C130.142 105.429 130.555 105.632 130.967 105.839C132.406 106.56 133.826 107.316 135.228 108.106L115.143 114.112ZM106.684 118.583L106.738 118.762L113.77 116.659L114.541 119.244L107.509 121.347L107.562 121.525L114.772 119.369L113.894 116.427L106.684 118.583ZM116.853 120.494L117.392 122.301L117.565 122.231L117.084 120.619L144.503 112.42L144.45 112.242L116.853 120.494ZM143.147 107.874L143.094 107.695L115.497 115.948L116.374 118.89L143.972 110.637L143.918 110.459L116.499 118.658L115.728 116.073L143.147 107.874ZM122.652 99.876C118.449 98.2591 114.132 96.9578 109.736 95.9831L109.198 94.178L109.025 94.2477L109.567 96.0668L109.749 96.1767C114.128 97.1503 118.428 98.4486 122.615 100.061L122.644 100.072L139.332 95.0821L139.279 94.9038L122.652 99.876ZM109.901 103.689L102.869 105.792L102.922 105.97L110.132 103.814L107.467 94.8758L107.294 94.9455L109.901 103.689ZM139.811 96.6866L125.14 101.074L125.379 101.174C127.629 102.122 129.873 103.17 132.112 104.318C132.43 104.481 132.748 104.647 133.065 104.814C134.646 105.645 136.213 106.522 137.769 107.446L137.942 107.489L142.616 106.091L142.562 105.913L137.9 107.307C136.361 106.392 134.807 105.522 133.24 104.696C132.926 104.53 132.612 104.366 132.298 104.205C130.107 103.078 127.904 102.044 125.689 101.104L139.864 96.8649L139.811 96.6866ZM108.04 123.129L108.094 123.308L115.125 121.205L115.66 122.998L115.834 122.929L115.25 120.973L108.04 123.129ZM103.401 107.574L103.454 107.753L110.486 105.65L113.185 114.698L106.153 116.8L106.206 116.979L113.416 114.823L110.611 105.418L103.401 107.574ZM119.613 100.803C116.579 99.7311 113.444 98.792 110.294 98.012L110.136 97.9729L111.735 103.335L119.882 100.898L119.613 100.803ZM111.86 103.103L110.407 98.2321C113.405 98.9793 116.388 99.8708 119.282 100.884L111.86 103.103ZM135.51 108.051C134.098 107.252 132.665 106.486 131.213 105.754C130.812 105.552 130.41 105.353 130.007 105.157C127.547 103.958 125.049 102.866 122.514 101.879L122.485 101.868L112.213 104.939L115.018 114.343L135.7 108.159L135.51 108.051ZM115.143 114.112L112.445 105.064L122.477 102.064C124.922 103.016 127.338 104.071 129.727 105.228C130.142 105.429 130.555 105.632 130.967 105.839C132.406 106.56 133.826 107.316 135.228 108.106L115.143 114.112ZM119.613 100.803C116.579 99.7311 113.444 98.792 110.294 98.012L110.136 97.9729L111.735 103.335L119.882 100.898L119.613 100.803ZM111.86 103.103L110.407 98.2321C113.405 98.9793 116.388 99.8708 119.282 100.884L111.86 103.103ZM135.51 108.051C134.098 107.252 132.665 106.486 131.213 105.754C130.812 105.552 130.41 105.353 130.007 105.157C127.547 103.958 125.049 102.866 122.514 101.879L122.485 101.868L112.213 104.939L115.018 114.343L135.7 108.159L135.51 108.051ZM115.143 114.112L112.445 105.064L122.477 102.064C124.922 103.016 127.338 104.071 129.727 105.228C130.142 105.429 130.555 105.632 130.967 105.839C132.406 106.56 133.826 107.316 135.228 108.106L115.143 114.112Z" fill="white"/>
<path d="M121.975 101.643C122.649 103.901 120.066 110.151 120.066 110.151C120.066 110.151 114.484 106.342 113.81 104.085C113.487 103 113.607 101.832 114.144 100.837C114.681 99.841 115.591 99.0998 116.674 98.7761C117.756 98.4523 118.923 98.5724 119.917 99.1101C120.912 99.6478 121.652 100.559 121.975 101.643H121.975Z" fill="#1D9B75"/>
<path d="M119.706 102.128C119.816 102.497 119.815 102.891 119.701 103.26C119.588 103.629 119.368 103.955 119.069 104.199C118.77 104.442 118.406 104.591 118.022 104.627C117.639 104.664 117.253 104.585 116.914 104.402C116.575 104.218 116.298 103.939 116.118 103.598C115.938 103.257 115.863 102.87 115.902 102.486C115.942 102.103 116.094 101.739 116.34 101.442C116.585 101.145 116.914 100.927 117.283 100.817C117.528 100.744 117.785 100.719 118.039 100.746C118.294 100.772 118.541 100.848 118.766 100.97C118.991 101.091 119.19 101.256 119.351 101.455C119.512 101.654 119.633 101.882 119.706 102.128Z" fill="white"/>
<path d="M120.617 113.149C121.252 113.149 121.766 112.634 121.766 111.999C121.766 111.364 121.252 110.849 120.617 110.849C119.983 110.849 119.469 111.364 119.469 111.999C119.469 112.634 119.983 113.149 120.617 113.149Z" fill="#1D9B75"/>
<path d="M133.149 96.8786L125.168 99.2655C125.158 99.2686 125.147 99.2708 125.137 99.272L126.959 91.5958C126.97 91.5481 126.993 91.5042 127.027 91.4685C127.06 91.4328 127.102 91.4066 127.149 91.3927C127.196 91.3787 127.246 91.3774 127.293 91.3889C127.341 91.4004 127.384 91.4243 127.419 91.4582L131.263 95.0944L131.447 95.2683L133.149 96.8786Z" fill="white"/>
<path opacity="0.2" d="M133.149 96.8783L130.424 97.6932L131.182 95.3476L131.236 95.1785L131.263 95.094L131.447 95.268L133.149 96.8783Z" fill="black"/>
<path d="M137.593 95.5495L130.69 97.6139L131.447 95.2681L131.502 95.0992L132.489 92.0423C132.508 91.9943 132.537 91.951 132.574 91.915C132.611 91.8791 132.656 91.8513 132.704 91.8336C132.753 91.8159 132.804 91.8086 132.856 91.8122C132.907 91.8157 132.958 91.8301 133.003 91.8544C133.015 91.8616 133.027 91.8695 133.038 91.8782L137.593 95.5495Z" fill="white"/>
</g>
<defs>
<clipPath id="clip0">
<rect width="253" height="175" fill="white"/>
</clipPath>
</defs>
</svg>
