<svg width="369" height="334" viewBox="0 0 369 334" fill="none" xmlns="http://www.w3.org/2000/svg">
<g clip-path="url(#clip0)">
<path d="M246.259 117.443H122.853C120.735 117.441 118.704 116.599 117.206 115.101C115.708 113.603 114.865 111.572 114.863 109.454V12.5381C114.865 10.9863 115.482 9.49851 116.579 8.40119C117.677 7.30387 119.165 6.6866 120.716 6.68481H248.294C249.873 6.68661 251.387 7.31454 252.503 8.43083C253.62 9.54713 254.247 11.0606 254.249 12.6393V109.454C254.247 111.572 253.404 113.603 251.906 115.101C250.408 116.599 248.377 117.441 246.259 117.443Z" fill="#F2F2F2"/>
<path d="M130.601 109.454H238.511C240.566 109.454 242.537 108.638 243.99 107.185C245.443 105.732 246.259 103.761 246.259 101.707V27.3577C246.259 25.303 245.443 23.3325 243.99 21.8796C242.537 20.4266 240.566 19.6104 238.511 19.6104H130.601C128.546 19.6104 126.575 20.4266 125.122 21.8796C123.669 23.3325 122.853 25.303 122.853 27.3577V101.707C122.853 103.761 123.669 105.732 125.122 107.185C126.575 108.638 128.546 109.454 130.601 109.454Z" fill="white"/>
<path d="M254.138 12.0811H114.751V8.01354C114.754 5.88831 115.6 3.85107 117.103 2.34876C118.607 0.846453 120.645 0.00176221 122.77 0H246.119C248.244 0.00174557 250.282 0.846431 251.786 2.34874C253.289 3.85105 254.135 5.8883 254.138 8.01354V12.0811Z" fill="#CCCCCC"/>
<path d="M129.325 8.12664C130.47 8.12664 131.399 7.19805 131.399 6.05258C131.399 4.9071 130.47 3.97852 129.325 3.97852C128.179 3.97852 127.25 4.9071 127.25 6.05258C127.25 7.19805 128.179 8.12664 129.325 8.12664Z" fill="white"/>
<path d="M137.198 8.12664C138.343 8.12664 139.272 7.19805 139.272 6.05258C139.272 4.9071 138.343 3.97852 137.198 3.97852C136.052 3.97852 135.124 4.9071 135.124 6.05258C135.124 7.19805 136.052 8.12664 137.198 8.12664Z" fill="white"/>
<path d="M145.071 8.12664C146.217 8.12664 147.145 7.19805 147.145 6.05258C147.145 4.9071 146.217 3.97852 145.071 3.97852C143.926 3.97852 142.997 4.9071 142.997 6.05258C142.997 7.19805 143.926 8.12664 145.071 8.12664Z" fill="white"/>
<path d="M138.542 54.452H133.198C132.908 54.4517 132.63 54.3364 132.425 54.1315C132.22 53.9266 132.105 53.6488 132.105 53.359V48.0153C132.105 47.7255 132.22 47.4477 132.425 47.2427C132.63 47.0378 132.908 46.9226 133.198 46.9222H138.542C138.832 46.9226 139.11 47.0378 139.315 47.2427C139.52 47.4477 139.635 47.7255 139.635 48.0153V53.359C139.635 53.6488 139.52 53.9266 139.315 54.1315C139.11 54.3364 138.832 54.4517 138.542 54.452Z" fill="#1D9B75"/>
<path d="M138.542 68.2971H133.198C132.908 68.2968 132.63 68.1815 132.425 67.9766C132.22 67.7717 132.105 67.4939 132.105 67.2041V61.8604C132.105 61.5706 132.22 61.2927 132.425 61.0878C132.63 60.8829 132.908 60.7677 133.198 60.7673H138.542C138.832 60.7677 139.11 60.8829 139.315 61.0878C139.52 61.2927 139.635 61.5706 139.635 61.8604V67.2041C139.635 67.4939 139.52 67.7717 139.315 67.9766C139.11 68.1815 138.832 68.2968 138.542 68.2971Z" fill="#3F3D56"/>
<path d="M138.542 82.1422H133.198C132.908 82.1419 132.63 82.0266 132.425 81.8217C132.22 81.6168 132.105 81.339 132.105 81.0492V75.7055C132.105 75.4157 132.22 75.1378 132.425 74.9329C132.63 74.728 132.908 74.6127 133.198 74.6124H138.542C138.832 74.6127 139.11 74.728 139.315 74.9329C139.52 75.1378 139.635 75.4157 139.635 75.7055V81.0492C139.635 81.339 139.52 81.6168 139.315 81.8217C139.11 82.0266 138.832 82.1419 138.542 82.1422Z" fill="#CCCCCC"/>
<path d="M173.522 51.7802H147.773C147.483 51.7796 147.206 51.6641 147.001 51.4592C146.797 51.2543 146.682 50.9766 146.682 50.6872C146.682 50.3977 146.797 50.12 147.001 49.9151C147.206 49.7102 147.483 49.5947 147.773 49.5941H173.522C173.666 49.5938 173.808 49.6219 173.941 49.6767C174.074 49.7315 174.195 49.8119 174.297 49.9134C174.399 50.015 174.479 50.1356 174.534 50.2683C174.589 50.4011 174.618 50.5434 174.618 50.6872C174.618 50.8309 174.589 50.9732 174.534 51.106C174.479 51.2387 174.399 51.3593 174.297 51.4609C174.195 51.5624 174.074 51.6428 173.941 51.6976C173.808 51.7524 173.666 51.7805 173.522 51.7802Z" fill="#CCCCCC"/>
<path d="M173.522 65.6252H147.773C147.483 65.6246 147.206 65.5092 147.001 65.3043C146.797 65.0993 146.682 64.8217 146.682 64.5322C146.682 64.2427 146.797 63.965 147.001 63.7601C147.206 63.5552 147.483 63.4398 147.773 63.4391H173.522C173.812 63.4391 174.09 63.5543 174.295 63.7593C174.5 63.9643 174.615 64.2423 174.615 64.5322C174.615 64.8221 174.5 65.1001 174.295 65.3051C174.09 65.5101 173.812 65.6252 173.522 65.6252Z" fill="#CCCCCC"/>
<path d="M173.522 79.4704H147.773C147.483 79.4698 147.206 79.3543 147.001 79.1494C146.797 78.9445 146.682 78.6668 146.682 78.3773C146.682 78.0878 146.797 77.8102 147.001 77.6053C147.206 77.4003 147.483 77.2849 147.773 77.2843H173.522C173.666 77.284 173.808 77.3121 173.941 77.3668C174.074 77.4216 174.195 77.5021 174.297 77.6036C174.399 77.7052 174.479 77.8258 174.534 77.9585C174.589 78.0913 174.618 78.2336 174.618 78.3773C174.618 78.5211 174.589 78.6634 174.534 78.7962C174.479 78.9289 174.399 79.0495 174.297 79.151C174.195 79.2526 174.074 79.333 173.941 79.3878C173.808 79.4426 173.666 79.4707 173.522 79.4704Z" fill="#CCCCCC"/>
<path d="M236.964 64.8794C236.992 64.4199 237.007 63.9572 237.007 63.4908C237.007 57.4143 234.593 51.5866 230.296 47.2899C225.999 42.9931 220.171 40.5792 214.094 40.5792V64.8794H236.964Z" fill="#1D9B75"/>
<path d="M212.358 66.9622V42.662C207.885 42.6619 203.51 43.9706 199.772 46.427C196.034 48.8833 193.097 52.3797 191.323 56.4852C189.549 60.5907 189.015 65.1256 189.788 69.5307C190.56 73.9359 192.605 78.0187 195.67 81.2756C198.736 84.5325 202.687 86.8212 207.038 87.8594C211.389 88.8975 215.948 88.6398 220.154 87.118C224.36 85.5962 228.028 82.8768 230.707 79.2952C233.386 75.7136 234.957 71.4264 235.229 66.9622H212.358Z" fill="#3F3D56"/>
<path d="M368.516 334H0.484252C0.35582 334 0.232649 333.949 0.141834 333.858C0.0510189 333.767 0 333.644 0 333.516C0 333.387 0.0510189 333.264 0.141834 333.173C0.232649 333.083 0.35582 333.032 0.484252 333.032H368.516C368.644 333.032 368.767 333.083 368.858 333.173C368.949 333.264 369 333.387 369 333.516C369 333.644 368.949 333.767 368.858 333.858C368.767 333.949 368.644 334 368.516 334Z" fill="#CCCCCC"/>
<path d="M244.397 199.942C244.559 200.161 244.703 200.393 244.828 200.635L269.095 203.363L272.625 198.595L280.518 202.981L273.57 214.562L243.839 206.761C243.082 207.488 242.122 207.968 241.086 208.136C240.051 208.304 238.988 208.153 238.04 207.703C237.092 207.253 236.304 206.525 235.779 205.616C235.255 204.707 235.02 203.66 235.106 202.614C235.192 201.568 235.594 200.573 236.259 199.761C236.924 198.949 237.82 198.359 238.829 198.069C239.837 197.779 240.91 197.802 241.905 198.137C242.9 198.472 243.769 199.101 244.397 199.942Z" fill="#FFB8B8"/>
<path d="M120.573 193.677C119.959 194.038 119.273 194.259 118.565 194.327C117.856 194.394 117.141 194.305 116.471 194.066C115.8 193.827 115.19 193.444 114.683 192.944C114.177 192.444 113.786 191.839 113.539 191.171L96.2379 191.532L101.031 183.924L116.725 184.748C117.874 184.407 119.108 184.499 120.194 185.007C121.28 185.515 122.141 186.403 122.615 187.504C123.09 188.604 123.144 189.841 122.767 190.978C122.391 192.116 121.61 193.076 120.573 193.677V193.677Z" fill="#FFB8B8"/>
<path d="M112.969 191.499C112.831 191.958 112.547 192.358 112.16 192.64C111.772 192.921 111.303 193.067 110.824 193.055L79.1606 192.251L50.4897 183.763C49.7008 183.529 48.9661 183.141 48.3285 182.621C47.6909 182.101 47.1629 181.46 46.7755 180.734C46.388 180.008 46.1487 179.213 46.0715 178.394C45.9942 177.575 46.0806 176.748 46.3256 175.963C46.5706 175.178 46.9693 174.449 47.4985 173.819C48.0277 173.189 48.6769 172.67 49.4083 172.294C50.1397 171.917 50.9387 171.689 51.7589 171.624C52.5791 171.558 53.4041 171.657 54.1859 171.913L80.0887 180.405L111.178 183.405C111.723 183.46 112.227 183.717 112.591 184.126C112.956 184.534 113.154 185.064 113.148 185.611L113.058 190.914C113.055 191.112 113.025 191.309 112.969 191.499Z" fill="#3F3D56"/>
<path d="M67.05 327.615L72.9865 327.615L75.8111 304.717L67.0491 304.718L67.05 327.615Z" fill="#FFB8B8"/>
<path d="M65.5354 325.677L77.2271 325.676H77.2276C78.206 325.676 79.1749 325.869 80.0789 326.243C80.9829 326.618 81.8043 327.166 82.4962 327.858C83.1881 328.55 83.7369 329.371 84.1114 330.275C84.4858 331.179 84.6785 332.148 84.6785 333.126V333.368L65.5358 333.369L65.5354 325.677Z" fill="#2F2E41"/>
<path d="M49.6169 327.615L55.5534 327.615L58.378 304.717L49.616 304.718L49.6169 327.615Z" fill="#FFB8B8"/>
<path d="M48.1024 325.677L59.7941 325.676H59.7946C60.7731 325.676 61.7419 325.869 62.6459 326.243C63.5499 326.618 64.3713 327.166 65.0632 327.858C65.7551 328.55 66.3039 329.371 66.6784 330.275C67.0528 331.179 67.2455 332.148 67.2455 333.126V333.368L48.1028 333.369L48.1024 325.677Z" fill="#2F2E41"/>
<path d="M45.6326 235.079L47.0502 319.183C47.0547 319.449 47.1141 319.712 47.2246 319.954C47.3352 320.197 47.4946 320.414 47.6928 320.592C47.891 320.77 48.1238 320.905 48.3767 320.989C48.6295 321.073 48.897 321.103 49.1623 321.079L56.1095 320.448C56.5652 320.406 56.9915 320.205 57.3128 319.879C57.6342 319.554 57.8299 319.125 57.8653 318.669L61.9325 266.207C61.942 266.084 61.9984 265.969 62.0899 265.886C62.1814 265.803 62.3013 265.758 62.4248 265.76C62.5484 265.763 62.6664 265.812 62.7546 265.899C62.8428 265.986 62.8945 266.103 62.8992 266.226L64.9321 319.889C64.951 320.389 65.1632 320.863 65.5242 321.211C65.8851 321.558 66.3666 321.752 66.8677 321.752H74.3182C74.8115 321.752 75.2862 321.564 75.6454 321.226C76.0047 320.888 76.2215 320.426 76.2516 319.934L81.4672 234.595L50.4751 226.848L45.6326 235.079Z" fill="#2F2E41"/>
<path d="M68.1121 156.107C74.6808 156.107 80.0058 150.782 80.0058 144.214C80.0058 137.646 74.6808 132.321 68.1121 132.321C61.5434 132.321 56.2184 137.646 56.2184 144.214C56.2184 150.782 61.5434 156.107 68.1121 156.107Z" fill="#FFB8B8"/>
<path d="M81.0113 238.197C80.9997 238.197 80.9883 238.197 80.9767 238.197L53.1656 237.769C52.6311 237.761 52.1181 237.556 51.7245 237.194C51.3309 236.833 51.084 236.339 51.0308 235.807L50.716 232.658C50.71 232.598 50.682 232.543 50.6375 232.503C50.593 232.462 50.5351 232.44 50.4751 232.44C50.415 232.44 50.3571 232.462 50.3126 232.503C50.2681 232.543 50.2401 232.598 50.2341 232.658L49.9089 235.91C49.8584 236.42 49.6302 236.895 49.2642 237.252C48.8982 237.61 48.4179 237.827 47.9077 237.866L45.9423 238.017C45.5959 238.044 45.2482 237.987 44.928 237.852C44.6079 237.717 44.3248 237.508 44.1021 237.241C43.8795 236.974 43.7239 236.658 43.6482 236.319C43.5726 235.98 43.5791 235.628 43.6673 235.292L45.3596 228.84C48.8614 215.432 49.1431 201.385 46.1817 187.847L45.3408 184.022C44.7068 181.165 44.997 178.18 46.1694 175.498C47.3417 172.816 49.3357 170.576 51.8637 169.101L57.3262 165.899L59.8046 162.182C60.2842 161.464 60.9298 160.873 61.6866 160.458C62.4434 160.043 63.2891 159.817 64.152 159.798C67.6093 159.723 73.5398 160.356 74.6541 165.411C77.4154 166.354 79.8066 168.148 81.4843 170.536C83.1619 172.923 84.0397 175.78 83.9914 178.698L83.1891 236.049C83.181 236.621 82.9481 237.167 82.5406 237.569C82.1331 237.971 81.5838 238.197 81.0113 238.197Z" fill="#3F3D56"/>
<path d="M67.1818 151.069C67.133 152.75 65.9657 153.723 64.5326 154.604C63.0996 155.484 61.4243 155.866 59.7831 156.234C59.5627 156.351 59.3159 156.41 59.0664 156.403C58.8169 156.397 58.5731 156.327 58.3587 156.199C58.1443 156.072 57.9665 155.891 57.8423 155.674C57.7182 155.458 57.6519 155.213 57.6499 154.963L56.1447 149.239C55.6122 147.41 55.2247 145.542 54.9858 143.652C54.6233 140.016 55.4851 136.105 58.0232 133.476C60.5612 130.847 64.9629 129.913 68.0044 131.939C71.6138 127.329 88.1122 137.513 84.0424 140.719C83.3184 141.289 82.2116 140.567 81.2926 140.497C80.3736 140.428 79.3437 140.589 78.76 141.302C77.9973 142.234 78.3295 143.622 78.0152 144.784C77.8852 145.193 77.6755 145.572 77.3982 145.9C77.1209 146.227 76.7815 146.497 76.3996 146.693C76.0177 146.888 75.6008 147.006 75.173 147.04C74.7452 147.074 74.3149 147.023 73.9069 146.89C73.1471 146.515 72.4323 146.056 71.7763 145.52C71.0714 145.051 70.1807 144.704 69.3872 145C68.3412 145.39 67.9696 146.671 67.8751 147.783C67.7157 148.892 67.4841 149.99 67.1818 151.069Z" fill="#2F2E41"/>
<path opacity="0.2" d="M69.9595 182.943L71.8965 206.669L82.0658 231.363L67.054 207.153L69.9595 182.943Z" fill="black"/>
<path d="M195.066 312.869L88.9322 249.909C87.1116 248.826 85.7948 247.065 85.2708 245.013C84.7468 242.961 85.0584 240.784 86.1372 238.961L135.591 155.61C136.385 154.276 137.675 153.312 139.179 152.928C140.682 152.544 142.277 152.772 143.612 153.562L253.334 218.651C254.691 219.458 255.672 220.77 256.063 222.3C256.453 223.829 256.221 225.451 255.417 226.81L206.015 310.074C204.932 311.895 203.171 313.211 201.118 313.735C199.066 314.259 196.889 313.947 195.066 312.869Z" fill="#F2F2F2"/>
<path d="M99.6726 246.991L192.479 302.045C194.246 303.093 196.358 303.397 198.349 302.888C200.34 302.38 202.048 301.102 203.096 299.335L241.035 235.392C242.083 233.625 242.387 231.513 241.878 229.523C241.37 227.532 240.092 225.824 238.324 224.776L145.518 169.722C143.751 168.673 141.639 168.37 139.648 168.878C137.657 169.386 135.949 170.665 134.901 172.432L96.9623 236.375C95.9138 238.142 95.6103 240.253 96.1186 242.244C96.6269 244.235 97.9053 245.942 99.6726 246.991Z" fill="white"/>
<path d="M255.606 226.273L135.728 155.16L137.804 151.661C138.891 149.835 140.658 148.515 142.718 147.99C144.777 147.465 146.961 147.778 148.79 148.861L254.874 211.791C256.701 212.877 258.023 214.644 258.549 216.703C259.076 218.762 258.764 220.945 257.682 222.775L255.606 226.273Z" fill="#CCCCCC"/>
<path d="M151.338 159.484C152.484 159.484 153.413 158.556 153.413 157.41C153.413 156.265 152.484 155.336 151.338 155.336C150.193 155.336 149.264 156.265 149.264 157.41C149.264 158.556 150.193 159.484 151.338 159.484Z" fill="white"/>
<path d="M158.11 163.501C159.255 163.501 160.184 162.573 160.184 161.427C160.184 160.282 159.255 159.353 158.11 159.353C156.964 159.353 156.035 160.282 156.035 161.427C156.035 162.573 156.964 163.501 158.11 163.501Z" fill="white"/>
<path d="M164.881 167.518C166.027 167.518 166.955 166.59 166.955 165.444C166.955 164.299 166.027 163.37 164.881 163.37C163.735 163.37 162.807 164.299 162.807 165.444C162.807 166.59 163.735 167.518 164.881 167.518Z" fill="white"/>
<path d="M228.934 238.412L228.799 238.64L230.163 239.449L230.298 239.222L228.934 238.412Z" fill="#E6E6E6"/>
<path d="M226.042 237.004L223.286 235.369L223.42 235.142L226.177 236.777L226.042 237.004ZM220.529 233.734L217.773 232.099L217.908 231.872L220.664 233.507L220.529 233.734ZM215.016 230.464L212.26 228.829L212.395 228.601L215.151 230.236L215.016 230.464ZM209.503 227.193L206.747 225.558L206.882 225.331L209.638 226.966L209.503 227.193ZM203.99 223.923L201.234 222.288L201.369 222.061L204.125 223.696L203.99 223.923ZM198.477 220.653L195.721 219.018L195.856 218.79L198.612 220.425L198.477 220.653ZM192.964 217.382L190.208 215.747L190.343 215.52L193.099 217.155L192.964 217.382ZM187.451 214.112L184.695 212.477L184.83 212.25L187.586 213.885L187.451 214.112ZM181.939 210.842L179.182 209.207L179.317 208.979L182.073 210.614L181.939 210.842ZM176.426 207.571L173.669 205.936L173.804 205.709L176.561 207.344L176.426 207.571ZM170.913 204.301L168.156 202.666L168.291 202.439L171.048 204.074L170.913 204.301ZM165.4 201.031L162.643 199.396L162.778 199.168L165.535 200.803L165.4 201.031ZM159.887 197.76L157.13 196.125L157.265 195.898L160.022 197.533L159.887 197.76ZM154.374 194.49L151.617 192.855L151.752 192.628L154.509 194.263L154.374 194.49ZM148.861 191.22L146.105 189.585L146.239 189.357L148.996 190.992L148.861 191.22ZM143.348 187.949L140.592 186.314L140.726 186.087L143.483 187.722L143.348 187.949Z" fill="#E6E6E6"/>
<path d="M136.606 183.642L136.471 183.87L137.835 184.679L137.97 184.452L136.606 183.642Z" fill="#E6E6E6"/>
<path d="M171.587 232.984L171.452 233.211L172.817 234.02L172.951 233.793L171.587 232.984Z" fill="#E6E6E6"/>
<path d="M168.737 231.6L166.021 229.989L166.156 229.762L168.871 231.373L168.737 231.6ZM163.305 228.378L160.59 226.767L160.725 226.54L163.44 228.151L163.305 228.378ZM157.874 225.157L155.159 223.546L155.294 223.318L158.009 224.929L157.874 225.157ZM152.443 221.935L149.728 220.324L149.863 220.097L152.578 221.707L152.443 221.935ZM147.012 218.713L144.297 217.102L144.432 216.875L147.147 218.486L147.012 218.713ZM141.581 215.491L138.866 213.88L139.001 213.653L141.716 215.264L141.581 215.491ZM136.15 212.27L133.435 210.659L133.57 210.431L136.285 212.042L136.15 212.27ZM130.719 209.048L128.004 207.437L128.139 207.209L130.854 208.82L130.719 209.048Z" fill="#E6E6E6"/>
<path d="M124.059 204.789L123.924 205.017L125.288 205.826L125.423 205.599L124.059 204.789Z" fill="#E6E6E6"/>
<path d="M139.044 227.205L138.909 227.433L140.273 228.242L140.408 228.015L139.044 227.205Z" fill="#E6E6E6"/>
<path d="M136.115 225.775L133.321 224.118L133.456 223.891L136.25 225.548L136.115 225.775ZM130.527 222.461L127.734 220.803L127.869 220.576L130.662 222.233L130.527 222.461ZM124.94 219.146L122.146 217.488L122.281 217.261L125.075 218.918L124.94 219.146Z" fill="#E6E6E6"/>
<path d="M118.122 214.794L117.988 215.022L119.352 215.831L119.487 215.604L118.122 214.794Z" fill="#E6E6E6"/>
<path d="M128.914 244.279L128.779 244.506L130.143 245.316L130.278 245.089L128.914 244.279Z" fill="#E6E6E6"/>
<path d="M125.985 242.849L123.191 241.192L123.326 240.964L126.12 242.622L125.985 242.849ZM120.397 239.534L117.603 237.877L117.738 237.65L120.532 239.307L120.397 239.534ZM114.809 236.22L112.016 234.562L112.15 234.335L114.944 235.992L114.809 236.22Z" fill="#E6E6E6"/>
<path d="M107.992 231.868L107.857 232.096L109.222 232.905L109.357 232.678L107.992 231.868Z" fill="#E6E6E6"/>
<path d="M115.446 236.833L194.094 283.488C195.999 284.616 198.274 284.941 200.42 284.394C202.565 283.846 204.406 282.47 205.537 280.567L228.517 241.837L228.359 241.749L176.222 255.056L172.092 238.886C172.016 238.588 171.873 238.31 171.672 238.076C171.471 237.842 171.219 237.657 170.935 237.537C170.501 237.362 170.022 237.335 169.571 237.46L142.249 244.433L139.229 232.611C139.164 232.356 139.049 232.116 138.891 231.905C138.733 231.694 138.535 231.516 138.309 231.382C138.082 231.248 137.832 231.159 137.571 231.122C137.31 231.084 137.045 231.099 136.79 231.164C136.605 231.213 118.826 235.923 115.446 236.833Z" fill="#1D9B75"/>
<path d="M114.976 236.862L114.911 236.606L136.775 231.025C137.352 230.878 137.964 230.966 138.477 231.27C138.989 231.574 139.36 232.069 139.508 232.646L142.467 244.236L169.638 237.3C170.215 237.153 170.827 237.242 171.34 237.546C171.852 237.85 172.223 238.345 172.371 238.922L176.44 254.859L228.849 241.481L228.914 241.737L176.249 255.18L172.115 238.987C172.051 238.735 171.937 238.498 171.781 238.289C171.625 238.081 171.429 237.905 171.205 237.772C170.981 237.639 170.733 237.552 170.476 237.515C170.218 237.478 169.955 237.492 169.703 237.556L142.276 244.557L139.252 232.712C139.121 232.202 138.794 231.766 138.342 231.498C137.89 231.229 137.35 231.151 136.84 231.281L114.976 236.862Z" fill="#3F3D56"/>
<path d="M140.341 229.979C141.363 229.979 142.192 229.15 142.192 228.128C142.192 227.106 141.363 226.278 140.341 226.278C139.319 226.278 138.49 227.106 138.49 228.128C138.49 229.15 139.319 229.979 140.341 229.979Z" fill="#3F3D56"/>
<path d="M172.884 235.758C173.906 235.758 174.735 234.929 174.735 233.907C174.735 232.885 173.906 232.056 172.884 232.056C171.862 232.056 171.033 232.885 171.033 233.907C171.033 234.929 171.862 235.758 172.884 235.758Z" fill="#3F3D56"/>
<path d="M229.58 240.215C230.602 240.215 231.431 239.386 231.431 238.364C231.431 237.342 230.602 236.513 229.58 236.513C228.558 236.513 227.729 237.342 227.729 238.364C227.729 239.386 228.558 240.215 229.58 240.215Z" fill="#3F3D56"/>
<path d="M84.4435 240.56C83.8885 240.114 83.4378 239.552 83.1234 238.913C82.809 238.275 82.6385 237.575 82.6238 236.863C82.6092 236.152 82.7507 235.445 83.0386 234.794C83.3264 234.143 83.7535 233.563 84.2898 233.095L77.8112 217.05L86.6256 218.83L91.4265 233.794C92.1533 234.747 92.5053 235.933 92.4157 237.128C92.3261 238.323 91.8013 239.444 90.9405 240.278C90.0798 241.112 88.943 241.601 87.7456 241.653C86.5481 241.705 85.3733 241.316 84.4435 240.56Z" fill="#FFB8B8"/>
<path d="M84.3362 233.608C83.8587 233.642 83.3831 233.519 82.9827 233.256C82.5823 232.994 82.2793 232.607 82.1202 232.156L71.6325 202.271L69.3912 172.457C69.3294 171.636 69.4313 170.812 69.6911 170.031C69.9509 169.251 70.3632 168.529 70.9043 167.909C71.4453 167.29 72.1042 166.783 72.8426 166.42C73.581 166.057 74.3843 165.845 75.2056 165.795C76.0269 165.745 76.8499 165.859 77.6268 166.13C78.4036 166.402 79.1189 166.824 79.7308 167.374C80.3428 167.924 80.8393 168.59 81.1915 169.334C81.5436 170.078 81.7445 170.884 81.7822 171.706L83.0371 198.934L91.2681 229.061C91.4098 229.59 91.3485 230.152 91.0962 230.638C90.8439 231.123 90.4189 231.497 89.9049 231.685L84.9153 233.483C84.7288 233.551 84.534 233.593 84.3362 233.608Z" fill="#3F3D56"/>
<path d="M278.793 207.128C278.598 207.043 278.416 206.929 278.253 206.791L268.499 198.576C268.265 198.378 268.074 198.134 267.939 197.859C267.803 197.584 267.726 197.284 267.713 196.978C267.7 196.672 267.75 196.366 267.861 196.08C267.972 195.795 268.14 195.535 268.357 195.318L277.207 186.432C277.579 186.055 278.074 185.825 278.601 185.783C279.128 185.741 279.653 185.89 280.079 186.203L286.772 191.063C287.19 191.366 287.489 191.806 287.617 192.306C287.745 192.806 287.694 193.336 287.474 193.802L281.683 206.044C281.437 206.565 280.997 206.969 280.458 207.171C279.918 207.374 279.321 207.358 278.793 207.128L278.793 207.128Z" fill="#1D9B75"/>
<path d="M316.834 323.32L311.009 324.905L302.124 303.192L310.721 300.854L316.834 323.32Z" fill="#FFB8B8"/>
<path d="M306.279 324.404L317.63 321.316L319.554 328.389L301.247 333.369L301.215 333.252C300.713 331.407 300.965 329.439 301.914 327.78C302.864 326.12 304.434 324.906 306.279 324.404Z" fill="#2F2E41"/>
<path d="M267.036 327.764L261 327.764L258.128 304.481L267.038 304.481L267.036 327.764Z" fill="#FFB8B8"/>
<path d="M256.566 326.039H268.33V333.369H249.357V333.247C249.357 331.336 250.117 329.502 251.469 328.15C252.82 326.798 254.654 326.039 256.566 326.039Z" fill="#2F2E41"/>
<path d="M276.131 174.038C282.81 174.038 288.225 168.623 288.225 161.944C288.225 155.266 282.81 149.851 276.131 149.851C269.451 149.851 264.036 155.266 264.036 161.944C264.036 168.623 269.451 174.038 276.131 174.038Z" fill="#FFB8B8"/>
<path d="M266.667 311.163H258.417C257.853 311.162 257.311 310.947 256.9 310.561C256.489 310.175 256.24 309.647 256.204 309.084C253.745 270.009 255.183 241.98 260.729 220.875C260.753 220.783 260.783 220.692 260.818 220.603L261.26 219.499C261.424 219.087 261.707 218.733 262.074 218.485C262.441 218.237 262.875 218.104 263.318 218.106H280.282C280.602 218.106 280.918 218.175 281.208 218.308C281.499 218.442 281.757 218.637 281.965 218.88L284.269 221.568C284.314 221.62 284.356 221.674 284.397 221.73C294.787 236.218 304.099 264.543 314.883 302.615C315.042 303.169 314.979 303.762 314.707 304.27C314.435 304.777 313.975 305.158 313.426 305.331L304.56 308.168C304.051 308.329 303.502 308.301 303.012 308.09C302.521 307.879 302.123 307.5 301.889 307.02L278.882 259.306C278.721 258.973 278.457 258.7 278.129 258.528C277.801 258.356 277.427 258.295 277.061 258.353C276.695 258.41 276.358 258.584 276.099 258.849C275.84 259.113 275.672 259.454 275.622 259.821L268.862 309.248C268.788 309.778 268.525 310.263 268.122 310.615C267.719 310.967 267.202 311.162 266.667 311.163Z" fill="#2F2E41"/>
<path d="M283.339 221.764C283.316 221.764 283.293 221.764 283.269 221.763L262.663 221.113C262.133 221.098 261.626 220.893 261.235 220.536C260.844 220.178 260.594 219.692 260.531 219.166C257.919 198.023 265.083 192.359 268.285 190.905C268.552 190.785 268.784 190.597 268.957 190.36C269.131 190.124 269.241 189.846 269.275 189.555L269.552 187.339C269.6 186.947 269.751 186.576 269.99 186.262C275.01 179.761 281.864 177.679 285.503 177.017C285.798 176.964 286.101 176.971 286.393 177.039C286.685 177.106 286.96 177.233 287.202 177.41C287.444 177.587 287.647 177.812 287.799 178.07C287.952 178.328 288.05 178.615 288.088 178.912L288.503 182.094C288.546 182.398 288.667 182.685 288.855 182.927C299.323 196.611 287.661 216.815 285.217 220.726C285.017 221.044 284.74 221.306 284.412 221.487C284.083 221.669 283.714 221.764 283.339 221.764Z" fill="#1D9B75"/>
<path d="M289.437 154.424C288.539 151.701 287.876 148.906 287.455 146.07C287.323 144.419 287.746 142.642 288.949 141.503C291.199 139.371 295.023 140.386 297.377 142.404C300.778 145.32 302.475 149.802 303.116 154.236C303.757 158.67 303.475 163.179 303.629 167.656C303.784 172.134 304.424 176.738 306.707 180.593C308.99 184.448 313.226 187.407 317.695 187.079C319.499 186.981 321.211 186.256 322.536 185.028C323.186 184.409 323.678 183.644 323.971 182.796C324.265 181.948 324.35 181.042 324.221 180.154C326.505 184.243 325.348 189.786 321.941 193C318.534 196.215 313.294 197.124 308.815 195.751C304.337 194.379 300.651 190.937 298.449 186.803C296.247 182.669 295.441 177.893 295.558 173.211C295.647 169.615 296.259 165.99 295.651 162.445C295.043 158.9 292.824 155.3 289.326 154.466L289.437 154.424Z" fill="#2F2E41"/>
<path d="M273.725 159.084C273.128 161.077 270.846 162.306 268.794 161.969C267.772 161.756 266.827 161.271 266.058 160.565C265.29 159.858 264.727 158.957 264.429 157.957C263.866 155.93 264.097 153.765 265.075 151.903C265.614 150.787 266.368 149.788 267.294 148.963C268.22 148.139 269.299 147.505 270.47 147.098C271.648 146.708 272.902 146.606 274.127 146.802C275.352 146.998 276.512 147.485 277.509 148.223C277.616 147.775 277.839 147.364 278.157 147.031C278.475 146.699 278.876 146.457 279.318 146.331C280.209 146.091 281.15 146.105 282.033 146.371C284.579 147.096 286.785 148.701 288.259 150.9C289.715 153.092 290.677 155.573 291.081 158.173C291.776 162.072 291.52 166.332 289.33 169.632C287.14 172.931 282.66 174.88 279.025 173.307C278.798 172.148 279.335 170.982 279.956 169.978C280.578 168.974 281.314 167.996 281.552 166.84C281.791 165.684 281.333 164.27 280.215 163.892C279.261 163.569 278.244 164.092 277.238 164.155C276.668 164.19 276.097 164.076 275.585 163.822C275.073 163.567 274.636 163.183 274.319 162.707C274.002 162.231 273.816 161.68 273.779 161.109C273.742 160.538 273.856 159.968 274.11 159.455L273.725 159.084Z" fill="#2F2E41"/>
<path d="M243.073 208.903C243.273 209.088 243.458 209.289 243.627 209.503L267.973 207.608L270.541 202.26L279.119 205.079L274.479 217.763L243.81 215.705C243.204 216.562 242.352 217.214 241.367 217.575C240.381 217.935 239.309 217.987 238.293 217.724C237.277 217.46 236.366 216.894 235.679 216.1C234.993 215.306 234.565 214.322 234.452 213.279C234.339 212.235 234.546 211.182 235.046 210.26C235.546 209.337 236.315 208.588 237.251 208.113C238.187 207.639 239.245 207.46 240.285 207.601C241.325 207.742 242.297 208.196 243.073 208.903V208.903Z" fill="#FFB8B8"/>
<path d="M278.987 213.528C278.782 213.469 278.586 213.382 278.405 213.267L267.623 206.458C267.364 206.294 267.142 206.078 266.97 205.824C266.799 205.57 266.682 205.283 266.627 204.982C266.572 204.68 266.58 204.371 266.651 204.073C266.722 203.774 266.854 203.494 267.038 203.249L274.595 193.24C274.912 192.817 275.371 192.521 275.887 192.408C276.404 192.294 276.944 192.37 277.409 192.622L284.702 196.525C285.157 196.768 285.513 197.163 285.708 197.641C285.903 198.119 285.925 198.651 285.77 199.143L281.702 212.059C281.529 212.609 281.149 213.069 280.642 213.343C280.135 213.618 279.542 213.684 278.987 213.528Z" fill="#1D9B75"/>
</g>
<defs>
<clipPath id="clip0">
<rect width="369" height="334" fill="white"/>
</clipPath>
</defs>
</svg>
