<svg width="391" height="306" viewBox="0 0 391 306" fill="none" xmlns="http://www.w3.org/2000/svg">
<g clip-path="url(#clip0)">
<path d="M111.117 63.0472C111.119 65.3945 110.618 67.7149 109.647 69.8527C108.677 71.9904 107.261 73.896 105.493 75.4415C103.726 76.987 101.648 78.1367 99.3987 78.8133C97.1497 79.4899 94.782 79.6778 92.4544 79.3644C92.3769 79.3596 92.3 79.348 92.2246 79.3298C91.6283 79.2458 91.0376 79.1258 90.4559 78.9702C90.07 78.8748 89.6928 78.7579 89.32 78.6279C86.7922 77.7647 84.5124 76.3001 82.677 74.3604C80.8416 72.4206 79.5056 70.0639 78.7843 67.4933C78.063 64.9228 77.978 62.2154 78.5365 59.6047C79.0951 56.994 80.2804 54.5581 81.9905 52.5072C83.7005 50.4562 85.884 48.8515 88.3526 47.8316C90.8212 46.8116 93.501 46.4069 96.1609 46.6524C98.8208 46.8978 101.381 47.786 103.621 49.2405C105.861 50.6949 107.714 52.672 109.019 55.0012C109.503 55.8576 109.906 56.7568 110.224 57.6875C110.572 58.6947 110.819 59.7339 110.961 60.7898C111.043 61.357 111.093 61.9284 111.109 62.5013C111.113 62.6832 111.117 62.8609 111.117 63.0472Z" fill="#2F2E41"/>
<path d="M37.3872 139.547L24.5296 144.768C24.5296 144.768 1.22526 137.941 5.64505 144.768C10.0648 151.594 25.735 149.185 25.735 149.185L45.4232 144.768L37.3872 139.547Z" fill="#A0616A"/>
<path d="M105.291 206.61L106.496 228.295C106.496 228.295 106.496 252.791 108.104 261.626C109.711 270.461 112.523 285.72 112.523 285.72L120.158 284.917C120.158 284.917 119.354 267.65 120.158 263.232C120.961 258.815 120.158 231.106 120.158 231.106L121.363 205.807L105.291 206.61Z" fill="#A0616A"/>
<path d="M138.239 202.996L145.069 226.287C145.069 226.287 149.489 252.791 155.516 264.839L159.132 276.484L169.177 274.878L165.159 258.413L159.132 225.484L154.713 196.169L138.239 202.996Z" fill="#A0616A"/>
<path d="M120.56 279.697C120.56 279.697 114.533 278.894 110.917 281.705C110.917 281.705 112.122 303.39 113.729 303.791C115.336 304.193 126.185 306.602 126.587 303.791C126.988 300.98 123.372 294.957 123.372 294.957L120.56 279.697Z" fill="#2F2E41"/>
<path d="M157.525 274.476C157.525 274.476 159.534 280.5 158.73 281.303C157.927 282.106 154.712 291.343 156.721 292.547C158.73 293.752 168.775 298.571 169.981 302.185C171.186 305.799 188.464 306.201 186.856 302.988C185.249 299.776 174.802 290.539 174.802 290.539L169.177 272.87L157.525 274.476Z" fill="#2F2E41"/>
<path d="M100.068 81.3189C106.947 81.3189 112.523 75.7454 112.523 68.8701C112.523 61.9948 106.947 56.4213 100.068 56.4213C93.1885 56.4213 87.6118 61.9948 87.6118 68.8701C87.6118 75.7454 93.1885 81.3189 100.068 81.3189Z" fill="#A0616A"/>
<path d="M91.0275 74.693L85.0005 91.9607L105.492 95.1733C105.492 95.1733 101.876 78.7087 104.287 74.693C106.698 70.6772 91.0275 74.693 91.0275 74.693Z" fill="#A0616A"/>
<path d="M159.132 190.547C158.397 204.144 136.802 205.635 133.139 205.79C132.991 205.796 132.844 205.752 132.724 205.663C132.605 205.575 132.519 205.449 132.481 205.305L128.271 189.376C128.231 189.223 128.136 189.09 128.004 189.002C127.873 188.914 127.714 188.876 127.557 188.897C127.4 188.917 127.255 188.994 127.151 189.113C127.046 189.232 126.989 189.385 126.989 189.543V205.354C126.988 205.488 126.947 205.618 126.871 205.728C126.795 205.837 126.687 205.921 126.562 205.968C101.233 215.443 90.9176 200.992 89.7372 199.166C89.6612 199.048 89.626 198.908 89.6368 198.768L93.9043 140.997L94.041 139.146C93.9445 139.097 93.8481 139.045 93.7476 138.985C85.5491 134.233 74.1169 100.69 72.5294 95.9343C72.4783 95.7808 72.4862 95.6137 72.5517 95.4657C72.6173 95.3178 72.7356 95.1995 72.8837 95.1341L83.0221 90.6307C83.1334 90.5813 83.2286 90.5017 83.2969 90.401L87.086 84.8169C87.1427 84.7329 87.2183 84.6633 87.3067 84.6137C87.3951 84.5641 87.4939 84.5358 87.5951 84.5311C87.6964 84.5264 87.7974 84.5454 87.89 84.5867C87.9826 84.628 88.0643 84.6903 88.1285 84.7687C89.4896 86.4269 92.7287 89.3758 93.7364 90.2824C93.8277 90.3644 93.9403 90.4189 94.0613 90.4394C94.1823 90.46 94.3066 90.4458 94.4199 90.3986L103.851 86.5027C103.939 86.466 104.035 86.4494 104.131 86.454L116.724 87.0608C118.406 87.1419 120.016 87.7701 121.308 88.8498C122.599 89.9295 123.503 91.4016 123.88 93.0419L131.788 127.405C131.802 127.467 131.825 127.527 131.857 127.582C131.912 127.677 132.014 127.852 132.16 128.102C132.541 128.761 133.22 129.95 134.12 131.552C140.835 143.463 159.795 178.311 159.132 190.547Z" fill="#2F2E41"/>
<path d="M76.1608 97.1811L72.9464 95.1732C72.9464 95.1732 65.714 99.5905 65.714 103.606C65.714 107.622 56.0708 123.283 56.0708 123.283L35.1772 139.748L46.4276 148.984L83.795 122.079L76.1608 97.1811Z" fill="#2F2E41"/>
<path d="M391 305.197H45.2222V306H391V305.197Z" fill="#3F3D56"/>
<path d="M81.6732 54.1323C84.8421 54.1323 87.4109 51.5649 87.4109 48.3978C87.4109 45.2308 84.8421 42.6633 81.6732 42.6633C78.5044 42.6633 75.9355 45.2308 75.9355 48.3978C75.9355 51.5649 78.5044 54.1323 81.6732 54.1323Z" fill="#2F2E41"/>
<path d="M74.8429 47.5786C74.8431 46.1525 75.3751 44.7776 76.335 43.7224C77.2948 42.6672 78.6137 42.0074 80.0341 41.8717C79.8541 41.8547 79.6722 41.8441 79.4877 41.8441C77.966 41.8441 76.5065 42.4483 75.4305 43.5237C74.3545 44.5991 73.75 46.0577 73.75 47.5786C73.75 49.0995 74.3545 50.5581 75.4305 51.6335C76.5065 52.7089 77.966 53.3131 79.4877 53.3131C79.6722 53.3131 79.8541 53.3025 80.0341 53.2855C78.6137 53.1499 77.2948 52.49 76.335 51.4348C75.3751 50.3796 74.8431 49.0047 74.8429 47.5786Z" fill="#2F2E41"/>
<path d="M108.052 62.1035L110.434 62.9692C111.172 62.5061 112.819 61.5909 112.882 61.5546C112.732 60.4341 110.951 54.7766 110.447 53.8874C107.192 52.7441 103.883 51.7053 100.47 51.2471C96.5569 50.7163 92.4535 50.9794 88.8676 52.6398C85.2861 54.2957 82.2994 57.4849 81.4778 61.3411C81.0738 63.2283 81.1464 65.3197 80.0116 66.8803C79.7839 67.1915 79.5169 67.4721 79.2173 67.715C80.4098 71.1024 82.5336 74.0852 85.3452 76.321C86.977 77.621 88.813 78.6419 90.7786 79.3424L91.0509 79.4377C91.0509 79.4195 91.0464 79.3968 91.0464 79.3787C91.0328 79.2471 91.0237 79.1156 91.0101 78.984C90.942 78.2264 90.8693 77.4778 90.8012 76.7202C90.7241 75.831 90.6469 74.9056 90.9737 74.0754C91.3051 73.2452 92.1721 72.5556 93.0436 72.7416C93.9197 72.9276 94.3645 74.2659 93.6246 74.765C94.5597 75.5044 95.9804 75.2776 96.9473 74.588C97.9187 73.8939 98.5542 72.8459 99.2169 71.857C101.856 67.9078 105.693 66.1024 109.651 63.4732L108.052 62.1035Z" fill="#2F2E41"/>
<path d="M93.9043 140.997L94.0409 139.146C93.9444 139.097 93.848 139.045 93.7476 138.985C102.021 136.945 124.421 131.299 132.16 128.102C132.541 128.761 133.22 129.95 134.12 131.552C124.377 133.704 102.258 138.656 93.9043 140.997Z" fill="#CFCCE0"/>
<path d="M97.7193 158.366L5.08936 147.923L-1.5458e-05 193.015L92.63 203.458L97.7193 158.366Z" fill="#3F3D56"/>
<path d="M44.9166 182.688C46.3303 191.92 54.0096 198.404 54.0096 198.404C54.0096 198.404 59.3969 189.921 57.9832 180.689C56.5695 171.457 48.8902 164.973 48.8902 164.973C48.8902 164.973 43.5029 173.456 44.9166 182.688Z" fill="white"/>
<path d="M48.697 181.164C54.6201 188.388 54.3096 198.431 54.3096 198.431C54.3096 198.431 44.3959 196.762 38.4728 189.538C32.5498 182.315 32.8602 172.272 32.8602 172.272C32.8602 172.272 42.7739 173.941 48.697 181.164Z" fill="#198262"/>
<path opacity="0.1" d="M113.93 108.024L118.752 126.095L109.912 139.748L113.93 126.095V108.024Z" fill="black"/>
<path d="M87.4111 83.126C87.4111 83.126 82.9913 89.5512 83.7949 90.3543C84.5985 91.1575 93.8399 92.7638 93.8399 92.7638V90.3543L87.4111 83.126Z" fill="#CFCCE0"/>
<path d="M103.885 83.126C103.885 83.126 108.305 89.5512 107.501 90.3543C106.697 91.1575 93.8398 92.7638 93.8398 92.7638V90.3543L103.885 83.126Z" fill="#CFCCE0"/>
<path d="M126.787 187.937C128.119 187.937 129.198 186.858 129.198 185.528C129.198 184.197 128.119 183.118 126.787 183.118C125.456 183.118 124.376 184.197 124.376 185.528C124.376 186.858 125.456 187.937 126.787 187.937Z" fill="#CFCCE0"/>
<path d="M123.975 178.701C125.306 178.701 126.386 177.622 126.386 176.291C126.386 174.961 125.306 173.882 123.975 173.882C122.643 173.882 121.564 174.961 121.564 176.291C121.564 177.622 122.643 178.701 123.975 178.701Z" fill="#CFCCE0"/>
<path d="M121.564 169.465C122.896 169.465 123.975 168.386 123.975 167.055C123.975 165.724 122.896 164.646 121.564 164.646C120.233 164.646 119.153 165.724 119.153 167.055C119.153 168.386 120.233 169.465 121.564 169.465Z" fill="#CFCCE0"/>
<path d="M119.153 159.827C120.485 159.827 121.564 158.748 121.564 157.417C121.564 156.087 120.485 155.008 119.153 155.008C117.822 155.008 116.743 156.087 116.743 157.417C116.743 158.748 117.822 159.827 119.153 159.827Z" fill="#CFCCE0"/>
<path d="M115.939 150.59C117.27 150.59 118.349 149.512 118.349 148.181C118.349 146.85 117.27 145.772 115.939 145.772C114.607 145.772 113.528 146.85 113.528 148.181C113.528 149.512 114.607 150.59 115.939 150.59Z" fill="#CFCCE0"/>
<path d="M113.729 140.752L100.47 151.996C100.47 151.996 86.0049 164.445 92.4337 167.657C98.8625 170.87 106.497 154.807 106.497 154.807L124.176 141.957L113.729 140.752Z" fill="#A0616A"/>
<path d="M118.149 88.5473C119.517 88.1699 120.968 88.2148 122.311 88.6761C123.654 89.1373 124.826 89.9934 125.673 91.1321C126.689 92.434 127.536 93.8593 128.194 95.374C129.399 98.5866 131.81 145.571 131.81 145.571L109.711 142.358L118.149 125.894V88.5473Z" fill="#2F2E41"/>
<path d="M189.599 162.024H188.795V182.742H189.599V162.024Z" fill="#3F3D56"/>
<path d="M320.572 305.836H207.991C202.901 305.83 198.022 303.805 194.423 300.208C190.824 296.61 188.8 291.733 188.795 286.646V219.386H189.599V286.646C189.604 291.52 191.543 296.193 194.991 299.64C198.439 303.087 203.114 305.027 207.991 305.033H320.572C325.45 305.027 330.126 303.088 333.575 299.641C337.024 296.194 338.964 291.521 338.969 286.646V218.423H339.773V286.646C339.767 291.733 337.743 296.611 334.143 300.209C330.543 303.807 325.663 305.83 320.572 305.836Z" fill="#3F3D56"/>
<path d="M339.773 162.081H338.969V182.315H339.773V162.081Z" fill="#3F3D56"/>
<path d="M339.773 125.883H338.969V106.17H340.229C340.443 106.17 340.647 106.085 340.798 105.935C340.948 105.784 341.033 105.58 341.033 105.367V70.7993C341.033 70.5863 340.948 70.382 340.798 70.2314C340.647 70.0807 340.443 69.996 340.229 69.9958H338.969V19.1852C338.963 14.311 337.023 9.63821 333.574 6.1921C330.125 2.74599 325.449 0.807941 320.572 0.80315H207.991C203.115 0.808685 198.44 2.74714 194.992 6.19325C191.544 9.63936 189.604 14.3117 189.599 19.1852V125.826H188.795V19.1852C188.801 14.0988 190.825 9.22229 194.424 5.62561C198.023 2.02893 202.902 0.00577992 207.991 0H320.572C325.662 0.00503466 330.542 2.02778 334.142 5.62446C337.741 9.22114 339.767 14.098 339.773 19.1852V69.1926H340.229C340.656 69.1931 341.064 69.3626 341.366 69.6638C341.667 69.965 341.837 70.3734 341.837 70.7993V105.367C341.837 105.793 341.667 106.201 341.366 106.502C341.064 106.804 340.656 106.973 340.229 106.974H339.773V125.883Z" fill="#3F3D56"/>
<path d="M270.023 10.0365H251.095C250.53 10.0365 250.073 10.4935 250.073 11.0573V13.2716C250.073 13.8354 250.53 14.2924 251.095 14.2924H270.023C270.587 14.2924 271.044 13.8354 271.044 13.2716V11.0573C271.044 10.4935 270.587 10.0365 270.023 10.0365Z" fill="#E6E8EC"/>
<path d="M276.63 14.5783C277.964 14.5783 279.045 13.4975 279.045 12.1643C279.045 10.8311 277.964 9.75037 276.63 9.75037C275.296 9.75037 274.214 10.8311 274.214 12.1643C274.214 13.4975 275.296 14.5783 276.63 14.5783Z" fill="#E6E8EC"/>
<path d="M330.369 22.9008V288.203C330.367 291.364 329.11 294.394 326.873 296.629C324.637 298.863 321.604 300.119 318.441 300.119H210.674C209.107 300.121 207.556 299.815 206.108 299.217C204.66 298.619 203.344 297.742 202.236 296.635C201.128 295.528 200.249 294.214 199.65 292.767C199.052 291.32 198.745 289.769 198.747 288.203V22.9008C198.747 21.3353 199.055 19.7852 199.654 18.3389C200.254 16.8926 201.132 15.5784 202.24 14.4715C203.347 13.3645 204.662 12.4864 206.109 11.8874C207.557 11.2883 209.108 10.98 210.674 10.9801H226.804V13.0485C226.804 15.6517 227.838 18.1483 229.68 19.989C231.522 21.8298 234.02 22.8639 236.625 22.864H291.432C294.037 22.8639 296.535 21.8298 298.377 19.989C300.219 18.1483 301.253 15.6517 301.253 13.0485V10.9801H318.441C320.008 10.9796 321.559 11.2876 323.006 11.8865C324.454 12.4854 325.769 13.3634 326.876 14.4705C327.984 15.5775 328.863 16.8918 329.462 18.3383C330.061 19.7849 330.369 21.3352 330.369 22.9008Z" fill="#E6E8EC"/>
<path opacity="0.2" d="M310.812 234.52H217.594V279.898H310.812V234.52Z" fill="black"/>
<path d="M346.449 162.491H182.666V125.42H346.449V162.491ZM183.629 161.528H345.486V126.383H183.629V161.528Z" fill="#3F3D56"/>
<path d="M213.978 137.937H195.672V156.232H213.978V137.937Z" fill="#198262"/>
<path d="M211.569 153.825H192.3V134.567H211.569V153.825ZM193.264 152.862H210.606V135.53H193.264V152.862Z" fill="#3F3D56"/>
<path d="M327.662 138.419H241.917V139.382H327.662V138.419Z" fill="#3F3D56"/>
<path d="M327.662 145.159H241.917V146.122H327.662V145.159Z" fill="#3F3D56"/>
<path d="M327.662 151.899H241.917V152.862H327.662V151.899Z" fill="#3F3D56"/>
<path d="M346.449 219.386H182.666V182.315H346.449V219.386ZM183.629 218.423H345.486V183.278H183.629V218.423Z" fill="#3F3D56"/>
<path d="M315.138 213.127H333.443V194.832H315.138V213.127Z" fill="#198262"/>
<path d="M336.815 210.72H317.546V191.462H336.815V210.72ZM318.51 209.757H335.852V192.425H318.51L318.51 209.757Z" fill="#3F3D56"/>
<path d="M287.199 195.314H201.453V196.277H287.199V195.314Z" fill="#3F3D56"/>
<path d="M287.199 202.054H201.453V203.017H287.199V202.054Z" fill="#3F3D56"/>
<path d="M287.199 208.794H201.453V209.757H287.199V208.794Z" fill="#3F3D56"/>
<path d="M307.249 66.2917H221.504V67.2546H307.249V66.2917Z" fill="#3F3D56"/>
<path d="M307.249 73.032H221.504V73.9949H307.249V73.032Z" fill="#3F3D56"/>
<path d="M307.249 79.7722H221.504V80.7351H307.249V79.7722Z" fill="#3F3D56"/>
</g>
<defs>
<clipPath id="clip0">
<rect width="391" height="306" fill="white"/>
</clipPath>
</defs>
</svg>
