<svg width="442" height="326" viewBox="0 0 442 326" fill="none" xmlns="http://www.w3.org/2000/svg">
<path opacity="0.1" d="M256.806 48.8832C228.471 47.8992 201.482 38.7256 175.713 28.6974C149.944 18.6691 124.413 7.55497 96.759 2.23899C78.9694 -1.17955 58.6257 -1.65392 44.294 7.89604C30.4981 17.0932 26.0429 32.9862 23.649 47.7071C21.8458 58.7939 20.7858 70.4451 25.7221 80.8379C29.1525 88.0396 35.2427 94.0965 39.4554 100.996C54.104 125.012 43.7581 154.623 27.8695 178.066C20.4377 189.067 11.7815 199.558 6.03552 211.268C0.289523 222.978 -2.3703 236.389 2.65598 248.331C7.64315 260.17 19.5185 269.061 32.3834 275.314C58.5162 288.016 89.3115 291.654 119.34 293.713C185.816 298.252 252.644 296.292 319.292 294.332C343.958 293.599 368.73 292.858 392.997 289.036C406.468 286.915 420.377 283.547 430.156 275.412C442.575 265.086 445.653 247.601 437.33 234.641C423.374 212.926 384.779 207.532 375.023 184.225C369.653 171.398 375.168 157.108 382.972 145.21C399.713 119.685 427.774 97.2955 429.253 68.1203C430.27 48.0835 416.779 28.0152 395.923 18.5359C374.057 8.59778 343.743 9.84837 327.612 26.2981C311.012 43.2379 281.824 49.7535 256.806 48.8832Z" fill="#198262"/>
<path d="M259.794 296.335L183.52 295.355L183.743 293.395L187.431 261.052H254.416L259.345 293.395L259.72 295.845L259.794 296.335Z" fill="#D0D2D5"/>
<path opacity="0.1" d="M259.72 295.845H221.657L183.52 295.355L183.743 293.395H259.345L259.72 295.845Z" fill="black"/>
<path d="M272.018 293.885H170.808V296.335H272.018V293.885Z" fill="#D0D2D5"/>
<path d="M368.581 66.7909C368.585 65.9532 368.425 65.123 368.109 64.3476C367.793 63.5721 367.327 62.8667 366.739 62.2714C366.151 61.6762 365.452 61.203 364.681 60.8786C363.911 60.5543 363.084 60.3852 362.248 60.3811H79.5991C78.763 60.3847 77.9359 60.5534 77.1649 60.8775C76.3939 61.2016 75.6941 61.6748 75.1057 62.2701C74.5172 62.8653 74.0515 63.571 73.7353 64.3467C73.419 65.1224 73.2583 65.9529 73.2625 66.7909V238.502H368.581V66.7909Z" fill="#444053"/>
<path d="M73.2625 236.797V256.908C73.2625 258.592 73.9301 260.208 75.1185 261.399C76.3068 262.59 77.9186 263.259 79.5991 263.259H362.248C363.928 263.258 365.539 262.588 366.727 261.397C367.914 260.206 368.581 258.592 368.581 256.908V236.797H73.2625Z" fill="#D0D2D5"/>
<path opacity="0.1" d="M357.824 71.1621H85.486V225.526H357.824V71.1621Z" fill="#198262"/>
<path d="M222.389 255.626C223.389 255.627 224.376 255.4 225.276 254.962C226.175 254.525 226.964 253.889 227.583 253.101C227.771 252.861 227.942 252.608 228.095 252.345L224.473 251.749L228.385 251.78C228.762 250.961 228.968 250.072 228.989 249.17C229.011 248.268 228.848 247.371 228.51 246.535L223.257 249.279L228.103 245.711C227.648 244.928 227.037 244.248 226.308 243.711C225.579 243.175 224.749 242.795 223.867 242.594C222.985 242.392 222.072 242.375 221.183 242.542C220.295 242.71 219.45 243.058 218.702 243.567C217.953 244.075 217.317 244.732 216.832 245.497C216.347 246.262 216.025 247.118 215.884 248.014C215.744 248.909 215.788 249.823 216.015 250.7C216.241 251.578 216.645 252.399 217.202 253.113C217.821 253.898 218.609 254.531 219.507 254.967C220.406 255.402 221.391 255.627 222.389 255.626Z" fill="#198262"/>
<path opacity="0.1" d="M228.991 263.259L259.419 293.884L254.752 263.259H228.991Z" fill="black"/>
<path d="M271.224 99.0121H94.502C93.9403 99.0121 93.485 99.4684 93.485 100.031V205.41C93.485 205.973 93.9403 206.429 94.502 206.429H271.224C271.785 206.429 272.241 205.973 272.241 205.41V100.031C272.241 99.4684 271.785 99.0121 271.224 99.0121Z" fill="white"/>
<path d="M357.903 71.1777H85.6619V80.1945H357.903V71.1777Z" fill="white"/>
<path d="M94.3533 72.7458H87.1405C86.972 72.7458 86.8354 72.8828 86.8354 73.0516V77.9285C86.8354 78.0974 86.972 78.2343 87.1405 78.2343H94.3533C94.5218 78.2343 94.6584 78.0974 94.6584 77.9285V73.0516C94.6584 72.8828 94.5218 72.7458 94.3533 72.7458Z" fill="#198262"/>
<path opacity="0.3" d="M261.844 72.7458H180.156C180.031 72.7458 179.929 72.8477 179.929 72.9732V78.0069C179.929 78.1325 180.031 78.2343 180.156 78.2343H261.844C261.969 78.2343 262.071 78.1325 262.071 78.0069V72.9732C262.071 72.8477 261.969 72.7458 261.844 72.7458Z" fill="#198262"/>
<path d="M259.634 76.0546H259.434L259.36 75.9919C259.611 75.6934 259.75 75.316 259.751 74.9256C259.749 74.6049 259.652 74.2921 259.472 74.0267C259.293 73.7613 259.039 73.5551 258.743 73.4342C258.446 73.3132 258.121 73.283 257.807 73.3473C257.494 73.4115 257.207 73.5674 256.981 73.7952C256.756 74.0231 256.603 74.3127 256.542 74.6274C256.481 74.9422 256.515 75.268 256.638 75.5639C256.762 75.8597 256.97 76.1122 257.236 76.2895C257.503 76.4669 257.816 76.5611 258.136 76.5604C258.525 76.558 258.902 76.4193 259.2 76.1683L259.274 76.2311V76.4349L260.526 77.6894L260.917 77.2974L259.634 76.0546ZM258.132 76.0546C257.908 76.0554 257.689 75.9895 257.502 75.8653C257.316 75.7411 257.17 75.5642 257.084 75.357C256.998 75.1499 256.976 74.9217 257.019 74.7016C257.063 74.4815 257.17 74.2792 257.329 74.1205C257.487 73.9619 257.689 73.8539 257.908 73.8103C258.128 73.7667 258.356 73.7895 258.562 73.8757C258.769 73.9619 258.946 74.1077 259.07 74.2947C259.193 74.4816 259.259 74.7012 259.258 74.9256C259.259 75.0741 259.231 75.2214 259.175 75.3589C259.119 75.4963 259.036 75.6212 258.931 75.7263C258.826 75.8313 258.701 75.9145 258.564 75.9708C258.427 76.0272 258.28 76.0557 258.132 76.0546Z" fill="#444053"/>
<path d="M353.991 78.2343C355.503 78.2343 356.729 77.0057 356.729 75.4901C356.729 73.9745 355.503 72.7458 353.991 72.7458C352.479 72.7458 351.253 73.9745 351.253 75.4901C351.253 77.0057 352.479 78.2343 353.991 78.2343Z" fill="#198262"/>
<path d="M309.623 89.9954H286.099C285.574 89.9954 285.149 90.4219 285.149 90.948V106.292C285.149 106.818 285.574 107.245 286.099 107.245H309.623C310.148 107.245 310.574 106.818 310.574 106.292V90.948C310.574 90.4219 310.148 89.9954 309.623 89.9954Z" fill="white"/>
<path d="M349.841 89.9954H317.462C317.33 89.9954 317.223 90.1024 317.223 90.2345V92.5005C317.223 92.6325 317.33 92.7396 317.462 92.7396H349.841C349.973 92.7396 350.08 92.6325 350.08 92.5005V90.2345C350.08 90.1024 349.973 89.9954 349.841 89.9954Z" fill="white"/>
<path d="M349.841 95.8759H317.462C317.33 95.8759 317.223 95.9829 317.223 96.115V98.3809C317.223 98.513 317.33 98.6201 317.462 98.6201H349.841C349.973 98.6201 350.08 98.513 350.08 98.3809V96.115C350.08 95.9829 349.973 95.8759 349.841 95.8759Z" fill="white"/>
<path d="M349.841 101.756H317.462C317.33 101.756 317.223 101.863 317.223 101.995V104.261C317.223 104.394 317.33 104.501 317.462 104.501H349.841C349.973 104.501 350.08 104.394 350.08 104.261V101.995C350.08 101.863 349.973 101.756 349.841 101.756Z" fill="white"/>
<path d="M309.623 117.046H286.099C285.574 117.046 285.149 117.472 285.149 117.998V133.343C285.149 133.869 285.574 134.295 286.099 134.295H309.623C310.148 134.295 310.574 133.869 310.574 133.343V117.998C310.574 117.472 310.148 117.046 309.623 117.046Z" fill="white"/>
<path d="M349.841 117.046H317.462C317.33 117.046 317.223 117.153 317.223 117.285V119.551C317.223 119.683 317.33 119.79 317.462 119.79H349.841C349.973 119.79 350.08 119.683 350.08 119.551V117.285C350.08 117.153 349.973 117.046 349.841 117.046Z" fill="white"/>
<path d="M349.841 122.926H317.462C317.33 122.926 317.223 123.033 317.223 123.165V125.431C317.223 125.563 317.33 125.671 317.462 125.671H349.841C349.973 125.671 350.08 125.563 350.08 125.431V123.165C350.08 123.033 349.973 122.926 349.841 122.926Z" fill="white"/>
<path d="M349.822 128.807H317.481C317.339 128.807 317.223 128.923 317.223 129.066V131.292C317.223 131.435 317.339 131.551 317.481 131.551H349.822C349.964 131.551 350.08 131.435 350.08 131.292V129.066C350.08 128.923 349.964 128.807 349.822 128.807Z" fill="white"/>
<path d="M309.623 144.096H286.099C285.574 144.096 285.149 144.523 285.149 145.049V160.393C285.149 160.919 285.574 161.346 286.099 161.346H309.623C310.148 161.346 310.574 160.919 310.574 160.393V145.049C310.574 144.523 310.148 144.096 309.623 144.096Z" fill="white"/>
<path d="M349.822 144.096H317.481C317.339 144.096 317.223 144.212 317.223 144.355V146.582C317.223 146.724 317.339 146.84 317.481 146.84H349.822C349.964 146.84 350.08 146.724 350.08 146.582V144.355C350.08 144.212 349.964 144.096 349.822 144.096Z" fill="white"/>
<path d="M349.822 149.977H317.481C317.339 149.977 317.223 150.092 317.223 150.235V152.462C317.223 152.605 317.339 152.721 317.481 152.721H349.822C349.964 152.721 350.08 152.605 350.08 152.462V150.235C350.08 150.092 349.964 149.977 349.822 149.977Z" fill="white"/>
<path d="M349.822 155.857H317.481C317.339 155.857 317.223 155.973 317.223 156.116V158.343C317.223 158.485 317.339 158.601 317.481 158.601H349.822C349.964 158.601 350.08 158.485 350.08 158.343V156.116C350.08 155.973 349.964 155.857 349.822 155.857Z" fill="white"/>
<path d="M309.623 171.146H286.099C285.574 171.146 285.149 171.573 285.149 172.099V187.443C285.149 187.969 285.574 188.396 286.099 188.396H309.623C310.148 188.396 310.574 187.969 310.574 187.443V172.099C310.574 171.573 310.148 171.146 309.623 171.146Z" fill="white"/>
<path d="M349.822 171.146H317.481C317.339 171.146 317.223 171.262 317.223 171.405V173.632C317.223 173.775 317.339 173.891 317.481 173.891H349.822C349.964 173.891 350.08 173.775 350.08 173.632V171.405C350.08 171.262 349.964 171.146 349.822 171.146Z" fill="white"/>
<path d="M349.822 177.027H317.481C317.339 177.027 317.223 177.143 317.223 177.286V179.512C317.223 179.655 317.339 179.771 317.481 179.771H349.822C349.964 179.771 350.08 179.655 350.08 179.512V177.286C350.08 177.143 349.964 177.027 349.822 177.027Z" fill="white"/>
<path d="M349.822 182.907H317.481C317.339 182.907 317.223 183.023 317.223 183.166V185.393C317.223 185.536 317.339 185.652 317.481 185.652H349.822C349.964 185.652 350.08 185.536 350.08 185.393V183.166C350.08 183.023 349.964 182.907 349.822 182.907Z" fill="white"/>
<path d="M309.623 198.197H286.099C285.574 198.197 285.149 198.623 285.149 199.149V214.494C285.149 215.02 285.574 215.446 286.099 215.446H309.623C310.148 215.446 310.574 215.02 310.574 214.494V199.149C310.574 198.623 310.148 198.197 309.623 198.197Z" fill="white"/>
<path d="M349.822 198.197H317.481C317.339 198.197 317.223 198.313 317.223 198.456V200.682C317.223 200.825 317.339 200.941 317.481 200.941H349.822C349.964 200.941 350.08 200.825 350.08 200.682V198.456C350.08 198.313 349.964 198.197 349.822 198.197Z" fill="white"/>
<path d="M349.822 204.077H317.481C317.339 204.077 317.223 204.193 317.223 204.336V206.563C317.223 206.706 317.339 206.822 317.481 206.822H349.822C349.964 206.822 350.08 206.706 350.08 206.563V204.336C350.08 204.193 349.964 204.077 349.822 204.077Z" fill="white"/>
<path d="M349.822 209.958H317.481C317.339 209.958 317.223 210.074 317.223 210.216V212.443C317.223 212.586 317.339 212.702 317.481 212.702H349.822C349.964 212.702 350.08 212.586 350.08 212.443V210.216C350.08 210.074 349.964 209.958 349.822 209.958Z" fill="white"/>
<path opacity="0.1" d="M159.492 127.478H119.27V129.567H159.492V127.478Z" fill="#198262"/>
<path opacity="0.1" d="M126.717 116.43H122.845V127.478H126.717V116.43Z" fill="#198262"/>
<path opacity="0.1" d="M132.377 116.43H128.505V127.478H132.377V116.43Z" fill="#198262"/>
<path opacity="0.1" d="M138.037 116.43H134.165V127.478H138.037V116.43Z" fill="#198262"/>
<path opacity="0.1" d="M143.697 116.43H139.825V127.478H143.697V116.43Z" fill="#198262"/>
<path opacity="0.1" d="M149.357 116.43H145.484V127.478H149.357V116.43Z" fill="#198262"/>
<path opacity="0.1" d="M155.021 116.43H151.148V127.478H155.021V116.43Z" fill="#198262"/>
<path opacity="0.1" d="M126.717 118.52H122.845V119.715H126.717V118.52Z" fill="#198262"/>
<path opacity="0.1" d="M132.377 118.52H128.505V119.715H132.377V118.52Z" fill="#198262"/>
<path opacity="0.1" d="M138.037 118.52H134.165V119.715H138.037V118.52Z" fill="#198262"/>
<path opacity="0.1" d="M143.697 118.52H139.825V119.715H143.697V118.52Z" fill="#198262"/>
<path opacity="0.1" d="M149.357 118.52H145.484V119.715H149.357V118.52Z" fill="#198262"/>
<path opacity="0.1" d="M155.021 118.52H151.148V119.715H155.021V118.52Z" fill="#198262"/>
<path opacity="0.1" d="M126.717 123.895H122.845V125.09H126.717V123.895Z" fill="#198262"/>
<path opacity="0.1" d="M132.377 123.895H128.505V125.09H132.377V123.895Z" fill="#198262"/>
<path opacity="0.1" d="M138.037 123.895H134.165V125.09H138.037V123.895Z" fill="#198262"/>
<path opacity="0.1" d="M143.697 123.895H139.825V125.09H143.697V123.895Z" fill="#198262"/>
<path opacity="0.1" d="M149.357 123.895H145.484V125.09H149.357V123.895Z" fill="#198262"/>
<path opacity="0.1" d="M155.021 123.895H151.148V125.09H155.021V123.895Z" fill="#198262"/>
<path opacity="0.1" d="M247.676 132.853H207.454V134.942H247.676V132.853Z" fill="#198262"/>
<path opacity="0.1" d="M214.902 121.805H211.03V132.853H214.902V121.805Z" fill="#198262"/>
<path opacity="0.1" d="M220.562 121.805H216.69V132.853H220.562V121.805Z" fill="#198262"/>
<path opacity="0.1" d="M226.222 121.805H222.349V132.853H226.222V121.805Z" fill="#198262"/>
<path opacity="0.1" d="M231.886 121.805H228.013V132.853H231.886V121.805Z" fill="#198262"/>
<path opacity="0.1" d="M237.546 121.805H233.673V132.853H237.546V121.805Z" fill="#198262"/>
<path opacity="0.1" d="M243.206 121.805H239.333V132.853H243.206V121.805Z" fill="#198262"/>
<path opacity="0.1" d="M214.902 123.895H211.03V125.09H214.902V123.895Z" fill="#198262"/>
<path opacity="0.1" d="M220.562 123.895H216.69V125.09H220.562V123.895Z" fill="#198262"/>
<path opacity="0.1" d="M226.222 123.895H222.349V125.09H226.222V123.895Z" fill="#198262"/>
<path opacity="0.1" d="M231.886 123.895H228.013V125.09H231.886V123.895Z" fill="#198262"/>
<path opacity="0.1" d="M237.546 123.895H233.673V125.09H237.546V123.895Z" fill="#198262"/>
<path opacity="0.1" d="M243.206 123.895H239.333V125.09H243.206V123.895Z" fill="#198262"/>
<path opacity="0.1" d="M214.902 129.269H211.03V130.465H214.902V129.269Z" fill="#198262"/>
<path opacity="0.1" d="M220.562 129.269H216.69V130.465H220.562V129.269Z" fill="#198262"/>
<path opacity="0.1" d="M226.222 129.269H222.349V130.465H226.222V129.269Z" fill="#198262"/>
<path opacity="0.1" d="M231.886 129.269H228.013V130.465H231.886V129.269Z" fill="#198262"/>
<path opacity="0.1" d="M237.546 129.269H233.673V130.465H237.546V129.269Z" fill="#198262"/>
<path opacity="0.1" d="M243.206 129.269H239.333V130.465H243.206V129.269Z" fill="#198262"/>
<path opacity="0.1" d="M247.676 148.079H207.454V150.169H247.676V148.079Z" fill="#198262"/>
<path opacity="0.1" d="M214.902 137.032H211.03V148.079H214.902V137.032Z" fill="#198262"/>
<path opacity="0.1" d="M220.562 137.032H216.69V148.079H220.562V137.032Z" fill="#198262"/>
<path opacity="0.1" d="M226.222 137.032H222.349V148.079H226.222V137.032Z" fill="#198262"/>
<path opacity="0.1" d="M231.886 137.032H228.013V148.079H231.886V137.032Z" fill="#198262"/>
<path opacity="0.1" d="M237.546 137.032H233.673V148.079H237.546V137.032Z" fill="#198262"/>
<path opacity="0.1" d="M243.206 137.032H239.333V148.079H243.206V137.032Z" fill="#198262"/>
<path opacity="0.1" d="M214.902 139.121H211.03V140.317H214.902V139.121Z" fill="#198262"/>
<path opacity="0.1" d="M220.562 139.121H216.69V140.317H220.562V139.121Z" fill="#198262"/>
<path opacity="0.1" d="M226.222 139.121H222.349V140.317H226.222V139.121Z" fill="#198262"/>
<path opacity="0.1" d="M231.886 139.121H228.013V140.317H231.886V139.121Z" fill="#198262"/>
<path opacity="0.1" d="M237.546 139.121H233.673V140.317H237.546V139.121Z" fill="#198262"/>
<path opacity="0.1" d="M243.206 139.121H239.333V140.317H243.206V139.121Z" fill="#198262"/>
<path opacity="0.1" d="M214.902 144.496H211.03V145.692H214.902V144.496Z" fill="#198262"/>
<path opacity="0.1" d="M220.562 144.496H216.69V145.692H220.562V144.496Z" fill="#198262"/>
<path opacity="0.1" d="M226.222 144.496H222.349V145.692H226.222V144.496Z" fill="#198262"/>
<path opacity="0.1" d="M231.886 144.496H228.013V145.692H231.886V144.496Z" fill="#198262"/>
<path opacity="0.1" d="M237.546 144.496H233.673V145.692H237.546V144.496Z" fill="#198262"/>
<path opacity="0.1" d="M243.206 144.496H239.333V145.692H243.206V144.496Z" fill="#198262"/>
<path opacity="0.1" d="M143.943 151.106C143.643 150.72 143.369 150.316 143.122 149.894L148.915 148.942L142.656 148.989C142.056 147.679 141.729 146.26 141.694 144.819C141.659 143.378 141.917 141.945 142.453 140.607L150.843 144.967L143.095 139.258C143.815 137.991 144.79 136.886 145.957 136.014C147.124 135.142 148.459 134.521 149.876 134.19C151.294 133.86 152.765 133.826 154.197 134.093C155.628 134.359 156.989 134.919 158.194 135.737C159.399 136.556 160.423 137.615 161.2 138.849C161.977 140.082 162.491 141.464 162.711 142.906C162.93 144.349 162.849 145.821 162.474 147.231C162.098 148.64 161.436 149.957 160.528 151.098C161 151.694 161.404 152.341 161.733 153.027L154.215 156.947L162.23 154.254C162.79 155.919 162.928 157.698 162.631 159.431C162.334 161.163 161.611 162.794 160.528 164.176C161.756 165.737 162.521 167.612 162.735 169.588C162.949 171.564 162.604 173.561 161.739 175.349C160.873 177.138 159.523 178.646 157.843 179.701C156.162 180.756 154.219 181.316 152.236 181.316C150.253 181.316 148.31 180.756 146.629 179.701C144.948 178.646 143.598 177.138 142.733 175.349C141.868 173.561 141.522 171.564 141.736 169.588C141.95 167.612 142.715 165.737 143.943 164.176C142.481 162.311 141.685 160.007 141.685 157.635C141.685 155.263 142.481 152.959 143.943 151.094V151.106Z" fill="#198262"/>
<path opacity="0.1" d="M162.789 157.645C162.789 160.015 161.993 162.316 160.528 164.176C161.756 165.737 162.521 167.612 162.735 169.588C162.949 171.564 162.604 173.561 161.739 175.349C160.873 177.138 159.523 178.646 157.842 179.701C156.162 180.756 154.219 181.316 152.236 181.316C150.253 181.316 148.31 180.756 146.629 179.701C144.948 178.646 143.598 177.138 142.733 175.349C141.868 173.561 141.522 171.564 141.736 169.588C141.95 167.612 142.715 165.737 143.943 164.176C142.523 162.384 162.789 156.457 162.789 157.645Z" fill="#198262"/>
<path opacity="0.2" d="M153.925 184.123C153.944 184.151 153.961 184.179 153.976 184.209H150.393C150.413 184.182 150.425 184.15 150.444 184.123C150.136 183.585 149.977 182.975 149.983 182.355C149.981 181.93 150.054 181.508 150.198 181.108C150.397 181.139 150.644 181.175 150.929 181.206C151.76 181.289 152.598 181.289 153.429 181.206C153.669 181.183 153.915 181.151 154.168 181.112C154.166 181.118 154.166 181.125 154.168 181.132C154.31 181.525 154.382 181.94 154.379 182.359C154.387 182.977 154.23 183.586 153.925 184.123Z" fill="#3F3D56"/>
<path opacity="0.1" d="M141.049 184.209H121.1C121.057 184.095 121.018 183.974 120.983 183.856C120.28 181.591 120.361 179.154 121.214 176.941C119.266 175.591 117.828 173.625 117.129 171.358C116.43 169.091 116.512 166.654 117.361 164.439C116.96 164.162 116.58 163.857 116.223 163.525L121.472 160.903L115.503 162.8C114.543 161.727 113.812 160.468 113.355 159.102C112.897 157.735 112.723 156.29 112.843 154.853L122.156 156.539L113.074 153.375C113.387 151.949 113.992 150.603 114.849 149.422C115.707 148.241 116.799 147.251 118.057 146.513C119.315 145.776 120.712 145.308 122.16 145.138C123.607 144.968 125.074 145.1 126.468 145.526C127.862 145.952 129.153 146.663 130.26 147.613C131.366 148.564 132.265 149.734 132.898 151.049C133.532 152.364 133.887 153.797 133.942 155.257C133.996 156.716 133.748 158.171 133.214 159.53C133.844 159.97 134.425 160.476 134.947 161.04L128.915 167.003L135.78 162.055C136.809 163.482 137.466 165.143 137.693 166.889C137.92 168.634 137.709 170.409 137.079 172.052C138.973 173.367 140.386 175.267 141.103 177.461C141.82 179.656 141.801 182.026 141.049 184.209Z" fill="#198262"/>
<path opacity="0.1" d="M141.049 184.209H121.1C121.057 184.095 121.018 183.974 120.983 183.856C120.28 181.591 120.361 179.154 121.214 176.941C119.336 175.639 136.95 163.976 137.298 165.113C138.001 167.38 137.919 169.818 137.067 172.032C138.968 173.347 140.386 175.249 141.105 177.448C141.824 179.647 141.805 182.022 141.049 184.209Z" fill="#198262"/>
<path opacity="0.1" d="M231.307 169.884C230.095 171.922 228.234 173.491 226.022 174.338C226.117 175.092 226.131 175.854 226.065 176.611L217.613 176.102L225.87 177.897C225.627 179.025 225.201 180.106 224.61 181.096C223.891 182.309 222.932 183.363 221.794 184.193H210.286V184.495H198.552C198.575 184.393 198.599 184.295 198.626 184.193C199.054 182.571 199.861 181.075 200.98 179.827C202.099 178.579 203.497 177.615 205.061 177.015C204.76 174.662 205.258 172.276 206.473 170.239C207.688 168.203 209.55 166.635 211.761 165.787C211.699 165.302 211.67 164.814 211.675 164.325L217.132 166.485L211.734 163.306C211.893 161.873 212.342 160.488 213.055 159.235C213.767 157.983 214.727 156.889 215.876 156.022L220.847 164.09L217.12 155.206C219.15 154.08 221.494 153.656 223.79 153.999C226.085 154.341 228.204 155.432 229.818 157.103C231.433 158.773 232.454 160.931 232.723 163.241C232.992 165.551 232.494 167.886 231.307 169.884Z" fill="#198262"/>
<path opacity="0.1" d="M224.61 181.112C223.891 182.325 222.932 183.379 221.794 184.209H210.286V184.511H198.552C198.575 184.409 198.599 184.311 198.626 184.209C199.054 182.587 199.861 181.09 200.98 179.842C202.099 178.594 203.497 177.631 205.061 177.031C204.963 176.247 207.235 176.364 210.267 176.874C216.208 177.874 225.013 180.438 224.61 181.112Z" fill="#198262"/>
<path d="M174.731 152.882C174.731 152.882 176.178 160.722 172.947 163.282C169.716 165.842 175.685 181.187 185.534 179.395C195.384 177.603 199.397 164.733 199.397 164.733C199.397 164.733 189.532 162.686 193.189 152.286L174.731 152.882Z" fill="#EE8E9E"/>
<path opacity="0.1" d="M174.731 152.882C174.731 152.882 176.178 160.722 172.947 163.282C169.716 165.842 175.685 181.187 185.534 179.395C195.384 177.603 199.397 164.733 199.397 164.733C199.397 164.733 189.532 162.686 193.189 152.286L174.731 152.882Z" fill="black"/>
<path d="M183.45 158.637C192.469 158.637 199.78 151.309 199.78 142.269C199.78 133.23 192.469 125.902 183.45 125.902C174.43 125.902 167.119 133.23 167.119 142.269C167.119 151.309 174.43 158.637 183.45 158.637Z" fill="#EE8E9E"/>
<path d="M210.286 173.385V184.511H156.362V173.891C156.362 172.544 156.758 171.227 157.5 170.105C158.243 168.982 159.299 168.104 160.536 167.579L162.081 166.92C165.993 165.25 170.745 163.176 172.298 162.314C172.468 162.229 172.628 162.125 172.775 162.004C173.624 161.153 173.456 162.259 173.456 162.259C173.456 162.259 173.432 162.471 173.417 162.835C173.323 165.34 173.683 175.184 185.194 174.365C196.424 173.581 196.929 165.968 196.815 163.729C196.809 163.522 196.792 163.315 196.764 163.11C197.541 163.295 198.301 163.544 199.037 163.855C201.384 164.725 204.849 166.121 205.776 166.779C206.066 166.983 206.418 167.195 206.801 167.41C207.236 167.653 207.643 167.944 208.014 168.277C208.729 168.921 209.301 169.708 209.693 170.588C210.084 171.468 210.287 172.421 210.286 173.385Z" fill="#198262"/>
<path opacity="0.1" d="M199.037 163.855C198.086 168.269 195.102 176.537 184.345 176.753C172.885 176.98 172.22 165.556 172.294 162.314C172.467 162.231 172.628 162.127 172.775 162.004C173.628 161.153 173.456 162.259 173.456 162.259C173.456 162.259 172.012 175.302 185.19 174.365C198.368 173.428 196.749 163.114 196.749 163.114C196.749 163.051 197.73 163.392 199.037 163.855Z" fill="black"/>
<path d="M164.119 143.089C164.661 142.953 165.232 142.983 165.757 143.175C166.281 143.367 166.737 143.713 167.064 144.167C167.659 145.002 167.749 146.009 167.823 146.974C168.531 147.123 168.93 146.319 168.997 145.711C169.259 143.238 169.278 140.717 170.107 138.325C170.937 135.934 172.748 133.621 175.529 132.708C176.479 132.378 177.494 132.281 178.49 132.425C179.08 132.523 179.636 132.731 180.223 132.817C182.257 133.154 184.467 132.19 186.371 132.86C187.568 133.284 188.327 134.26 188.887 135.236C189.13 135.763 189.46 136.244 189.864 136.659C190.674 137.388 191.941 137.577 193.103 137.804C194.265 138.031 195.532 138.427 196.029 139.325C196.475 140.137 196.146 141.074 195.998 141.952C195.768 143.343 196 144.771 196.659 146.017C196.874 146.409 197.312 146.884 197.832 146.754C198.065 146.675 198.262 146.515 198.388 146.303C199.721 144.429 199.686 141.991 201.36 140.301C201.92 139.737 202.643 139.298 203.187 138.733C203.598 138.315 203.9 137.801 204.065 137.237C204.231 136.674 204.254 136.078 204.134 135.503C203.832 134.209 202.8 133.151 201.967 132.014C200.885 130.573 200.096 128.933 199.647 127.188C199.569 126.985 199.569 126.76 199.647 126.557C199.805 126.351 200.009 126.184 200.242 126.07C200.695 125.766 201.022 125.306 201.162 124.777C201.302 124.248 201.244 123.686 201 123.197C200.527 122.228 199.487 121.491 198.313 121.052C197.123 120.66 195.894 120.398 194.648 120.268C193.827 120.386 192.865 119.919 192.61 119.261C192.497 118.967 192.497 118.649 192.383 118.355C192.23 118.06 192.007 117.806 191.735 117.615C191.462 117.424 191.148 117.301 190.819 117.258C190.119 117.144 189.403 117.195 188.726 117.406C187.944 117.626 187.056 117.955 186.379 117.571C186.023 117.371 185.828 117.007 185.444 116.842C184.662 116.513 183.856 117.179 183.297 117.728C182.758 118.304 182.096 118.75 181.361 119.033C180.973 119.182 180.557 119.244 180.142 119.216C179.728 119.189 179.324 119.071 178.959 118.873C178.423 118.532 178.153 117.983 177.727 117.548C176.922 116.828 175.891 116.412 174.813 116.372C173.704 116.313 172.593 116.434 171.523 116.732C169.481 117.231 167.531 118.051 165.746 119.163C164.848 119.657 164.086 120.367 163.528 121.229C163.198 121.889 163.028 122.619 163.031 123.358C162.945 125.674 163.712 128.113 165.711 129.736C164.49 130.246 164.08 131.496 163.794 132.606C163.337 134.378 162.879 136.177 163.051 137.98C163.137 138.913 163.391 139.847 163.254 140.776C163.145 141.213 163.084 141.661 163.075 142.112C163.132 142.361 163.262 142.586 163.448 142.76C163.634 142.934 163.868 143.048 164.119 143.089Z" fill="#454B69"/>
<g opacity="0.1">
<path opacity="0.1" d="M203.879 134.773C203.704 135.158 203.466 135.51 203.175 135.816C202.632 136.389 201.908 136.832 201.349 137.384C199.674 139.062 199.71 141.516 198.376 143.39C198.251 143.602 198.054 143.761 197.82 143.837C197.312 143.971 196.874 143.508 196.647 143.1C196.388 142.604 196.193 142.077 196.064 141.532C196.037 141.669 196.009 141.807 195.986 141.924C195.756 143.315 195.988 144.744 196.647 145.99C196.862 146.382 197.3 146.856 197.82 146.727C198.053 146.648 198.25 146.488 198.376 146.276C199.71 144.402 199.674 141.963 201.349 140.274C201.908 139.709 202.632 139.27 203.175 138.706C203.587 138.287 203.889 137.773 204.054 137.21C204.219 136.646 204.242 136.05 204.122 135.475C204.062 135.235 203.981 135 203.879 134.773Z" fill="black"/>
<path opacity="0.1" d="M200.234 123.169C200 123.282 199.796 123.448 199.639 123.655C199.561 123.857 199.561 124.081 199.639 124.283C199.794 124.892 199.991 125.489 200.23 126.07C200.683 125.766 201.01 125.306 201.15 124.777C201.29 124.248 201.232 123.686 200.989 123.197C200.913 123.035 200.821 122.882 200.715 122.738C200.576 122.904 200.414 123.049 200.234 123.169Z" fill="black"/>
<path opacity="0.1" d="M165.734 126.803C164.348 125.659 163.436 124.04 163.172 122.26C163.102 122.611 163.063 122.968 163.055 123.326C162.965 125.038 163.415 126.735 164.342 128.176C164.622 127.562 165.118 127.074 165.734 126.803Z" fill="black"/>
<path opacity="0.1" d="M195.998 139.062C196.146 138.18 196.475 137.243 196.029 136.436C195.532 135.534 194.265 135.142 193.103 134.915C191.941 134.687 190.674 134.495 189.864 133.77C189.46 133.354 189.13 132.873 188.887 132.347C188.335 131.371 187.568 130.387 186.371 129.971C184.467 129.301 182.257 130.261 180.223 129.928C179.636 129.83 179.08 129.626 178.49 129.536C177.494 129.39 176.479 129.487 175.529 129.818C172.748 130.736 170.937 133.049 170.107 135.436C169.278 137.823 169.259 140.344 168.997 142.822C168.93 143.426 168.531 144.233 167.823 144.084C167.749 143.116 167.659 142.124 167.064 141.273C166.736 140.82 166.281 140.475 165.756 140.284C165.231 140.092 164.661 140.063 164.119 140.199C163.79 140.126 163.498 139.938 163.294 139.67C163.337 140.029 163.337 140.393 163.294 140.752C163.184 141.189 163.123 141.638 163.114 142.089C163.164 142.34 163.288 142.57 163.47 142.749C163.652 142.929 163.883 143.05 164.135 143.096C164.677 142.961 165.247 142.991 165.772 143.183C166.297 143.375 166.753 143.72 167.08 144.174C167.674 145.009 167.764 146.017 167.839 146.981C168.547 147.13 168.946 146.327 169.012 145.719C169.274 143.245 169.294 140.725 170.123 138.333C170.952 135.942 172.763 133.629 175.544 132.715C176.495 132.385 177.51 132.288 178.505 132.433C179.096 132.531 179.651 132.739 180.238 132.825C182.272 133.162 184.482 132.198 186.387 132.868C187.584 133.292 188.343 134.268 188.902 135.244C189.145 135.77 189.476 136.251 189.88 136.667C190.69 137.396 191.957 137.584 193.119 137.812C194.28 138.039 195.466 138.408 195.986 139.239C195.966 139.18 195.986 139.121 195.998 139.062Z" fill="black"/>
<path opacity="0.1" d="M163.278 137.843C163.342 137.113 163.299 136.377 163.149 135.659C163.034 136.417 163.009 137.185 163.074 137.949C163.074 138.145 163.118 138.341 163.145 138.533C163.188 138.302 163.247 138.074 163.278 137.843Z" fill="black"/>
</g>
<path d="M144.135 200.329V193.253C144.135 193.2 144.156 193.149 144.193 193.112C144.231 193.074 144.282 193.053 144.335 193.053H145.136C145.189 193.053 145.24 193.074 145.277 193.112C145.315 193.149 145.336 193.2 145.336 193.253V196.197L148.59 193.175C148.667 193.111 148.76 193.07 148.858 193.056C148.957 193.043 149.058 193.057 149.148 193.098C149.239 193.139 149.317 193.204 149.373 193.287C149.428 193.37 149.459 193.467 149.462 193.567V199.977C149.459 200.076 149.428 200.173 149.373 200.256C149.317 200.339 149.239 200.405 149.148 200.446C149.058 200.486 148.957 200.501 148.858 200.487C148.76 200.474 148.667 200.433 148.59 200.369L145.336 197.366V200.294C145.336 200.347 145.315 200.398 145.277 200.436C145.24 200.473 145.189 200.494 145.136 200.494H144.335C144.287 200.495 144.241 200.479 144.205 200.449C144.168 200.418 144.143 200.376 144.135 200.329Z" fill="#444053"/>
<path d="M222.768 193.253V200.329C222.768 200.356 222.763 200.382 222.752 200.407C222.742 200.431 222.727 200.454 222.708 200.472C222.689 200.491 222.667 200.506 222.642 200.515C222.617 200.525 222.591 200.53 222.565 200.529H221.782C221.729 200.529 221.679 200.508 221.641 200.471C221.604 200.433 221.583 200.383 221.583 200.329V197.385L218.328 200.404C218.252 200.468 218.158 200.508 218.06 200.522C217.961 200.535 217.86 200.521 217.769 200.48C217.678 200.439 217.6 200.374 217.544 200.291C217.488 200.208 217.456 200.112 217.452 200.012V193.579C217.456 193.479 217.488 193.382 217.544 193.3C217.6 193.217 217.678 193.151 217.769 193.111C217.86 193.07 217.961 193.056 218.06 193.069C218.158 193.082 218.252 193.123 218.328 193.187L221.583 196.19V193.265C221.583 193.212 221.604 193.161 221.641 193.124C221.679 193.086 221.729 193.065 221.782 193.065H222.565C222.616 193.064 222.666 193.083 222.704 193.118C222.742 193.153 222.765 193.202 222.768 193.253Z" fill="#444053"/>
<path d="M182.124 200.635H180.532C180.324 200.635 180.125 200.553 179.978 200.406C179.832 200.259 179.749 200.059 179.749 199.851V193.994C179.749 193.786 179.832 193.587 179.978 193.44C180.125 193.293 180.324 193.21 180.532 193.21H182.124C182.331 193.21 182.53 193.293 182.677 193.44C182.823 193.587 182.906 193.786 182.906 193.994V199.851C182.906 200.059 182.823 200.259 182.677 200.406C182.53 200.553 182.331 200.635 182.124 200.635ZM187.169 199.851V193.994C187.169 193.786 187.087 193.587 186.94 193.44C186.794 193.293 186.595 193.21 186.387 193.21H184.779C184.572 193.21 184.373 193.293 184.226 193.44C184.08 193.587 183.997 193.786 183.997 193.994V199.851C183.997 200.059 184.08 200.259 184.226 200.406C184.373 200.553 184.572 200.635 184.779 200.635H186.371C186.475 200.637 186.579 200.619 186.676 200.58C186.772 200.542 186.86 200.484 186.935 200.411C187.009 200.338 187.068 200.251 187.108 200.155C187.149 200.059 187.169 199.956 187.169 199.851Z" fill="#444053"/>
<path opacity="0.6" d="M230.388 183.715H136.512V184.762H230.388V183.715Z" fill="#444053"/>
<path d="M165.5 186.718C166.867 186.718 167.976 185.607 167.976 184.236C167.976 182.866 166.867 181.755 165.5 181.755C164.132 181.755 163.024 182.866 163.024 184.236C163.024 185.607 164.132 186.718 165.5 186.718Z" fill="#444053"/>
<path d="M165.5 183.715H136.512V184.762H165.5V183.715Z" fill="#444053"/>
<path d="M374.362 301.859C387.209 301.859 397.624 299.851 397.624 297.374C397.624 294.897 387.209 292.889 374.362 292.889C361.515 292.889 351.101 294.897 351.101 297.374C351.101 299.851 361.515 301.859 374.362 301.859Z" fill="#198262"/>
<path d="M373.975 299.02C375.47 299.02 376.682 297.43 376.682 295.468C376.682 293.507 375.47 291.917 373.975 291.917C372.48 291.917 371.268 293.507 371.268 295.468C371.268 297.43 372.48 299.02 373.975 299.02Z" fill="#3F3D56"/>
<path d="M373.975 294.676C375.47 294.676 376.682 293.086 376.682 291.125C376.682 289.163 375.47 287.573 373.975 287.573C372.48 287.573 371.268 289.163 371.268 291.125C371.268 293.086 372.48 294.676 373.975 294.676Z" fill="#3F3D56"/>
<path d="M373.975 290.337C375.47 290.337 376.682 288.746 376.682 286.785C376.682 284.823 375.47 283.233 373.975 283.233C372.48 283.233 371.268 284.823 371.268 286.785C371.268 288.746 372.48 290.337 373.975 290.337Z" fill="#3F3D56"/>
<path d="M373.975 285.993C375.47 285.993 376.682 284.403 376.682 282.441C376.682 280.479 375.47 278.889 373.975 278.889C372.48 278.889 371.268 280.479 371.268 282.441C371.268 284.403 372.48 285.993 373.975 285.993Z" fill="#3F3D56"/>
<path d="M373.975 281.649C375.47 281.649 376.682 280.059 376.682 278.097C376.682 276.136 375.47 274.545 373.975 274.545C372.48 274.545 371.268 276.136 371.268 278.097C371.268 280.059 372.48 281.649 373.975 281.649Z" fill="#3F3D56"/>
<path d="M373.975 277.305C375.47 277.305 376.682 275.715 376.682 273.754C376.682 271.792 375.47 270.202 373.975 270.202C372.48 270.202 371.268 271.792 371.268 273.754C371.268 275.715 372.48 277.305 373.975 277.305Z" fill="#3F3D56"/>
<path d="M373.975 272.962C375.47 272.962 376.682 271.371 376.682 269.41C376.682 267.448 375.47 265.858 373.975 265.858C372.48 265.858 371.268 267.448 371.268 269.41C371.268 271.371 372.48 272.962 373.975 272.962Z" fill="#3F3D56"/>
<path d="M384.11 239.694C384.479 239.22 384.816 238.723 385.119 238.204L378 237.028L385.698 237.087C386.435 235.476 386.837 233.732 386.879 231.961C386.922 230.189 386.604 228.428 385.944 226.784L375.626 232.155L385.146 225.141C384.254 223.596 383.054 222.251 381.621 221.19C380.188 220.13 378.552 219.376 376.815 218.977C375.079 218.578 373.279 218.542 371.528 218.87C369.777 219.199 368.112 219.885 366.637 220.887C365.162 221.889 363.909 223.184 362.955 224.692C362.002 226.201 361.369 227.889 361.095 229.654C360.821 231.418 360.913 233.22 361.364 234.948C361.816 236.675 362.617 238.29 363.719 239.694C363.145 240.424 362.65 241.212 362.241 242.046L371.48 246.856L361.63 243.543C360.939 245.592 360.768 247.781 361.132 249.912C361.497 252.044 362.386 254.051 363.719 255.751C362.215 257.669 361.28 259.972 361.02 262.398C360.76 264.823 361.187 267.273 362.25 269.467C363.314 271.661 364.972 273.51 367.035 274.805C369.098 276.099 371.483 276.785 373.916 276.785C376.35 276.785 378.735 276.099 380.798 274.805C382.861 273.51 384.519 271.661 385.583 269.467C386.646 267.273 387.073 264.823 386.813 262.398C386.553 259.972 385.618 257.669 384.114 255.751C385.91 253.46 386.887 250.629 386.887 247.715C386.887 244.8 385.91 241.97 384.114 239.678L384.11 239.694Z" fill="#198262"/>
<path opacity="0.1" d="M360.946 247.73C360.94 250.646 361.918 253.478 363.719 255.767C362.215 257.685 361.28 259.988 361.02 262.413C360.76 264.839 361.186 267.288 362.25 269.482C363.314 271.676 364.972 273.526 367.035 274.82C369.098 276.114 371.483 276.801 373.916 276.801C376.35 276.801 378.735 276.114 380.798 274.82C382.861 273.526 384.519 271.676 385.583 269.482C386.646 267.288 387.073 264.839 386.813 262.413C386.553 259.988 385.618 257.685 384.114 255.767C385.85 253.56 360.946 246.272 360.946 247.73Z" fill="black"/>
<path opacity="0.1" d="M113.434 326C134.82 326 152.157 322.314 152.157 317.767C152.157 313.22 134.82 309.535 113.434 309.535C92.047 309.535 74.7097 313.22 74.7097 317.767C74.7097 322.314 92.047 326 113.434 326Z" fill="#198262"/>
<path d="M126.4 316.811C125.618 316.525 124.781 316.572 123.963 316.481C122.266 316.285 120.685 315.516 119.481 314.302C118.706 313.517 118.097 312.583 117.689 311.557C117.947 311.652 118.206 311.75 118.472 311.855C117.689 310.025 118.511 307.97 119.23 306.12C120.451 302.984 121.605 299.83 122.692 296.66C125.43 288.627 127.777 280.273 127.726 271.727C127.726 268.638 127.159 265.717 127.05 262.632C126.967 260.342 127.319 258.057 127.304 255.763C127.304 255.442 127.304 255.124 127.28 254.803C127.98 254.189 128.53 253.422 128.887 252.561C129.245 251.701 129.4 250.77 129.342 249.84C129.302 249.355 129.233 248.873 129.134 248.397C128.996 247.57 128.813 246.75 128.587 245.943C128.329 245.092 127.977 244.277 127.675 243.445C127.093 241.834 126.697 240.156 126.201 238.518C126.385 238.536 126.564 238.585 126.733 238.663C126.607 238.515 126.521 238.339 126.482 238.149C126.19 237.106 126.033 236.029 126.013 234.946L126.345 234.797C126.495 233.739 126.441 232.663 126.185 231.626C126.373 229.944 126.666 228.25 126.846 226.576C126.913 225.949 126.885 225.161 126.31 225.008C126.193 224.11 126.146 223.201 126.099 222.295C125.935 219.135 125.772 215.977 125.61 212.82C125.446 209.648 125.282 206.481 125.219 203.305C125.176 201.29 125.152 199.204 124.675 197.276C124.758 196.351 124.663 195.42 124.398 194.531C123.67 192.222 121.409 190.391 119.117 190.521C118.433 189.54 117.588 188.684 116.618 187.988C117.075 186.961 117.623 185.903 118.073 185.072C121.742 183.876 124.425 180.25 124.425 175.937C124.43 174.359 124.062 172.801 123.349 171.393C123.417 171.22 123.474 171.044 123.521 170.864C123.718 170.018 123.656 169.131 123.345 168.32C123.235 168.008 123.105 167.705 122.954 167.41C122.852 167.214 122.743 167.018 122.63 166.83L122.43 166.528C122.309 166.344 122.184 166.168 122.039 165.995C121.761 165.621 121.463 165.263 121.147 164.921C120.758 164.498 120.328 164.115 119.864 163.776C119.235 163.308 118.516 162.975 117.752 162.8C117.31 162.713 116.86 162.672 116.41 162.679C116.14 162.679 115.867 162.679 115.597 162.702C115.049 162.733 114.505 162.773 113.962 162.769C113.782 162.769 113.598 162.769 113.418 162.741C112.461 162.613 111.514 162.416 110.586 162.149L110.117 162.051C109.956 162.02 109.8 161.992 109.639 161.973C109.21 161.915 108.778 161.889 108.345 161.894H107.911C107.477 161.915 107.045 161.96 106.616 162.028L106.186 162.094C105.099 162.265 104.04 162.58 103.037 163.031C102.908 163.09 102.775 163.157 102.646 163.227L102.567 163.271C102.462 163.325 102.356 163.384 102.255 163.447L102.196 163.482L101.863 163.694L101.836 163.714C98.7303 165.807 96.8958 169.774 96.4303 173.71C95.9101 178.129 96.8214 182.582 97.7328 186.93L98.5542 190.85C98.5894 191.027 98.6285 191.199 98.6638 191.375C97.5087 192.325 96.6204 193.56 96.0861 194.959C95.3038 196.919 95.2842 199.04 95.3468 201.165C95.3468 201.596 95.3703 202.027 95.4133 202.458C95.3155 203.274 95.2295 204.093 95.1747 204.916C94.9283 208.719 95.3898 212.541 95.2686 216.352C95.1747 219.288 94.7327 222.232 94.9478 225.149C95.1356 227.737 95.8279 230.246 96.5124 232.743L97.4981 236.303C97.5301 236.487 97.6159 236.657 97.7446 236.793C97.9064 236.902 98.1045 236.942 98.2961 236.906C97.6549 238.366 97.1189 239.87 96.6924 241.407C96.3976 242.348 96.2036 243.318 96.1135 244.3C95.9844 246.096 96.399 247.879 96.8136 249.624C97.4395 252.237 98.0627 254.861 98.6833 257.496C99.1214 259.339 99.5582 261.18 99.9937 263.02C100.854 266.65 101.719 270.304 101.879 274.04C101.968 275.916 101.837 277.796 101.488 279.642C100.359 285.169 100.195 290.85 101.003 296.433C101.656 301.143 102.714 305.788 104.167 310.315C104.484 310.146 104.805 309.989 105.133 309.844L104.996 310.099C104.545 310.883 104.128 311.687 103.745 312.51C103.486 313.045 103.263 313.596 103.076 314.161C102.575 315.729 102.497 317.399 102.427 319.049C102.391 319.367 102.419 319.688 102.509 319.994C102.724 320.586 103.342 320.888 103.917 321.053C105.607 321.535 107.363 321.362 109.119 321.135C109.127 321.174 109.139 321.212 109.154 321.249C109.37 321.841 109.984 322.142 110.563 322.307C112.98 322.997 115.53 322.346 118.022 322.111C120.513 321.876 122.962 322.048 125.36 321.472C125.717 321.395 126.06 321.263 126.377 321.08C126.993 320.648 127.445 320.019 127.66 319.296C127.735 319.109 127.785 318.913 127.808 318.712C127.906 317.854 127.175 317.097 126.4 316.811ZM118.127 280.504C117.993 281.423 117.729 282.318 117.345 283.162C115.463 287.173 114.114 291.413 113.332 295.774C112.819 298.655 112.522 301.571 112.444 304.497C112.405 306.653 112.487 308.911 111.591 310.848L111.916 310.797C111.814 310.985 111.716 311.189 111.623 311.338L111.576 311.424C111.034 310.5 110.672 309.481 110.508 308.421C110.508 308.386 110.332 308.358 110.062 308.343C108.956 302.15 108.573 295.85 108.92 289.568C108.925 288.806 109.03 288.048 109.233 287.314C109.432 286.683 109.769 286.107 110.015 285.495C110.406 284.468 110.668 283.396 110.797 282.304C111.223 279.513 111.388 276.689 111.29 273.867C111.196 271.205 111.81 268.559 112.334 265.909C112.585 264.651 112.816 263.388 112.941 262.126L112.964 261.871C115.291 265.719 116.918 269.951 117.768 274.369C118.24 276.378 118.362 278.454 118.127 280.504ZM101.386 223.848L101.511 223.957C101.889 224.291 102.238 224.657 102.552 225.051C102.708 225.223 102.821 225.43 102.88 225.655C102.998 226.227 102.524 226.713 102.137 227.133C101.969 227.315 101.811 227.506 101.664 227.705C101.58 226.419 101.492 225.134 101.398 223.848H101.386Z" fill="url(#paint0_linear)"/>
<path d="M95.9726 199.275L95.5424 202.603C95.3977 203.732 95.2529 204.857 95.1747 205.99C94.9126 209.762 95.3977 213.549 95.2725 217.328C95.1708 220.237 94.7092 223.142 94.9322 226.047C95.1317 228.611 95.8592 231.104 96.5867 233.574L97.6194 237.102C97.6547 237.287 97.7447 237.456 97.8775 237.588C98.0765 237.706 98.3128 237.744 98.5386 237.694L103.123 237.279C102.83 235.93 102.505 234.534 102.341 233.151C102.215 232.069 102.141 230.979 102.063 229.889C101.82 226.494 101.543 223.099 101.281 219.696L100.792 213.737C100.584 211.15 100.369 208.55 99.7199 206.037C99.0683 203.499 97.7781 201.171 95.9726 199.275Z" fill="#198262"/>
<path opacity="0.1" d="M95.9726 199.275L95.5424 202.603C95.3977 203.732 95.2529 204.857 95.1747 205.99C94.9126 209.762 95.3977 213.549 95.2725 217.328C95.1708 220.237 94.7092 223.142 94.9322 226.047C95.1317 228.611 95.8592 231.104 96.5867 233.574L97.6194 237.102C97.6547 237.287 97.7447 237.456 97.8775 237.588C98.0765 237.706 98.3128 237.744 98.5386 237.694L103.123 237.279C102.83 235.93 102.505 234.534 102.341 233.151C102.215 232.069 102.141 230.979 102.063 229.889C101.82 226.494 101.543 223.099 101.281 219.696L100.792 213.737C100.584 211.15 100.369 208.55 99.7199 206.037C99.0683 203.499 97.7781 201.171 95.9726 199.275Z" fill="black"/>
<path d="M104.14 312.581C103.871 313.111 103.636 313.659 103.436 314.219C102.912 315.768 102.833 317.43 102.755 319.065C102.721 319.38 102.75 319.699 102.841 320.002C103.068 320.59 103.717 320.888 104.324 321.049C106.862 321.735 109.538 321.092 112.147 320.857C114.756 320.621 117.333 320.794 119.852 320.225C120.224 320.153 120.584 320.028 120.92 319.853C121.558 319.437 122.034 318.814 122.27 318.089C122.346 317.903 122.397 317.708 122.422 317.509C122.504 316.646 121.757 315.901 120.944 315.619C120.13 315.337 119.242 315.38 118.386 315.294C116.621 315.113 114.966 314.353 113.676 313.134C112.386 311.914 111.534 310.301 111.251 308.547C111.22 308.359 107.011 308.472 106.557 308.715C106.041 309.001 105.728 309.711 105.435 310.193C104.973 310.969 104.541 311.765 104.14 312.581Z" fill="#A26565"/>
<path opacity="0.1" d="M104.14 312.581C103.871 313.111 103.636 313.659 103.436 314.219C102.912 315.768 102.833 317.43 102.755 319.065C102.721 319.38 102.75 319.699 102.841 320.002C103.068 320.59 103.717 320.888 104.324 321.049C106.862 321.735 109.538 321.092 112.147 320.857C114.756 320.621 117.333 320.794 119.852 320.225C120.224 320.153 120.584 320.028 120.92 319.853C121.558 319.437 122.034 318.814 122.27 318.089C122.346 317.903 122.397 317.708 122.422 317.509C122.504 316.646 121.757 315.901 120.944 315.619C120.13 315.337 119.242 315.38 118.386 315.294C116.621 315.113 114.966 314.353 113.676 313.134C112.386 311.914 111.534 310.301 111.251 308.547C111.22 308.359 107.011 308.472 106.557 308.715C106.041 309.001 105.728 309.711 105.435 310.193C104.973 310.969 104.541 311.765 104.14 312.581Z" fill="black"/>
<path d="M111.122 313.827C110.851 314.356 110.616 314.902 110.418 315.462C109.89 317.03 109.812 318.673 109.737 320.308C109.701 320.623 109.73 320.942 109.823 321.245C110.046 321.833 110.696 322.131 111.302 322.295C113.84 322.977 116.52 322.335 119.125 322.099C121.73 321.864 124.315 322.037 126.831 321.468C127.204 321.392 127.564 321.26 127.898 321.076C128.537 320.661 129.014 320.038 129.248 319.312C129.324 319.126 129.375 318.931 129.4 318.732C129.483 317.873 128.735 317.124 127.922 316.842C127.108 316.56 126.22 316.607 125.364 316.517C123.6 316.335 121.946 315.576 120.656 314.358C119.366 313.139 118.513 311.528 118.229 309.774C118.198 309.586 113.989 309.695 113.535 309.938C113.015 310.225 112.702 310.934 112.409 311.416C111.963 312.212 111.525 313.012 111.122 313.827Z" fill="#A26565"/>
<path d="M129.322 272.182C129.377 280.653 126.921 288.933 124.038 296.88C122.896 300.032 121.684 303.156 120.404 306.253C119.645 308.088 118.788 310.127 119.602 311.938C117.255 311.044 114.869 310.519 112.401 310.93C113.34 309.009 113.25 306.775 113.293 304.658C113.373 301.756 113.681 298.866 114.216 296.013C115.044 291.672 116.465 287.465 118.436 283.511C118.835 282.678 119.11 281.79 119.254 280.877C119.575 278.862 119.324 276.792 118.906 274.796C118.005 270.389 116.294 266.188 113.86 262.408L113.837 262.659C113.69 263.92 113.479 265.172 113.203 266.411C112.651 269.034 112.006 271.66 112.104 274.299C112.206 277.096 112.033 279.897 111.587 282.661C111.444 283.746 111.161 284.808 110.746 285.82C110.477 286.428 110.125 286.997 109.913 287.628C109.702 288.354 109.591 289.106 109.585 289.862C109.272 296.241 109.585 302.717 110.883 308.97C108.705 308.798 106.526 309.429 104.578 310.409C103.055 305.933 101.942 301.327 101.253 296.648C100.405 291.115 100.577 285.473 101.762 280.003C102.131 278.178 102.269 276.314 102.172 274.455C102.004 270.751 101.097 267.128 100.193 263.529L98.8164 258.041C98.1645 255.427 97.5125 252.826 96.8606 250.236C96.4264 248.507 95.9884 246.739 96.1253 244.959C96.2207 243.982 96.4254 243.02 96.7354 242.089C97.712 238.924 99.1728 235.93 101.065 233.213C108.603 233.637 116.23 232.931 123.752 232.351C124.117 232.279 124.495 232.343 124.816 232.531C125.073 232.792 125.225 233.138 125.246 233.503L128.074 249.577C128.532 251.811 128.801 254.08 128.876 256.359C128.876 258.633 128.524 260.899 128.61 263.169C128.728 266.227 129.307 269.12 129.322 272.182Z" fill="#454B69"/>
<path opacity="0.1" d="M113.844 262.659C113.698 263.92 113.487 265.172 113.211 266.411C111.572 263.569 109.804 260.797 108.294 257.884C107.903 257.135 107.535 256.375 107.163 255.614L106.049 253.34C105.841 252.913 105.634 252.486 105.446 252.051C105.141 251.426 104.906 250.768 104.746 250.09C105.294 249.989 106.647 251.47 107.054 251.859C107.884 252.682 108.667 253.551 109.401 254.462C110.292 255.474 111.11 256.548 111.849 257.676C112.796 259.21 113.471 260.895 113.844 262.659Z" fill="black"/>
<path d="M120.122 184.68C120.122 184.68 115.937 191.364 116.711 192.763C117.486 194.163 103.53 191.521 103.53 191.521C103.53 191.521 111.13 184.836 110.351 182.037C109.573 179.238 120.122 184.68 120.122 184.68Z" fill="#EFB7B9"/>
<path d="M116.402 186.702C121.628 186.702 125.864 182.457 125.864 177.219C125.864 171.982 121.628 167.736 116.402 167.736C111.177 167.736 106.94 171.982 106.94 177.219C106.94 182.457 111.177 186.702 116.402 186.702Z" fill="#EFB7B9"/>
<path d="M120.263 191.689C119.25 190.28 117.875 189.172 116.285 188.482C115.369 188.153 114.421 187.919 113.457 187.784L109.682 187.118C108.759 186.953 107.77 186.8 106.909 187.181C106.474 187.404 106.078 187.697 105.736 188.047C104.425 189.266 103.154 190.603 101.507 191.309C101.058 191.501 100.588 191.642 100.138 191.834C98.2961 192.618 96.9193 194.288 96.1409 196.146C95.3195 198.083 95.296 200.188 95.3586 202.294C95.3575 203.02 95.4295 203.745 95.5737 204.458C95.762 205.136 96.0013 205.799 96.2895 206.441C96.8096 207.816 97.2459 209.22 97.5959 210.648C98.5738 214.398 99.3874 218.188 100.037 222.017C100.092 222.565 100.253 223.098 100.51 223.585C100.875 224.073 101.316 224.498 101.816 224.843C102.214 225.17 102.579 225.534 102.908 225.929C103.072 226.091 103.194 226.29 103.264 226.51C103.385 227.074 102.873 227.56 102.481 227.972C101.64 228.833 101.031 229.895 100.713 231.057C100.517 231.296 100.417 231.599 100.432 231.908C100.513 232.123 100.544 232.353 100.522 232.582C100.445 232.79 100.323 232.979 100.166 233.135C99.9853 233.371 99.8571 233.642 99.7896 233.932C99.7222 234.221 99.7171 234.521 99.7746 234.813C102.707 236.09 105.844 236.825 109.037 236.985C109.819 237.024 110.602 237.024 111.384 237.118C111.939 237.189 112.487 237.302 113.042 237.369C113.849 237.445 114.659 237.466 115.468 237.432C119.68 237.345 124.014 237.24 127.883 235.566C128.246 233.578 127.46 231.551 126.967 229.591C126.185 226.455 125.99 223.244 125.403 220.08C125.012 217.92 124.425 215.791 124.092 213.616C123.76 211.44 123.701 209.186 124.28 207.069C124.808 205.195 124.969 203.282 125.516 201.412C126.064 199.542 126.447 197.515 125.829 195.664C125.047 193.375 122.673 191.56 120.263 191.689Z" fill="#198262"/>
<path d="M124.91 172.189C125.372 170.507 124.464 168.755 123.385 167.387C122.211 165.917 120.717 164.592 118.882 164.223C117.392 163.921 115.847 164.286 114.329 164.164C112.988 164.058 111.697 163.572 110.363 163.38C109.153 163.25 107.93 163.296 106.733 163.517C105.597 163.687 104.487 163.998 103.428 164.443C99.3992 166.234 97.0405 170.649 96.4929 175.028C95.9453 179.407 96.9036 183.821 97.858 188.129L98.7225 192.026C99.6221 196.084 100.522 200.157 100.76 204.305C100.999 208.452 100.553 212.71 98.8515 216.497C104.354 213.534 108.618 208.697 110.872 202.858C111.482 201.255 111.936 199.589 112.616 198.013C113.199 196.656 113.946 195.37 114.462 193.986C115.046 192.424 115.326 190.765 115.288 189.098C115.256 187.843 115.049 186.597 115.084 185.342C115.119 184.087 115.44 182.782 116.305 181.873C117.087 181.069 118.163 180.696 119.152 180.175C120.71 179.373 122.071 178.235 123.138 176.843C123.76 176.027 123.795 175.667 123.952 174.741C124.108 173.816 124.667 173.079 124.91 172.189Z" fill="#A26565"/>
<path d="M124.922 243.426C125.02 244.402 124.844 245.386 125.055 246.354C125.215 247.076 125.587 247.726 125.806 248.432C126.022 249.247 126.134 250.086 126.138 250.929C126.17 251.635 126.115 252.498 125.489 252.827C125.215 252.972 124.887 252.972 124.601 253.097C124.315 253.223 124.073 253.564 124.237 253.83C124.402 254.097 124.683 254.054 124.941 254.105C125.199 254.156 125.477 254.422 125.332 254.638C125.274 254.709 125.194 254.759 125.106 254.783C124.844 254.864 124.597 254.983 124.37 255.136C124.26 255.217 124.173 255.326 124.12 255.453C124.067 255.579 124.049 255.718 124.069 255.853C124.085 255.918 124.115 255.979 124.157 256.03C124.2 256.082 124.253 256.123 124.314 256.151C124.374 256.179 124.441 256.193 124.507 256.191C124.574 256.19 124.639 256.174 124.699 256.143C124.584 256.389 124.521 256.656 124.515 256.928C125.516 257.359 126.639 256.794 127.578 256.249C127.984 256.022 128.375 255.771 128.751 255.497C129.511 254.912 130.116 254.151 130.514 253.278C130.912 252.405 131.091 251.448 131.035 250.49C130.991 250.009 130.916 249.531 130.812 249.059C130.668 248.237 130.476 247.425 130.237 246.625C129.968 245.782 129.6 244.978 129.283 244.151C128.61 242.391 128.176 240.548 127.566 238.765C127.525 238.58 127.421 238.415 127.273 238.298C127.138 238.232 126.988 238.203 126.838 238.216C126.154 238.18 125.467 238.243 124.8 238.404C124.409 238.522 123.74 238.796 123.557 239.188C123.373 239.58 123.666 239.909 123.842 240.235C124.404 241.219 124.771 242.302 124.922 243.426Z" fill="#EFB7B9"/>
<path opacity="0.1" d="M124.284 195.79C124.485 195.996 124.654 196.231 124.785 196.487C126.13 198.938 126.146 201.866 126.209 204.661C126.279 207.798 126.451 210.934 126.623 214.09L127.136 223.499C127.186 224.396 127.233 225.294 127.362 226.184C127.965 226.337 127.988 227.121 127.922 227.752C127.488 231.586 126.412 235.534 127.531 239.223C127.574 239.412 127.664 239.588 127.793 239.733C127.225 239.554 126.617 239.546 126.044 239.709C125.485 239.827 124.945 240.035 124.382 240.164C123.67 240.325 122.864 240.395 122.379 240.948C121.83 239.291 121.392 237.599 121.069 235.883C120.803 234.315 120.729 232.7 120.095 231.249C119.841 230.665 119.496 230.124 119.184 229.563C117.545 226.631 116.739 223.318 115.953 220.049C115.6 218.499 115.515 216.9 115.702 215.321C115.816 214.601 115.881 213.874 115.898 213.145C115.85 212.376 115.75 211.611 115.597 210.856C115.264 208.639 115.421 206.376 116.054 204.226C116.641 202.231 117.157 200.129 118.401 198.452C119.645 196.774 122.207 195.817 124.284 195.79Z" fill="black"/>
<path d="M124.75 195.476C124.951 195.684 125.119 195.92 125.25 196.178C126.596 198.624 126.611 201.557 126.674 204.352C126.744 207.488 126.917 210.624 127.089 213.761L127.601 223.169C127.652 224.067 127.699 224.965 127.828 225.855C128.43 226.008 128.454 226.792 128.383 227.423C127.953 231.257 126.877 235.201 127.992 238.894C128.035 239.083 128.126 239.259 128.254 239.404C127.686 239.225 127.079 239.217 126.506 239.38C125.947 239.498 125.407 239.705 124.843 239.831C124.132 239.996 123.326 240.062 122.841 240.615C122.293 238.95 121.859 237.25 121.542 235.526C121.276 233.958 121.202 232.347 120.568 230.896C120.293 230.319 119.989 229.757 119.657 229.211C118.014 226.278 117.212 222.962 116.426 219.692C116.073 218.142 115.988 216.543 116.176 214.964C116.47 213.486 116.434 211.961 116.07 210.499C115.738 208.283 115.894 206.022 116.528 203.874C117.114 201.878 117.631 199.777 118.875 198.099C120.118 196.421 122.673 195.508 124.75 195.476Z" fill="#198262"/>
<g opacity="0.1">
<path opacity="0.1" d="M123.385 167.387C122.211 165.917 120.717 164.592 118.882 164.223C117.392 163.921 115.847 164.286 114.329 164.164C112.988 164.058 111.697 163.572 110.363 163.38C109.153 163.25 107.93 163.296 106.733 163.517C105.597 163.687 104.487 163.998 103.428 164.443C102.856 164.699 102.31 165.011 101.797 165.372C102.74 165.005 103.719 164.742 104.719 164.588C105.914 164.366 107.136 164.319 108.345 164.451C109.683 164.623 110.969 165.105 112.315 165.211C113.829 165.333 115.374 164.972 116.868 165.27C118.702 165.638 120.204 166.967 121.366 168.437C122.45 169.802 123.353 171.554 122.896 173.24C122.653 174.126 122.09 174.902 121.937 175.816C121.785 176.729 121.746 177.101 121.12 177.917C120.317 178.963 119.347 179.867 118.249 180.594C118.55 180.453 118.859 180.312 119.152 180.159C120.71 179.357 122.071 178.219 123.138 176.827C123.76 176.012 123.795 175.651 123.952 174.726C124.108 173.801 124.668 173.04 124.91 172.15C125.372 170.507 124.464 168.755 123.385 167.387Z" fill="black"/>
<path opacity="0.1" d="M116.305 181.896C116.467 181.728 116.643 181.574 116.833 181.437C115.929 181.876 114.979 182.261 114.286 183.006C113.422 183.911 113.113 185.221 113.066 186.475C113.019 187.73 113.242 188.976 113.269 190.227C113.308 191.895 113.028 193.556 112.444 195.119C111.928 196.503 111.181 197.785 110.598 199.146C109.921 200.714 109.467 202.384 108.857 203.987C106.902 209.049 103.43 213.38 98.9181 216.383C98.8946 216.434 98.875 216.489 98.8516 216.54C104.354 213.578 108.618 208.74 110.872 202.901C111.482 201.298 111.936 199.632 112.616 198.056C113.199 196.699 113.946 195.413 114.462 194.03C115.046 192.468 115.326 190.808 115.288 189.141C115.256 187.886 115.049 186.64 115.084 185.385C115.12 184.131 115.44 182.806 116.305 181.896Z" fill="black"/>
</g>
<defs>
<linearGradient id="paint0_linear" x1="112.135" y1="322.601" x2="112.135" y2="161.906" gradientUnits="userSpaceOnUse">
<stop stop-color="#808080" stop-opacity="0.25"/>
<stop offset="0.54" stop-color="#808080" stop-opacity="0.12"/>
<stop offset="1" stop-color="#808080" stop-opacity="0.1"/>
</linearGradient>
</defs>
</svg>
