<svg width="429" height="298" viewBox="0 0 429 298" fill="none" xmlns="http://www.w3.org/2000/svg">
<path d="M48.3177 31.3176C49.5656 31.3176 50.5772 30.3055 50.5772 29.057C50.5772 27.8085 49.5656 26.7964 48.3177 26.7964C47.0698 26.7964 46.0582 27.8085 46.0582 29.057C46.0582 30.3055 47.0698 31.3176 48.3177 31.3176Z" fill="white"/>
<path d="M56.8932 31.3176C58.1411 31.3176 59.1527 30.3055 59.1527 29.057C59.1527 27.8085 58.1411 26.7964 56.8932 26.7964C55.6453 26.7964 54.6337 27.8085 54.6337 29.057C54.6337 30.3055 55.6453 31.3176 56.8932 31.3176Z" fill="white"/>
<path d="M65.4688 31.3176C66.7166 31.3176 67.7282 30.3055 67.7282 29.057C67.7282 27.8085 66.7166 26.7964 65.4688 26.7964C64.2209 26.7964 63.2093 27.8085 63.2093 29.057C63.2093 30.3055 64.2209 31.3176 65.4688 31.3176Z" fill="white"/>
<path d="M329.751 34.3679H42.8278V35.9634H329.751V34.3679Z" fill="white"/>
<path d="M329.997 0.186768H0.140625V211.549H329.997V0.186768Z" fill="#E6E6E6"/>
<path d="M329.856 0H0V14.0207H329.856V0Z" fill="#198262"/>
<path d="M320.837 25.3296H9.8454V105.903H320.837V25.3296Z" fill="white"/>
<path d="M321.034 119.143H10.0421V199.716H321.034V119.143Z" fill="white"/>
<path d="M283.172 43.1541H114.863V50.6592H283.172V43.1541Z" fill="#E6E6E6"/>
<path d="M174.873 61.9167H114.863V69.4219H174.873V61.9167Z" fill="#E6E6E6"/>
<path d="M234.414 80.6794H114.863V88.1846H234.414V80.6794Z" fill="#E6E6E6"/>
<path d="M102.204 159.017C102.213 164.481 100.623 169.829 97.6308 174.4C97.0037 175.364 96.3164 176.287 95.5732 177.165C93.8302 179.23 91.8 181.035 89.5446 182.524C88.9312 182.931 88.3007 183.311 87.653 183.666C84.2821 185.531 80.5615 186.678 76.7257 187.033C75.8539 187.118 74.9675 187.159 74.0733 187.159C71.6226 187.161 69.1821 186.842 66.8144 186.209C65.4723 185.856 64.1594 185.4 62.8875 184.845C62.2375 184.564 61.6021 184.259 60.9815 183.929C59.4885 183.144 58.0702 182.225 56.7443 181.183C56.1275 180.702 55.5327 180.196 54.9602 179.663C51.5343 176.487 48.9529 172.508 47.4489 168.084C45.945 163.659 45.5658 158.93 46.3457 154.323C47.1256 149.716 49.04 145.375 51.916 141.693C54.7921 138.011 58.5393 135.104 62.8194 133.233C67.0995 131.363 71.7778 130.588 76.432 130.98C81.0862 131.371 85.5697 132.915 89.478 135.474C93.3862 138.033 96.5961 141.525 98.8179 145.635C101.04 149.745 102.203 154.345 102.204 159.018V159.017Z" fill="#198262"/>
<path d="M75.7994 145.88H72.351V172.148H75.7994V145.88Z" fill="white"/>
<path d="M87.2021 157.289H60.9478V160.739H87.2021V157.289Z" fill="white"/>
<path d="M278.952 136.968H110.643V144.473H278.952V136.968Z" fill="#E6E6E6"/>
<path d="M170.653 155.73H110.643V163.235H170.653V155.73Z" fill="#E6E6E6"/>
<path d="M230.195 174.493H110.643V181.998H230.195V174.493Z" fill="#E6E6E6"/>
<path d="M21.8158 9.29388C23.0961 9.29388 24.1339 8.25549 24.1339 6.97458C24.1339 5.69366 23.0961 4.65527 21.8158 4.65527C20.5355 4.65527 19.4977 5.69366 19.4977 6.97458C19.4977 8.25549 20.5355 9.29388 21.8158 9.29388Z" fill="white"/>
<path d="M30.615 9.29388C31.8953 9.29388 32.9331 8.25549 32.9331 6.97458C32.9331 5.69366 31.8953 4.65527 30.615 4.65527C29.3347 4.65527 28.2969 5.69366 28.2969 6.97458C28.2969 8.25549 29.3347 9.29388 30.615 9.29388Z" fill="white"/>
<path d="M12.9938 9.29388C14.274 9.29388 15.3119 8.25549 15.3119 6.97458C15.3119 5.69366 14.274 4.65527 12.9938 4.65527C11.7135 4.65527 10.6757 5.69366 10.6757 6.97458C10.6757 8.25549 11.7135 9.29388 12.9938 9.29388Z" fill="white"/>
<path d="M90.9386 88.2504C88.48 86.9541 85.9137 85.8735 83.2685 85.0209L82.9312 81.2878L69.2519 79.8132L67.5134 84.5848L62.6042 86.428C62.4286 86.4946 62.2613 86.5817 62.1061 86.6876H62.1007C61.8268 86.8728 61.5934 87.112 61.415 87.3905C61.2365 87.6691 61.1167 87.9811 61.0628 88.3075C61.0104 88.6321 61.0228 88.9638 61.0993 89.2836L61.3588 90.348C61.7323 90.5712 62.1165 90.7841 62.5003 90.9866L62.7443 91.1112C63.3048 91.402 63.8757 91.6771 64.4621 91.9316C64.5814 91.9835 64.7112 92.0354 64.8305 92.0873C64.8409 92.0925 64.846 92.0925 64.8564 92.0977C65.1315 92.2119 65.4065 92.321 65.6867 92.4248C66.6073 92.7766 67.5462 93.0781 68.4994 93.3282C70.9321 93.9769 73.439 94.3051 75.9566 94.3043C76.8751 94.3043 77.7833 94.2628 78.6811 94.1745C80.7324 93.9851 82.7575 93.576 84.7216 92.9544C84.7267 92.9544 84.732 92.9492 84.7371 92.9492C85.9778 92.5537 87.1899 92.0732 88.3646 91.511C88.3697 91.5058 88.3801 91.5058 88.3854 91.5006C88.6499 91.376 88.9043 91.241 89.1638 91.1112L89.2882 91.0489C89.4957 90.9399 89.7035 90.8308 89.911 90.7166C90.43 90.431 90.9386 90.1299 91.4418 89.808C91.5819 89.7249 91.717 89.6367 91.8571 89.5432C92.0542 89.4134 92.2513 89.2784 92.4434 89.1382C91.9607 88.8267 91.4575 88.5307 90.9386 88.2504Z" fill="#3F3D56"/>
<path d="M65.2663 90.5505L64.4101 86.6824H62.1735C62.1509 86.6827 62.1284 86.6844 62.1061 86.6876H62.1008C61.297 86.7556 60.5229 87.0233 59.8486 87.4664C59.3913 87.7585 58.9847 88.1232 58.6448 88.5463C59.3089 89.05 59.9991 89.5173 60.7102 89.9638L60.7413 89.9793C60.9435 90.104 61.1513 90.2286 61.3588 90.348C61.7323 90.5712 62.1165 90.7841 62.5004 90.9866L62.7444 91.1112C63.3049 91.402 63.8758 91.6772 64.4621 91.9316C64.5815 91.9835 64.7112 92.0354 64.8306 92.0873C64.8409 92.0925 64.846 92.0925 64.8564 92.0977C65.1316 92.2119 65.4065 92.321 65.6868 92.4248L65.2663 90.5505Z" fill="#3F3D56"/>
<path d="M75.5547 77.4532C80.9957 77.4532 85.4066 73.0401 85.4066 67.5962C85.4066 62.1524 80.9957 57.7393 75.5547 57.7393C70.1136 57.7393 65.7028 62.1524 65.7028 67.5962C65.7028 73.0401 70.1136 77.4532 75.5547 77.4532Z" fill="#FFB8B8"/>
<path d="M68.9402 62.795C69.96 64.0025 71.686 64.3433 73.2781 64.483C77.0004 64.6887 80.7334 64.3838 84.373 63.5766C84.5985 65.7636 83.9836 68.1216 85.2711 69.9207C85.8747 67.7427 86.2256 65.5024 86.317 63.2441C86.4131 62.2752 86.2867 61.2972 85.9474 60.3846C85.7659 59.9273 85.4599 59.53 85.064 59.2381C84.6682 58.9461 84.1984 58.7711 83.7081 58.7329C84.4421 58.1758 85.3018 57.808 86.2115 57.6621L83.0833 56.0892L83.8866 55.2641L78.2232 54.9173L79.8635 53.8747C77.3947 53.5353 74.897 53.4564 72.4117 53.6394C71.2576 53.7245 70.051 53.887 69.1159 54.556C68.1808 55.225 67.6405 56.5547 68.221 57.537C67.4943 57.6564 66.81 57.9594 66.233 58.4174C65.6561 58.8755 65.2056 59.4733 64.9241 60.1542C64.5683 61.2366 64.4823 62.3897 64.6739 63.5129C64.8872 65.315 65.3058 67.0868 65.9215 68.7938L68.9402 62.795Z" fill="#2F2E41"/>
<path d="M103.258 56.911C101.876 52.938 99.644 49.3144 96.7182 46.293C93.7924 43.2716 90.243 40.9251 86.3177 39.4172C82.3924 37.9092 78.1855 37.2761 73.9905 37.562C69.7955 37.8479 65.7133 39.0458 62.0286 41.0724C58.3439 43.0989 55.1453 45.9052 52.656 49.2956C50.1667 52.686 48.4466 56.5789 47.6155 60.7028C46.7844 64.8267 46.8625 69.0823 47.8442 73.173C48.8259 77.2636 50.6876 81.0907 53.2995 84.3875C53.559 84.7146 53.8288 85.0417 54.104 85.3584C54.1248 85.3792 54.1403 85.3999 54.161 85.4207C54.8375 86.2005 55.5564 86.9424 56.3146 87.6429C56.512 87.8246 56.7195 88.0116 56.927 88.1881C57.3213 88.5411 57.7262 88.8786 58.1466 89.2005C58.3126 89.3303 58.4735 89.4601 58.6448 89.5848C59.3089 90.0884 59.9992 90.5557 60.7102 91.0022L60.7414 91.0178C60.9436 91.1424 61.1513 91.267 61.3589 91.3864C61.7324 91.6097 62.1165 91.8225 62.5004 92.025L62.7444 92.1496C63.3049 92.4404 63.8758 92.7156 64.4621 92.97C64.5815 93.0219 64.7112 93.0738 64.8306 93.1258C64.841 93.131 64.846 93.1309 64.8564 93.1361C65.1316 93.2504 65.4065 93.3594 65.6868 93.4632C66.6073 93.815 67.5463 94.1166 68.4994 94.3667C70.9321 95.0154 73.4391 95.3435 75.9567 95.3428C76.8752 95.3428 77.7834 95.3012 78.6811 95.213C80.7325 95.0235 82.7576 94.6145 84.7217 93.9928C84.7268 93.9928 84.7321 93.9876 84.7372 93.9876C85.9779 93.5922 87.19 93.1116 88.3647 92.5494C88.3698 92.5442 88.3801 92.5442 88.3854 92.5391C88.65 92.4144 88.9044 92.2794 89.1639 92.1496L89.2883 92.0873C89.4958 91.9783 89.7036 91.8693 89.9111 91.755C90.43 91.4695 90.9386 91.1683 91.4418 90.8464C91.5819 90.7634 91.717 90.6751 91.8571 90.5816C92.0543 90.4518 92.2514 90.3168 92.4435 90.1766C92.6976 90.0001 92.952 89.8184 93.2011 89.6315C93.2789 89.5744 93.362 89.5173 93.4398 89.455C98.3017 85.7628 101.87 80.6254 103.634 74.7791C105.398 68.9328 105.266 62.6779 103.258 56.911H103.258ZM92.485 88.1933C92.3137 88.3283 92.1373 88.4581 91.9607 88.5775C91.7894 88.7073 91.6184 88.8319 91.4418 88.9461C91.2913 89.0552 91.1408 89.159 90.9852 89.2577L90.9386 89.2888C90.8243 89.3667 90.7102 89.4394 90.596 89.5121C90.1652 89.782 89.7293 90.0416 89.2882 90.2909C89.2416 90.3168 89.1947 90.3428 89.1481 90.3688C88.951 90.4778 88.7538 90.5816 88.5567 90.6855C88.5306 90.7011 88.4994 90.7115 88.4736 90.727L88.4424 90.7426C88.1933 90.8724 87.9389 90.997 87.6848 91.1164C86.7035 91.5892 85.693 91.9985 84.6593 92.3418C84.5242 92.3885 84.3894 92.4352 84.2546 92.4768C82.3955 93.0684 80.4783 93.4583 78.5359 93.6398C77.6848 93.7177 76.8232 93.7592 75.9566 93.7592C73.5754 93.7641 71.204 93.4534 68.9043 92.835C67.7241 92.5268 66.5674 92.1347 65.443 91.6616C65.3857 91.6357 65.3234 91.6149 65.2664 91.5889C65.2043 91.563 65.147 91.5422 65.09 91.5162C65.0277 91.4903 64.9707 91.4643 64.9083 91.4332C64.4206 91.2203 63.9378 90.9866 63.4658 90.7426L63.2375 90.6232C62.6613 90.3221 62.0957 90.0001 61.5456 89.6574C61.3847 89.5588 61.2187 89.455 61.0629 89.3459C61.0216 89.32 60.9851 89.294 60.9435 89.268C60.5751 89.024 60.2067 88.7696 59.8486 88.5048C59.6049 88.3231 59.3608 88.1413 59.1222 87.9544C58.7226 87.6533 58.3384 87.3314 57.9649 86.9991C57.7678 86.833 57.5757 86.6512 57.389 86.4799C56.6531 85.8001 55.9566 85.079 55.3028 84.32C55.0849 84.0708 54.872 83.8215 54.6696 83.5619C54.6236 83.5106 54.5803 83.4569 54.5399 83.401C51.1681 79.1441 49.1401 73.9789 48.7143 68.5641C48.2886 63.1493 49.4844 57.7303 52.1494 52.9983C54.8143 48.2662 58.8276 44.4356 63.6773 41.9948C68.5271 39.5541 73.9935 38.6139 79.3795 39.2941C84.7655 39.9743 89.827 42.2442 93.9184 45.8141C98.0098 49.3841 100.946 54.0924 102.352 59.3386C103.758 64.5848 103.57 70.1311 101.813 75.2702C100.056 80.4093 96.8083 84.9082 92.485 88.1933Z" fill="#3F3D56"/>
<path d="M349.284 195.726C347.901 191.753 345.67 188.13 342.744 185.108C339.818 182.087 336.269 179.741 332.343 178.233C328.418 176.725 324.211 176.092 320.016 176.377C315.821 176.663 311.739 177.861 308.054 179.888C304.37 181.914 301.171 184.721 298.682 188.111C296.192 191.501 294.472 195.394 293.641 199.518C292.81 203.642 292.888 207.898 293.87 211.988C294.851 216.079 296.713 219.906 299.325 223.203C299.585 223.53 299.854 223.857 300.129 224.174C300.15 224.195 300.166 224.215 300.186 224.236C300.863 225.016 301.582 225.758 302.34 226.458C302.537 226.64 302.745 226.827 302.952 227.003C303.347 227.357 303.752 227.694 304.172 228.016C304.993 228.663 305.849 229.265 306.736 229.818L306.767 229.833C307.343 230.191 307.929 230.524 308.526 230.84L308.77 230.965C309.33 231.256 309.901 231.531 310.487 231.785C310.607 231.837 310.737 231.889 310.856 231.941C310.866 231.946 310.872 231.946 310.882 231.952C312.067 232.444 313.284 232.856 314.525 233.182C316.958 233.831 319.464 234.159 321.982 234.158C322.901 234.158 323.809 234.117 324.706 234.028C326.758 233.839 328.783 233.43 330.747 232.808C330.752 232.808 330.757 232.803 330.763 232.803C332.003 232.408 333.215 231.927 334.39 231.365C334.395 231.36 334.406 231.36 334.411 231.354C334.675 231.23 334.93 231.095 335.189 230.965L335.314 230.903C335.521 230.794 335.729 230.685 335.936 230.57C336.455 230.285 336.964 229.984 337.467 229.662C337.608 229.579 337.742 229.49 337.882 229.397C338.339 229.096 338.791 228.774 339.226 228.447C339.305 228.39 339.387 228.333 339.465 228.27C344.327 224.578 347.896 219.441 349.659 213.594C351.423 207.748 351.292 201.493 349.284 195.726Z" fill="white"/>
<path d="M331.522 217.156C333.915 217.156 335.855 215.216 335.855 212.821C335.855 210.427 333.915 208.487 331.522 208.487C329.129 208.487 327.19 210.427 327.19 212.821C327.19 215.216 329.129 217.156 331.522 217.156Z" fill="#2F2E41"/>
<path d="M332.729 208.606C333.479 208.606 334.216 208.801 334.868 209.171C335.52 209.542 336.065 210.075 336.45 210.719C336.834 211.363 337.045 212.096 337.061 212.847C337.078 213.597 336.899 214.338 336.544 214.999C336.919 214.528 337.193 213.985 337.347 213.403C337.501 212.821 337.532 212.214 337.438 211.619C337.345 211.025 337.129 210.456 336.803 209.95C336.478 209.444 336.051 209.011 335.549 208.679C335.047 208.346 334.482 208.123 333.889 208.021C333.296 207.92 332.688 207.943 332.105 208.09C331.521 208.236 330.975 208.503 330.5 208.873C330.025 209.242 329.632 209.707 329.347 210.236C329.752 209.728 330.266 209.317 330.852 209.035C331.438 208.752 332.08 208.606 332.73 208.606H332.729Z" fill="#2F2E41"/>
<path d="M323.426 212.812C330.455 212.812 336.153 207.111 336.153 200.078C336.153 193.045 330.455 187.344 323.426 187.344C316.396 187.344 310.698 193.045 310.698 200.078C310.698 207.111 316.396 212.812 323.426 212.812Z" fill="#2F2E41"/>
<path d="M313.437 192.177C315.63 189.71 318.695 188.191 321.986 187.942C325.277 187.693 328.536 188.733 331.075 190.842C330.972 190.743 330.868 190.643 330.76 190.547C328.246 188.293 324.94 187.132 321.57 187.317C318.199 187.502 315.04 189.019 312.788 191.535C310.536 194.05 309.374 197.358 309.559 200.73C309.745 204.102 311.261 207.263 313.775 209.516C313.799 209.538 313.824 209.56 313.848 209.581C313.956 209.677 314.067 209.768 314.178 209.86C311.786 207.584 310.373 204.468 310.234 201.168C310.096 197.869 311.245 194.645 313.437 192.177H313.437Z" fill="#2F2E41"/>
<path d="M323.318 212.704C327.845 212.704 331.515 209.032 331.515 204.503C331.515 199.973 327.845 196.301 323.318 196.301C318.791 196.301 315.121 199.973 315.121 204.503C315.121 209.032 318.791 212.704 323.318 212.704Z" fill="#A0616A"/>
<path d="M337.986 225.872V228.623C337.483 228.945 336.974 229.246 336.455 229.532C336.248 229.646 336.04 229.755 335.833 229.864L335.708 229.927C335.449 230.056 335.194 230.191 334.93 230.316C334.925 230.321 334.914 230.321 334.909 230.326C333.734 230.889 332.522 231.369 331.281 231.765C331.276 231.765 331.271 231.77 331.266 231.77C329.302 232.391 327.277 232.8 325.225 232.99C324.328 233.078 323.42 233.12 322.501 233.12C319.983 233.12 317.477 232.792 315.044 232.144C313.803 231.817 312.586 231.406 311.401 230.913C311.391 230.908 311.385 230.908 311.375 230.903C311.256 230.851 311.126 230.799 311.006 230.747C310.42 230.492 309.849 230.217 309.289 229.927L309.045 229.802C308.448 229.485 307.862 229.153 307.286 228.795L307.254 228.779C306.368 228.226 305.512 227.625 304.691 226.977C304.271 226.656 303.866 226.318 303.471 225.965C303.264 225.788 303.056 225.602 302.859 225.42C302.101 224.719 301.382 223.977 300.705 223.198C300.795 222.657 300.927 222.124 301.1 221.604L301.105 221.598C301.136 221.51 301.172 221.423 301.214 221.339C301.243 221.264 301.276 221.191 301.313 221.121C302.241 219.381 303.923 218.95 306.009 218.857C307.187 218.805 308.49 218.862 309.865 218.847C310.591 218.841 311.344 218.815 312.096 218.748C316.845 218.317 315.983 215.513 316.196 214.002C316.409 212.538 317.727 213.805 317.815 213.888L317.82 213.893C320.507 215.152 323.48 215.673 326.435 215.404C326.943 215.342 327.452 215.306 327.96 215.29C329.299 215.274 329.009 215.659 328.547 215.975C328.323 216.123 328.089 216.255 327.846 216.37C327.846 216.37 327.633 217.668 327.415 219.61C327.208 221.469 330.768 222.341 331.064 222.408C331.07 222.413 331.077 222.414 331.084 222.414C332.384 222.076 333.753 222.112 335.034 222.517H335.039C335.77 222.787 336.423 223.234 336.938 223.82C337.453 224.406 337.813 225.111 337.986 225.872Z" fill="#198262"/>
<path d="M311.453 229.21C311.453 229.594 311.443 229.963 311.427 230.311C311.422 230.518 311.411 230.721 311.401 230.913C311.391 230.908 311.385 230.908 311.375 230.903C311.256 230.851 311.126 230.799 311.006 230.747C310.42 230.492 309.849 230.217 309.289 229.927L309.045 229.802C308.448 229.485 307.862 229.153 307.286 228.795C307.301 228.613 307.327 228.431 307.353 228.25C307.41 227.85 307.457 227.445 307.488 227.045C307.692 224.236 307.183 221.422 306.009 218.862V218.857C305.905 218.649 305.843 218.535 305.843 218.535C305.843 218.535 307.353 217.237 309.507 218.535C309.644 218.616 309.766 218.722 309.865 218.847C311.162 220.378 311.515 225.529 311.453 229.21Z" fill="#2F2E41"/>
<path d="M335.018 228.504C334.997 229.085 334.966 229.693 334.93 230.311V230.316C334.925 230.321 334.914 230.321 334.909 230.326C333.734 230.889 332.522 231.369 331.281 231.765C331.276 231.765 331.271 231.77 331.266 231.77L331.209 230.311L331.204 230.119L330.929 223.016C330.921 222.855 330.947 222.694 331.003 222.544C331.059 222.393 331.146 222.255 331.257 222.139C331.368 222.022 331.501 221.93 331.649 221.866C331.797 221.803 331.956 221.77 332.117 221.77H334.748C334.878 221.77 334.971 222.035 335.034 222.512V222.517C335.161 224.511 335.156 226.511 335.018 228.504Z" fill="#2F2E41"/>
<path d="M316.307 194.251V202.454H318.205L320.621 199.865L320.297 202.454H328.689L328.17 199.865L329.208 202.454H330.546V194.251H316.307Z" fill="#2F2E41"/>
<path d="M315.013 203.963C315.37 203.963 315.66 203.432 315.66 202.776C315.66 202.121 315.37 201.589 315.013 201.589C314.655 201.589 314.365 202.121 314.365 202.776C314.365 203.432 314.655 203.963 315.013 203.963Z" fill="#A0616A"/>
<path d="M331.623 203.963C331.981 203.963 332.271 203.432 332.271 202.776C332.271 202.121 331.981 201.589 331.623 201.589C331.266 201.589 330.976 202.121 330.976 202.776C330.976 203.432 331.266 203.963 331.623 203.963Z" fill="#A0616A"/>
<path d="M339.745 227.408C339.31 227.736 338.858 228.057 338.401 228.359C338.261 228.452 338.126 228.54 337.986 228.623C337.483 228.945 336.974 229.246 336.455 229.532C336.248 229.646 336.04 229.755 335.833 229.864V224.143C335.833 224.143 336.663 224.807 337.986 225.913C338.152 226.053 338.324 226.199 338.505 226.354C338.889 226.676 339.304 227.029 339.745 227.408Z" fill="#198262"/>
<path d="M349.284 195.726C347.901 191.753 345.67 188.13 342.744 185.108C339.818 182.087 336.269 179.741 332.343 178.233C328.418 176.725 324.211 176.092 320.016 176.377C315.821 176.663 311.739 177.861 308.054 179.888C304.37 181.914 301.171 184.721 298.682 188.111C296.192 191.501 294.472 195.394 293.641 199.518C292.81 203.642 292.888 207.898 293.87 211.988C294.851 216.079 296.713 219.906 299.325 223.203C299.585 223.53 299.854 223.857 300.129 224.174C300.15 224.195 300.166 224.215 300.186 224.236C300.863 225.016 301.582 225.758 302.34 226.458C302.537 226.64 302.745 226.827 302.952 227.003C303.347 227.357 303.752 227.694 304.172 228.016C304.993 228.663 305.849 229.265 306.736 229.818L306.767 229.833C307.343 230.191 307.929 230.524 308.526 230.84L308.77 230.965C309.33 231.256 309.901 231.531 310.487 231.785C310.607 231.837 310.737 231.889 310.856 231.941C310.866 231.946 310.872 231.946 310.882 231.952C312.067 232.444 313.284 232.856 314.525 233.182C316.958 233.831 319.464 234.159 321.982 234.158C322.901 234.158 323.809 234.117 324.706 234.028C326.758 233.839 328.783 233.43 330.747 232.808C330.752 232.808 330.757 232.803 330.763 232.803C332.003 232.408 333.215 231.927 334.39 231.365C334.395 231.36 334.406 231.36 334.411 231.354C334.675 231.23 334.93 231.095 335.189 230.965L335.314 230.903C335.521 230.794 335.729 230.685 335.936 230.57C336.455 230.285 336.964 229.984 337.467 229.662C337.608 229.579 337.742 229.49 337.882 229.397C338.339 229.096 338.791 228.774 339.226 228.447C339.305 228.39 339.387 228.333 339.465 228.27C344.327 224.578 347.896 219.441 349.659 213.594C351.423 207.748 351.292 201.493 349.284 195.726ZM338.51 227.009C338.339 227.144 338.163 227.273 337.986 227.393C337.815 227.523 337.644 227.647 337.467 227.762C337.317 227.871 337.166 227.974 337.011 228.073C336.881 228.161 336.751 228.244 336.621 228.327C336.191 228.597 335.755 228.857 335.314 229.106C335.267 229.132 335.22 229.158 335.173 229.184C334.976 229.293 334.779 229.397 334.582 229.501C334.556 229.516 334.525 229.527 334.499 229.542L334.468 229.558C334.219 229.688 333.965 229.812 333.71 229.932C332.729 230.405 331.718 230.814 330.685 231.157C330.55 231.204 330.415 231.251 330.28 231.292C328.421 231.884 326.504 232.274 324.561 232.455C323.71 232.533 322.849 232.575 321.982 232.575C319.601 232.579 317.229 232.269 314.93 231.65C313.749 231.342 312.593 230.95 311.468 230.477C311.349 230.43 311.23 230.378 311.115 230.332C311.053 230.306 310.996 230.28 310.934 230.249C310.446 230.036 309.963 229.802 309.491 229.558L309.263 229.439C308.687 229.137 308.121 228.816 307.571 228.473C307.369 228.348 307.166 228.218 306.969 228.083C306.346 227.673 305.739 227.232 305.148 226.77C304.748 226.469 304.364 226.147 303.99 225.815C303.793 225.648 303.601 225.467 303.414 225.295C302.679 224.615 301.982 223.894 301.328 223.135C301.11 222.886 300.897 222.637 300.695 222.377C300.649 222.326 300.606 222.272 300.565 222.216C297.194 217.959 295.165 212.794 294.74 207.379C294.314 201.965 295.51 196.546 298.175 191.814C300.84 187.082 304.853 183.251 309.703 180.81C314.552 178.37 320.019 177.429 325.405 178.11C330.791 178.79 335.852 181.06 339.944 184.63C344.035 188.2 346.971 192.908 348.377 198.154C349.783 203.4 349.596 208.946 347.838 214.086C346.081 219.225 342.834 223.724 338.51 227.009Z" fill="#3F3D56"/>
<path d="M347.656 193.459C348.373 193.198 349.025 192.784 349.564 192.245C350.104 191.705 350.519 191.054 350.78 190.337C351.042 189.62 351.142 188.854 351.076 188.094C351.009 187.333 350.776 186.597 350.394 185.936L362.516 171.895L352.96 170.651L342.914 184.175C341.847 184.891 341.08 185.973 340.757 187.217C340.435 188.461 340.579 189.78 341.164 190.924C341.748 192.068 342.732 192.958 343.928 193.426C345.125 193.893 346.451 193.904 347.656 193.459V193.459Z" fill="#FFB8B8"/>
<path d="M415.982 196.425C416.485 195.851 416.856 195.174 417.069 194.441C417.282 193.708 417.332 192.938 417.215 192.183C417.098 191.429 416.817 190.71 416.392 190.076C415.968 189.442 415.409 188.909 414.756 188.514L418.609 170.365L409.638 173.885L407.354 190.58C406.764 191.721 406.613 193.04 406.93 194.285C407.247 195.53 408.009 196.616 409.073 197.337C410.136 198.057 411.427 198.363 412.7 198.195C413.974 198.027 415.141 197.397 415.982 196.425Z" fill="#FFB8B8"/>
<path d="M372.565 291.011L366.203 291.01L363.176 266.458L372.566 266.459L372.565 291.011Z" fill="#FFB8B8"/>
<path d="M374.188 297.181L353.673 297.18V296.921C353.673 295.872 353.88 294.833 354.281 293.864C354.682 292.894 355.271 292.014 356.012 291.272C356.754 290.53 357.634 289.942 358.603 289.54C359.571 289.139 360.61 288.932 361.658 288.932H361.659L374.188 288.933L374.188 297.181Z" fill="#2F2E41"/>
<path d="M403.702 291.011L397.339 291.01L394.313 266.458L403.703 266.459L403.702 291.011Z" fill="#FFB8B8"/>
<path d="M405.324 297.181L384.81 297.18V296.921C384.81 295.872 385.017 294.833 385.418 293.864C385.819 292.894 386.407 292.014 387.149 291.272C387.89 290.53 388.77 289.942 389.739 289.54C390.708 289.139 391.746 288.932 392.795 288.932H392.795L405.324 288.933L405.324 297.181Z" fill="#2F2E41"/>
<path d="M373.228 278.19L364.222 277.83C363.607 277.803 363.028 277.536 362.609 277.086C362.19 276.636 361.964 276.039 361.981 275.424L364.518 192.154L364.684 192.094C380.468 186.381 393.526 186.813 404.604 193.413L404.728 193.487L406.248 274.588C406.254 274.899 406.198 275.207 406.083 275.496C405.969 275.785 405.798 276.047 405.58 276.269C405.363 276.491 405.103 276.667 404.817 276.787C404.531 276.907 404.224 276.969 403.913 276.969H396.319C395.778 276.968 395.254 276.78 394.836 276.436C394.419 276.092 394.133 275.614 394.028 275.083L383.682 222.431C383.647 222.249 383.547 222.086 383.402 221.97C383.257 221.855 383.075 221.796 382.89 221.803C382.705 221.809 382.528 221.882 382.392 222.008C382.255 222.133 382.168 222.303 382.146 222.488L375.639 276.137C375.568 276.703 375.293 277.223 374.866 277.601C374.44 277.979 373.89 278.189 373.32 278.192C373.29 278.192 373.259 278.191 373.228 278.19Z" fill="#2F2E41"/>
<path d="M381.989 119.129C389.029 119.129 394.735 113.419 394.735 106.377C394.735 99.3337 389.029 93.6243 381.989 93.6243C374.95 93.6243 369.244 99.3337 369.244 106.377C369.244 113.419 374.95 119.129 381.989 119.129Z" fill="#FFB8B8"/>
<path d="M351.963 183.323C351.521 183.148 351.143 182.843 350.878 182.447L348.416 178.76C348.15 178.36 348.013 177.888 348.024 177.408C348.035 176.928 348.193 176.463 348.477 176.076L358.406 162.593L364.626 132.733C364.983 131.811 365.519 130.969 366.203 130.255C366.886 129.54 367.704 128.967 368.608 128.569C369.513 128.171 370.487 127.955 371.476 127.933C372.464 127.912 373.447 128.086 374.368 128.444C375.289 128.803 376.13 129.34 376.844 130.025C377.558 130.709 378.129 131.527 378.527 132.433C378.924 133.338 379.139 134.313 379.159 135.302C379.18 136.291 379.005 137.274 378.646 138.195L375.706 157.199C374.815 162.967 371.86 168.215 367.391 171.966L354.321 182.939C354.07 183.15 353.777 183.305 353.461 183.395C353.146 183.486 352.815 183.508 352.49 183.462C352.31 183.437 352.133 183.39 351.963 183.323Z" fill="#3F3D56"/>
<path d="M415.438 184.676C414.99 184.837 414.505 184.858 414.045 184.736L409.762 183.596C409.298 183.472 408.884 183.208 408.575 182.84C408.267 182.472 408.078 182.019 408.036 181.541L406.584 164.857L391.534 138.331C391.194 137.402 391.04 136.416 391.08 135.427C391.121 134.439 391.357 133.469 391.773 132.571C392.189 131.674 392.777 130.868 393.505 130.198C394.233 129.529 395.085 129.009 396.014 128.67C396.943 128.33 397.929 128.177 398.917 128.219C399.904 128.261 400.874 128.497 401.77 128.915C402.667 129.332 403.472 129.922 404.14 130.651C404.809 131.38 405.327 132.233 405.665 133.163L416.008 149.371C419.148 154.29 420.396 160.182 419.518 165.952L416.954 182.829C416.905 183.153 416.788 183.464 416.61 183.74C416.433 184.016 416.2 184.252 415.926 184.432C415.773 184.532 415.609 184.614 415.438 184.676Z" fill="#3F3D56"/>
<path d="M368.048 129.023C370.238 126.621 372.938 124.741 375.95 123.523C378.962 122.304 382.209 121.778 385.452 121.983C385.665 121.996 385.877 122.011 386.089 122.027H386.089C389.162 122.27 392.149 123.167 394.848 124.658C397.547 126.148 399.897 128.198 401.74 130.67C403.615 133.177 404.933 136.055 405.606 139.112C406.28 142.17 406.293 145.335 405.645 148.398C403.174 160.103 403.799 172.251 407.46 183.64L410.879 194.263C410.989 194.603 411.019 194.964 410.967 195.318C410.915 195.672 410.783 196.009 410.58 196.303C410.377 196.598 410.11 196.842 409.798 197.017C409.486 197.191 409.138 197.292 408.781 197.311L391.301 198.252L386.827 190.521V198.492L365.581 199.635C365.539 199.638 365.497 199.639 365.455 199.639C365.133 199.638 364.814 199.572 364.519 199.442C364.223 199.313 363.958 199.123 363.74 198.886C363.521 198.649 363.354 198.369 363.249 198.064C363.143 197.76 363.103 197.436 363.128 197.115L365.53 167.321L362.518 147.087C362.03 143.853 362.274 140.552 363.231 137.426C364.188 134.3 365.834 131.428 368.048 129.023Z" fill="#3F3D56"/>
<path d="M390.848 118.55C389.668 119.23 385.003 119.68 384.671 118.359L384.664 118.33C384.432 117.362 384.625 116.352 384.691 115.359C384.757 114.366 384.66 113.275 383.984 112.545C382.724 111.184 380.483 111.905 378.661 111.561C377.594 111.323 376.65 110.704 376.006 109.819C375.362 108.935 375.062 107.846 375.163 106.757C375.189 106.551 375.23 106.344 375.275 106.138C375.389 105.614 375.38 105.072 375.25 104.553C375.119 104.034 374.869 103.552 374.521 103.145C374.173 102.739 373.735 102.418 373.242 102.21C372.749 102.001 372.215 101.909 371.681 101.942C369.839 102.047 367.852 102.605 366.328 101.241C365.15 100.186 364.863 97.4389 365.381 95.9442C366.25 93.4321 371.823 92.1169 374.256 91.394C377.264 90.5242 380.429 90.3361 383.52 90.8435C386.611 91.3509 389.55 92.541 392.123 94.3273C393.66 95.411 395.095 96.7727 395.75 98.5359C396.405 100.299 396.089 102.524 394.612 103.687C395.757 104.9 396.563 106.393 396.949 108.015C397.336 109.638 397.29 111.334 396.815 112.933C396.086 115.284 392.604 117.539 390.848 118.55Z" fill="#2F2E41"/>
<path d="M428.481 298H317.946C317.809 298 317.677 297.945 317.579 297.848C317.482 297.751 317.427 297.619 317.427 297.481C317.427 297.343 317.482 297.211 317.579 297.114C317.677 297.016 317.809 296.962 317.946 296.962H428.481C428.619 296.962 428.751 297.016 428.848 297.114C428.945 297.211 429 297.343 429 297.481C429 297.619 428.945 297.751 428.848 297.848C428.751 297.945 428.619 298 428.481 298Z" fill="#CCCCCC"/>
</svg>
