<svg width="359" height="177" viewBox="0 0 359 177" fill="none" xmlns="http://www.w3.org/2000/svg">
<g clip-path="url(#clip0)">
<path d="M205.849 173.215C203.627 173.213 201.497 172.333 199.926 170.768C198.355 169.203 197.473 167.082 197.473 164.869C197.473 162.657 198.355 160.535 199.926 158.97C201.497 157.405 203.627 156.525 205.849 156.523H330.347C329.721 155.379 328.796 154.423 327.671 153.757C326.546 153.091 325.261 152.739 323.952 152.738H76.4837C73.2551 152.742 70.16 154.022 67.8784 156.296C65.5969 158.571 64.3155 161.654 64.3159 164.869C64.3176 168.083 65.5996 171.166 67.8807 173.44C70.1618 175.714 73.2557 176.994 76.4837 177H323.952C325.261 176.999 326.546 176.647 327.671 175.981C328.796 175.315 329.721 174.359 330.347 173.215L205.849 173.215Z" fill="#CCCCCC"/>
<path d="M330.512 161.122H212.143C211.962 161.122 211.789 161.05 211.661 160.922C211.533 160.794 211.461 160.621 211.461 160.441C211.461 160.26 211.533 160.087 211.661 159.96C211.789 159.832 211.962 159.76 212.143 159.76H330.512C330.693 159.76 330.867 159.832 330.995 159.96C331.123 160.087 331.195 160.26 331.195 160.441C331.195 160.621 331.123 160.794 330.995 160.922C330.867 161.05 330.693 161.122 330.512 161.122Z" fill="#CCCCCC"/>
<path d="M330.512 165.55H212.144C211.962 165.55 211.788 165.479 211.66 165.351C211.532 165.223 211.459 165.05 211.459 164.869C211.459 164.688 211.532 164.515 211.66 164.387C211.788 164.26 211.962 164.188 212.144 164.188H330.512C330.694 164.188 330.868 164.26 330.996 164.387C331.124 164.515 331.196 164.688 331.196 164.869C331.196 165.05 331.124 165.223 330.996 165.351C330.868 165.479 330.694 165.55 330.512 165.55Z" fill="#CCCCCC"/>
<path d="M330.512 169.979H212.143C211.962 169.978 211.789 169.906 211.661 169.779C211.533 169.651 211.461 169.478 211.461 169.297C211.461 169.117 211.533 168.944 211.661 168.816C211.789 168.689 211.962 168.617 212.143 168.616H330.512C330.693 168.617 330.867 168.689 330.995 168.816C331.123 168.944 331.195 169.117 331.195 169.297C331.195 169.478 331.123 169.651 330.995 169.779C330.867 169.906 330.693 169.978 330.512 169.979Z" fill="#CCCCCC"/>
<path d="M173.691 149.711C171.469 149.709 169.338 148.829 167.768 147.264C166.197 145.699 165.315 143.577 165.315 141.365C165.315 139.152 166.197 137.031 167.768 135.466C169.338 133.901 171.469 133.021 173.691 133.019H298.189C297.562 131.875 296.638 130.919 295.513 130.253C294.388 129.587 293.103 129.235 291.794 129.234H44.3257C41.0971 129.238 38.002 130.517 35.7204 132.792C33.4388 135.067 32.1574 138.15 32.1577 141.365C32.1594 144.579 33.4414 147.661 35.7226 149.936C38.0037 152.21 41.0977 153.49 44.3257 153.496H291.794C293.103 153.495 294.388 153.143 295.513 152.477C296.638 151.811 297.562 150.855 298.189 149.711L173.691 149.711Z" fill="#198262"/>
<path d="M298.354 137.618H179.985C179.804 137.617 179.631 137.545 179.503 137.418C179.375 137.29 179.303 137.117 179.303 136.937C179.303 136.756 179.375 136.583 179.503 136.455C179.631 136.328 179.804 136.256 179.985 136.255H298.354C298.535 136.255 298.709 136.327 298.838 136.455C298.966 136.583 299.038 136.756 299.038 136.937C299.038 137.117 298.966 137.291 298.838 137.418C298.709 137.546 298.535 137.618 298.354 137.618Z" fill="#CCCCCC"/>
<path d="M298.354 142.046H179.986C179.805 142.046 179.63 141.974 179.502 141.847C179.374 141.719 179.302 141.546 179.302 141.365C179.302 141.184 179.374 141.011 179.502 140.883C179.63 140.755 179.805 140.684 179.986 140.684H298.354C298.536 140.684 298.71 140.755 298.838 140.883C298.967 141.011 299.039 141.184 299.039 141.365C299.039 141.546 298.967 141.719 298.838 141.847C298.71 141.974 298.536 142.046 298.354 142.046Z" fill="#CCCCCC"/>
<path d="M298.354 146.475H179.985C179.804 146.474 179.631 146.402 179.503 146.274C179.375 146.147 179.303 145.974 179.303 145.793C179.303 145.613 179.375 145.44 179.503 145.312C179.631 145.184 179.804 145.112 179.985 145.112H298.354C298.444 145.112 298.533 145.129 298.616 145.163C298.699 145.198 298.775 145.248 298.839 145.311C298.902 145.374 298.953 145.449 298.987 145.532C299.022 145.615 299.04 145.704 299.04 145.793C299.04 145.883 299.022 145.972 298.987 146.054C298.953 146.137 298.902 146.212 298.839 146.276C298.775 146.339 298.699 146.389 298.616 146.423C298.533 146.457 298.444 146.475 298.354 146.475Z" fill="#CCCCCC"/>
<path d="M141.533 125.422C139.311 125.421 137.181 124.541 135.61 122.976C134.039 121.411 133.157 119.289 133.157 117.076C133.157 114.864 134.039 112.742 135.61 111.177C137.181 109.612 139.311 108.732 141.533 108.731H266.031C265.405 107.586 264.48 106.631 263.355 105.965C262.23 105.299 260.946 104.946 259.637 104.945H12.1678C8.93918 104.949 5.84406 106.229 3.56251 108.503C1.28095 110.778 -0.000401704 113.862 9.44665e-08 117.076C0.00163356 120.291 1.28364 123.373 3.56475 125.647C5.84587 127.921 8.93981 129.202 12.1678 129.207H259.637C260.946 129.206 262.23 128.854 263.355 128.188C264.48 127.522 265.405 126.567 266.031 125.422L141.533 125.422Z" fill="#CCCCCC"/>
<path d="M266.196 113.329H147.828C147.646 113.329 147.473 113.257 147.345 113.129C147.217 113.001 147.145 112.828 147.145 112.648C147.145 112.468 147.217 112.295 147.345 112.167C147.473 112.039 147.646 111.967 147.828 111.967H266.196C266.377 111.967 266.552 112.039 266.68 112.166C266.808 112.294 266.88 112.467 266.88 112.648C266.88 112.829 266.808 113.002 266.68 113.13C266.552 113.258 266.377 113.329 266.196 113.329Z" fill="#CCCCCC"/>
<path d="M266.196 117.758H147.828C147.738 117.758 147.649 117.74 147.566 117.706C147.483 117.672 147.407 117.621 147.344 117.558C147.28 117.495 147.23 117.42 147.196 117.337C147.161 117.254 147.144 117.166 147.144 117.076C147.144 116.987 147.161 116.898 147.196 116.816C147.23 116.733 147.28 116.658 147.344 116.595C147.407 116.531 147.483 116.481 147.566 116.447C147.649 116.413 147.738 116.395 147.828 116.395H266.196C266.286 116.395 266.375 116.413 266.458 116.447C266.541 116.481 266.616 116.531 266.68 116.595C266.744 116.658 266.794 116.733 266.828 116.816C266.863 116.898 266.88 116.987 266.88 117.076C266.88 117.166 266.863 117.254 266.828 117.337C266.794 117.42 266.744 117.495 266.68 117.558C266.616 117.621 266.541 117.672 266.458 117.706C266.375 117.74 266.286 117.758 266.196 117.758Z" fill="#CCCCCC"/>
<path d="M266.196 122.186H147.828C147.646 122.186 147.472 122.114 147.344 121.986C147.216 121.859 147.144 121.685 147.144 121.505C147.144 121.324 147.216 121.151 147.344 121.023C147.472 120.895 147.646 120.823 147.828 120.823H266.196C266.286 120.823 266.375 120.841 266.458 120.875C266.541 120.91 266.616 120.96 266.68 121.023C266.744 121.086 266.794 121.161 266.828 121.244C266.863 121.327 266.88 121.415 266.88 121.505C266.88 121.594 266.863 121.683 266.828 121.765C266.794 121.848 266.744 121.923 266.68 121.986C266.616 122.05 266.541 122.1 266.458 122.134C266.375 122.168 266.286 122.186 266.196 122.186Z" fill="#CCCCCC"/>
<path d="M268.93 73.6077C268.281 73.6067 267.656 73.3601 267.183 72.9178C266.709 72.4755 266.422 71.8706 266.379 71.2255L266 65.4502C265.955 64.7757 266.182 64.1112 266.629 63.6029C267.077 63.0947 267.709 62.7844 268.387 62.7402L313.828 59.777C314.544 59.7303 315.262 59.8245 315.942 60.0543C316.622 60.2841 317.249 60.645 317.789 61.1163C318.329 61.5875 318.77 62.1601 319.087 62.8011C319.405 63.4422 319.592 64.1392 319.639 64.8524C319.686 65.5657 319.591 66.2811 319.361 66.9579C319.13 67.6347 318.768 68.2596 318.294 68.797C317.821 69.3343 317.246 69.7736 316.602 70.0897C315.958 70.4058 315.258 70.5925 314.542 70.6392L269.101 73.6022C269.044 73.6058 268.987 73.6076 268.93 73.6077Z" fill="#198262"/>
<path d="M277.89 74.3523C277.228 74.3512 276.592 74.0952 276.115 73.6378C275.639 73.1804 275.358 72.5571 275.333 71.8985L275.009 63.2725C274.997 62.938 275.05 62.6043 275.167 62.2905C275.284 61.9767 275.462 61.6889 275.691 61.4436C275.919 61.1982 276.194 61.0001 276.5 60.8606C276.806 60.7211 277.136 60.6429 277.472 60.6304L314.839 59.2398C315.517 59.2145 316.178 59.4587 316.676 59.9185C317.173 60.3783 317.467 61.0162 317.493 61.6917L317.816 70.3177C317.829 70.6522 317.775 70.9859 317.658 71.2997C317.541 71.6135 317.363 71.9012 317.135 72.1466C316.906 72.3919 316.631 72.59 316.326 72.7296C316.02 72.8691 315.69 72.9473 315.354 72.9598L277.987 74.3504C277.954 74.3517 277.922 74.3523 277.89 74.3523Z" fill="#2F2E41"/>
<path d="M321.679 153.868H315.866C315.187 153.867 314.537 153.599 314.057 153.121C313.577 152.643 313.307 151.995 313.306 151.319V103.082C313.307 102.406 313.577 101.759 314.057 101.281C314.537 100.803 315.187 100.534 315.866 100.533H321.679C322.357 100.534 323.008 100.803 323.488 101.281C323.968 101.759 324.238 102.406 324.238 103.082V151.319C324.238 151.995 323.968 152.643 323.488 153.121C323.008 153.599 322.357 153.867 321.679 153.868Z" fill="#2F2E41"/>
<path d="M295.879 128.37L290.908 125.37C290.328 125.019 289.912 124.454 289.75 123.797C289.588 123.141 289.695 122.448 290.046 121.869L315.157 80.6185C315.51 80.041 316.078 79.6263 316.737 79.4654C317.396 79.3045 318.092 79.4104 318.673 79.76L323.644 82.76C324.224 83.111 324.64 83.6766 324.802 84.333C324.963 84.9893 324.857 85.6826 324.506 86.2609L299.395 127.512C299.042 128.089 298.474 128.504 297.815 128.665C297.156 128.826 296.46 128.72 295.879 128.37Z" fill="#2F2E41"/>
<path d="M312.85 50.1926C323.942 50.1926 332.934 41.239 332.934 30.1941C332.934 19.1492 323.942 10.1956 312.85 10.1956C301.758 10.1956 292.766 19.1492 292.766 30.1941C292.766 41.239 301.758 50.1926 312.85 50.1926Z" fill="#198262"/>
<path d="M301.978 37.0222C301.332 36.8108 300.739 36.4642 300.239 36.0055C299.908 35.6781 299.652 35.2824 299.49 34.8462C299.329 34.4101 299.265 33.944 299.303 33.4806C299.324 33.1505 299.421 32.8296 299.587 32.5432C299.754 32.2567 299.984 32.0124 300.261 31.8293C300.979 31.3706 301.94 31.3692 302.918 31.7984L302.881 23.9913L303.668 23.9875L303.712 33.1656L303.105 32.7855C302.401 32.3455 301.396 32.0358 300.686 32.4895C300.511 32.6094 300.365 32.7679 300.261 32.9528C300.157 33.1377 300.098 33.344 300.087 33.5557C300.06 33.9008 300.109 34.2476 300.229 34.5725C300.349 34.8974 300.538 35.1926 300.783 35.4382C301.653 36.2654 302.922 36.5241 304.369 36.7553L304.244 37.5296C303.475 37.4282 302.717 37.2584 301.978 37.0222Z" fill="#2F2E41"/>
<path d="M294.762 23.5969L294.659 24.3743L298.864 24.9273L298.967 24.1499L294.762 23.5969Z" fill="#2F2E41"/>
<path d="M308.036 25.342L307.933 26.1194L312.139 26.6725L312.242 25.8951L308.036 25.342Z" fill="#2F2E41"/>
<path d="M329.621 116.024H295.753C294.866 116.023 294.015 115.672 293.387 115.047C292.76 114.422 292.407 113.575 292.406 112.691L299.496 58.5524C299.502 57.6727 299.857 56.8311 300.484 56.2113C301.111 55.5915 301.958 55.2439 302.842 55.2446H314.861C319.662 55.25 324.264 57.1513 327.659 60.5314C331.053 63.9115 332.963 68.4944 332.968 73.2746V112.691C332.967 113.575 332.614 114.422 331.987 115.047C331.359 115.672 330.508 116.023 329.621 116.024Z" fill="#2F2E41"/>
<path d="M358.76 94.6913C358.969 95.1371 359.044 95.6337 358.977 96.1211C358.909 96.6086 358.701 97.0662 358.379 97.4389L354.579 101.818C354.359 102.072 354.091 102.279 353.791 102.43C353.49 102.58 353.163 102.67 352.828 102.694C352.493 102.719 352.156 102.677 351.837 102.572C351.518 102.466 351.223 102.3 350.968 102.081L316.509 72.437C315.966 71.9698 315.52 71.4006 315.198 70.7619C314.875 70.1232 314.683 69.4276 314.63 68.7147C314.578 68.0017 314.667 67.2855 314.893 66.6069C315.119 65.9284 315.476 65.3007 315.946 64.7598C316.415 64.2189 316.987 63.7753 317.628 63.4545C318.27 63.1336 318.968 62.9417 319.684 62.8898C320.4 62.8378 321.12 62.9268 321.801 63.1517C322.483 63.3765 323.113 63.7329 323.656 64.2003L358.115 93.8438C358.388 94.0778 358.607 94.3666 358.76 94.6913Z" fill="#198262"/>
<path d="M351.154 84.9086C351.364 85.3544 351.439 85.8509 351.371 86.3384C351.304 86.8258 351.096 87.2835 350.773 87.6561L344.283 95.1366C343.838 95.6474 343.209 95.9619 342.532 96.0111C341.855 96.0603 341.186 95.8401 340.672 95.3989L312.377 71.0572C312.122 70.8384 311.914 70.5718 311.763 70.2727C311.612 69.9736 311.521 69.6479 311.497 69.314C311.473 68.9802 311.514 68.6448 311.62 68.3271C311.726 68.0093 311.893 67.7154 312.113 67.4622L318.604 59.9818C318.823 59.7285 319.091 59.5208 319.391 59.3705C319.692 59.2202 320.019 59.1304 320.354 59.106C320.689 59.0816 321.026 59.1233 321.345 59.2285C321.664 59.3338 321.96 59.5006 322.214 59.7195L350.51 84.0611C350.782 84.2952 351.002 84.584 351.154 84.9086Z" fill="#2F2E41"/>
<path d="M313.226 18.333C310.541 16.1206 306.952 18.213 303.916 17.9161C301.011 17.6319 298.673 15.0865 298.036 12.3474C297.292 9.15167 298.904 5.90549 301.331 3.85835C303.989 1.61623 307.558 0.919487 310.959 1.26066C314.857 1.65169 318.449 3.38955 321.682 5.51261C324.801 7.4966 327.68 9.83334 330.26 12.4762C332.572 14.9236 334.547 17.8556 335.224 21.1949C335.839 24.2297 335.478 27.6124 333.719 30.2264C332.786 31.5667 331.521 32.645 330.047 33.357C328.511 34.1444 326.868 34.7176 325.382 35.603C323.136 36.9419 320.98 39.6706 321.745 42.4533C321.909 43.0613 322.221 43.6197 322.653 44.0795C323.172 44.6316 324.074 43.872 323.554 43.3184C322.64 42.3461 322.65 41.0263 323.104 39.8362C323.646 38.4947 324.629 37.3762 325.893 36.6638C327.448 35.7391 329.173 35.1538 330.769 34.308C332.297 33.5341 333.615 32.404 334.61 31.0139C336.488 28.3087 336.999 24.8246 336.5 21.6199C335.96 18.1519 334.106 15.0264 331.806 12.4213C329.304 9.58617 326.251 7.204 323.138 5.07099C319.797 2.78223 316.118 0.863407 312.075 0.22071C308.571 -0.336408 304.793 0.118884 301.775 2.0718C298.958 3.89472 296.83 6.9791 296.677 10.3835C296.629 11.9321 296.995 13.4656 297.74 14.8262C298.484 16.1868 299.579 17.3253 300.912 18.1246C302.279 18.9044 303.857 19.2372 305.424 19.076C307.1 18.9373 308.77 18.3939 310.461 18.504C311.226 18.5357 311.96 18.8149 312.552 19.2992C313.138 19.7826 313.808 18.8124 313.226 18.333Z" fill="#2F2E41"/>
<path d="M289.61 122.566C289.617 122.522 289.625 122.478 289.635 122.434C289.705 122.106 289.839 121.796 290.031 121.521C290.222 121.245 290.466 121.01 290.75 120.83L295.634 117.693C296.205 117.327 296.898 117.202 297.561 117.344C298.225 117.487 298.804 117.886 299.173 118.453L314.24 141.714C314.608 142.282 314.735 142.972 314.591 143.633C314.448 144.294 314.047 144.871 313.477 145.237L308.592 148.374C308.021 148.74 307.328 148.865 306.665 148.723C306.002 148.58 305.422 148.181 305.054 147.614L289.986 124.353C289.641 123.825 289.507 123.188 289.61 122.566Z" fill="#2F2E41"/>
</g>
<defs>
<clipPath id="clip0">
<rect width="359" height="177" fill="white"/>
</clipPath>
</defs>
</svg>
